<?xml version="1.0" encoding="UTF-8"?>
<!DOCTYPE svg PUBLIC "-//W3C//DTD SVG 1.1//EN" "http://www.w3.org/Graphics/SVG/1.1/DTD/svg11.dtd">
<!-- Creator: CorelDRAW X6 -->
<svg xmlns="http://www.w3.org/2000/svg" xml:space="preserve" width="20.3628mm" height="27.2006mm" version="1.1" shape-rendering="geometricPrecision" text-rendering="geometricPrecision" image-rendering="optimizeQuality" fill-rule="evenodd" clip-rule="evenodd"
viewBox="0 0 853 1139"
 xmlns:xlink="http://www.w3.org/1999/xlink">
 <g id="Layer_x0020_1">
  <metadata id="CorelCorpID_0Corel-Layer"/>
  <g id="_849307664">
   <path fill="none" fill-rule="nonzero" d="M163 1129c31,-10 53,-32 53,-67"/>
   <path fill="none" fill-rule="nonzero" d="M359 1007c0,-39 -32,-58 -67,-58"/>
   <path fill="#2B2A29" fill-rule="nonzero" d="M60 939c4,-1 13,-2 19,-3 -1,5 -2,17 -5,33 -4,30 -13,95 -21,142 19,5 39,8 57,8 51,0 93,-21 93,-67 0,-21 -10,-38 -39,-47 19,-7 38,-20 38,-48 0,-31 -27,-50 -71,-50 -18,0 -40,3 -61,9 -5,3 -9,15 -10,23l0 0zm98 116c0,23 -18,37 -40,37 -6,0 -15,0 -18,-2 0,-9 6,-47 9,-67 4,-1 8,-1 11,-1 21,0 38,11 38,33l0 0zm3 -93c0,20 -14,31 -30,34 -6,1 -16,1 -19,1 2,-15 6,-45 8,-62 4,-1 8,-1 11,-1 17,0 30,11 30,28l0 0z"/>
   <path fill="#2B2A29" fill-rule="nonzero" d="M288 991c8,0 11,7 11,12 0,13 -14,27 -44,29 5,-28 20,-41 32,-41l1 0zm6 -25c-51,0 -83,49 -83,97 0,34 15,57 51,57 29,0 48,-11 58,-21 3,-4 6,-11 6,-18 0,-7 -2,-11 -5,-13 -10,9 -26,20 -45,20 -16,0 -23,-10 -23,-26 0,-1 0,-3 0,-4 30,-2 82,-17 82,-57 0,-20 -14,-35 -40,-35l-1 0z"/>
   <path fill="#2B2A29" fill-rule="nonzero" d="M429 1001c8,0 12,9 12,20 0,27 -14,71 -48,71 -7,0 -13,-2 -17,-5 1,-6 1,-7 2,-14 8,-43 32,-72 51,-72l0 0zm-40 119c62,0 95,-49 95,-105 0,-25 -11,-49 -35,-49 -26,0 -49,19 -61,37 5,-33 13,-86 14,-100 1,-8 -7,-11 -11,-11 -7,0 -19,1 -31,4 0,6 -1,14 -5,47 -5,40 -20,141 -22,156 14,16 37,21 56,21l0 0z"/>
   <path fill="#2B2A29" fill-rule="nonzero" d="M534 1013c3,-15 12,-51 -11,-46 -10,2 -22,5 -26,7 1,6 0,21 -1,29 -3,32 -12,88 -17,115 14,-1 43,1 45,-17 14,-75 36,-93 48,-93 5,0 10,2 14,4 8,-8 16,-30 15,-41 -3,-3 -10,-6 -14,-6 -13,0 -34,9 -52,48l-1 0z"/>
   <path fill="#2B2A29" fill-rule="nonzero" d="M634 1088c-6,0 -10,-7 -10,-21 0,-16 5,-36 16,-52 11,-16 24,-19 36,-19 5,0 10,1 14,2 -1,3 -1,4 -2,8 -8,54 -37,82 -53,82l-1 0zm-53 -14c0,32 13,48 32,48 27,0 52,-18 65,-40 0,3 -1,9 -1,14 -3,31 10,33 40,20 -1,-7 0,-26 1,-39 4,-32 12,-87 15,-102 -13,-2 -34,-7 -50,-7 -23,0 -49,5 -70,27 -25,25 -32,59 -32,78l0 1z"/>
   <path fill="#2B2A29" fill-rule="nonzero" d="M800 972c-34,0 -58,23 -58,50 0,14 5,25 22,38 20,14 25,19 25,25 0,6 -7,11 -17,11 -12,0 -26,-4 -35,-9 -6,-3 -11,16 -5,26 4,7 19,13 35,13 40,0 62,-26 62,-50 0,-15 -6,-25 -22,-36 -22,-16 -27,-21 -27,-27 0,-8 8,-12 17,-12 7,0 12,1 16,3 12,4 19,-11 20,-21 -6,-6 -19,-11 -33,-11l0 0z"/>
   <path fill="none" fill-rule="nonzero" d="M99 1093c1,-10 7,-51 10,-71m-9 2c12,-2 25,-4 37,0 13,5 21,15 21,31l0 0c0,16 -8,27 -20,33 -13,6 -30,6 -42,0m16 -91c2,-14 6,-48 9,-64m-6 2c4,0 13,-1 16,-1 16,1 30,11 30,28l0 0c0,20 -14,31 -30,34 -6,0 -19,1 -23,1m-48 -58l0 0m-7 1c4,0 26,-4 31,-4m-5 0c-1,5 -2,17 -5,33 -4,30 -14,99 -21,146m-7 -6c19,6 46,10 64,10 51,0 93,-21 93,-67 0,-18 -7,-33 -27,-43 -4,-1 -13,-5 -18,-6m6 2c4,-2 8,-3 11,-5 15,-8 27,-20 27,-43 0,-31 -27,-50 -71,-50 -16,0 -35,2 -54,7 -12,3 -16,14 -17,31"/>
   <path fill="none" fill-rule="nonzero" d="M242 1059c6,0 23,-2 30,-4 28,-6 63,-22 63,-54 0,-20 -14,-35 -40,-35l-1 0c-51,0 -83,49 -83,97 1,34 16,57 51,57 20,0 52,-7 61,-27 4,-8 4,-21 -3,-27m6 -2c-2,2 -10,8 -13,10 -10,7 -23,12 -37,14 -18,1 -25,-8 -23,-26 0,-1 0,-3 0,-4m0 -20c5,-33 22,-47 34,-47l1 0c8,0 11,7 11,12 0,7 -5,15 -15,21 -8,4 -24,10 -41,10"/>
   <path fill="none" fill-rule="nonzero" d="M360 894c1,6 -1,16 -5,49 -5,37 -18,129 -22,152 0,2 0,5 -1,6m-5 -9c1,1 7,9 8,9 14,14 36,19 54,19l0 0c62,0 95,-49 95,-105 0,-25 -11,-49 -35,-49 -16,0 -31,7 -42,17 -8,6 -19,18 -26,28m7 -9c6,-33 13,-83 15,-97 3,-23 -40,-10 -53,-7m26 191c1,-6 1,-9 2,-16 8,-43 32,-72 51,-72l0 0c8,0 12,9 12,20 0,27 -14,71 -48,71 -10,0 -16,-5 -24,-11"/>
   <path fill="none" fill-rule="nonzero" d="M497 971c0,6 0,24 -1,32 -3,32 -13,92 -17,119m-7 -3c12,-1 49,0 52,-18 9,-50 22,-74 33,-85 10,-10 21,-10 33,-2m-12 8c10,-10 42,-57 9,-57 -13,0 -34,10 -52,48m0 0l-5 0m4 0c2,-11 11,-49 -9,-47 -11,2 -30,8 -36,10"/>
   <path fill="none" fill-rule="nonzero" d="M690 998c-1,6 -2,11 -3,17 -10,48 -37,73 -52,73l-1 0c-6,0 -10,-7 -10,-21 0,-16 5,-36 16,-52 11,-16 24,-19 36,-19 5,0 18,2 21,4m42 -24c-14,-2 -40,-8 -56,-8 -23,0 -49,5 -70,27 -25,25 -32,59 -32,78l0 1c0,32 13,48 32,48 26,0 50,-17 63,-37 1,-1 12,-13 5,-11 -4,1 -5,30 -4,36 2,14 11,17 32,9 5,-2 21,-10 27,-13m-19 17c-1,-7 0,-33 1,-46 4,-32 13,-91 16,-106"/>
   <path fill="none" fill-rule="nonzero" d="M740 1086c-7,-2 -14,18 -8,27 4,7 19,13 35,13 40,0 62,-26 62,-50 0,-15 -6,-25 -22,-36 -22,-16 -27,-21 -27,-27 0,-8 8,-12 17,-12 7,0 12,1 16,3 12,4 19,-13 19,-23m7 9c-11,-12 -25,-18 -39,-18l0 0c-34,0 -58,23 -58,50 0,14 5,25 22,38 20,14 25,19 25,25 0,6 -7,14 -17,11l-45 -12"/>
   <path fill="none" fill-rule="nonzero" d="M340 901c-1,0 -3,1 -4,1"/>
   <path fill="none" fill-rule="nonzero" d="M463 1118c-2,0 -3,0 -4,0"/>
   <path fill="none" fill-rule="nonzero" d="M567 1086c0,32 12,48 31,48"/>
   <path fill="none" fill-rule="nonzero" d="M778 1139c43,0 68,-28 68,-54"/>
  </g>
  <path fill="#00A0E3" d="M584 627c6,-16 9,-34 9,-54 0,-57 -28,-100 -102,-124 49,-17 98,-50 98,-125 0,-80 -69,-129 -184,-129 -48,0 -104,7 -158,22 -14,9 -25,39 -26,60l0 1c10,-2 33,-6 48,-7 -1,13 -6,44 -12,86 -8,58 -24,167 -39,270l0 0c-5,34 -10,68 -15,99 47,12 102,20 148,20 110,0 204,-38 233,-119l0 0zm-528 0l0 0c6,-67 12,-134 21,-200 9,-74 22,-148 40,-222l0 0 0 0 0 -1c2,-7 4,-15 7,-22 4,-7 7,-14 12,-21 21,-32 56,-53 97,-47 73,9 145,20 217,33 72,14 144,31 215,52l0 0 1 1 1 0c7,2 14,5 21,8 7,4 14,7 20,12 31,22 49,56 48,97 0,9 -1,13 -1,17 0,3 0,7 -1,14l0 0c-6,5 -13,9 -19,14l0 1 0 0 -2 1 0 0c-10,9 -18,18 -27,27 -8,10 -15,20 -22,30 -36,54 -53,116 -54,182l0 0 0 0 0 19 0 0 0 0 1 4 0 1c1,16 4,32 8,47 4,16 11,32 20,48 0,1 0,1 0,1l1 0 0 0c5,7 10,14 15,19 6,6 11,12 18,18 0,0 1,0 1,0l0 0 2 2c-13,18 -27,30 -44,39l0 0c-17,9 -36,12 -58,11l-1 0c-21,-1 -42,-2 -63,-3 -21,-1 -42,-2 -63,-4 -108,-8 -216,-19 -323,-35l0 0 0 0 0 0 0 0c-8,-2 -16,-4 -23,-6 -7,-3 -14,-7 -20,-11 -31,-21 -50,-60 -47,-101l2 -25zm273 0l0 0c5,-41 13,-96 18,-131 10,-2 21,-3 30,-3 55,0 99,30 99,86l0 1c0,18 -5,33 -12,47l0 0c-17,32 -52,50 -92,50 -18,0 -39,-1 -49,-5 1,-8 3,-25 6,-45zm154 -288c0,51 -36,80 -79,86 -16,3 -40,4 -49,3 5,-38 16,-117 22,-161 10,-2 20,-1 28,-1 45,0 78,27 78,72l0 1z"/>
  <path fill="#008CCB" d="M56 627l162 0c-5,34 -10,68 -15,99 47,12 102,20 148,20 110,0 204,-38 233,-119l47 0c1,16 4,32 8,47 4,16 11,32 20,48 0,1 0,1 0,1l1 0 0 0c5,7 10,14 15,19 6,6 11,12 18,18 0,0 1,0 1,0l0 0 2 2c-13,18 -27,30 -44,39l0 0c-17,9 -36,12 -58,11l-1 0c-21,-1 -42,-2 -63,-3 -21,-1 -42,-2 -63,-4 -108,-8 -216,-19 -323,-35l0 0 0 0 0 0 0 0c-8,-2 -16,-4 -23,-6 -7,-3 -14,-7 -20,-11 -31,-21 -50,-60 -47,-101l2 -25zm273 0l135 0c-17,32 -52,50 -92,50 -18,0 -39,-1 -49,-5 1,-8 3,-25 6,-45z"/>
  <path fill="#FEFEFE" fill-rule="nonzero" d="M221 278c10,-2 33,-6 48,-7 -1,13 -6,44 -12,86 -11,78 -35,246 -54,369 47,12 102,20 148,20 132,0 241,-54 242,-173 0,-57 -28,-100 -102,-124 49,-17 98,-50 98,-125 0,-80 -69,-129 -184,-129 -48,0 -104,7 -158,22 -14,9 -25,39 -26,60l0 1zm610 -77c-9,19 -32,48 -65,81 -8,-30 -25,-55 -50,-73 -7,-5 -14,-9 -22,-13 -7,-4 -15,-7 -23,-9l-1 -1 -1 0 0 0 0 0c-72,-21 -144,-38 -216,-52 -73,-14 -145,-25 -218,-34 -46,-6 -86,17 -111,54 -4,7 -9,14 -12,22 -3,8 -6,16 -8,25l-1 0 0 1 0 0 0 0c-18,74 -30,148 -40,223 -10,76 -16,151 -22,226 -3,33 6,63 25,87 -17,3 -32,4 -43,2l0 0 0 -1 0 0 -1 -1 0 0 0 -1 0 0 0 -1 -1 -1 0 0 -1 -2 0 0 0 -1 0 0 0 -1c-3,-9 -5,-19 -6,-28l0 0 0 -1 0 0 0 -1 0 0 0 -1 0 0 0 -1 0 0 0 -1 0 0 0 -1 0 0 0 -1 0 0 0 -1 0 0 0 -1 0 0 0 -1 0 0 0 -1 0 0 0 -1 0 0 0 -1 0 0 0 -1 0 0 0 -1 0 0 0 -1 0 0 0 -1 0 0 0 -1 0 0 0 -1 0 0 0 -1 0 0 0 -1 0 0 0 -1 0 -1c8,-90 17,-180 28,-269 11,-89 25,-179 43,-267 8,-37 19,-63 48,-83 8,-5 17,-11 28,-15 136,11 283,31 421,49 45,6 90,12 133,17l1 1c11,1 23,4 33,7 10,4 19,8 28,13l1 1 1 1 0 0 1 1 0 0 2 0 0 0 1 1 0 0 1 1 0 0 1 1 0 0 1 1 0 0 1 1 0 0 2 0 0 0 1 1 0 0 1 1 0 0 1 1 0 0 1 1 1 1 0 0 1 1 0 0 1 1 0 0 1 1 0 0 1 1 0 0 1 1 0 0 1 1 0 0 1 1 0 0 1 1 0 0 1 0 0 1 1 1 0 0 0 0 1 1 1 1 0 0 1 1 0 0 1 1 0 0 0 1 0 0 1 1 0 0 1 1 0 0 1 1 0 0 1 1 0 0 1 1 0 0 0 1 0 0 1 1 0 0 1 1 0 0 1 1 0 1 0 1 0 0 1 1 0 0 1 1 0 0 1 1 0 0 0 1 0 0 1 1 0 0 1 1 0 1 0 1 0 0 1 1 0 0 1 1 0 0 0 1 0 0 1 1c2,6 5,11 7,17zm-355 379c-1,60 -48,97 -104,97 -18,0 -39,-1 -49,-5 2,-26 16,-123 24,-176 10,-2 21,-3 30,-3 55,0 99,30 99,86l0 1zm7 -241c0,51 -36,80 -79,86 -16,3 -40,4 -49,3 5,-38 16,-117 22,-161 10,-2 20,-1 28,-1 45,0 78,27 78,72l0 1z"/>
  <path fill="#2B2A29" d="M844 310l1 0c3,-1 7,2 8,5 1,4 -2,8 -5,8 -20,5 -39,11 -56,19 -16,8 -32,18 -48,31l-1 1 -1 0c-9,8 -17,17 -25,26 -8,9 -15,19 -22,29 -34,51 -50,111 -51,174l0 18 0 0c2,18 4,34 8,49 4,16 10,30 19,45 4,7 9,13 14,18 5,6 11,11 17,16 7,5 14,8 20,12 8,3 15,6 23,9l17 4c4,1 6,5 5,8 -1,4 -4,6 -8,5l-3 0c-3,5 -6,8 -8,10l0 1c0,0 -1,1 -1,1l0 0 -1 2 0 0 0 0c-4,6 -9,11 -13,16 -5,4 -10,9 -15,13 -26,20 -60,32 -97,32 -85,1 -170,-1 -254,-6 -84,-5 -167,-14 -250,-27l-1 0 0 0c-10,-1 -20,-4 -29,-8 -9,-3 -18,-8 -26,-13 -41,-27 -65,-76 -60,-129 7,-90 16,-179 27,-270 12,-89 26,-179 44,-268 8,-40 21,-69 53,-91 3,-2 7,-4 10,-6 -16,-2 -32,-3 -47,-4l-1 0c-4,0 -7,-3 -6,-7 0,-4 3,-7 7,-6l0 0c24,1 47,3 71,5 31,-13 72,-23 128,-32 4,0 8,2 8,6 1,3 -2,7 -5,8 -40,6 -72,13 -98,21 128,11 264,29 392,46 46,7 91,13 133,18l0 0c13,2 25,4 36,8 11,4 22,9 31,15 48,29 72,82 67,137 -2,15 -3,24 -4,33 -1,5 -2,11 -3,18zm-620 -19l-1 0 0 0c0,1 -1,1 -2,1 -7,0 -14,-6 -14,-14l0 -1 0 0 0 0c1,-17 8,-39 17,-54 2,-3 4,-6 6,-8 0,-1 0,-1 0,-1 3,-3 5,-5 7,-7 1,0 1,-1 1,-1l1 0c1,-1 3,-2 4,-2 23,-7 47,-11 69,-15l1 0c3,0 8,-1 13,-2 28,-3 54,-5 79,-5l0 0 0 0 0 0 0 0c60,0 109,13 143,36 35,25 55,61 55,106l0 0 0 0 0 0 0 0 0 1c0,40 -14,70 -35,92 -12,13 -26,24 -41,32 23,11 41,25 54,41 18,24 26,52 26,83l-1 0 0 0c0,92 -59,148 -144,172 -16,5 -33,9 -51,11 -18,2 -36,4 -55,4l0 0 -4 0c0,0 -1,0 -1,0 -34,0 -72,-5 -109,-11 -8,-2 -15,-3 -21,-5l0 0c-8,-1 -15,-3 -21,-4l0 0 0 0 0 0 0 0c-7,-2 -12,-9 -11,-16 18,-114 39,-263 51,-346l4 -23c4,-30 7,-53 9,-68 -8,1 -17,2 -23,3l0 0 0 0 -6 1 0 0 0 0zm-3 -13c10,-2 33,-6 48,-7 -1,13 -6,44 -12,86 -11,78 -35,246 -54,369 47,12 102,20 148,20 132,0 241,-54 242,-173 0,-57 -28,-100 -102,-124 49,-17 98,-50 98,-125 0,-80 -69,-129 -184,-129 -48,0 -104,7 -158,22 -14,9 -25,39 -26,60l0 1zm255 302c-1,60 -48,97 -104,97 -18,0 -39,-1 -49,-5 2,-26 16,-123 24,-176 10,-2 21,-3 30,-3 55,0 99,30 99,86l0 1zm7 -241c0,51 -36,80 -79,86 -16,3 -40,4 -49,3 5,-38 16,-117 22,-161 10,-2 20,-1 28,-1 45,0 78,27 78,72l0 1zm-21 243l0 0 0 -1 0 -1 0 -1 0 0 0 0c0,-23 -9,-41 -24,-53 -15,-13 -37,-19 -61,-19l0 0 0 0c-6,0 -12,0 -18,1 -6,38 -13,91 -18,129 -1,9 -2,16 -3,21l0 0 0 4c1,0 3,0 4,0l0 0 4 1 0 0c8,0 17,1 25,1l0 0 1 0c35,0 65,-16 80,-44 3,-5 6,-11 7,-18 2,-6 3,-13 3,-20zm7 -243l0 0 0 0 0 -1 0 0 0 0c0,-18 -6,-33 -17,-43 -12,-10 -28,-15 -47,-15l0 0 0 0c-1,0 -3,0 -6,-1l0 0c-3,0 -7,0 -10,0 -3,24 -7,53 -11,80 -2,21 -5,40 -7,55 5,0 11,0 17,-1 2,0 5,0 7,0 2,-1 4,-1 7,-1l0 0 0 0c27,-4 50,-18 61,-41 2,-4 3,-9 4,-14 1,-6 2,-12 2,-18zm-446 401c11,2 26,1 43,-2 -19,-24 -28,-54 -25,-87 6,-75 12,-150 22,-226 10,-75 22,-149 40,-223l0 0 0 0 0 -1 1 0c2,-9 5,-17 8,-25 3,-8 8,-15 12,-22 25,-37 65,-60 111,-54 73,9 145,20 218,34 72,14 144,31 216,52l0 0 0 0 1 0 1 1c8,2 16,5 23,9 8,4 15,8 22,13 25,18 42,43 50,73 33,-33 56,-61 65,-81 -10,-28 -28,-52 -54,-68 -9,-5 -18,-9 -28,-13 -10,-3 -22,-6 -33,-7l-1 -1c-43,-5 -88,-11 -133,-17 -138,-18 -285,-38 -421,-49 -11,4 -20,10 -28,15 -29,20 -40,46 -48,83 -18,88 -32,178 -43,267 -11,89 -20,179 -28,269 -2,21 2,42 9,60zm673 22l-2 -2 0 0c0,0 -1,0 -1,0 -7,-6 -12,-12 -18,-18 -5,-5 -10,-12 -15,-19l0 0 -1 0c0,0 0,0 0,-1 -9,-16 -16,-32 -20,-48 -4,-16 -7,-33 -9,-52l0 0 0 0 0 -19 0 0 0 0c1,-66 18,-128 54,-182 7,-10 14,-20 22,-30 9,-9 17,-18 27,-27l0 0 2 -1 0 0 0 -1c6,-5 13,-9 19,-14l0 0c1,-7 1,-11 1,-14 0,-4 1,-8 1,-17 1,-41 -17,-75 -48,-97 -6,-5 -13,-8 -20,-12 -7,-3 -14,-6 -21,-8l-1 0 -1 -1 0 0c-71,-21 -143,-38 -215,-52 -72,-13 -144,-24 -217,-33 -41,-6 -76,15 -97,47 -5,7 -8,14 -12,21 -3,7 -5,15 -7,22l0 1 0 0 0 0c-18,74 -31,148 -40,222 -10,74 -17,150 -23,225 -3,41 16,80 47,101 6,4 13,8 20,11 7,2 15,4 23,6l0 0 0 0 0 0 0 0c107,16 215,27 323,35 21,2 42,3 63,4 21,1 42,2 63,3l1 0c22,1 41,-2 58,-11l0 0c17,-9 31,-21 44,-39z"/>
 </g>
</svg>
