<?xml version="1.0" encoding="UTF-8" standalone="no"?>
<!-- Creator: CorelDRAW X6 -->

<svg
   xmlns:dc="http://purl.org/dc/elements/1.1/"
   xmlns:cc="http://creativecommons.org/ns#"
   xmlns:rdf="http://www.w3.org/1999/02/22-rdf-syntax-ns#"
   xmlns:svg="http://www.w3.org/2000/svg"
   xmlns="http://www.w3.org/2000/svg"
   xmlns:sodipodi="http://sodipodi.sourceforge.net/DTD/sodipodi-0.dtd"
   xmlns:inkscape="http://www.inkscape.org/namespaces/inkscape"
   xml:space="preserve"
   width="20.357683mm"
   height="20.583309mm"
   version="1.1"
   viewBox="0 0 2035.7683 2058.3309"
   id="svg367"
   sodipodi:docname="bebras_org-logo-B.svg"
   style="clip-rule:evenodd;fill-rule:evenodd;image-rendering:optimizeQuality;shape-rendering:geometricPrecision;text-rendering:geometricPrecision"
   inkscape:version="0.92.4 (5da689c313, 2019-01-14)"><metadata
   id="metadata373"><rdf:RDF><cc:Work
       rdf:about=""><dc:format>image/svg+xml</dc:format><dc:type
         rdf:resource="http://purl.org/dc/dcmitype/StillImage" /><dc:title /></cc:Work></rdf:RDF></metadata><defs
   id="defs371" /><sodipodi:namedview
   pagecolor="#ffffff"
   bordercolor="#666666"
   borderopacity="1"
   objecttolerance="10"
   gridtolerance="10"
   guidetolerance="10"
   inkscape:pageopacity="0"
   inkscape:pageshadow="2"
   inkscape:window-width="1600"
   inkscape:window-height="829"
   id="namedview369"
   showgrid="false"
   inkscape:zoom="4.7572176"
   inkscape:cx="39.306365"
   inkscape:cy="23.011997"
   inkscape:window-x="-8"
   inkscape:window-y="-8"
   inkscape:window-maximized="1"
   inkscape:current-layer="svg367" />
 
<path
   inkscape:connector-curvature="0"
   style="fill:#00a0e3;stroke-width:1.00000012"
   d="m 1394.3305,1495.3854 c 12.9999,-38 20,-80 20.9999,-127 0,-136 -66,-240 -243,-296 115,-41 233.0001,-121.00001 235,-298.00001 0,-193 -167,-308 -439.99999,-308 -115.00001,0 -249.00004,16 -378.00005,51 -33,23 -60.00001,95 -62,144 v 2 c 25.00001,-4 78.00002,-14 115.00001,-16 -3.99999,31 -14,105 -29,205 -20.00001,139 -57.00001,398.00001 -93.00001,643.00001 v 0 c -13.00001,83 -25,164 -36,239 113,26 242.00004,47 353.00005,47 262.99999,0 487.99999,-90 557.00009,-286 z m -1260.00021,0 v 0 c 13,-159 28,-318 48,-476 23,-178.00001 53,-355.00001 96,-530.00001 v 0 -1 -1 c 5,-18 11,-36 19,-53 7,-18 16,-34 26,-50 52,-77 136.00007,-126 233.00007,-113 174.00003,21 346.00005,47 518.00004,80 172,34 343.0001,74 513.0001,124 v 0 l 3,1 h 1.0001 c 18,6 35,12 52,20 16,9 32,18 46,28 74,53 117,134 115,233 0,20 -0.9999,29 -2,40 -1.0001,7 -1.0001,15 -2,33 v 1 c -16,10 -31,22 -46,34 h -1.0001 v 0 l -3,3 -1.0001,1 c -23,21 -44,42 -63.0001,65 -19.9999,23 -37.9999,47 -54,72.00001 -84,126 -126,276 -129,433 v 1 0 l 0.9999,44 v 1 0 l 1.0001,10 v 0 c 4,40 10,77 20,113 11,39 26,77 48,116 0,1 0,1 1.0001,2 v 0 0 c 12,17 24.0001,32 37,46 13.0001,14 27.0001,27 43,41 1.0002,0 1.0002,1 2,1 v 0 l 5,4 c -31,42 -65,73 -104,93 v 0 c -41,21 -87,30 -140,28 h -2 c -50,-2 -100,-5 -151,-8 -49,-3 -100,-6 -151,-9 -257,-19 -514.00003,-47 -769.00001,-85 v 0 h -1.0002 v 0 0 c -18.9999,-3 -36.9999,-8 -53.9999,-15 -17,-6 -33,-15 -48,-25 -76,-51 -120,-142 -112,-241 z m 650.00011,0 v 0 c 11.99999,-96 30.99998,-227 43,-312 25,-4 51,-6 72,-6 132,0 236,72 236,205 v 2 c 0,42 -10,80 -27,111 v 0 c -42,77 -124.99997,122 -220.99999,122 -41.00002,0 -93.00001,-4 -115.00003,-13 1.00012,-20 6.00001,-60 12.00002,-109 z m 368,-686.00001 c 0,121 -85,191.00001 -187,206.00001 -38.99998,6 -97.00001,8 -116.99999,6 11.99999,-91.00001 36.99999,-280.00001 50.99999,-385.00001 25.00001,-4 49.00002,-2 68.00001,-2 106.99999,0 184.99999,64 184.99999,173 z"
   id="path309-3" /><path
   inkscape:connector-curvature="0"
   style="fill:#008ccb;stroke-width:1.00000012"
   d="m 134.33029,1495.3854 h 386.00007 c -13.00001,83 -25,164 -36,239 113,26 242.00004,47 353.00005,47 262.99999,0 487.99999,-90 557.00009,-286 h 111 c 4,40 10,77 20,113 11,39 26,77 48,116 0,1 0,1 1.0001,2 v 0 0 c 12,17 24,32 37,46 13,14 27,27 43,41 1.0001,0 1.0001,1 2,1 v 0 l 5,4 c -31,42 -65,73 -104,93 v 0 c -41,21 -87,30 -140,28 h -2 c -50.0002,-2 -100.0002,-5 -151.0002,-8 -49,-3 -100,-6 -151,-9 -257,-19 -514.00003,-47 -769.00001,-85 v 0 h -1.0002 v 0 0 c -18.9999,-3 -36.9999,-8 -53.9999,-15 -17,-6 -33,-15 -48,-25 -76,-51 -120,-142 -112,-241 z m 650.00011,0 h 324 c -42,77 -124.99997,122 -220.99999,122 -41.00002,0 -93.00001,-4 -115.00003,-13 1.00012,-20 6.00001,-60 12.00002,-109 z"
   id="path311-1" /><path
   inkscape:connector-curvature="0"
   style="fill:#fefefe;fill-rule:nonzero;stroke-width:1.00000012"
   d="m 527.33036,663.38539 c 25.00001,-4 78.00002,-14 115.00001,-16 -3.99999,31 -14,105 -29,205 -25.99999,185.00001 -84.00002,586.00001 -129.00001,882.00001 113,26 242.00004,47 353.00005,47 314.99999,0 576.00009,-129 577.99999,-413 0,-136 -66,-240 -243,-296 115,-41 233.0001,-121.00001 235,-298.00001 0,-193 -167,-308 -439.99999,-308 -115.00001,0 -249.00004,16 -378.00005,51 -33,23 -60.00001,95 -62,144 z m 1455.00014,-184 c -20,47 -75,114 -154,193 -18,-72 -60,-131 -120,-174 -16,-12 -33,-22 -51,-31 -18,-8 -36,-16 -56,-22 h -2 l -3,-1 v 0 0 c -171.0001,-51 -343.0001,-91 -516.0001,-125 -171.99998,-33 -346.00001,-59 -520.00004,-81 -110.00002,-14 -206.00007,41 -264.00007,128 -11,17 -21,35 -29,55 -8,18 -15,38 -20,58 l -1,1 v 1 0 0 c -43,177 -73,355 -96,534.00001 -23,180 -39,359 -54.000004,539 -6,77 17.000004,151 60.000004,208 -40,7 -75.000004,9 -102.000004,3 v 0 l -1,-2 v 0 l -1,-2 v 0 -2 0 l -1,-2 -1,-2 -1,-2 -1,-4 v 0 l -1,-2 v 0 -2 c -7,-22 -12,-45 -14,-68 v 0 -2 -1 -2 0 -2 0 -2 0 l -1,-3 v 0 -2 0 -2 0 -2 0 -3 0 -2 0 -2 0 -3 0 -2 0 -2 0 -3 0 -2 0 -2 0 -3 0 l 1,-2 v 0 -2 0 -3 0 -2 -2 c 18,-216 39,-431 66,-643.00001 28.000004,-214 61.000004,-427 104.000004,-638 18,-88 45,-151 114,-198 19,-13 41.0001,-25 68,-37 324.0001,28 675.00011,74 1004.00011,118 108.0001,15 214.0001,29 318.0001,42 h 1.0001 c 28,4 54,10 79,18 24,9 47,19 67,32 l 3,2 3,1 v 0 l 3,2 v 0 l 2,2 v 0 l 3,2 v 0 l 3,2 v 0 l 3,2 v 0 l 3,2 v 0 l 2,2 v 0 l 3,2 v 0 l 3,2 v 0 l 2,2 v 0 l 3,2 v 0 l 2,3 3,2 v 0 l 2,2 v 0 l 3,2 v 0 l 1.9999,2 v 0 l 3,3 v 0 l 2,2 v 0 l 2,2 v 0 l 3,3 v 0 l 2,2 v 0 l 2,2 v 0 l 3,3 v 0 0 l 2,2 2,3 v 0 l 2,2 v 0 l 1.9999,3 v 0 l 2,2 v 0 l 2,3 v 0 l 2,2 v 0 l 2,3 v 0 l 2,2 v 0 l 2,3 v 0 l 1.9999,1.999 v 1.001 l 2,2 v 0 l 2,3 v 0 l 2,2 v 1 l 2,2 v 0 l 1.0001,3 v 0 l 2,3 v 0 l 2,2 v 0 l 1.0001,3 v 0 l 2,3 v 0 l 2,3 v 0 l 1.0001,2 v 1 l 2,2 v 0 l 1.0001,3 v 0 l 2,3 v 0 l 1.0001,3 c 6,12 12,25 16,39 z m -847.0001,905.00001 c -2,144 -113,233 -247.99999,233 -41.00002,0 -93.00001,-4 -115.00003,-13 4.00002,-61 37.00002,-294 55.00002,-421 25,-4 51,-6 72,-6 132,0 236,72 236,205 z m 17,-575.00001 c 0,121 -85,191.00001 -187,206.00001 -38.99998,6 -97.00001,8 -116.99999,6 11.99999,-91.00001 36.99999,-280.00001 50.99999,-385.00001 25.00001,-4 49.00002,-2 68.00001,-2 106.99999,0 184.99999,64 184.99999,173 z"
   id="path313-2" /><path
   inkscape:connector-curvature="0"
   style="fill:#2b2a29;stroke-width:1.00000012"
   d="m 2014.3305,740.38539 h 2 c 9,-2 17,3 19,12 2,9 -3,18 -12,19 -48,11 -91,25 -132,45 -40,19 -78,43 -116,74 l -3,2 -1.0002,1 c -21,20 -42,40 -60,62 -19,22 -37,45.00001 -52,69.00001 -81,121 -120,264 -123,415 l 1.0001,44 v 0 c 4,41 9,80 19,117 10,36 24,71 45,107 11,16 22,30 34,43 12,13 25,25 40,38 16,11 33.0001,20 49,28 17,8 34.0001,15 53.0001,22 l 42,9 c 8,2 14,11 12,20 -2,9 -11,14 -20.0001,12 l -7,-2 c -5.9999,13 -12.9999,21 -18,26 l -1.0001,1 c -1.0001,1 -1.0001,2 -2,3 l -1.0001,1 -3,4 v 0 0 c -9,13 -19,25 -31,37 -11,11 -22,22 -35,31 -63,49 -143,76 -232,77 -202.9998,3 -403.9998,-1 -603.99979,-14 -201.00002,-12 -401.00004,-33 -599.00012,-64 h -0.9998 v 0 c -24.0002,-4 -47.0002,-10 -69.0002,-18 -22,-9 -43,-20 -62,-33 -98.000004,-65 -156.0000035,-181 -145.0000035,-307 17.9999995,-214 38.9999995,-429 65.9999995,-644.00001 27,-215 61.000004,-428 104.000004,-640 19,-97 50,-165 127,-219 8,-5 16,-10 24,-15 -38,-2 -76,-5.000003 -113,-7.000003 h -2 c -9,-1 -16,-9 -15,-18 0,-9 8,-16 17,-15 h 1 c 56,3 112,8 170.0001,12 71.99996,-30 169.99996,-53 305.99998,-74.99999993 8.00002,-1.99999997 17.00001,4.00000003 18,12.99999993 1.99999,9 -4,17 -12.99998,19 -96.00002,15 -172.00002,32 -233.00003,50 305.00003,28.000003 629.00004,71.000003 936.00014,112.000003 109,15 216,29 317,42 h 1.0001 c 31,4 59,10 86,20 26,9 51,20 73,34 115,70 171,195 159,328 -3,36 -6,56 -10,78 -0.9998,13 -3,26 -6,44 z m -1481.00013,-45 h -1.00012 v 0 c -1.00013,0 -3.00001,1 -4.99999,1 -18,0 -32.00001,-15 -32.00001,-33 v -2 0 -1 c 1.00013,-40 17.00001,-93 39.00001,-129 4,-7 8.99999,-13 14,-19 0,-1 0.99986,-2 0.99986,-2 6.00001,-6 11,-12 17.00001,-17 0.99986,0 1.99999,-1 3.00001,-2 v 0 c 2.99998,-2 7,-4 11,-5 54.99999,-15 111.00001,-27 165.00001,-35 h 1.99999 c 7,-1 18,-3 32,-5 65.00003,-8 128.00002,-13 187.00004,-13 v 0 h 1.00013 v 0 0 c 142.99999,0 259.99999,31 340.99999,88 84,59 131,144 131,252 v 1 0 0 0 0 c -0.9998,98 -33.9999,169 -83,222 -29,31.00001 -63,55.00001 -99,74.00001 56,27 98.0001,61 129,100 43,56 61,123 61,198 v 0 0 c -0.9998,218 -142,352 -344,411 -39,11 -80,20 -121.99999,26 -42.00001,5 -86.00001,8 -131.00003,9 h -1.00012 -9.00001 c -1.00013,0 -1.99999,0 -2.99998,0 -81.00002,0 -173.00004,-11 -260.00004,-27 -18,-4 -35.00001,-7 -50,-10 H 526.33 c -17.00001,-4 -34.00002,-8 -49.00001,-11 v 0 0 l -1.00013,-1 v 0 c -16.00001,-3 -27.00001,-19 -24.00001,-36 40.99999,-274 93.00001,-628 121.00002,-827.00001 l 7.99999,-54 c 10.00001,-72 18.00001,-128 23,-165 -19.99999,3 -40,7 -55.99999,10 v 0 0 l -14.00001,2 v 0 z m -6.00001,-32 c 25.00001,-4 78.00002,-14 115.00001,-16 -3.99999,31 -14,105 -29,205 -25.99999,185.00001 -84.00002,586.00001 -129.00001,882.00001 113,26 242.00004,47 353.00005,47 314.99999,0 576.00009,-129 577.99999,-413 0,-136 -66,-240 -243,-296 115,-41 233.0001,-121.00001 235,-298.00001 0,-193 -167,-308 -439.99999,-308 -115.00001,0 -249.00004,16 -378.00005,51 -33,23 -60.00001,95 -62,144 z m 608.00004,721.00001 c -2,144 -113,233 -247.99999,233 -41.00002,0 -93.00001,-4 -115.00003,-13 4.00002,-61 37.00002,-294 55.00002,-421 25,-4 51,-6 72,-6 132,0 236,72 236,205 z m 17,-575.00001 c 0,121 -85,191.00001 -187,206.00001 -38.99998,6 -97.00001,8 -116.99999,6 11.99999,-91.00001 36.99999,-280.00001 50.99999,-385.00001 25.00001,-4 49.00002,-2 68.00001,-2 106.99999,0 184.99999,64 184.99999,173 z m -49,580.00001 v 0 -3 -2 -2 0 0 c 0,-56 -22,-99 -57,-127 -37,-30 -89,-46 -147,-46 v 1 0 c -13.00001,0 -28,0 -43,2 -13.00001,90 -31.00001,218 -42.00001,308 -3.00001,21 -4.99999,38 -7,51 v 0 8 c 3,0 6.00001,1 9.00001,1 v 0 l 8.99999,1 v 0 c 20.00001,2 42.00001,3 61,3 v 0 h 1.00013 c 83.99999,0 156.99998,-38 191.99998,-104 7,-13 13,-27 17,-42 4,-16 6,-32 7,-49 z m 16,-579.00001 v 0 -1 -2 0 0 c 0,-45 -15,-79 -41,-103 -27,-24 -66,-37 -110.99999,-37 v 0 0 c -3,0 -7,0 -15,0 v 0 c -7,-1 -16.00001,-1 -24.00001,-1 -7.99999,57 -17,126 -25.99999,191 -6.00001,49 -12.00002,96 -17.00001,132 11.99999,-1.001 26,-1.001 40,-3 7,0 12.00002,-1.001 17.00001,-1.001 4.99999,-1 10,-2 16.00001,-2 v 0 l 1.99999,-1 c 63.99999,-9 117.99999,-41 143.99999,-96 4,-11 8,-23 11,-35 3,-13 4,-27 4,-41 z M 54.330286,1765.3854 c 28,6 62.000004,5 103.000004,-3 -44,-57 -67.000004,-131 -61.000004,-208 15.000004,-180 31.000004,-359 54.000004,-539 23,-179.00001 53,-357.00001 96,-534.00001 v 0 0 -1 l 1,-1 c 5,-20 12,-40 20,-58 8,-20 18,-38 29,-55 58,-87 154.00005,-142 264.00007,-128 174.00003,22 348.00006,48 520.00004,81 173,34 345,74 516.0001,125 v 0 0 l 3,1 h 2 c 19.9999,6 38,14 56,22 18,9 35,19 51,31 60,43 102,103 120,174 79,-79 134,-146 154,-193 -22,-66 -65,-123 -128,-161 -20,-13 -43,-23 -67,-32 -25,-8 -51,-14 -79,-18 h -1.0001 c -103.9999,-13 -209.9999,-27 -318,-42 -329,-44 -680.00001,-90 -1004.00011,-118 -26.9999,12 -49,24 -68,37 -69,47 -96,110 -114,198 -43,211 -76,424 -104.000004,638 -27,212.00001 -48,427.00001 -66,643.00001 -4,50 4,98 21,141 z m 1607.000214,53 -5,-4 v 0 c -1.0001,0 -1.0001,-1 -2,-1 -16,-14 -30,-27 -43,-41 -13,-14 -25,-29 -37,-46 v 0 0 c -1.0001,-1 -1.0001,-1 -1.0001,-2 -22,-39 -37,-77 -48,-116 -11,-39 -17,-79 -21.0001,-123 v 0 -1 l -0.9998,-44 v 0 -1 c 3,-157 45,-307 129,-433 16,-25.00001 34,-49.00001 54,-72.00001 19,-23 40,-44 63,-65 l 1.0001,-1 3.0001,-3 v 0 h 1.0001 c 15,-12 30,-24 46,-34 v -1 c 1.0001,-18 1.0001,-26 2,-33 1.0001,-11 2,-20 2,-40 1.9999,-99 -41,-180 -115.0001,-233 -14,-10 -29.9999,-19 -46,-28 -16.9999,-8 -34,-14 -52,-20 h -1.0001 l -3,-1 v 0 c -170.0001,-50 -341.0002,-90 -513.0002,-124 -171.99999,-33 -344.00001,-59 -518.00004,-80 -97,-13 -181.00007,36 -233.00007,113 -10,16 -19,32 -26,50 -8,17 -14,35 -19,53 v 1 1 0 c -43,175 -73,352 -96,530.00001 -23,177 -39,357 -53,537 -8,99 36,190 112,241 15,10 31,19 48,25 17,7 35,12 54,15 v 0 0 h 1.0002 v 0 c 254.99998,38 512.00002,66 769.00001,85 51,3 102,6 151,9 51,3 101,6 151,8 h 2 c 53,2 99.0001,-7 140,-28 v 0 c 39.0001,-20 73.0001,-51 104.0001,-93 z"
   id="path315-5" /></svg>