<?xml version="1.0" encoding="UTF-8" standalone="no"?>
<!-- Created with Inkscape (http://www.inkscape.org/) -->

<svg
   xmlns:dc="http://purl.org/dc/elements/1.1/"
   xmlns:cc="http://creativecommons.org/ns#"
   xmlns:rdf="http://www.w3.org/1999/02/22-rdf-syntax-ns#"
   xmlns:svg="http://www.w3.org/2000/svg"
   xmlns="http://www.w3.org/2000/svg"
   xmlns:sodipodi="http://sodipodi.sourceforge.net/DTD/sodipodi-0.dtd"
   xmlns:inkscape="http://www.inkscape.org/namespaces/inkscape"
   width="200.63857mm"
   height="131.34984mm"
   viewBox="0 0 200.63857 131.34984"
   version="1.1"
   id="svg24846"
   inkscape:version="0.92.2 (5c3e80d, 2017-08-06)"
   sodipodi:docname="bebraslogo_at.svg">
  <defs
     id="defs24840" />
  <sodipodi:namedview
     id="base"
     pagecolor="#ffffff"
     bordercolor="#666666"
     borderopacity="1.0"
     inkscape:pageopacity="0.0"
     inkscape:pageshadow="2"
     inkscape:zoom="0.35"
     inkscape:cx="1114.9803"
     inkscape:cy="403.33453"
     inkscape:document-units="mm"
     inkscape:current-layer="layer1"
     showgrid="false"
     inkscape:snap-global="false"
     inkscape:window-width="1680"
     inkscape:window-height="987"
     inkscape:window-x="-8"
     inkscape:window-y="222"
     inkscape:window-maximized="1"
     fit-margin-top="0"
     fit-margin-left="0"
     fit-margin-right="0"
     fit-margin-bottom="0" />
  <metadata
     id="metadata24843">
    <rdf:RDF>
      <cc:Work
         rdf:about="">
        <dc:format>image/svg+xml</dc:format>
        <dc:type
           rdf:resource="http://purl.org/dc/dcmitype/StillImage" />
        <dc:title></dc:title>
      </cc:Work>
    </rdf:RDF>
  </metadata>
  <g
     inkscape:label="Ebene 1"
     inkscape:groupmode="layer"
     id="layer1"
     transform="translate(19.527821,-69.981785)">
    <g
       id="g25978"
       transform="matrix(0.59966055,0,0,0.59966055,75.59217,36.176137)">
      <path
         sodipodi:nodetypes="cccccc"
         inkscape:connector-curvature="0"
         id="path25445-88"
         d="m 71.952231,248.23033 c 10.632555,3.92114 31.636759,3.15633 31.691039,16.76557 -2.60499,10.72581 -71.341959,-2.35884 -82.349589,-3.90431 0,0 2.18957,-11.79113 3.32964,-13.92641 0.5624,-1.12479 1.53501,-3.12117 2.47978,-4.02607 z"
         style="fill:#ffffff;stroke:none;stroke-width:0.26458332px;stroke-linecap:butt;stroke-linejoin:miter;stroke-opacity:1" />
      <path
         sodipodi:nodetypes="ccccscccc"
         inkscape:connector-curvature="0"
         id="path25459"
         d="m 14.699825,219.22457 c -42.955799,-22.2026 -102.105108,-69.27858 -155.016325,-57.99749 -2.74153,0.68538 -5.95436,0.87623 -7.48355,2.40543 -4.40685,4.40685 -7.66832,8.92218 -10.42351,14.43255 -0.59527,1.19053 0,4.25206 0,5.61266 0,1.13942 -0.22125,3.29927 0.26727,4.27631 1.54778,3.09557 4.8659,6.20225 7.21628,8.55263 38.32038,12.96203 93.309529,31.24235 137.574311,35.47225 4.0819061,-0.14595 25.813079,2.7089 25.994634,1.67821"
         style="fill:#7e8b8c;fill-opacity:1;stroke:#7e8b8c;stroke-width:0.26458332px;stroke-linecap:butt;stroke-linejoin:miter;stroke-opacity:1" />
      <path
         transform="scale(0.26458333)"
         id="path25650"
         d="m 360.57031,961.43164 c -2.92387,2.24949 -6.99804,5.37305 -6.99804,5.37305 0,0 -49.58367,37.20341 -36.07227,50.71481 1.97923,1.9792 19.20045,2.2293 23.21484,-1.7851 3.69396,-3.694 4.43396,-10.1489 7.85743,-13.5723 7.32416,-7.32415 16.24568,-13.74762 22.85546,-20.35741 1.02105,-1.02105 5.25818,-6.42213 6.48243,-9.6543 -1.9043,-1.70014 -3.93503,-3.30458 -6.14454,-4.76953 -2.38584,-1.58186 -4.93501,-3.03466 -7.62109,-4.37695 -1.13779,-0.56858 -2.38993,-1.04208 -3.57422,-1.57227 z"
         style="opacity:1;vector-effect:none;fill:#3171a1;fill-opacity:1;stroke:none;stroke-width:0.99999994px;stroke-linecap:butt;stroke-linejoin:miter;stroke-miterlimit:4;stroke-dasharray:none;stroke-dashoffset:0;stroke-opacity:1;paint-order:markers stroke fill"
         inkscape:connector-curvature="0" />
      <path
         transform="scale(0.26458333)"
         id="path25647"
         d="m 326.3125,950.86719 c -5.2029,2.2085 -13.81579,6.13006 -23.42188,11.63672 -14.62793,8.38541 -39.66165,27.558 -34.31835,43.58789 1.15055,3.4517 0.26702,7.9909 4.28515,10 4.00953,2.0049 14.66781,4.8087 20,2.1426 6.28218,-3.1411 -1.7964,-15.3473 9.32422,-27.89651 10.27953,-11.60006 39.75181,-21.85012 50.93359,-31.94727 -2.13426,-0.77677 -4.26002,-1.56201 -6.48437,-2.25585 -6.22656,-1.94228 -12.76591,-3.58436 -19.38477,-5.07227 -0.31107,-0.0699 -0.62218,-0.12605 -0.93359,-0.19531 z"
         style="opacity:1;vector-effect:none;fill:#3171a1;fill-opacity:1;stroke:none;stroke-width:0.99999994px;stroke-linecap:butt;stroke-linejoin:miter;stroke-miterlimit:4;stroke-dasharray:none;stroke-dashoffset:0;stroke-opacity:1;paint-order:markers stroke fill"
         inkscape:connector-curvature="0" />
      <path
         sodipodi:nodetypes="ccccccccc"
         inkscape:connector-curvature="0"
         transform="scale(0.26458333)"
         id="path25653"
         d="m 279.24023,940.41211 c -23.10365,11.55996 -53.41535,26.99739 -71.38281,44.96484 -3.27134,3.27137 -4.83077,12.48104 -2.85742,16.42775 -2.39213,4.1596 19.60186,11.8432 21.42773,10 3.11729,-3.1173 10.04335,-14.92511 12.14454,-19.28517 6.53718,-13.56498 52.36304,-38.6627 68.65234,-45.63281 -6.49335,-1.31057 -12.8423,-2.60973 -18.81055,-4.04102 -3.0086,-0.72151 -5.92194,-1.47731 -8.71094,-2.2832 -0.16208,-0.0468 -0.30164,-0.10321 -0.46289,-0.15039 z"
         style="opacity:1;vector-effect:none;fill:#3171a1;fill-opacity:1;stroke:none;stroke-width:0.99999994px;stroke-linecap:butt;stroke-linejoin:miter;stroke-miterlimit:4;stroke-dasharray:none;stroke-dashoffset:0;stroke-opacity:1;paint-order:markers stroke fill" />
      <path
         id="path25594"
         d="m 42.362219,248.89149 a 5.2117558,5.2117558 0 0 1 -5.211756,5.21176 5.2117558,5.2117558 0 0 1 -5.211756,-5.21176 5.2117558,5.2117558 0 0 1 5.211756,-5.21175 5.2117558,5.2117558 0 0 1 5.211756,5.21175 z"
         style="opacity:1;vector-effect:none;fill:#3171a1;fill-opacity:1;stroke:none;stroke-width:0.26458332px;stroke-linecap:butt;stroke-linejoin:miter;stroke-miterlimit:4;stroke-dasharray:none;stroke-dashoffset:0;stroke-opacity:1;paint-order:markers stroke fill"
         inkscape:connector-curvature="0" />
      <path
         sodipodi:nodetypes="ccccccccc"
         inkscape:connector-curvature="0"
         id="path25427-6"
         d="m 76.845726,157.58186 c 0.03765,5.16901 -1.072594,12.54863 1.039434,16.77269 6.033913,12.41371 11.226054,27.3331 15.699214,38.00509 4.003071,9.5735 7.572296,25.63196 7.168346,26.43985 -20.726033,15.69497 -71.809033,11.56759 -89.20238,-4.7247 -1.9464282,-9.4747 3.047422,-23.33734 10.96131,-37.23065 6.645174,-13.6996 22.008552,-25.60266 25.072703,-39.53554 0.404683,-1.87283 0.657172,-3.57103 0.440689,-3.93172 z"
         style="fill:#026b90;fill-opacity:1;stroke:none;stroke-width:0.26458332px;stroke-linecap:butt;stroke-linejoin:miter;stroke-opacity:1" />
      <path
         inkscape:connector-curvature="0"
         id="path25395-7"
         d="m 81.570915,59.490631 c -4.408403,-0.109083 -9.612268,3.223209 -14.301454,11.43341 0.0053,0.0012 0.0017,-5.21e-4 0.01292,0.0026 l -0.01602,0.0026 c -3.47966,-1.273868 -10.545112,-0.227356 -13.040029,2.267564 -1.424051,1.127723 -2.630885,2.337186 -3.963583,3.510378 -0.33701,0.296677 -0.682061,0.591071 -1.045932,0.862997 -1.720909,-3.43856 -4.999948,-6.638782 -7.841898,-7.586099 -6.125541,-1.08235 -4.441074,5.197099 -4.441074,5.197099 -1.207519,-0.556583 -2.477003,-0.520605 -3.594611,-0.14573 -2.42725,0.788821 -3.489991,2.772606 -3.596679,5.046721 -0.0781,2.000263 0.604663,3.927782 1.570963,5.815666 2.16267,4.074559 4.274386,7.614957 7.415567,10.733712 0.522481,0.522478 -1.637956,4.283841 -0.756025,6.047691 2.081498,2.34985 3.090203,4.80481 3.476273,7.33651 -0.007,15.27686 -4.0131,31.62566 6.918441,43.12294 9.84604,11.20145 26.465003,10.0141 36.096503,-2.64583 2.27403,-0.4995 6.373286,-2.75287 8.482687,-3.01274 2.70028,2.78696 6.292064,5.28084 9.684156,7.84035 6.59339,0.21364 14.36738,-4.28285 18.87482,-8.79636 l 29.98111,-27.66708 c 6.63766,-6.90552 11.83174,-14.82723 13.10824,-24.68221 l -3.67884,-15.962852 c -13.04029,-5.483479 -37.32634,-13.135184 -55.59867,-13.167154 -5.593564,-0.01 -10.62372,0.694643 -14.59497,2.393651 l -0.01757,0.0026 C 89.019787,62.618461 85.634571,59.591183 81.570915,59.490631 Z M 67.26636,70.929208 c 10e-4,-0.0018 0.0021,-0.0034 0.0031,-0.0052 -0.02808,-0.0062 -0.0031,0.0052 -0.0031,0.0052 z"
         style="fill:#f6804f;fill-opacity:1;stroke:none;stroke-width:0.26458332px;stroke-linecap:butt;stroke-linejoin:miter;stroke-opacity:1" />
      <path
         sodipodi:nodetypes="ccccc"
         inkscape:connector-curvature="0"
         id="path25391"
         d="m 163.40428,95.046073 c 5.18243,-3.098635 17.99382,-15.921318 9.70881,-20.863038 -9.4055,-4.703138 -13.57983,6.022853 -16.25297,14.363094 -1.13513,3.405381 -0.0592,6.396011 2.64583,7.748514 1.57921,0.05009 2.85341,-0.408174 3.89833,-1.24857 z"
         style="fill:#000000;stroke:#000000;stroke-width:0.26458332px;stroke-linecap:butt;stroke-linejoin:miter;stroke-opacity:1" />
      <path
         sodipodi:nodetypes="cccc"
         inkscape:connector-curvature="0"
         id="path25395"
         d="M 67.27976,71.159226 C 80.92333,47.263682 98.927314,64.672418 89.013391,87.979164 85.135833,82.836871 75.671686,73.90899 68.242107,71.460762 67.010678,71.054976 67.27976,71.159226 67.27976,71.159226 Z"
         style="fill:#ffffff;stroke:#000000;stroke-width:0.26458332px;stroke-linecap:butt;stroke-linejoin:miter;stroke-opacity:1" />
      <path
         inkscape:connector-curvature="0"
         id="path25415"
         d="m 144.3869,73.994047 c 0.36866,-6.226366 9.22827,-17.386906 14.74107,-17.386906"
         style="fill:none;stroke:#000000;stroke-width:0.465;stroke-linecap:butt;stroke-linejoin:miter;stroke-miterlimit:4;stroke-dasharray:none;stroke-opacity:1" />
      <path
         sodipodi:nodetypes="csc"
         inkscape:connector-curvature="0"
         id="path25417"
         d="m 127,71.915178 c -0.20427,-0.817068 -0.18899,-0.496213 -0.18899,-0.944941 0,-2.189747 0.68133,-4.839062 2.26786,-6.425594"
         style="fill:none;stroke:#000000;stroke-width:0.465;stroke-linecap:butt;stroke-linejoin:miter;stroke-miterlimit:4;stroke-dasharray:none;stroke-opacity:1" />
      <path
         sodipodi:nodetypes="cccccccc"
         inkscape:connector-curvature="0"
         id="path25403-6"
         d="m 103.83878,135.01814 c 5.53305,6.41717 12.03374,11.7563 17.64578,11.7563 -4.50744,4.51351 -12.28133,9.00983 -18.87472,8.79619 -4.662257,-3.51792 -9.710167,-6.90904 -12.287337,-11.11247 -1.50008,-2.4427 -2.1455,-4.37493 -2.47782,-6.56616 3.71096,-0.52785 9.8672,-2.41087 12.890217,-4.58914 l 1.09456,-0.85942 c 0.60469,0.89358 1.36348,1.8251 2.00932,2.5747 z"
         style="fill:#ffffff;stroke:none;stroke-width:0.26458332px;stroke-linecap:butt;stroke-linejoin:miter;stroke-opacity:1" />
      <path
         sodipodi:nodetypes="ccccc"
         inkscape:connector-curvature="0"
         id="path25421"
         d="m 121.51934,146.75446 c -4.50744,4.51351 -12.28133,9.00983 -18.87472,8.79619 -4.662261,-3.51792 -9.710174,-6.90904 -12.287338,-11.11247 -1.500078,-2.4427 -2.145501,-4.37493 -2.477818,-6.56616 4.160521,-0.5918 11.394656,-2.88699 13.841006,-5.3919"
         style="fill:none;stroke:#000000;stroke-width:0.26458332px;stroke-linecap:butt;stroke-linejoin:miter;stroke-opacity:1" />
      <path
         sodipodi:nodetypes="cc"
         inkscape:connector-curvature="0"
         id="path25423"
         d="m 109.61309,140.89583 c -5.24751,4.07779 -10.070923,6.76564 -16.763601,6.77115"
         style="fill:none;stroke:#000000;stroke-width:0.26458332px;stroke-linecap:butt;stroke-linejoin:miter;stroke-opacity:1" />
      <path
         sodipodi:nodetypes="cccccc"
         inkscape:connector-curvature="0"
         id="path25427"
         d="m 76.82366,157.57403 c 0.03765,5.16901 -1.072595,12.54863 1.039433,16.77269 6.033914,12.41371 11.226053,27.3331 15.699212,38.00509 4.003073,9.5735 7.572295,25.63196 7.168345,26.43985 -20.726031,15.69497 -71.80903,11.56759 -89.202376,-4.7247 -1.9464289,-9.4747 3.047422,-23.33734 10.961309,-37.23065"
         style="fill:none;stroke:#000000;stroke-width:0.26458332px;stroke-linecap:butt;stroke-linejoin:miter;stroke-opacity:1" />
      <path
         sodipodi:nodetypes="ccscc"
         inkscape:connector-curvature="0"
         id="path25429"
         d="m 86.736036,85.134847 c 2.753592,-3.158237 3.881499,-8.60828 1.244198,-13.138587 -2.690142,-4.410991 -9.844364,0.202379 -10.696581,3.230078 -0.141157,0.501496 -0.343278,0.859263 -0.08972,1.225537 0.694332,-0.07832 9.868458,8.552429 9.5421,8.682972 z"
         style="fill:#000000;stroke:#000000;stroke-width:0.26458332px;stroke-linecap:butt;stroke-linejoin:miter;stroke-opacity:1" />
      <path
         sodipodi:nodetypes="cscc"
         inkscape:connector-curvature="0"
         id="path25431"
         d="m 83.900234,77.853072 c -1.778301,1.778302 0.155016,5.445845 2.278337,3.322522 1.747102,-1.747103 1.660623,-3.444291 0.867517,-4.133945 -1.050842,-0.398699 -2.761946,0.445681 -3.145854,0.811423 z"
         style="fill:#ffffff;stroke:none;stroke-width:0.26458332px;stroke-linecap:butt;stroke-linejoin:miter;stroke-opacity:1" />
      <path
         inkscape:connector-curvature="0"
         id="path25433"
         d="m 48.002975,153.36905 c 0.586362,0.97695 -2.267857,11.76653 -2.267857,9.26041"
         style="fill:none;stroke:#000000;stroke-width:0.26458332px;stroke-linecap:butt;stroke-linejoin:miter;stroke-opacity:1" />
      <path
         sodipodi:nodetypes="csccccccccsccscc"
         inkscape:connector-curvature="0"
         id="path25439-2"
         d="m 19.560267,204.58482 c -1.76171,-0.42567 -6.077941,1.98873 -5.008184,4.15774 1.043028,2.11482 4.171602,3.22666 5.669643,4.7247 0.836494,0.8365 7.318864,3.64245 8.693454,2.26786 4.653526,-4.55467 6.831204,-7.68323 10.313558,-11.63291 4.475892,-3.76685 2.57802,-7.22524 -1.365483,-9.99542 -2.394652,-1.68874 -4.981259,-3.887 -6.491232,-5.39697 -0.476627,-0.47663 -1.938777,-2.40795 -1.133926,-3.2128 8.61974,-3.63125 14.948652,-6.72619 21.166667,-13.04018 3.652086,-6.51508 -2.830341,-9.51843 -6.150232,-9.65522 -3.72052,-0.1249 -8.07794,1.46127 -10.858699,2.85165 -2.265317,1.13266 -6.850729,3.81833 -10.735064,6.45051 -4.84512,2.84337 -6.600519,5.89937 -9.887566,10.04484 0,0 1.88193,6.373 4.692564,9.70295 4.530072,5.36708 10.8235,11.06368 10.071433,12.16629 -1.780567,1.78057 -9.260415,-5.78168 -9.260415,-1.7009"
         style="opacity:1;vector-effect:none;fill:#f6804f;fill-opacity:1;stroke:none;stroke-width:0.26458332px;stroke-linecap:butt;stroke-linejoin:miter;stroke-miterlimit:4;stroke-dasharray:none;stroke-dashoffset:0;stroke-opacity:1" />
      <path
         sodipodi:nodetypes="csccccccccsccscscc"
         inkscape:connector-curvature="0"
         id="path25439"
         d="m 19.607515,204.53757 c -1.76171,-0.42567 -6.077941,1.98873 -5.008184,4.15774 1.043028,2.11482 4.171602,3.22666 5.669643,4.7247 0.836494,0.8365 7.318863,3.64245 8.693453,2.26786 4.653527,-4.55467 6.831204,-7.68323 10.313558,-11.63291 4.475893,-3.76685 2.578019,-7.22524 -1.365483,-9.99542 -2.394651,-1.68874 -4.981259,-3.887 -6.491231,-5.39697 -0.476628,-0.47663 -1.938777,-2.40795 -1.133927,-3.2128 8.61974,-3.63125 14.948652,-6.72619 21.166666,-13.04018 3.652086,-6.51508 -2.83034,-9.51843 -6.150229,-9.65522 -3.720522,-0.1249 -8.077942,1.46127 -10.858701,2.85165 -2.265317,1.13266 -6.850728,3.81833 -10.735063,6.45051 -4.84512,2.84337 -6.600519,5.89937 -9.887566,10.04484 0,0 1.88193,6.373 4.692564,9.70295 4.530072,5.36708 10.823499,11.06368 10.071433,12.16629 -1.780567,1.78057 -9.260415,-5.78168 -9.260415,-1.7009 0,4.80563 5.362579,4.03967 7.9375,6.61459 l -0.755952,3.40178"
         style="fill:none;stroke:#000000;stroke-width:0.26458332px;stroke-linecap:butt;stroke-linejoin:miter;stroke-opacity:1" />
      <path
         sodipodi:nodetypes="cc"
         inkscape:connector-curvature="0"
         id="path25445"
         d="m 71.897354,248.17229 c 10.632559,3.92114 31.636766,3.15633 31.713976,17.20938"
         style="fill:none;stroke:#000000;stroke-width:0.26458332px;stroke-linecap:butt;stroke-linejoin:miter;stroke-opacity:1" />
      <path
         sodipodi:nodetypes="ccc"
         inkscape:connector-curvature="0"
         id="path25447"
         d="m 27.048226,243.08107 c -0.944764,0.9049 -1.917377,2.90128 -2.479774,4.02607 -1.140069,2.13528 -3.307291,13.89062 -3.307291,13.89062"
         style="fill:none;stroke:#000000;stroke-width:0.26458332px;stroke-linecap:butt;stroke-linejoin:miter;stroke-opacity:1" />
      <path
         sodipodi:nodetypes="ccccccc"
         inkscape:connector-curvature="0"
         id="path25449"
         d="m 103.56547,264.49404 c 2.74426,0.13763 3.0749,6.75248 1.51191,8.31548 -1.46319,1.46319 -4.5263,2.03063 -7.920521,2.14145 -24.343705,1.26398 -48.445212,-1.38799 -70.959674,-2.87633 -3.259674,-0.22446 -6.306677,-0.68351 -6.920399,-1.91096 -2.598483,-5.35855 -0.424507,-5.73466 1.939671,-9.09435 11.02998,1.50969 79.766953,14.59434 82.349013,3.42471 z"
         style="fill:#000000;stroke:#000000;stroke-width:0.26458332px;stroke-linecap:butt;stroke-linejoin:miter;stroke-opacity:1" />
      <path
         sodipodi:nodetypes="cccccccccccc"
         id="path25475"
         d="m 146.03125,79.531251 c -0.17987,0.0028 -0.25947,0.342876 -0.41537,0.486235 -0.24284,-0.654597 -0.56598,0.05967 -0.89336,0.574317 -0.24098,0.313134 -0.40364,0.701569 -0.4336,1.09375 -0.03,0.392181 0.0797,0.792591 0.38282,1.095703 0.11571,0.115717 0.26536,0.169516 0.41406,0.164062 0.1487,-0.0055 0.29374,-0.06162 0.43359,-0.148437 0.014,-0.0087 0.0232,-0.03174 0.0371,-0.04102 0.41323,-0.167173 1.12792,-1.213118 1.30064,-1.748054 0.0762,-0.244978 0.0673,-0.505 -0.20735,-0.92835 -0.27464,-0.42335 -0.43896,-0.551036 -0.61883,-0.54821 z"
         style="color:#000000;font-style:normal;font-variant:normal;font-weight:normal;font-stretch:normal;font-size:medium;line-height:normal;font-family:sans-serif;font-variant-ligatures:normal;font-variant-position:normal;font-variant-caps:normal;font-variant-numeric:normal;font-variant-alternates:normal;font-feature-settings:normal;text-indent:0;text-align:start;text-decoration:none;text-decoration-line:none;text-decoration-style:solid;text-decoration-color:#000000;letter-spacing:normal;word-spacing:normal;text-transform:none;writing-mode:lr-tb;direction:ltr;text-orientation:mixed;dominant-baseline:auto;baseline-shift:baseline;text-anchor:start;white-space:normal;shape-padding:0;clip-rule:nonzero;display:inline;overflow:visible;visibility:visible;opacity:1;isolation:auto;mix-blend-mode:normal;color-interpolation:sRGB;color-interpolation-filters:linearRGB;solid-color:#000000;solid-opacity:1;vector-effect:none;fill:#000000;fill-opacity:1;fill-rule:nonzero;stroke:none;stroke-width:0.26458332px;stroke-linecap:butt;stroke-linejoin:miter;stroke-miterlimit:4;stroke-dasharray:none;stroke-dashoffset:0;stroke-opacity:1;color-rendering:auto;image-rendering:auto;shape-rendering:auto;text-rendering:auto;enable-background:accumulate"
         inkscape:connector-curvature="0" />
      <path
         id="path25502"
         d="m 129.91016,76.171875 c -0.33254,0.106491 -0.65076,0.336527 -0.90039,0.603516 -0.093,0.09949 -0.10337,0.213421 -0.17383,0.320312 -0.012,0.0088 -0.0279,0.0064 -0.0391,0.01758 -0.0547,0.05473 -0.0303,0.129938 -0.0742,0.189453 -0.053,0.112947 -0.16659,0.220035 -0.17969,0.332032 -0.003,0.02891 0.0194,0.05315 0.0195,0.08203 -0.0449,0.149264 -0.18274,0.282549 -0.16797,0.431641 0.0354,0.357494 0.25023,0.689568 0.625,0.876953 0.26053,0.130269 0.64562,0.126009 1.01367,0.05273 0.36806,-0.07327 0.72494,-0.207687 0.86524,-0.48828 0.14927,-0.29854 0.1461,-0.541514 0.0312,-0.710939 0.0524,-0.09094 0.15348,-0.145638 0.17578,-0.25 0.0511,-0.239265 0.0399,-0.501821 -0.004,-0.730467 -0.0438,-0.228648 -0.10712,-0.419627 -0.22851,-0.541016 -0.26443,-0.264433 -0.63035,-0.292038 -0.96289,-0.185547 z"
         style="color:#000000;font-style:normal;font-variant:normal;font-weight:normal;font-stretch:normal;font-size:medium;line-height:normal;font-family:sans-serif;font-variant-ligatures:normal;font-variant-position:normal;font-variant-caps:normal;font-variant-numeric:normal;font-variant-alternates:normal;font-feature-settings:normal;text-indent:0;text-align:start;text-decoration:none;text-decoration-line:none;text-decoration-style:solid;text-decoration-color:#000000;letter-spacing:normal;word-spacing:normal;text-transform:none;writing-mode:lr-tb;direction:ltr;text-orientation:mixed;dominant-baseline:auto;baseline-shift:baseline;text-anchor:start;white-space:normal;shape-padding:0;clip-rule:nonzero;display:inline;overflow:visible;visibility:visible;opacity:1;isolation:auto;mix-blend-mode:normal;color-interpolation:sRGB;color-interpolation-filters:linearRGB;solid-color:#000000;solid-opacity:1;vector-effect:none;fill:#000000;fill-opacity:1;fill-rule:nonzero;stroke:none;stroke-width:0.26458332px;stroke-linecap:butt;stroke-linejoin:miter;stroke-miterlimit:4;stroke-dasharray:none;stroke-dashoffset:0;stroke-opacity:1;color-rendering:auto;image-rendering:auto;shape-rendering:auto;text-rendering:auto;enable-background:accumulate"
         inkscape:connector-curvature="0" />
      <path
         sodipodi:nodetypes="csccccccccccc"
         id="path25533"
         d="m 145.90625,100.74414 c -0.20353,0.0497 -0.39984,0.19539 -0.60352,0.39844 -0.20367,0.20304 -0.41081,0.4675 -0.61132,0.76562 -0.40103,0.59625 -0.77057,1.32919 -0.98243,1.98438 -0.10593,0.32759 -0.17315,0.63474 -0.18164,0.90234 -0.008,0.26761 0.04,0.50485 0.19922,0.66406 0.0553,0.0553 0.13036,0.0902 0.20508,0.0957 0.0747,0.006 0.14678,-0.0137 0.2168,-0.043 1.20765,-0.6282 1.42563,-1.35791 2.16208,-2.74836 0.43166,-0.75791 0.37343,-0.91743 0.13312,-1.76957 -0.0567,-0.10484 -0.13423,-0.1847 -0.23047,-0.22852 -0.0962,-0.0438 -0.20487,-0.0463 -0.30664,-0.0215 z"
         style="color:#000000;font-style:normal;font-variant:normal;font-weight:normal;font-stretch:normal;font-size:medium;line-height:normal;font-family:sans-serif;font-variant-ligatures:normal;font-variant-position:normal;font-variant-caps:normal;font-variant-numeric:normal;font-variant-alternates:normal;font-feature-settings:normal;text-indent:0;text-align:start;text-decoration:none;text-decoration-line:none;text-decoration-style:solid;text-decoration-color:#000000;letter-spacing:normal;word-spacing:normal;text-transform:none;writing-mode:lr-tb;direction:ltr;text-orientation:mixed;dominant-baseline:auto;baseline-shift:baseline;text-anchor:start;white-space:normal;shape-padding:0;clip-rule:nonzero;display:inline;overflow:visible;visibility:visible;opacity:1;isolation:auto;mix-blend-mode:normal;color-interpolation:sRGB;color-interpolation-filters:linearRGB;solid-color:#000000;solid-opacity:1;vector-effect:none;fill:#000000;fill-opacity:1;fill-rule:nonzero;stroke:none;stroke-width:0.26458332px;stroke-linecap:butt;stroke-linejoin:miter;stroke-miterlimit:4;stroke-dasharray:none;stroke-dashoffset:0;stroke-opacity:1;color-rendering:auto;image-rendering:auto;shape-rendering:auto;text-rendering:auto;enable-background:accumulate"
         inkscape:connector-curvature="0" />
      <path
         id="path25560"
         d="m 125.35547,97.617185 c 0,0.321734 0.19439,0.434852 0.32617,0.626953 0.004,0.0065 -0.003,0.01501 0.002,0.02148 0.003,0.004 0.0105,0.002 0.0137,0.0059 0.0869,0.117221 0.0795,0.360926 0.20703,0.398438 0.16852,0.04959 0.35963,-0.0036 0.50586,-0.146484 0.43745,-0.577937 0.39192,-1.012598 0.49613,-1.640673 0.005,-0.110196 3.2e-4,-0.199941 -0.0156,-0.27539 -0.0159,-0.07545 -0.0434,-0.144407 -0.10742,-0.19336 -0.68777,-0.009 -1.41884,0.529517 -1.42787,1.203136 z"
         style="color:#000000;font-style:normal;font-variant:normal;font-weight:normal;font-stretch:normal;font-size:medium;line-height:normal;font-family:sans-serif;font-variant-ligatures:normal;font-variant-position:normal;font-variant-caps:normal;font-variant-numeric:normal;font-variant-alternates:normal;font-feature-settings:normal;text-indent:0;text-align:start;text-decoration:none;text-decoration-line:none;text-decoration-style:solid;text-decoration-color:#000000;letter-spacing:normal;word-spacing:normal;text-transform:none;writing-mode:lr-tb;direction:ltr;text-orientation:mixed;dominant-baseline:auto;baseline-shift:baseline;text-anchor:start;white-space:normal;shape-padding:0;clip-rule:nonzero;display:inline;overflow:visible;visibility:visible;opacity:1;isolation:auto;mix-blend-mode:normal;color-interpolation:sRGB;color-interpolation-filters:linearRGB;solid-color:#000000;solid-opacity:1;vector-effect:none;fill:#000000;fill-opacity:1;fill-rule:nonzero;stroke:none;stroke-width:0.26458332px;stroke-linecap:butt;stroke-linejoin:miter;stroke-miterlimit:4;stroke-dasharray:none;stroke-dashoffset:0;stroke-opacity:1;color-rendering:auto;image-rendering:auto;shape-rendering:auto;text-rendering:auto;enable-background:accumulate"
         inkscape:connector-curvature="0" />
      <path
         sodipodi:nodetypes="cc"
         inkscape:connector-curvature="0"
         id="path25421-2"
         d="m 86.797207,138.13313 c 4.160521,-0.5918 12.528585,-2.98148 14.974933,-5.48639"
         style="fill:none;stroke:#000000;stroke-width:0.26458332px;stroke-linecap:butt;stroke-linejoin:miter;stroke-opacity:1" />
      <path
         id="path25502-5"
         d="m 165.44055,75.066726 c -0.33514,0.02146 -0.72091,0.20381 -1.06745,0.456135 -0.12907,0.09403 -0.19567,0.234407 -0.30957,0.345417 -0.0142,0.0073 -0.0269,-0.0015 -0.042,0.0088 -0.074,0.05051 -0.0916,0.153797 -0.15888,0.214037 -0.10215,0.124607 -0.25253,0.221249 -0.32048,0.358225 -0.0172,0.03553 -0.0106,0.07372 -0.0251,0.110236 -0.11376,0.173229 -0.29793,0.294704 -0.36113,0.488001 -0.15165,0.463461 -0.13865,0.955837 0.083,1.319831 0.15407,0.253047 0.48171,0.378539 0.83,0.411082 0.34829,0.03256 0.71818,-0.0159 0.97923,-0.322562 0.27775,-0.32627 0.39845,-0.634178 0.38731,-0.887199 0.0905,-0.09701 0.20367,-0.13176 0.27552,-0.255963 0.16471,-0.284769 0.28848,-0.620167 0.36722,-0.923922 0.0791,-0.303607 0.12261,-0.566295 0.0816,-0.760863 -0.0892,-0.423795 -0.3845,-0.583014 -0.71963,-0.561546 z"
         style="color:#000000;font-style:normal;font-variant:normal;font-weight:normal;font-stretch:normal;font-size:medium;line-height:normal;font-family:sans-serif;font-variant-ligatures:normal;font-variant-position:normal;font-variant-caps:normal;font-variant-numeric:normal;font-variant-alternates:normal;font-feature-settings:normal;text-indent:0;text-align:start;text-decoration:none;text-decoration-line:none;text-decoration-style:solid;text-decoration-color:#000000;letter-spacing:normal;word-spacing:normal;text-transform:none;writing-mode:lr-tb;direction:ltr;text-orientation:mixed;dominant-baseline:auto;baseline-shift:baseline;text-anchor:start;white-space:normal;shape-padding:0;clip-rule:nonzero;display:inline;overflow:visible;visibility:visible;opacity:1;isolation:auto;mix-blend-mode:normal;color-interpolation:sRGB;color-interpolation-filters:linearRGB;solid-color:#000000;solid-opacity:1;vector-effect:none;fill:#ffffff;fill-opacity:1;fill-rule:nonzero;stroke:none;stroke-width:0.29461586px;stroke-linecap:butt;stroke-linejoin:miter;stroke-miterlimit:4;stroke-dasharray:none;stroke-dashoffset:0;stroke-opacity:1;color-rendering:auto;image-rendering:auto;shape-rendering:auto;text-rendering:auto;enable-background:accumulate"
         inkscape:connector-curvature="0" />
      <path
         sodipodi:nodetypes="cc"
         inkscape:connector-curvature="0"
         id="path25670"
         d="m 140.04923,116.86034 c 18.32092,27.69427 3.80313,37.10766 -6.94901,57.19567"
         style="fill:none;stroke:#000000;stroke-width:0.86500001;stroke-linecap:round;stroke-linejoin:round;stroke-miterlimit:4;stroke-dasharray:none;stroke-opacity:1" />
      <path
         sodipodi:nodetypes="cc"
         inkscape:connector-curvature="0"
         id="path25672"
         d="m 160.89625,106.16956 c 8.49634,2.69719 9.46054,9.78013 9.35444,17.63979"
         style="fill:none;stroke:#000000;stroke-width:0.86500001;stroke-linecap:round;stroke-linejoin:round;stroke-miterlimit:4;stroke-dasharray:none;stroke-opacity:1" />
      <path
         sodipodi:nodetypes="cc"
         inkscape:connector-curvature="0"
         id="path25403"
         d="m 92.628722,118.13667 c 4.335127,9.31334 18.219388,28.61779 28.890618,28.61779"
         style="fill:none;stroke:#000000;stroke-width:0.86500001;stroke-linecap:round;stroke-linejoin:round;stroke-opacity:1;font-variant-east_asian:normal;opacity:1;vector-effect:none;fill-opacity:1;stroke-miterlimit:4;stroke-dasharray:none;stroke-dashoffset:0" />
      <path
         inkscape:connector-curvature="0"
         id="path25577"
         d="m 98.80971,118.10231 c -4.92936,1.04589 -12.559495,2.6165 -11.354786,8.56962"
         style="fill:none;stroke:#000000;stroke-width:0.86500001;stroke-linecap:round;stroke-linejoin:round;stroke-opacity:1;font-variant-east_asian:normal;opacity:1;vector-effect:none;fill-opacity:1;stroke-miterlimit:4;stroke-dasharray:none;stroke-dashoffset:0" />
    </g>
  </g>
</svg>
