<?xml version="1.0" encoding="utf-8"?>
<!-- Generator: Adobe Illustrator 26.2.1, SVG Export Plug-In . SVG Version: 6.00 Build 0)  -->
<svg version="1.1" id="Layer_1" xmlns="http://www.w3.org/2000/svg" xmlns:xlink="http://www.w3.org/1999/xlink" x="0px" y="0px"
	 viewBox="0 0 595.28 841.89" style="enable-background:new 0 0 595.28 841.89;" xml:space="preserve">
<style type="text/css">
	.st0{fill:none;}
	.st1{fill:#563D19;}
	.st2{fill:#925E1B;}
	.st3{fill:#ECC694;}
	.st4{fill:#E39C4D;}
	.st5{fill:#D09100;}
	.st6{fill:#FFFFFF;}
	.st7{fill:#2E3191;}
</style>
<g>
	<path class="st0" d="M350.09,320.98c-7.09,0.21-15.28-0.55-22.37-2.27c-0.9-0.22-3.06,0.49-3.43,1c0.44,0.03,0.87,0.07,1.3,0.11
		c7.89,0.62,17.19,2.61,24.13,6.72C349.63,324.58,349.81,322.67,350.09,320.98z"/>
	<path class="st1" d="M300.43,310.81c-13.16-4.82-19.89-8.47-38.8-15.25c-18.92-6.78-40.36-5.34-51.52,1.01
		c-11.15,6.35-15.42,15.7-15.65,42.85c-0.24,28.14,10.16,53.83,19.06,75.66s26.54,51.72,32.05,61.18c2.11,3.63,4.93,8.38,7.6,12.85
		c-0.03-0.42-0.04-0.85-0.04-1.28c0-5.52,0-14.76,1.9-21.97c0,0,0,0,0-0.01c-0.48-0.4-3.52-3.08-4.79-7.56
		c-1.28-4.55,1.41-9.93,4.01-15.13c0.28-0.57,0.56-1.13,0.83-1.67c1.91-3.9,6.11-11.17,12.74-16.05c3.82-2.82,6.43-4.19,8.81-4.9
		l-4.24-3.15c0,0-0.96-0.82-1.76-4.33c-2.09-1.56-3.88-3.41-5.1-5.57c-0.48-0.85-0.94-1.65-1.39-2.41
		c-3.2-5.47-5.72-9.79-4.88-19.02c0.8-8.84,5.62-16.31,8.8-21.24c0.51-0.79,0.98-1.52,1.4-2.2c3.06-4.97,5.27-9.69,6.09-16.56
		c0.73-6.05,1.74-11.23,5.92-15.29c-0.69-0.42-1.71-1.13-3.12-2.34c-2.21-1.91-4.53-4.28-4.92-7.37c-0.26-2.09,0.19-3.94,1.3-5.35
		c0.73-0.93,2.09-2.09,4.45-2.37c2.24-0.26,6.29,0.2,8.26,6.28c0.72,2.23,0.48,5.12,0.15,7.11c5.67-2.68,13.83-5.6,23.62-6.53
		c4.37-1.66,8.87-3.36,9.13-3.41C320.34,316.78,313,315.42,300.43,310.81z"/>
	<path class="st2" d="M394.23,290.43c-2.54-13.61-18.35-20.28-41.04-27.05c-5.67-1.69-11.52-2.93-17.76-3.7
		c-1.56-0.19-3.15-0.36-4.76-0.49c-1.61-0.14-3.26-0.24-4.93-0.32c-1.67-0.08-3.38-0.12-5.12-0.14c-0.87-0.01-1.75-0.01-2.64-0.01
		c-3.55,0.02-7.25,0.16-11.12,0.41c-1.94,0.13-3.92,0.28-5.95,0.47s-4.1,0.4-6.23,0.65c-1.06,0.12-2.14,0.25-3.23,0.39
		c-2.18,0.27-4.41,0.58-6.69,0.91c-2.28,0.33-4.63,0.7-7.03,1.09c-4.8,0.79-9.84,1.69-15.14,2.71
		c-37.99,7.33-49.1,21.64-51.01,24.55c-0.13,0.19-0.21,0.33-0.26,0.42c-0.04,0.07-0.06,0.11-0.06,0.11s0.24-0.09,0.66-0.24
		c3.58-1.27,21.52-7.05,41.5-3.38c3.19,0.59,6.78,1.54,10.63,2.74c10.91,3.39,23.93,8.8,36.05,13.78
		c9.16,3.76,17.77,7.26,24.58,9.46c0.6,0.2,1.22,0.4,1.79,0.57c1.07,0.33,2.14,0.61,3.2,0.88c0.14,0.03,0.28,0.07,0.42,0.11
		c1,0.25,2,0.46,2.99,0.66c0.18,0.04,0.36,0.07,0.53,0.1c0.98,0.18,1.94,0.35,2.9,0.49c0.16,0.02,0.33,0.05,0.49,0.07
		c0.98,0.14,1.96,0.26,2.92,0.35c0.09,0.01,0.17,0.01,0.26,0.02c0.95,0.09,1.9,0.16,2.83,0.21c0.09,0,0.18,0.01,0.27,0.02
		c0.94,0.05,1.86,0.08,2.77,0.09c0.16,0,0.31,0.01,0.47,0.01c0.88,0.01,1.75,0,2.61-0.02c0.16,0,0.33-0.01,0.49-0.01
		c0.52-0.01,1.03-0.04,1.54-0.07c0.08-0.24,0.17-0.49,0.28-0.76c0.48-1.16,1.31-2.52,2.81-3.29c1.5-0.77,3.24-0.76,5.18,0.02
		c1.36,0.56,2.36,1.31,3.14,2.1c0.19,0.2,0.37,0.39,0.54,0.59c0,0,0,0,0,0c0.2-0.03,0.39-0.07,0.59-0.11
		c0.06-0.01,0.12-0.02,0.17-0.03c1.51-0.27,2.93-0.55,4.25-0.82c0.22-0.04,0.43-0.09,0.65-0.13c0.32-0.07,0.64-0.13,0.95-0.2
		c0.47-0.1,0.93-0.2,1.37-0.29C380.39,311.38,396.57,302.97,394.23,290.43z"/>
	<g>
		<path class="st3" d="M302.97,361.74c-3.78-3.37-5.78-7.5-6.59-9.48c-0.3-0.73-0.43-1.17-0.43-1.17s-1.7,1.18-2.89,2.97
			c-1.19,1.79-2.19,3.6-3.43,9.54c-0.48,2.28-0.75,4.21-0.84,6.15c0.12,0.01,0.23,0.03,0.35,0.04c5.05,0.62,10,1.77,14.88,3.31
			c0.51,0.17,0.8,0.72,0.63,1.23c-0.17,0.54-0.78,0.82-1.3,0.6c-3.88-1.38-8.95-2.99-14.2-3.97c-0.13-0.02-0.26-0.05-0.39-0.07
			c-0.01,0.98,0.01,2,0.08,3.08c0.01,0.1,0.01,0.2,0.02,0.3c0.02,0.34,0.05,0.69,0.08,1.05c0,0,0,0,0,0.01
			c0.03,0.35,0.06,0.72,0.1,1.09c0,0.01,0,0.02,0,0.03c0.04,0.36,0.07,0.74,0.12,1.12c0,0.02,0.01,0.05,0.01,0.07
			c0.02,0.15,0.03,0.29,0.05,0.44c0,0,0,0,0,0c0.02,0,0.04,0,0.06,0c0.16,0,0.31-0.01,0.47-0.01c2.05-0.03,4.09,0.06,6.18,0.31
			c0.54,0.06,0.92,0.55,0.86,1.09c-0.06,0.57-0.62,0.97-1.18,0.84c-1.81-0.28-3.69-0.49-5.6-0.61c-0.2-0.01-0.4-0.02-0.6-0.03
			c0.04,0.36,0.09,0.73,0.14,1.11c0,0.01,0,0.01,0,0.02c0.02,0.16,0.05,0.31,0.07,0.47c0.02,0.13,0.04,0.26,0.06,0.39
			c0,0.03,0.01,0.05,0.01,0.08c0.06,0.37,0.12,0.73,0.19,1.09c0.02,0.08,0.03,0.16,0.05,0.24c0.08,0.41,0.17,0.81,0.26,1.21
			c0.04,0.16,0.07,0.31,0.11,0.47c0.07,0.28,0.14,0.55,0.22,0.82c0.07,0.25,0.14,0.51,0.21,0.75c0.01,0.04,0.03,0.08,0.04,0.12
			c0.05,0.17,0.11,0.34,0.17,0.51c0.05-0.02,0.1-0.04,0.15-0.05c0.27-0.1,0.54-0.2,0.81-0.3c3.13-1.08,6.38-1.83,9.7-2.27
			c1.34-0.13,1.49,1.88,0.14,1.95c-3.09,0.25-6.25,0.8-9.35,1.68c-0.33,0.09-0.66,0.2-0.99,0.3c1.65,4.39,4.07,8.02,6.54,10.45
			c3.92,3.86,8.19,6.77,8.19,6.77s0.31-0.18,0.75-0.44c0.5-0.29,1.18-0.68,1.81-1.03c1.19-0.66,8.51-6.35,8.51-6.35
			s-0.05-5.75,0-10.94c0.05-5.19,0-17.04,0-17.04C311.42,368.33,307.5,365.78,302.97,361.74z"/>
		<path class="st3" d="M350.6,371.42c0-0.03,0-0.06,0-0.08c0-0.06-0.01-0.11-0.01-0.17c-0.05-1.18-0.16-2.3-0.35-3.37
			c-0.29,0.05-0.58,0.1-0.87,0.16c-5.69,1.06-11.18,2.83-15.34,4.32c-1.26,0.49-1.99-1.42-0.69-1.88c4.3-1.31,9.96-2.83,15.79-3.63
			c0.3-0.04,0.59-0.08,0.89-0.12c-0.31-1.37-0.75-2.68-1.33-3.97c-2.98-6.68-6.49-10.45-6.49-10.45s-0.38,0.46-1.03,1.2
			c-1.8,2.05-5.7,6.36-9.7,9.7c-5.52,4.62-11.49,6.85-11.66,6.53v27.37c0,0,2.18,2.67,4.89,4.61c3.28,2.35,6.36,3.37,8.25,3.81
			c1.19,0.28,1.92,0.33,1.92,0.33s4.33-2.64,7.53-7.72c2.5-3.97,4.48-5.95,5.99-10.8c-0.23-0.08-0.47-0.16-0.7-0.23
			c-0.83-0.26-1.67-0.5-2.51-0.71c-3.04-0.77-6.19-1.34-9.25-1.55c-1.34-0.12-1.16-2.13,0.19-1.99c3.98,0.55,8.02,1.5,11.89,2.9
			c0.07,0.03,0.14,0.05,0.21,0.08c0.18,0.07,0.36,0.14,0.54,0.21c0.04-0.14,0.07-0.27,0.11-0.41c0.04-0.15,0.07-0.3,0.11-0.45
			c0.07-0.27,0.13-0.56,0.2-0.85c0.03-0.14,0.06-0.29,0.1-0.44c0.09-0.44,0.19-0.9,0.27-1.39c0.19-1.07,0.36-2.08,0.51-3.06
			c0-0.03,0.01-0.06,0.01-0.09c0.03-0.18,0.05-0.35,0.07-0.53c0.03-0.21,0.06-0.43,0.09-0.63c0.05-0.36,0.09-0.72,0.13-1.07
			c-0.03,0-0.06,0-0.09,0c-0.05,0-0.09,0-0.14,0c-2.67-0.02-5.37,0.12-7.97,0.47c-1.34,0.15-1.56-1.86-0.2-1.99
			c2.55-0.11,5.28-0.14,8.06,0.02c0.04,0,0.09,0,0.13,0.01c0.1,0.01,0.2,0.02,0.29,0.02c0.02,0,0.03,0,0.05,0
			c0.12-1.44,0.16-2.79,0.13-4.07C350.6,371.47,350.6,371.44,350.6,371.42z"/>
	</g>
	<g>
		<path class="st4" d="M404.65,550.6c-0.71-0.46-2.2-1.38-4.05-2.22c-1.02-0.47-2.15-0.91-3.31-1.24c-4.27-1.21-5.41-1.43-8.94-1.76
			c-3.53-0.33-6.12-0.68-6.12-0.68s5.46,0,11.44,0.75c2.5,0.32,4.72,0.89,6.51,1.49c1.82,0.61,3.19,1.23,3.96,1.62
			c-0.07-0.91-0.22-2.13-0.5-2.74c-0.41-0.9-0.96-1.44-3.31-3.41c-1.81-0.48-4.7-1.17-8.26-1.72c-0.3-0.05-0.58-0.09-0.87-0.13
			c-4.25-0.65-7.44-1.1-8.77-1.28c-0.43-0.06-0.67-0.09-0.67-0.09s6.31-0.14,11.11,0.52c2.36,0.32,4.1,0.65,5.27,0.89
			c-2.93-2.35-5.5-3.8-11.35-4.56c-6.49-0.85-18.26,0.56-30.87,1.51c-12.61,0.94-10.92-0.28-11.48-1.32
			c-0.56-1.04-0.66-7.62-0.66-7.62s2.92-2.07,7.72-4.99c1.56-0.95,3.58-2.44,5.86-4.47c-0.6,0.06-1.2,0.11-1.8,0.17
			c-1.51,0.14-3.02,0.29-4.53,0.42c-0.06,0-0.11,0.01-0.17,0.02c-1.13,0.09-2.26,0.16-3.39,0.24c-1.54,0.11-3.08,0.24-4.62,0.33
			c-1.19,0.07-2.38,0.12-3.56,0.18c-1.48,0.08-2.96,0.17-4.44,0.23c-1.08,0.04-2.16,0.06-3.23,0.1c-1.59,0.05-3.18,0.11-4.78,0.15
			c-0.98,0.02-1.97,0.02-2.95,0.03c-1.69,0.02-3.37,0.05-5.06,0.05c-1.04,0-2.08-0.02-3.12-0.03c-1.63-0.01-3.26-0.02-4.89-0.05
			c-1.12-0.02-2.23-0.07-3.35-0.1c-1.55-0.05-3.11-0.08-4.66-0.14c-1.17-0.05-2.33-0.12-3.5-0.18c-1.5-0.08-3-0.14-4.51-0.23
			c-1.23-0.08-2.45-0.18-3.68-0.26c-1.44-0.1-2.89-0.19-4.33-0.31c-1.19-0.1-2.38-0.22-3.56-0.33c-0.75-0.07-1.5-0.14-2.25-0.21
			c-0.73-0.07-1.46-0.13-2.19-0.2c-1.23-0.13-2.46-0.28-3.68-0.42c-0.15-0.02-0.29-0.03-0.44-0.05c1.54,1.31,3.06,2.54,4.45,3.66
			c5.74,4.61,9.88,6.21,9.88,6.21s0.75,5.93,1.51,10.35c0.75,4.42-0.85,4.33-3.48,6.96c-2.64,2.64-12.99,8.28-19.86,12.14
			c-6.87,3.86-10.92,7.34-11.48,10.07c-0.56,2.73,1.41,4.99,1.41,4.99s0.75-0.38,2.51-1.51c1.76-1.13,10.95-7.53,15.47-10.16
			c4.52-2.64,9.23-5.84,9.23-5.84s-2.27,2.92-4.24,4.71c-1.98,1.79-10.26,6.02-13.74,8.09c-3.48,2.07-5.93,3.67-6.59,6.78
			c-0.66,3.11,1.32,3.48,5.08,5.18s3.48-0.94,4.89-2.82c1.41-1.88,8.09-7.44,10.26-9.13c2.16-1.69,12.8-8.56,12.8-8.56
			s-2.45,2.73-5.84,5.55c-3.39,2.82-8.56,6.78-12.05,9.88c-3.48,3.11-4.71,4.99-3.95,7.44c0.75,2.45,1.41,1.69,6.59,3.2
			c5.18,1.51,11.48-3.86,16.85-8.66s11.76-19.95,13.65-23.72c1.88-3.76,0.75-7.15-0.66-8.47c-1.41-1.32-5.46-5.08-6.49-6.31
			c-1.04-1.22-0.75-6.21-0.75-6.21v0l0,0c0.01,0,6.5,1.41,16.19,1.6c9.69,0.19,16.19-2.35,16.47-2.07c0.28,0.28,0.56,4.71,0.66,8.47
			s0.09,6.68,1.32,8.09s2.45,1.6,7.62,0.85c5.18-0.75,13.84-0.38,23.91,1.6c10.07,1.98,20.61,4.89,27.29,6.59
			c6.68,1.69,9.13-0.38,10.64-3.11C405.09,552.78,404.93,551.44,404.65,550.6z"/>
		<path class="st4" d="M257.29,463.19c0,0,0,0,0.75-3.58s6.12-7.81,6.12-7.81s2.02-0.54,4.73-1.41c0.26-0.08,0.53-0.17,0.8-0.26
			c0.32-0.1,0.64-0.21,0.96-0.33c0.05-0.02,0.1-0.04,0.16-0.05c0.29-0.1,0.58-0.2,0.88-0.31c0.09-0.03,0.19-0.07,0.28-0.1
			c0.26-0.09,0.53-0.19,0.8-0.29c0.14-0.05,0.27-0.1,0.41-0.15c0.23-0.09,0.46-0.17,0.7-0.26c0.17-0.07,0.35-0.14,0.52-0.2
			c0.01,0,0.01,0,0.02-0.01c0.2-0.08,0.39-0.15,0.59-0.23c0.2-0.08,0.4-0.17,0.6-0.25c0.17-0.07,0.35-0.14,0.52-0.22
			c0.24-0.1,0.47-0.21,0.7-0.31c0.13-0.06,0.27-0.12,0.4-0.18c0.36-0.17,0.71-0.33,1.05-0.51c3.76-1.88,8.13-5.13,10.65-7.1
			c1.23-0.97,2.02-1.62,2.05-1.65c0,0,0.01-0.01,0.01-0.01s-0.01,0.01-0.01,0.01c-0.04,0.04-1.08,1.08-2.6,2.51
			c-1.12,1.05-2.49,2.31-3.9,3.54c0.08-0.01,0.15-0.01,0.23-0.02c1.3-0.11,2.6-0.22,3.9-0.32c0.54-0.04,1.09-0.1,1.63-0.14
			c0.68-0.05,1.37-0.08,2.05-0.13c1.56-0.11,3.12-0.21,4.69-0.29c0.61-0.03,1.23-0.08,1.84-0.11c1.03-0.05,2.05-0.09,3.08-0.14
			c0.47-0.02,0.94-0.04,1.41-0.06c2.33-0.09,4.66-0.16,6.99-0.22c0.51-0.01,1.03-0.02,1.54-0.03c2.04-0.04,4.08-0.06,6.13-0.06
			c0.42,0,0.85-0.01,1.27-0.01c2.33,0,4.66,0.03,7,0.07c0.54,0.01,1.08,0.02,1.62,0.04c2.08,0.05,4.16,0.11,6.24,0.19
			c0.36,0.01,0.71,0.02,1.07,0.04c2.34,0.1,4.68,0.22,7.02,0.36c0.56,0.03,1.11,0.07,1.67,0.11c2.14,0.14,4.28,0.29,6.42,0.46
			c0.27,0.02,0.54,0.04,0.81,0.06c2.35,0.19,4.7,0.42,7.05,0.65c0.57,0.06,1.13,0.12,1.7,0.18c2.16,0.23,4.32,0.47,6.49,0.73
			c0.07,0.01,0.14,0.02,0.2,0.02c0.16,0.02,0.32,0.04,0.48,0.06c1.19,0.15,2.38,0.31,3.56,0.46c-2.58-5.01-5.57-9.59-7.74-13.52
			c-3.95-7.15-8.47-17.32-8.47-17.32l-0.47,0.06l-21.91,2.81l-0.33,0.04l-2.47,6.17h-15.3l-2.17-3.87l-0.27-0.49
			c0,0-9.75,0.73-16.48,1.02c-1.18,0.05-2.26,0.09-3.19,0.1c-6.21,0.11-9.04-1.8-8.94-0.86s2.73,3.29,2.73,3.29s-2.35-0.28-5.08,0
			c-2.73,0.28-5.18,0.94-10.54,4.89s-9.32,9.98-11.67,14.78c-2.35,4.8-5.65,10.64-4.61,14.31
			C254.65,461.03,257.29,463.19,257.29,463.19z"/>
		<path class="st4" d="M362.6,424.18c0,0,0.01,0.13,0.04,0.37c0.13,0.85,0.68,3.18,2.99,6.76c2.96,4.59,4.59,8.05,7.48,12.64
			c2.05,3.25,4.09,8.85,5.11,11.86c0.42,1.24,0.67,2.05,0.67,2.05s3.53-4.87,3.88-9.39c0.35-4.52-0.07-8.33-5.86-12.99
			C371.14,430.81,362.6,424.18,362.6,424.18z"/>
		<path class="st4" d="M365.97,398.51c-1.2-1.48-2.51-2.86-3.99-4.06c-2.38-1.96-5.01-3.57-7.78-4.89c-1.05-0.5-2.13-0.95-3.22-1.37
			c-1.38,3.08-3.14,5.89-4.94,8.84c-3.86,6.31-10.88,11.11-10.88,11.11l-2.51,6.21l-0.08,0.19c0,0,2.92-0.28,11.76-1.13
			c3.28-0.31,6.16-0.82,8.84-1.69c4.56-1.47,8.55-3.96,12.99-8.29c0.68-0.66,1.31-1.34,1.93-2.04
			C367.44,400.39,366.72,399.44,365.97,398.51z"/>
		<path class="st4" d="M269.83,407.54c4.69,5.6,15.16,8.85,21.15,9.54c1.15,0.13,2.49,0.22,3.91,0.27
			c6.75,0.24,15.47-0.27,15.47-0.27l-0.38-0.66l-4.79-8.26c0,0-9.21-6.49-13.44-13.55c-1.03-1.72-1.93-3.59-2.72-5.57
			c-1.1,0.41-2.18,0.84-3.24,1.34c-6.12,2.88-11.36,7.32-14.25,13.57c-0.13,0.29-0.28,0.56-0.41,0.85c0.11-0.32,0.23-0.63,0.36-0.93
			c2.27-5.63,6.66-10.25,11.86-13.36c0.68-0.4,1.37-0.79,2.06-1.15c0.81-0.43,1.64-0.83,2.48-1.2c0.23-0.1,0.47-0.2,0.7-0.3
			c-0.74-2.02-1.35-4.15-1.82-6.4c-0.12-0.58-0.24-1.18-0.34-1.77c0-0.03-0.01-0.06-0.01-0.09c-0.27,0-0.55,0.01-0.82,0.02
			c-0.9,0.03-1.8,0.09-2.69,0.18c-4.46,0.45-8.77,1.73-12.36,4.39c-0.44,0.33-0.88,0.68-1.3,1.05c-0.96,0.92-1.81,1.95-2.54,3.08
			c0.66-1.16,1.45-2.26,2.37-3.25c0.49-0.51,1.02-0.98,1.56-1.42c3.42-2.79,7.71-4.26,12.09-4.98c0.93-0.15,1.86-0.27,2.79-0.36
			c0.23-0.02,0.46-0.04,0.69-0.06c-0.16-1.12-0.29-2.26-0.39-3.42c0-0.01,0-0.02,0-0.03c-0.03-0.32-0.06-0.63-0.09-0.96
			c-0.07-1.1-0.12-2.21-0.13-3.34c0-0.02,0-0.04,0-0.06c-1.17-0.14-2.34-0.25-3.5-0.3c-2.76-0.13-5.44,0.02-7.92,0.58
			c-0.65,0.15-1.3,0.32-1.92,0.53c-2.19,0.73-4.16,1.84-5.79,3.43c1.7-1.89,3.81-3.14,6.12-3.95c0.59-0.21,1.19-0.38,1.8-0.53
			c2.5-0.63,5.15-0.84,7.72-0.84c0.88,0,1.76,0.02,2.61,0.06c0.3,0.02,0.59,0.05,0.89,0.07c0.14-8.81,3.22-14.45,6.39-18.07
			c3.29-3.76,10.35-5.46,19.29-6.31s17.88,0,25.51,2.35c7.62,2.35,9.98,6.68,12.71,10.64c1.26,1.82,2.35,4.86,3.1,8.31
			c1.19-0.1,2.37-0.16,3.55-0.17c5.92-0.07,11.49,1.02,15.43,4.28c0.33,0.27,0.64,0.55,0.95,0.85c-0.29-0.26-0.58-0.5-0.88-0.73
			c-4-3.05-9.52-3.88-15.33-3.54c-1.16,0.07-2.33,0.18-3.5,0.33c0.24,1.28,0.44,2.6,0.57,3.94c0,0,0,0,0,0
			c0.09,0.85,0.15,1.7,0.19,2.55c0,0.04,0,0.08,0.01,0.11c0.03,0.62,0.04,1.25,0.04,1.86c0,0,0,0,0,0c0.02,0,0.03,0,0.05,0.01
			c0.21,0.03,0.43,0.05,0.65,0.07c0.94,0.13,1.87,0.29,2.8,0.47c6.08,1.2,11.75,3.7,15.42,8.57c-1.73-2.14-3.99-3.77-6.45-4.91
			c-2.85-1.32-5.9-2.09-9.01-2.53c-0.95-0.13-1.9-0.25-2.86-0.32c-0.21-0.02-0.42-0.03-0.63-0.04c0,0,0,0.01,0,0.01
			c-0.03,0.61-0.06,1.22-0.12,1.81c-0.01,0.06-0.01,0.11-0.02,0.17c-0.02,0.16-0.04,0.32-0.06,0.49v0
			c-0.18,1.47-0.46,2.85-0.83,4.17c0,0.01-0.01,0.03-0.01,0.04c-0.17,0.62-0.37,1.22-0.57,1.82c-0.03,0.08-0.06,0.16-0.09,0.24
			c-0.14,0.39-0.29,0.78-0.44,1.16c0.04,0.02,0.09,0.04,0.13,0.06c1.03,0.46,2.04,0.95,3.02,1.49c4.47,2.43,8.45,5.64,11.51,9.71
			c0.72,0.96,1.4,1.97,2.01,3.03c5.81-6.58,8.93-14.75,9.27-21.39c0.38-7.34-3.95-14.49-8.19-18.73
			c-4.24-4.24-9.69-8.66-11.01-13.55c-1.32-4.89-6.02-13.65-10.73-17.41c-4.71-3.76-14.87-6.4-27.67-6.87
			c-6.84-0.25-13.13,0.66-18.65,2.1c-4.81,1.26-9.04,2.92-12.51,4.58c-0.76,0.37-1.44,0.75-2.08,1.15
			c-0.57,0.36-1.11,0.72-1.59,1.11c-4.23,3.37-5.18,7.83-5.94,14.12c-0.94,7.81-3.58,13.08-6.59,17.98
			c-3.01,4.89-8.85,12.61-9.69,21.93c-0.85,9.32,2.07,12.71,5.84,19.39C268.92,406.39,269.36,406.97,269.83,407.54z M297.13,345.36
			c-1.05,0.21-1.78,0.18-2.45-0.11c-0.81-0.35-1.5-1.1-2.48-2.34c-1.11-1.4-1.78-1.53-2.53-1.43c-0.46,0.06-0.95,0.21-1.58,0.21
			c-1.67,0-3.89-0.85-3.68-0.85c0.14,0,3.21-0.43,6.22-0.82c1.42-0.19,2.84-0.37,3.92-0.49c4.25-0.49,5.55,1.13,5.55,2.99
			c0,0.33-0.03,0.61-0.08,0.86C299.81,344.54,299.04,344.97,297.13,345.36z M352.05,340.84c0.07,0-0.16,0.11-0.55,0.24
			c-0.73,0.25-2.05,0.61-3.13,0.61c-1.67,0-2.33-1.04-4.12,1.22c-1.17,1.47-1.93,2.25-2.95,2.5c-0.55,0.13-1.17,0.11-1.98-0.05
			c-1.73-0.35-2.53-0.73-2.83-1.66c-0.1-0.32-0.15-0.71-0.15-1.19c0-1.86,1.31-3.48,5.56-2.99c2.74,0.31,7.57,0.98,9.42,1.23
			C351.74,340.8,352.01,340.84,352.05,340.84z"/>
	</g>
	<g>
		<path class="st5" d="M361.61,319.07c-0.63-1.15-1.22-2.15-2.27-2.91c-0.23-0.16-0.48-0.31-0.76-0.45
			c-0.06-0.03-0.12-0.06-0.18-0.08c0,0,0,0,0,0c-0.11-0.05-0.21-0.11-0.33-0.15c-0.45-0.18-0.85-0.29-1.22-0.33
			c-0.1-0.01-0.19-0.01-0.28-0.01c-0.21,0.01-0.4,0.05-0.58,0.12c-0.01,0-0.01,0-0.02,0c0,0,0.01,0,0.01,0
			c-0.34,0.13-0.64,0.36-0.9,0.73c-0.06,0.09-0.13,0.19-0.18,0.3c-0.01,0.02-0.02,0.05-0.04,0.07c-0.02,0.03-0.03,0.07-0.05,0.1
			c-0.05,0.1-0.09,0.2-0.14,0.31c0,0.01-0.01,0.02-0.01,0.03c-0.02,0.05-0.04,0.1-0.06,0.15c-0.04,0.12-0.09,0.24-0.13,0.37
			c-0.02,0.05-0.03,0.1-0.05,0.16c-0.06,0.19-0.11,0.38-0.16,0.6c-0.66,2.76-1.48,6.57-0.85,10.04c0.02,0.09,0.03,0.18,0.05,0.27
			c0.03,0.16,0.05,0.32,0.09,0.48c0,0,0.16-0.1,0.42-0.28c0.07-0.04,0.14-0.09,0.22-0.15c1.12-0.77,3.44-2.48,4.8-4.31
			C360.84,321.69,362.46,320.63,361.61,319.07z"/>
		<path class="st5" d="M279.59,316.81c-2.4,0.28-2.89,2.12-2.68,3.81c0.21,1.69,1.6,3.32,3.73,5.15c2.13,1.84,3.12,2.26,3.12,2.26
			s1.2-4.73,0.35-7.34S281.99,316.53,279.59,316.81z"/>
	</g>
	<g>
		<path class="st6" d="M332.32,407.74c-0.17-0.01-0.42-0.04-0.74-0.1c-1.04-0.18-2.85-0.64-5.12-1.87
			c-2.14-1.15-3.86-2.66-4.93-3.71c-0.39-0.38-0.69-0.71-0.89-0.93c-0.19-0.22-0.3-0.35-0.3-0.35l1.16,19.89l0.06,1.1h6.21
			l1.08-3.17l0.76-2.22l0.53-1.56l0.27-0.79l2.07-6.05l0.02-0.06l0.06-0.17c0,0-0.07,0-0.2-0.01
			C332.36,407.74,332.34,407.74,332.32,407.74z"/>
		<polygon class="st6" points="320.28,421.25 320.21,420.68 317.73,400.94 317.72,400.85 317.71,400.79 317.65,400.83 317.6,400.87 
			317.04,401.27 312.45,404.52 308.69,407.18 308.67,407.19 308.67,407.19 307.98,407.68 312.13,416.4 313.33,418.92 314.59,421.55 
			314.7,421.78 316.35,421.78 319.83,421.78 319.9,421.78 320.34,421.78 320.3,421.39 		"/>
		<path class="st6" d="M337.28,351.3c-0.74-0.94-2.86-1.71-6.2-1.89c-0.38-0.02-0.77-0.04-1.17-0.07c-2.79-0.16-5.83-0.3-6.07,1.1
			c-0.02,0.1-0.02,0.2-0.01,0.3c0.03,0.2,0.11,0.39,0.24,0.58c0.07,0.09,0.14,0.19,0.23,0.28c0.27,0.27,0.63,0.53,1.07,0.77
			c0.14,0.08,0.3,0.15,0.45,0.23c1.26,0.58,2.91,0.95,4.32,0.95c0.53,0,1.12,0,1.72-0.01c1.01-0.01,2.06-0.05,2.99-0.16
			c0.32-0.04,0.62-0.08,0.9-0.13c0.04-0.01,0.09-0.01,0.13-0.02c0.59-0.12,1.07-0.28,1.36-0.51c0.1-0.07,0.18-0.16,0.23-0.25
			c0,0,0.01-0.01,0.01-0.01c0.04-0.07,0.06-0.14,0.08-0.21c0-0.01,0.01-0.01,0.01-0.02c0,0,0,0,0,0c0.01-0.08,0.01-0.16,0.01-0.25
			c-0.01-0.16-0.07-0.33-0.16-0.48C337.38,351.43,337.33,351.36,337.28,351.3z"/>
		<path class="st6" d="M297.13,340.22c-0.99,0-1.79,0.8-1.79,1.79s0.8,1.79,1.79,1.79s1.79-0.8,1.79-1.79
			S298.12,340.22,297.13,340.22z"/>
		<path class="st6" d="M341.1,340.22c-0.99,0-1.79,0.8-1.79,1.79s0.8,1.79,1.79,1.79c0.99,0,1.79-0.8,1.79-1.79
			S342.09,340.22,341.1,340.22z"/>
	</g>
	<g>
		<path d="M407.66,548.7c-0.09-1.34-0.3-3.15-0.83-4.33c-0.81-1.79-1.8-2.61-5.46-5.66c-3.7-3.08-6.68-5.18-14.12-6.15
			c-5.37-0.7-13.59-0.01-23.1,0.8c-2.75,0.23-5.59,0.47-8.48,0.69c-4.6,0.34-6.91,0.36-8.07,0.3c-0.11-0.86-0.2-2.35-0.26-3.94
			c1.29-0.87,3.36-2.21,5.99-3.81c5.78-3.52,15.24-12.26,22.85-25.32c7.16-12.28,5.49-27.37,3.57-38.14
			c0.8-0.87,5.27-5.97,6.57-12.6c1.69-8.66-2.28-13.33-4.54-15.78c-1.8-1.95-16.05-11.79-21.78-15.72
			c-1.29-2.75-2.23-4.82-2.42-5.27c3.9-1.74,7.39-4.26,11.06-7.84c7.1-6.91,11.79-16.78,12.25-25.76
			c0.44-8.54-4.47-16.65-9.21-21.38c-0.79-0.79-1.61-1.58-2.45-2.38c-3.36-3.22-6.83-6.55-7.66-9.61
			c-0.99-3.67-3.75-9.53-7.26-14.24l1.13-0.71c0.42-0.27,4.22-2.69,6.38-5.61c0.42-0.56,0.82-1.04,1.18-1.47
			c1.04-1.23,2.63-3.13,2.32-5.51c5.13-0.98,11.84-2.4,16.44-4.69c7.41-3.58,14.88-9.39,16.89-17.83
			c1.46-6.32-0.98-12.94-4.88-17.89c-4.86-6-11.91-9.81-18.85-12.81c-10.24-4.17-20.8-7.59-31.65-9.77
			c-27.33-4.96-55.21-0.12-82.19,4.8c-40.53,7.39-59.03,32.24-61,35.34c-1.98,3.11-6.29,9.73-8.11,19.69
			c-1.84,9.6-2.02,19.38-1.79,29.12c0.84,19.51,6.38,38.44,13.37,56.56c13.62,37.68,36.05,70.74,55.94,105.26
			c0,0,0.43,1.18,1.79,2.65c3.73,5.29,9.66,10.42,15.66,15.24c3.77,3.03,6.94,4.86,8.85,5.84c0.29,2.13,0.78,5.65,1.28,8.58
			c0.16,0.96,0.14,1.39,0.12,1.53c-0.15,0.16-0.52,0.48-0.83,0.74c-0.5,0.42-1.12,0.94-1.81,1.63c-2,2-10.86,6.96-16.73,10.24
			l-2.37,1.33c-10.78,6.05-12.69,9.98-13.2,12.41c-0.89,4.31,1.89,7.64,2.21,8c0.45,0.51,1.02,0.87,1.64,1.05
			c0.09,3.97,3.46,5.43,6.01,6.53c0.39,0.17,0.82,0.35,1.26,0.55c1.65,0.74,3.12,1,4.4,0.76c1.19,3.18,3.32,3.66,5.57,4.16
			c0.82,0.18,1.84,0.41,3.19,0.8c0.95,0.28,1.91,0.4,2.86,0.4c6.33,0,12.57-5.59,17.3-9.81c4.6-4.12,9.2-13.53,13.16-22.04
			c0.54-1.16,0.98-2.1,1.29-2.72c2.53-5.05,1.21-10.16-1.4-12.59l-0.2-0.19c-3.05-2.84-4.98-4.71-5.77-5.56
			c0-0.02-0.01-0.04-0.01-0.06c2.96,0.4,7.27,0.84,12.47,0.95c5.79,0.12,10.45-0.67,13.52-1.34c0.07,1.21,0.14,2.7,0.18,4.33
			l0.01,0.61c0.1,4.14,0.18,7.4,2.16,9.69c2.63,3.03,5.81,2.74,10.77,2.02c5.29-0.77,13.79-0.18,22.73,1.57
			c7.83,1.54,15.89,3.63,22.36,5.32c1.73,0.45,3.32,0.87,4.75,1.23c7.03,1.78,11.79,0.21,14.56-4.81
			C408.89,553.14,408.45,550.41,407.66,548.7z M362.6,424.18c0,0,8.54,6.64,14.33,11.29c5.79,4.66,6.21,8.47,5.86,12.99
			c-0.35,4.52-3.88,9.39-3.88,9.39s-0.25-0.81-0.67-2.05c-1.02-3-3.07-8.61-5.11-11.86c-2.89-4.59-4.52-8.05-7.48-12.64
			c-2.31-3.58-2.86-5.9-2.99-6.76C362.61,424.31,362.6,424.18,362.6,424.18z M310.37,417.07c0,0-8.72,0.51-15.47,0.27
			c-1.43-0.05-2.77-0.14-3.91-0.27c-5.99-0.68-16.46-3.94-21.15-9.54c-0.47-0.56-0.91-1.14-1.25-1.76
			c-3.76-6.68-6.68-10.07-5.84-19.39c0.85-9.32,6.68-17.04,9.69-21.93c3.01-4.89,5.65-10.16,6.59-17.98
			c0.76-6.3,1.71-10.76,5.94-14.12c0.48-0.38,1.02-0.75,1.59-1.11c0.64-0.4,1.32-0.78,2.08-1.15c3.46-1.67,7.69-3.33,12.51-4.58
			c5.52-1.44,11.81-2.35,18.65-2.1c12.8,0.47,22.96,3.11,27.67,6.87c4.71,3.76,9.41,12.52,10.73,17.41
			c1.32,4.89,6.78,9.32,11.01,13.55c4.24,4.24,8.56,11.39,8.19,18.73c-0.34,6.64-3.46,14.8-9.27,21.39
			c-0.61-1.06-1.29-2.07-2.01-3.03c-3.05-4.07-7.03-7.28-11.51-9.71c-0.98-0.54-2-1.03-3.02-1.49c-0.04-0.02-0.09-0.04-0.13-0.06
			c0.15-0.38,0.3-0.77,0.44-1.16c0.03-0.08,0.06-0.16,0.09-0.24c0.21-0.59,0.4-1.2,0.57-1.82c0-0.01,0.01-0.03,0.01-0.04
			c0.37-1.31,0.65-2.69,0.83-4.17v0c0.02-0.16,0.04-0.32,0.06-0.49c0.01-0.06,0.02-0.11,0.02-0.17c0.06-0.59,0.1-1.2,0.12-1.81
			c0,0,0-0.01,0-0.01c0.21,0.01,0.42,0.02,0.63,0.04c0.96,0.08,1.91,0.19,2.86,0.32c3.1,0.44,6.15,1.21,9.01,2.53
			c2.46,1.13,4.72,2.77,6.45,4.91c-3.67-4.86-9.34-7.36-15.42-8.57c-0.93-0.18-1.86-0.35-2.8-0.47c-0.21-0.03-0.43-0.05-0.65-0.07
			c-0.02,0-0.03,0-0.05-0.01c0,0,0,0,0,0c0-0.61-0.01-1.24-0.04-1.86c0-0.04,0-0.08-0.01-0.11c-0.04-0.85-0.1-1.7-0.19-2.55
			c0,0,0,0,0,0c-0.14-1.33-0.33-2.66-0.57-3.94c1.17-0.15,2.34-0.27,3.5-0.33c5.81-0.34,11.33,0.49,15.33,3.54
			c0.3,0.23,0.6,0.47,0.88,0.73c-0.3-0.3-0.62-0.58-0.95-0.85c-3.94-3.25-9.51-4.34-15.43-4.28c-1.17,0.01-2.36,0.07-3.55,0.17
			c-0.74-3.46-1.84-6.49-3.1-8.31c-2.73-3.95-5.08-8.28-12.71-10.64c-7.62-2.35-16.56-3.2-25.51-2.35s-16,2.54-19.29,6.31
			c-3.17,3.62-6.25,9.26-6.39,18.07c-0.3-0.02-0.59-0.05-0.89-0.07c-0.85-0.04-1.73-0.06-2.61-0.06c-2.57,0-5.22,0.22-7.72,0.84
			c-0.61,0.15-1.21,0.32-1.8,0.53c-2.31,0.81-4.42,2.07-6.12,3.95c1.63-1.59,3.6-2.7,5.79-3.43c0.62-0.21,1.26-0.38,1.92-0.53
			c2.47-0.56,5.16-0.71,7.92-0.58c1.16,0.05,2.33,0.16,3.5,0.3c0,0.02,0,0.04,0,0.06c0.01,1.13,0.06,2.25,0.13,3.34
			c0.02,0.32,0.06,0.64,0.09,0.96c0,0.01,0,0.02,0,0.03c0.1,1.16,0.23,2.3,0.39,3.42c-0.23,0.02-0.46,0.04-0.69,0.06
			c-0.93,0.09-1.86,0.21-2.79,0.36c-4.38,0.72-8.67,2.19-12.09,4.98c-0.54,0.44-1.07,0.91-1.56,1.42c-0.92,0.99-1.71,2.08-2.37,3.25
			c0.73-1.12,1.58-2.16,2.54-3.08c0.42-0.37,0.86-0.72,1.3-1.05c3.59-2.66,7.9-3.94,12.36-4.39c0.89-0.09,1.79-0.15,2.69-0.18
			c0.27-0.01,0.55-0.01,0.82-0.02c0,0.03,0.01,0.06,0.01,0.09c0.1,0.6,0.22,1.19,0.34,1.77c0.47,2.24,1.08,4.38,1.82,6.4
			c-0.23,0.1-0.47,0.19-0.7,0.3c-0.84,0.38-1.66,0.78-2.48,1.2c-0.7,0.37-1.38,0.75-2.06,1.15c-5.2,3.1-9.59,7.73-11.86,13.36
			c-0.12,0.31-0.25,0.62-0.36,0.93c0.12-0.29,0.27-0.57,0.41-0.85c2.89-6.25,8.13-10.69,14.25-13.57c1.05-0.5,2.14-0.93,3.24-1.34
			c0.79,1.98,1.69,3.85,2.72,5.57c4.22,7.06,13.44,13.55,13.44,13.55l4.79,8.26L310.37,417.07z M283.76,328.04
			c0,0-0.99-0.42-3.12-2.26c-2.13-1.84-3.52-3.46-3.73-5.15c-0.21-1.69,0.28-3.53,2.68-3.81s3.67,1.27,4.52,3.88
			S283.76,328.04,283.76,328.04z M253.42,286.81c-19.97-3.68-37.92,2.11-41.5,3.38c-0.42,0.15-0.66,0.24-0.66,0.24
			s0.03-0.05,0.06-0.11c0.05-0.09,0.14-0.23,0.26-0.42c1.91-2.9,13.02-17.21,51.01-24.55c5.3-1.02,10.34-1.93,15.14-2.71
			c2.4-0.39,4.74-0.76,7.03-1.09c2.28-0.33,4.51-0.64,6.69-0.91c1.09-0.14,2.16-0.27,3.23-0.39c2.13-0.25,4.2-0.46,6.23-0.65
			s4.01-0.34,5.95-0.47c3.87-0.26,7.57-0.39,11.12-0.41c0.89-0.01,1.77,0,2.64,0.01c1.74,0.02,3.45,0.07,5.12,0.14
			c1.67,0.08,3.32,0.18,4.93,0.32c1.61,0.14,3.2,0.3,4.76,0.49c6.24,0.77,12.09,2.01,17.76,3.7c22.69,6.78,38.5,13.45,41.04,27.05
			c2.34,12.54-13.84,20.95-23.15,22.92c-0.44,0.09-0.9,0.19-1.37,0.29c-0.31,0.07-0.63,0.13-0.95,0.2
			c-0.21,0.04-0.43,0.09-0.65,0.13c-1.32,0.27-2.73,0.55-4.25,0.82c-0.06,0.01-0.12,0.02-0.17,0.03c-0.2,0.04-0.39,0.07-0.59,0.11
			c0,0,0,0,0,0c-0.17-0.2-0.35-0.4-0.54-0.59c-0.78-0.79-1.78-1.55-3.14-2.1c-1.93-0.79-3.67-0.8-5.18-0.02
			c-1.5,0.77-2.33,2.13-2.81,3.29c-0.11,0.27-0.21,0.53-0.28,0.76c-0.51,0.02-1.02,0.05-1.54,0.07c-0.16,0-0.33,0.01-0.49,0.01
			c-0.86,0.02-1.73,0.03-2.61,0.02c-0.16,0-0.31-0.01-0.47-0.01c-0.91-0.01-1.84-0.04-2.77-0.09c-0.09,0-0.18-0.01-0.27-0.02
			c-0.93-0.05-1.88-0.12-2.83-0.21c-0.09-0.01-0.17-0.01-0.26-0.02c-0.96-0.09-1.94-0.21-2.92-0.35c-0.16-0.02-0.32-0.04-0.49-0.07
			c-0.96-0.14-1.93-0.3-2.9-0.49c-0.18-0.03-0.36-0.07-0.53-0.1c-0.99-0.2-1.99-0.41-2.99-0.66c-0.14-0.03-0.28-0.07-0.42-0.11
			c-1.06-0.27-2.13-0.55-3.2-0.88c-0.58-0.18-1.18-0.37-1.79-0.57c-6.81-2.2-15.42-5.7-24.58-9.46
			c-12.12-4.98-25.14-10.38-36.05-13.78C260.2,288.35,256.61,287.4,253.42,286.81z M358.09,315.47c0.12,0.05,0.22,0.1,0.33,0.15
			c0,0,0,0,0,0c0.06,0.03,0.12,0.05,0.18,0.08c0.28,0.14,0.53,0.29,0.76,0.45c1.04,0.76,1.64,1.75,2.27,2.91
			c0.85,1.55-0.78,2.61-2.61,5.08c-1.36,1.83-3.68,3.54-4.8,4.31c-0.08,0.05-0.15,0.1-0.22,0.15c-0.26,0.18-0.42,0.28-0.42,0.28
			c-0.04-0.16-0.06-0.32-0.09-0.48c-0.02-0.09-0.03-0.18-0.05-0.27c-0.63-3.48,0.19-7.28,0.85-10.04c0.05-0.21,0.11-0.41,0.16-0.6
			c0.02-0.06,0.03-0.11,0.05-0.16c0.04-0.13,0.08-0.26,0.13-0.37c0.02-0.05,0.04-0.1,0.06-0.15c0-0.01,0.01-0.02,0.01-0.03
			c0.05-0.11,0.09-0.21,0.14-0.31c0.02-0.03,0.03-0.07,0.05-0.1c0.01-0.02,0.02-0.05,0.04-0.07c0.06-0.11,0.12-0.21,0.18-0.3
			c0.26-0.38,0.56-0.6,0.9-0.73c0,0-0.01,0-0.01,0c0.01,0,0.01,0,0.02,0c0.18-0.07,0.37-0.12,0.58-0.12c0.09,0,0.18,0,0.28,0.01
			C357.23,315.18,357.64,315.29,358.09,315.47z M327.72,318.71c7.09,1.72,15.28,2.48,22.37,2.27c-0.28,1.69-0.47,3.6-0.37,5.56
			c-6.94-4.11-16.24-6.1-24.13-6.72c-0.43-0.04-0.87-0.07-1.3-0.11C324.66,319.2,326.82,318.49,327.72,318.71z M308.66,403.99
			c-0.63,0.35-1.31,0.74-1.81,1.03c-0.44,0.26-0.75,0.44-0.75,0.44s-4.27-2.91-8.19-6.77c-2.47-2.43-4.89-6.06-6.54-10.45
			c0.33-0.1,0.66-0.21,0.99-0.3c3.09-0.87,6.26-1.43,9.35-1.68c1.35-0.07,1.2-2.08-0.14-1.95c-3.32,0.44-6.57,1.19-9.7,2.27
			c-0.27,0.09-0.54,0.2-0.81,0.3c-0.05,0.02-0.1,0.04-0.15,0.05c-0.06-0.17-0.11-0.34-0.17-0.51c-0.01-0.04-0.03-0.08-0.04-0.12
			c-0.08-0.25-0.14-0.5-0.21-0.75c-0.08-0.27-0.15-0.54-0.22-0.82c-0.04-0.15-0.07-0.31-0.11-0.47c-0.09-0.4-0.18-0.8-0.26-1.21
			c-0.02-0.08-0.03-0.16-0.05-0.24c-0.07-0.36-0.13-0.73-0.19-1.09c0-0.03-0.01-0.05-0.01-0.08c-0.02-0.13-0.04-0.26-0.06-0.39
			c-0.02-0.16-0.05-0.31-0.07-0.47c0-0.01,0-0.01,0-0.02c-0.05-0.38-0.09-0.75-0.14-1.11c0.2,0.01,0.4,0.02,0.6,0.03
			c1.91,0.12,3.79,0.33,5.6,0.61c0.56,0.12,1.12-0.27,1.18-0.84c0.06-0.54-0.32-1.02-0.86-1.09c-2.09-0.25-4.13-0.33-6.18-0.31
			c-0.16,0-0.31,0.01-0.47,0.01c-0.02,0-0.04,0-0.06,0c0,0,0,0,0,0c-0.02-0.15-0.03-0.29-0.05-0.44c0-0.02-0.01-0.05-0.01-0.07
			c-0.04-0.38-0.08-0.76-0.12-1.12c0-0.01,0-0.02,0-0.03c-0.04-0.37-0.07-0.73-0.1-1.09c0,0,0,0,0-0.01
			c-0.03-0.36-0.06-0.71-0.08-1.05c-0.01-0.1-0.01-0.2-0.02-0.3c-0.07-1.08-0.09-2.09-0.08-3.08c0.13,0.02,0.26,0.05,0.39,0.07
			c5.26,0.98,10.32,2.58,14.2,3.97c0.52,0.22,1.13-0.06,1.3-0.6c0.17-0.51-0.12-1.07-0.63-1.23c-4.88-1.54-9.83-2.69-14.88-3.31
			c-0.12-0.01-0.23-0.03-0.35-0.04c0.09-1.94,0.36-3.86,0.84-6.15c1.25-5.94,2.25-7.75,3.43-9.54c1.19-1.79,2.89-2.97,2.89-2.97
			s0.14,0.44,0.43,1.17c0.8,1.98,2.8,6.1,6.59,9.48c4.53,4.04,8.46,6.59,14.2,7.92c0,0,0.05,11.85,0,17.04
			c-0.05,5.19,0,10.94,0,10.94S309.85,403.34,308.66,403.99z M337.56,352.25c-0.01,0.07-0.04,0.14-0.08,0.21
			c0,0-0.01,0.01-0.01,0.01c-0.22,0.36-0.81,0.59-1.6,0.75c-0.04,0.01-0.09,0.02-0.13,0.02c-0.28,0.05-0.58,0.1-0.9,0.13
			c-0.93,0.1-1.98,0.14-2.99,0.16c-0.6,0.01-1.19,0.01-1.72,0.01c-1.41,0-3.06-0.38-4.32-0.95c-0.16-0.07-0.31-0.15-0.45-0.23
			c-0.43-0.23-0.8-0.49-1.07-0.77c-0.09-0.09-0.17-0.18-0.23-0.28c-0.13-0.19-0.22-0.38-0.24-0.58c-0.01-0.1-0.01-0.2,0.01-0.3
			c0.25-1.4,3.29-1.27,6.07-1.1c0.4,0.02,0.79,0.05,1.17,0.07c3.34,0.18,5.46,0.95,6.2,1.89c0.05,0.07,0.1,0.13,0.14,0.2
			c0.09,0.16,0.14,0.32,0.16,0.48c0.01,0.08,0.01,0.16-0.01,0.25c0,0,0,0,0,0C337.57,352.24,337.56,352.24,337.56,352.25z
			 M320.64,401.14c0.2,0.23,0.5,0.55,0.89,0.93c1.07,1.05,2.79,2.56,4.93,3.71c2.27,1.22,4.08,1.69,5.12,1.87
			c0.32,0.05,0.57,0.08,0.74,0.1c0.02,0,0.04,0,0.06,0c0.13,0.01,0.2,0.01,0.2,0.01l-0.06,0.17l-0.02,0.06l-2.07,6.05l-0.27,0.79
			l-0.53,1.56l-0.76,2.22l-1.08,3.17h-6.21l-0.06-1.1l-1.16-19.89C320.34,400.79,320.45,400.92,320.64,401.14z M324.67,401.64
			c-2.72-1.94-4.89-4.61-4.89-4.61v-27.37c0.18,0.32,6.14-1.91,11.66-6.53c4-3.35,7.91-7.65,9.7-9.7c0.65-0.74,1.03-1.2,1.03-1.2
			s3.52,3.76,6.49,10.45c0.58,1.29,1.01,2.61,1.33,3.97c-0.3,0.04-0.59,0.07-0.89,0.12c-5.82,0.8-11.49,2.32-15.79,3.63
			c-1.29,0.46-0.57,2.37,0.69,1.88c4.16-1.5,9.65-3.26,15.34-4.32c0.29-0.05,0.58-0.11,0.87-0.16c0.19,1.08,0.3,2.2,0.35,3.37
			c0,0.06,0.01,0.11,0.01,0.17c0,0.03,0,0.06,0,0.08c0,0.03,0,0.06,0,0.08c0.04,1.28-0.01,2.63-0.13,4.07c-0.02,0-0.03,0-0.05,0
			c-0.1-0.01-0.2-0.02-0.29-0.02c-0.04,0-0.09,0-0.13-0.01c-2.78-0.16-5.51-0.13-8.06-0.02c-1.36,0.13-1.14,2.14,0.2,1.99
			c2.59-0.35,5.3-0.48,7.97-0.47c0.05,0,0.09,0,0.14,0c0.03,0,0.06,0,0.09,0c-0.04,0.35-0.08,0.71-0.13,1.07
			c-0.03,0.21-0.06,0.42-0.09,0.63c-0.02,0.18-0.05,0.35-0.07,0.53c0,0.03-0.01,0.06-0.01,0.09c-0.14,0.98-0.31,2-0.51,3.06
			c-0.09,0.49-0.18,0.94-0.27,1.39c-0.03,0.15-0.06,0.29-0.1,0.44c-0.06,0.29-0.13,0.58-0.2,0.85c-0.04,0.15-0.07,0.31-0.11,0.45
			c-0.04,0.14-0.07,0.27-0.11,0.41c-0.18-0.07-0.36-0.14-0.54-0.21c-0.07-0.03-0.14-0.05-0.21-0.08c-3.87-1.4-7.91-2.34-11.89-2.9
			c-1.35-0.14-1.53,1.88-0.19,1.99c3.06,0.21,6.21,0.78,9.25,1.55c0.84,0.22,1.68,0.46,2.51,0.71c0.23,0.07,0.47,0.15,0.7,0.23
			c-1.51,4.85-3.49,6.82-5.99,10.8c-3.2,5.08-7.53,7.72-7.53,7.72s-0.72-0.05-1.92-0.33C331.03,405.01,327.96,403.98,324.67,401.64z
			 M313.33,418.92l-1.2-2.51l-4.16-8.72l0.7-0.49l0,0l0.01-0.01l3.76-2.66l4.59-3.25l0.56-0.39l0.06-0.04l0.05-0.04l0.01,0.06
			l0.01,0.08l2.48,19.74l0.07,0.57l0.02,0.14l0.05,0.39h-0.44h-0.07h-3.48h-1.65l-0.11-0.23L313.33,418.92z M332.65,414.35
			l2.51-6.21c0,0,7.02-4.8,10.88-11.11c1.8-2.94,3.56-5.75,4.94-8.84c1.09,0.42,2.17,0.87,3.22,1.37c2.77,1.32,5.4,2.93,7.78,4.89
			c1.48,1.2,2.79,2.58,3.99,4.06c0.75,0.93,1.47,1.88,2.14,2.88c-0.61,0.7-1.25,1.38-1.93,2.04c-4.44,4.32-8.44,6.82-12.99,8.29
			c-2.68,0.87-5.56,1.38-8.84,1.69c-8.85,0.85-11.76,1.13-11.76,1.13L332.65,414.35z M245.57,476.27
			c-5.51-9.46-23.15-39.34-32.05-61.18s-19.3-47.53-19.06-75.66c0.23-27.15,4.5-36.5,15.65-42.85c11.15-6.35,32.6-7.79,51.52-1.01
			c18.92,6.78,25.65,10.43,38.8,15.25c12.57,4.6,19.91,5.97,19.91,5.97c-0.26,0.05-4.76,1.75-9.13,3.41
			c-9.79,0.93-17.95,3.86-23.62,6.53c0.32-1.99,0.57-4.88-0.15-7.11c-1.97-6.07-6.02-6.54-8.26-6.28c-2.36,0.28-3.72,1.44-4.45,2.37
			c-1.11,1.41-1.56,3.26-1.3,5.35c0.39,3.09,2.7,5.46,4.92,7.37c1.41,1.21,2.43,1.93,3.12,2.34c-4.19,4.06-5.19,9.24-5.92,15.29
			c-0.83,6.87-3.03,11.59-6.09,16.56c-0.42,0.68-0.89,1.41-1.4,2.2c-3.18,4.94-7.99,12.4-8.8,21.24
			c-0.84,9.22,1.69,13.54,4.88,19.02c0.45,0.76,0.91,1.56,1.39,2.41c1.22,2.17,3.01,4.01,5.1,5.57c0.8,3.52,1.76,4.33,1.76,4.33
			l4.24,3.15c-2.38,0.71-4.99,2.08-8.81,4.9c-6.63,4.88-10.83,12.15-12.74,16.05c-0.27,0.54-0.55,1.1-0.83,1.67
			c-2.6,5.2-5.29,10.57-4.01,15.13c1.26,4.48,4.3,7.16,4.79,7.56c0,0,0,0,0,0.01c-1.9,7.21-1.9,16.45-1.9,21.97
			c0,0.43,0.02,0.85,0.04,1.28C250.5,484.65,247.68,479.91,245.57,476.27z M404.2,554.39c-1.51,2.73-3.95,4.8-10.64,3.11
			c-6.68-1.69-17.22-4.61-27.29-6.59c-10.07-1.98-18.73-2.35-23.91-1.6c-5.18,0.75-6.4,0.56-7.62-0.85s-1.22-4.33-1.32-8.09
			s-0.38-8.19-0.66-8.47c-0.28-0.28-6.78,2.26-16.47,2.07c-9.69-0.19-16.18-1.6-16.19-1.6l0,0v0c0,0-0.28,4.99,0.75,6.21
			c1.04,1.22,5.08,4.99,6.49,6.31c1.41,1.32,2.54,4.71,0.66,8.47c-1.88,3.76-8.28,18.92-13.65,23.72s-11.67,10.16-16.85,8.66
			c-5.18-1.51-5.84-0.75-6.59-3.2c-0.75-2.45,0.47-4.33,3.95-7.44c3.48-3.11,8.66-7.06,12.05-9.88c3.39-2.82,5.84-5.55,5.84-5.55
			s-10.64,6.87-12.8,8.56c-2.16,1.69-8.85,7.25-10.26,9.13c-1.41,1.88-1.13,4.52-4.89,2.82s-5.74-2.07-5.08-5.18
			c0.66-3.11,3.11-4.71,6.59-6.78c3.48-2.07,11.76-6.31,13.74-8.09c1.98-1.79,4.24-4.71,4.24-4.71s-4.72,3.2-9.23,5.84
			c-4.52,2.64-13.71,9.04-15.47,10.16c-1.76,1.13-2.51,1.51-2.51,1.51s-1.98-2.26-1.41-4.99c0.56-2.73,4.61-6.21,11.48-10.07
			c6.87-3.86,17.22-9.51,19.86-12.14c2.64-2.64,4.24-2.54,3.48-6.96c-0.75-4.42-1.51-10.35-1.51-10.35s-4.14-1.6-9.88-6.21
			c-1.39-1.12-2.91-2.35-4.45-3.66c0,0,0,0,0,0c-1.48-1.26-2.98-2.59-4.43-3.98c-1.63-1.56-3.18-3.18-4.54-4.83
			c-1.35-1.64-2.5-3.3-3.34-4.95c-0.35-0.69-0.69-1.36-1.02-2.03c-0.19-0.37-0.37-0.74-0.54-1.11c-1.39-2.86-2.56-5.52-3.3-8.11
			c-0.55-1.92-0.87-3.8-0.87-5.69c0-0.65,0-1.35,0-2.09c0.02-4.47,0.16-10.46,1.09-15.78c0.2-1.11,0.42-2.19,0.69-3.22
			c0.45-1.71,0.99-3.33,1.56-4.81c1.7-4.4,3.72-7.61,4.84-8.46c0.53-0.4,1.96-0.87,3.77-1.44c0.39-0.12,0.8-0.25,1.23-0.38
			c0.02-0.01,0.05-0.01,0.07-0.02c0.11-0.03,0.21-0.07,0.32-0.1c0.01,0,0.03-0.01,0.04-0.01c0.19-0.06,0.39-0.12,0.59-0.18
			c0.26-0.08,0.52-0.16,0.78-0.25c0.16-0.05,0.32-0.1,0.48-0.15c0.41-0.13,0.82-0.27,1.24-0.41c0.07-0.02,0.14-0.05,0.21-0.07
			c0.14-0.05,0.28-0.1,0.42-0.15c0.2-0.07,0.4-0.14,0.61-0.21c0.15-0.05,0.29-0.11,0.44-0.16c0.26-0.1,0.53-0.2,0.78-0.3
			c0.15-0.06,0.31-0.12,0.46-0.18c0.25-0.1,0.49-0.2,0.72-0.3c0.15-0.06,0.29-0.13,0.43-0.19c0.25-0.11,0.48-0.23,0.71-0.34
			c0.12-0.06,0.23-0.11,0.35-0.17c0.33-0.17,0.66-0.35,0.95-0.54c0,0,0.01,0,0.01-0.01c0.35-0.23,0.7-0.47,1.04-0.7
			c0.08-0.06,0.16-0.12,0.24-0.17c1.18-0.86,2.49-1.92,3.77-3.04c0,0,0,0,0.01-0.01c1.41-1.22,2.78-2.48,3.9-3.54
			c1.52-1.43,2.56-2.47,2.6-2.51c0,0,0.01-0.01,0.01-0.01s-0.01,0.01-0.01,0.01c-0.03,0.03-0.82,0.68-2.05,1.65
			c-2.51,1.97-6.89,5.22-10.65,7.1c-0.34,0.17-0.69,0.34-1.05,0.51c-0.13,0.06-0.27,0.12-0.4,0.18c-0.23,0.1-0.46,0.21-0.7,0.31
			c-0.17,0.07-0.35,0.15-0.52,0.22c-0.2,0.08-0.4,0.17-0.6,0.25c-0.2,0.08-0.39,0.16-0.59,0.23c-0.01,0-0.01,0-0.02,0.01
			c-0.17,0.07-0.35,0.14-0.52,0.2c-0.23,0.09-0.46,0.18-0.7,0.26c-0.14,0.05-0.27,0.1-0.41,0.15c-0.27,0.1-0.53,0.19-0.8,0.29
			c-0.09,0.03-0.19,0.07-0.28,0.1c-0.3,0.11-0.59,0.21-0.88,0.31c-0.05,0.02-0.1,0.04-0.16,0.05c-0.33,0.11-0.65,0.22-0.96,0.33
			c-0.27,0.09-0.54,0.18-0.8,0.26c-2.71,0.88-4.73,1.41-4.73,1.41s-5.36,4.24-6.12,7.81s-0.75,3.58-0.75,3.58s-2.64-2.16-3.67-5.84
			c-1.04-3.67,2.26-9.51,4.61-14.31c2.35-4.8,6.31-10.82,11.67-14.78s7.81-4.61,10.54-4.89c2.73-0.28,5.08,0,5.08,0
			s-2.64-2.35-2.73-3.29s2.73,0.97,8.94,0.86c0.92-0.02,2.01-0.05,3.19-0.1c6.73-0.28,16.48-1.02,16.48-1.02l0.27,0.49l2.17,3.87
			h15.3l2.47-6.17l0.33-0.04l21.91-2.81l0.47-0.06c0,0,4.52,10.16,8.47,17.32c2.17,3.93,5.16,8.51,7.74,13.52c0,0,0,0.01,0.01,0.01
			c1.33,2.59,2.55,5.29,3.5,8.08c0.56,1.65,1.03,3.32,1.36,5.03c0.17,0.88,0.35,1.81,0.54,2.79c0.2,1.04,0.39,2.13,0.58,3.26
			c0.26,1.52,0.5,3.12,0.71,4.78c0.32,2.52,0.55,5.17,0.62,7.87c0.07,2.65-0.02,5.36-0.35,8.04c-0.32,2.68-0.89,5.34-1.76,7.92
			c-0.67,1.99-1.53,3.94-2.61,5.8c-0.49,0.85-1,1.67-1.5,2.48c-1.92,3.06-3.92,5.82-5.9,8.28c-2.93,3.63-5.82,6.59-8.39,8.87
			c0,0,0,0,0,0c-2.28,2.03-4.3,3.52-5.86,4.47c-4.8,2.92-7.72,4.99-7.72,4.99s0.09,6.59,0.66,7.62c0.56,1.04-1.13,2.26,11.48,1.32
			c12.61-0.94,24.38-2.35,30.87-1.51c5.85,0.76,8.42,2.22,11.35,4.56c-1.16-0.25-2.91-0.57-5.27-0.89
			c-4.8-0.66-11.11-0.52-11.11-0.52s0.24,0.03,0.67,0.09c1.32,0.18,4.52,0.63,8.77,1.28c0.29,0.04,0.57,0.09,0.87,0.13
			c3.55,0.55,6.45,1.24,8.26,1.72c2.35,1.97,2.9,2.51,3.31,3.41c0.28,0.61,0.42,1.83,0.5,2.74c-0.77-0.39-2.13-1.01-3.96-1.62
			c-1.79-0.6-4-1.18-6.51-1.49c-5.98-0.75-11.44-0.75-11.44-0.75s2.59,0.35,6.12,0.68c3.53,0.33,4.68,0.56,8.94,1.76
			c1.16,0.33,2.29,0.77,3.31,1.24c1.84,0.84,3.34,1.76,4.05,2.22C404.93,551.44,405.09,552.78,404.2,554.39z"/>
		<path d="M289.67,341.48c0.75-0.1,1.43,0.03,2.53,1.43c0.98,1.24,1.67,1.98,2.48,2.34c0.66,0.29,1.4,0.32,2.45,0.11
			c1.91-0.39,2.68-0.82,2.9-1.99c0.05-0.25,0.08-0.53,0.08-0.86c0-1.86-1.31-3.48-5.55-2.99c-1.08,0.12-2.5,0.31-3.92,0.49
			c-3.01,0.4-6.08,0.82-6.22,0.82c-0.21,0,2.01,0.85,3.68,0.85C288.72,341.69,289.21,341.54,289.67,341.48z M297.13,340.22
			c0.99,0,1.79,0.8,1.79,1.79s-0.8,1.79-1.79,1.79s-1.79-0.8-1.79-1.79S296.14,340.22,297.13,340.22z"/>
		<path d="M339.31,345.36c0.81,0.16,1.43,0.18,1.98,0.05c1.03-0.24,1.79-1.03,2.95-2.5c1.79-2.26,2.45-1.22,4.12-1.22
			c1.08,0,2.4-0.36,3.13-0.61c0.4-0.14,0.63-0.24,0.55-0.24c-0.04,0-0.31-0.03-0.75-0.09c-1.85-0.24-6.68-0.91-9.42-1.23
			c-4.25-0.49-5.56,1.13-5.56,2.99c0,0.48,0.05,0.87,0.15,1.19C336.78,344.63,337.58,345.01,339.31,345.36z M341.1,340.22
			c0.99,0,1.79,0.8,1.79,1.79s-0.8,1.79-1.79,1.79c-0.99,0-1.79-0.8-1.79-1.79S340.11,340.22,341.1,340.22z"/>
	</g>
	<g>
		<path class="st6" d="M350.86,519.75c0.06,0,0.11-0.01,0.17-0.02c1.51-0.12,3.02-0.28,4.53-0.42c-1.51,0.14-3.02,0.29-4.53,0.42
			C350.97,519.74,350.91,519.74,350.86,519.75z"/>
		<path class="st6" d="M306.95,503.54c-14.03-0.19-28.07-0.73-42.1-1.61c-1.08-0.07-2.16-0.15-3.25-0.22
			c-0.27-0.02-0.53-0.04-0.8-0.05c0.18,0.37,0.36,0.73,0.54,1.11c0.33,0.67,0.67,1.34,1.02,2.03c0.84,1.65,1.99,3.31,3.34,4.95
			c1.7,0.16,3.39,0.31,5.09,0.45c6.37,0.54,12.73,0.97,19.1,1.3c23.64,1.21,47.28,0.95,70.92-0.81c1.64-0.12,3.29-0.26,4.93-0.4
			c1.98-2.45,3.98-5.21,5.9-8.28c-1.44,0.09-2.89,0.16-4.33,0.25C347.19,503.38,327.07,503.81,306.95,503.54z"/>
		<path class="st6" d="M339.72,486.13c-14.66,0.07-29.31,0.07-43.97,0c-6.65-0.03-13.3-0.08-19.95-0.14
			c-0.19-5.55,0-11.1,0.56-16.64c6.56-0.18,13.13-0.32,19.69-0.42c0.15-2.9,0.36-5.81,0.62-8.71c-6.38,0.16-12.77,0.4-19.15,0.71
			c0.52-3,1.15-6.01,1.89-9.01c0.4-1.61,0.83-3.22,1.29-4.83c0,0,0-0.01,0-0.01c-0.08,0.06-0.16,0.12-0.24,0.17
			c-0.35,0.24-0.69,0.48-1.04,0.7c0,0-0.01,0-0.01,0.01c-0.29,0.18-0.62,0.36-0.95,0.54c-0.11,0.06-0.23,0.11-0.35,0.17
			c-0.23,0.12-0.47,0.23-0.71,0.34c-0.14,0.06-0.29,0.13-0.43,0.19c-0.24,0.1-0.48,0.2-0.72,0.3c-0.15,0.06-0.3,0.12-0.46,0.18
			c-0.26,0.1-0.52,0.2-0.78,0.3c-0.15,0.05-0.29,0.11-0.44,0.16c-0.2,0.07-0.4,0.14-0.61,0.21c-0.14,0.05-0.28,0.1-0.42,0.15
			c-0.07,0.02-0.14,0.05-0.21,0.07c-0.41,0.14-0.83,0.27-1.24,0.41c-0.16,0.05-0.32,0.1-0.48,0.15c-0.26,0.08-0.52,0.17-0.78,0.25
			c-0.2,0.06-0.39,0.12-0.59,0.18c-0.01,0-0.03,0.01-0.04,0.01c-0.11,0.03-0.21,0.07-0.32,0.1c-0.02,0.01-0.05,0.01-0.07,0.02
			c-0.1,0.3-0.2,0.6-0.3,0.9c-0.33,1.05-0.64,2.11-0.94,3.16c-0.54,1.92-1.05,3.83-1.47,5.75c-1.08,0.07-2.17,0.14-3.25,0.21
			c-1.3,0.08-2.59,0.17-3.89,0.26c-0.57,1.48-1.11,3.1-1.56,4.81c-0.27,1.03-0.5,2.11-0.69,3.22c1.19-0.05,2.39-0.09,3.58-0.14
			c1.45-0.05,2.91-0.12,4.36-0.17c-0.71,5.4-0.94,10.8-0.7,16.19c-1.61-0.02-3.22-0.05-4.83-0.07c-1.17-0.01-2.33-0.03-3.5-0.05
			c0,0.74,0,1.44,0,2.09c0,1.89,0.32,3.77,0.87,5.69c1.24,0.05,2.48,0.11,3.73,0.16c0.76,0.03,1.52,0.07,2.28,0.1
			c20.12,0.73,40.24,1.05,60.36,0.98c16.04-0.05,32.08-0.35,48.12-0.91c1.26-0.04,2.52-0.09,3.77-0.14
			c0.87-2.58,1.43-5.24,1.76-7.92c-1.18,0.02-2.36,0.03-3.54,0.05C362.56,485.99,351.14,486.08,339.72,486.13z"/>
		<path class="st6" d="M372.33,461.62c1.2,0.08,2.4,0.14,3.61,0.22c-0.18-0.98-0.37-1.91-0.54-2.79c-0.33-1.7-0.8-3.38-1.36-5.03
			c-1.28-0.12-2.56-0.23-3.84-0.35c-24.21-2.2-48.42-2.87-72.63-1.96c-0.35,2.83-0.65,5.67-0.91,8.5
			C321.89,459.56,347.11,460.04,372.33,461.62z"/>
		<path class="st6" d="M355.04,477.52c6.44,0.05,12.87,0.11,19.31,0.19c1.17,0.01,2.34,0.03,3.51,0.05
			c-0.07-2.71-0.31-5.35-0.62-7.87c-1.18-0.05-2.37-0.09-3.55-0.13c-1.61-0.06-3.22-0.12-4.83-0.17
			c-24.27-0.8-48.54-1.02-72.81-0.66c-0.15,2.83-0.25,5.67-0.3,8.5C315.51,477.32,335.28,477.37,355.04,477.52z"/>
		<path class="st6" d="M278.79,519.01c0.73,0.08,1.46,0.13,2.19,0.2c0.75,0.07,1.5,0.14,2.25,0.21c-0.75-0.07-1.5-0.14-2.25-0.21
			C280.26,519.14,279.52,519.08,278.79,519.01z"/>
		<path class="st6" d="M274.67,518.54c0.15,0.02,0.29,0.03,0.44,0.05C274.96,518.58,274.82,518.56,274.67,518.54
			C274.67,518.54,274.67,518.54,274.67,518.54z"/>
		<path class="st6" d="M288.6,443.68c-1.3,0.1-2.6,0.21-3.9,0.32c-0.08,0.01-0.15,0.01-0.23,0.02c0,0,0,0-0.01,0.01
			c0.07-0.01,0.15-0.01,0.22-0.02C285.99,443.89,287.3,443.78,288.6,443.68z"/>
	</g>
	<g>
		<path class="st7" d="M267.11,461.49c0.42-1.92,0.93-3.83,1.47-5.75c0.3-1.05,0.61-2.11,0.94-3.16c0.1-0.3,0.2-0.6,0.3-0.9
			c-0.43,0.13-0.83,0.26-1.23,0.38c-1.81,0.56-3.25,1.04-3.77,1.44c-1.13,0.84-3.15,4.06-4.84,8.46c1.3-0.09,2.59-0.17,3.89-0.26
			C264.94,461.63,266.02,461.55,267.11,461.49z"/>
		<path class="st7" d="M264.96,485.88c-0.24-5.4-0.01-10.8,0.7-16.19c-1.45,0.05-2.91,0.11-4.36,0.17
			c-1.19,0.05-2.39,0.09-3.58,0.14c-0.94,5.31-1.07,11.3-1.09,15.78c1.17,0.02,2.33,0.03,3.5,0.05
			C261.74,485.83,263.35,485.86,264.96,485.88z"/>
		<path class="st7" d="M370.2,453.68c1.28,0.12,2.56,0.22,3.84,0.35c-0.95-2.79-2.17-5.49-3.5-8.08c0,0,0-0.01-0.01-0.01
			c-1.19-0.16-2.38-0.32-3.56-0.46c-0.16-0.02-0.32-0.04-0.48-0.06c-0.07-0.01-0.14-0.02-0.2-0.02c-2.16-0.26-4.32-0.51-6.49-0.73
			c-0.57-0.06-1.13-0.12-1.7-0.18c-2.35-0.24-4.7-0.46-7.05-0.65c-0.27-0.02-0.54-0.04-0.81-0.06c-2.14-0.17-4.28-0.33-6.42-0.46
			c-0.56-0.04-1.11-0.07-1.67-0.11c-2.34-0.14-4.68-0.26-7.02-0.36c-0.36-0.01-0.71-0.02-1.07-0.04c-2.08-0.08-4.16-0.14-6.24-0.19
			c-0.54-0.01-1.08-0.03-1.62-0.04c-2.33-0.04-4.66-0.07-7-0.07c-0.42,0-0.85,0-1.27,0.01c-2.04,0-4.08,0.03-6.13,0.06
			c-0.51,0.01-1.03,0.02-1.54,0.03c-2.33,0.05-4.66,0.12-6.99,0.22c-0.47,0.02-0.94,0.04-1.41,0.06c-1.03,0.04-2.05,0.08-3.08,0.14
			c-0.61,0.03-1.23,0.08-1.84,0.11c-1.56,0.09-3.12,0.19-4.69,0.29c-0.68,0.05-1.37,0.08-2.05,0.13c-0.54,0.04-1.09,0.09-1.63,0.14
			c-1.3,0.1-2.61,0.22-3.91,0.33c-0.07,0.01-0.15,0.01-0.22,0.02c-1.28,1.11-2.59,2.18-3.77,3.04c0,0,0,0.01,0,0.01
			c-0.46,1.61-0.89,3.22-1.29,4.83c-0.74,3-1.37,6.01-1.89,9.01c6.38-0.31,12.77-0.54,19.15-0.71c0.25-2.83,0.55-5.67,0.91-8.5
			C321.78,450.81,345.99,451.48,370.2,453.68z"/>
		<path class="st7" d="M368.86,469.58c1.61,0.05,3.22,0.12,4.83,0.17c1.18,0.04,2.37,0.08,3.55,0.13c-0.21-1.66-0.45-3.26-0.71-4.78
			c-0.19-1.13-0.39-2.22-0.58-3.26c-1.2-0.08-2.4-0.15-3.61-0.22c-25.22-1.57-50.45-2.05-75.67-1.4c-0.26,2.9-0.46,5.81-0.62,8.71
			C320.32,468.56,344.59,468.78,368.86,469.58z"/>
		<path class="st7" d="M377.86,477.76c-1.17-0.01-2.34-0.03-3.51-0.05c-6.44-0.08-12.87-0.14-19.31-0.19
			c-19.77-0.16-39.53-0.2-59.3-0.1c0.05-2.83,0.15-5.67,0.3-8.5c-6.56,0.1-13.13,0.24-19.69,0.42c-0.57,5.55-0.75,11.1-0.56,16.64
			c6.65,0.06,13.3,0.11,19.95,0.14c14.66,0.07,29.31,0.07,43.97,0c11.42-0.05,22.84-0.15,34.26-0.28c1.18-0.01,2.36-0.03,3.54-0.05
			C377.84,483.11,377.93,480.41,377.86,477.76z"/>
		<path class="st7" d="M323.86,494.77c-20.12,0.07-40.24-0.25-60.36-0.98c-0.76-0.03-1.52-0.07-2.28-0.1
			c-1.24-0.05-2.48-0.11-3.73-0.16c0.74,2.59,1.91,5.26,3.3,8.11c0.27,0.02,0.53,0.04,0.8,0.05c1.08,0.07,2.16,0.15,3.25,0.22
			c14.03,0.88,28.07,1.42,42.1,1.61c20.12,0.28,40.24-0.15,60.36-1.29c1.44-0.08,2.89-0.16,4.33-0.25c0.51-0.81,1.01-1.63,1.5-2.48
			c1.08-1.86,1.94-3.8,2.61-5.8c-1.26,0.05-2.52,0.1-3.77,0.14C355.94,494.43,339.9,494.72,323.86,494.77z"/>
		<path class="st7" d="M289.89,511.49c-6.37-0.33-12.73-0.76-19.1-1.3c-1.7-0.14-3.39-0.29-5.09-0.45c1.36,1.65,2.91,3.27,4.54,4.83
			c1.44,1.38,2.95,2.72,4.43,3.98c0.15,0.02,0.29,0.03,0.44,0.05c1.23,0.14,2.46,0.29,3.68,0.42c0.73,0.08,1.46,0.13,2.19,0.2
			c0.75,0.07,1.5,0.14,2.25,0.21c1.19,0.11,2.38,0.23,3.56,0.33c1.44,0.12,2.89,0.21,4.33,0.31c1.23,0.09,2.45,0.19,3.68,0.26
			c1.5,0.09,3,0.16,4.51,0.23c1.17,0.06,2.33,0.13,3.5,0.18c1.55,0.06,3.11,0.1,4.66,0.14c1.12,0.03,2.23,0.08,3.35,0.1
			c1.63,0.03,3.26,0.04,4.89,0.05c1.04,0.01,2.08,0.03,3.12,0.03c1.69,0,3.37-0.03,5.06-0.05c0.98-0.01,1.97-0.01,2.95-0.03
			c1.59-0.03,3.18-0.1,4.78-0.15c1.08-0.04,2.16-0.06,3.23-0.1c1.48-0.06,2.96-0.15,4.44-0.23c1.19-0.06,2.38-0.11,3.56-0.18
			c1.54-0.1,3.08-0.22,4.62-0.33c1.13-0.08,2.26-0.15,3.39-0.24c0.06,0,0.11-0.01,0.17-0.02c1.51-0.12,3.02-0.28,4.53-0.42
			c0.6-0.06,1.2-0.11,1.8-0.17c0,0,0,0,0,0c2.57-2.28,5.46-5.23,8.39-8.87c-1.64,0.14-3.29,0.28-4.93,0.4
			C337.17,512.43,313.53,512.69,289.89,511.49z"/>
	</g>
</g>
</svg>
