<?xml version="1.0" encoding="utf-8"?>
<!-- Generator: Adobe Illustrator 23.0.1, SVG Export Plug-In . SVG Version: 6.00 Build 0)  -->
<svg version="1.1" id="레이어_1" xmlns="http://www.w3.org/2000/svg" xmlns:xlink="http://www.w3.org/1999/xlink" x="0px"
	 y="0px" viewBox="0 0 1000 1000" style="enable-background:new 0 0 1000 1000;" xml:space="preserve">
<style type="text/css">
	.st0{fill-rule:evenodd;clip-rule:evenodd;fill:#996633;}
	.st1{fill:none;stroke:#45351D;stroke-width:4.5;stroke-linecap:round;stroke-linejoin:round;stroke-miterlimit:10;}
	.st2{fill:none;stroke:#000000;stroke-width:4.5;stroke-linecap:round;stroke-linejoin:round;stroke-miterlimit:10;}
	.st3{display:none;fill-rule:evenodd;clip-rule:evenodd;fill:#FFB85E;}
	.st4{display:none;fill:none;stroke:#000000;stroke-width:4.5;stroke-linecap:round;stroke-linejoin:round;stroke-miterlimit:10;}
	.st5{fill-rule:evenodd;clip-rule:evenodd;fill:#FFB85E;}
	.st6{fill:#996633;stroke:#000000;stroke-width:4;stroke-linecap:round;stroke-linejoin:round;stroke-miterlimit:1.5;}
	.st7{fill:#FFB85E;}
	.st8{fill:none;stroke:#000000;stroke-width:4;stroke-linecap:round;stroke-linejoin:round;stroke-miterlimit:1.5;}
	.st9{fill:#FFFF00;stroke:#000000;stroke-width:4;stroke-linecap:round;stroke-linejoin:round;stroke-miterlimit:1.5;}
	.st10{enable-background:new    ;}
	.st11{fill:#009933;stroke:#009933;stroke-width:2;stroke-miterlimit:10;}
	.st12{fill-rule:evenodd;clip-rule:evenodd;fill:#FFFFFF;}
	.st13{display:none;}
	.st14{display:inline;fill-rule:evenodd;clip-rule:evenodd;fill:#FF0000;}
	
		.st15{display:inline;fill:none;stroke:#000000;stroke-width:4.5;stroke-linecap:round;stroke-linejoin:round;stroke-miterlimit:10;}
	.st16{fill-rule:evenodd;clip-rule:evenodd;}
	.st17{opacity:0.75;fill-rule:evenodd;clip-rule:evenodd;fill:#FFFFFF;}
	
		.st18{display:inline;fill:#069113;stroke:#000000;stroke-width:4.5;stroke-linecap:round;stroke-linejoin:round;stroke-miterlimit:10;}
	.st19{fill:#FF0000;}
	.st20{fill:#0000FF;}
</style>
<g>
	<g id="남자비버">
		<g id="꼬리_2_">
			<path class="st0" d="M629.99,769.38l28.71,3.62l29.74-8.95l35.38-20.5l30.47-30.72l24.7-25.65l23.83-17.89l27.77-10.31
				l20.45-0.01l16.82,6.54l13.11,16.62l5.75,23.24l-7.87,24.46l-15.66,19.59c0,0-26.54,18.18-27.58,18.35
				c-1.04,0.17-36.59,16.5-36.59,16.5l-39.35,13l-31.02,8.7l-22.02,3.56l-35.49,2.51l-33.1,2.6l-23.82-0.55l-14.77-2.06"/>
			<path class="st1" d="M871.97,672.7c0,0-1.05,62.93-15.22,81.25"/>
			<path class="st1" d="M837.13,658.8c0,0-4.32,91.03-20.4,117.23"/>
			<path class="st1" d="M796.15,676.58c0,0-7.87,80.74-21.95,113.29"/>
			<path class="st1" d="M759.54,709.24c0,0-4.64,58.93-19.8,91.89"/>
			<path class="st1" d="M723.05,742.58c0,0-2.09,40.15-14.39,64.98"/>
			<path class="st1" d="M694.28,760.57c0,0-8.24,35.81-15.01,48.85"/>
			<path class="st1" d="M663.24,770.95c0,0-6.47,23.07-16.65,40.47"/>
			<path class="st1" d="M884.25,699.25c0,0-60.73-20.46-85.8-23.1"/>
			<path class="st1" d="M769.35,696.44c0,0,75.58,14.1,107.5,34.47"/>
			<path class="st1" d="M746.39,723.62c0,0,83.23,11.8,108.54,28.5"/>
			<path class="st1" d="M727.09,740.82c1.03,0.71,67.36,15.35,92.01,33.63"/>
			<path class="st1" d="M701.09,758.39c0,0,66.68,18.98,82.98,29.65"/>
			<path class="st1" d="M671.48,769.25c0,0,65.66,26.47,64.77,32.36"/>
			<path class="st1" d="M637.49,782.67c0,0,33.9,12.3,39.83,27.11"/>
			<path class="st2" d="M619.91,768.53c0,0,59.96,28.07,141.46-63.93c28.64-32.32,97.05-79.38,121.25-14.33
				c8.62,23.17,7.58,84.33-186.97,122.52"/>
		</g>
		<g id="팔_2_">
			<polygon class="st3" points="456.67,536.91 446.96,546.83 439.49,558.71 429.39,574.43 419.49,590.43 409.03,610.44 
				403.54,630.01 404.26,640.78 409.26,651.59 418.48,663.63 434.23,681.12 441.77,687.95 451.26,696.51 454.09,699.7 
				459.35,708.34 465.37,716.5 476.77,720.79 487.7,720.98 495.8,716.13 501.54,707.36 500.92,699.29 494.88,695.79 491.17,697.4 
				493.97,692.74 492.38,686.73 487.99,683.97 484.31,684.05 480.81,686.45 479.86,682.21 477.59,678.15 475.23,675.91 
				471.79,675.55 469.68,676.19 467.29,677.96 464.94,680.23 464.92,675.79 455.79,665.67 443.12,649.99 434.76,636.49 
				431.22,627.05 431.23,614.79 437.48,598.85 442.39,588.78 448.67,579.21 454.45,570.83 459.5,563.78 463.36,556.03 
				468.91,547.55 			"/>
			<path class="st4" d="M451.25,540.09c0,0-49.75,68.15-49.19,94.89c0.48,22.76,52.79,65.18,52.57,65.53
				c-0.32,0.52,6.5,25.09,32.61,20.65c4.93-0.84,10.27-3.77,13.51-11.97c2.95-7.46-0.35-14.21-9.18-11.93l-7,6.93
				c0,0,13.85-10.79,6.73-17.24c0,0-5.11-9.77-17.33,6.38c0,0,9.95-13.06,1.41-17.67c0,0-14.2-6.13-20.3,24.47"/>
			<path class="st4" d="M471.17,546.44c0,0-45.62,63.63-37.47,87.49c8.16,23.86,30.78,42.64,31.47,43.13"/>
			<polygon class="st5" points="587.1,537.36 596.81,547.28 604.28,559.15 614.39,574.88 624.28,590.88 634.74,610.89 
				640.23,630.46 639.51,641.23 634.52,652.03 625.29,664.08 609.55,681.57 602,688.4 592.51,696.96 589.68,700.15 584.43,708.79 
				578.4,716.95 567,721.24 556.08,721.42 547.97,716.58 542.24,707.8 542.85,699.73 548.9,696.24 552.6,697.85 549.8,693.19 
				551.4,687.18 555.79,684.41 559.46,684.5 562.97,686.9 563.91,682.65 566.18,678.59 568.54,676.36 571.98,676 574.1,676.64 
				576.49,678.41 578.83,680.67 578.85,676.23 588.9,667.42 601.92,652.07 609.83,638.3 612.55,627.5 609.97,615.76 604.15,600.69 
				599.06,589.05 594.51,579.8 589.32,571.28 584.27,564.23 580.42,556.47 574.86,548 			"/>
			<path class="st2" d="M592.41,541.78c0,0,49.75,68.15,49.19,94.89c-0.48,22.76-52.79,65.18-52.57,65.53
				c0.33,0.52-6.5,25.09-32.61,20.65c-4.93-0.84-10.27-3.77-13.51-11.97c-2.95-7.46,0.35-14.21,9.18-11.93l7,6.93
				c0,0-13.85-10.79-6.73-17.24c0,0,5.12-9.77,17.33,6.38c0,0-9.95-13.06-1.41-17.67c0,0,14.2-6.13,20.3,24.47"/>
			<path class="st2" d="M577.84,552.19c0,0,40.38,61.19,32.22,85.05c-8.16,23.86-31.58,41.08-32.27,41.57"/>
			<g>
				<path class="st6" d="M179.21,423.26c0,0,1.55-25.55,9.87-23.41l38.94,21.41c0,0,7.36-44.03,7.4-44.05
					c0.04-0.02,17.44,1.05,19.42,8.81c0,0-6.99,33.91-3.26,39.64c3.73,5.73,117.02,183.78,130.6,192.34
					c13.34,8.41-15.18,26.5-14.9,25.37c0,0-97.35-154.32-131.32-188.88C218.51,436.73,181.6,428.1,179.21,423.26z"/>
				<path class="st7" d="M471.25,542.4l-14.48,13.22l-26.29,16.14l-24.7,4.91l-23.61-3.51l-17.6-6.06l-6.13-2.78l-1.89-16.67
					l-5.34-15.06l-10.56-8.07l-11.39-0.52l-11.51,3.36l7.71,12.13l-9.98,5.24l-10.88,6.45l-10.53,13.93l0.52,18.05l9.59,14.85
					l18.97,9.43l12.77-3.04l8.98-14.11l6.19,2.99l15.21,7.71l14.4,6.37l9.18,0.96l19.67-2.49l13.38-3.82l11.49-12.28l10.67-1.67
					l10.79-4.35l11.74-20.39L471.25,542.4z"/>
				<path class="st8" d="M325.6,581.34c0,0,0.7-24.74,20.6-23.29"/>
				<path class="st8" d="M343.89,593.87c0,0,46.38,32.94,92.1-2.17"/>
				<path class="st8" d="M312.07,570.7c0,0-1.33-16.98,23.35-25.08"/>
				<path class="st8" d="M455.21,552.74c0,0-25.87,44.12-99.57,12.14c0,0,8.35-42.42-29.47-41.86c0,0-14.51,3.92-2.93,11.81
					c0,0,10.79,6.03,9.93,9.43c0,0,11.3,0.42,12.49,12.68c0,0,13.6,7.48,6.6,16.49c-6.99,9.01-4.64,13.28-13.55,28.01
					c-9.2,15.22-43.51,2.2-44.73-30.91c-0.79-21.35,32.85-30.92,32.71-31.04"/>
				<path class="st6" d="M353,576.18c0,0,20.53,30.11,36.29,47.45c4.15,4.56-22.13,20.67-22.13,20.67l-27.23-44.77L353,576.18z"/>
				<path id="깃발" class="st9" d="M113.28,561.9c0,0,50.02-1.95,66.11-58.58c10.04-35.34,50.07-28.28,75.61-62.59
					c0,0,2.38-25.75,13.71-24.22c0,0,4.32,18.98-3.63,22.41c0,0,5.68,0.88,14.52,4.72c0,0,1.68,15.18-17.66,2.54
					c0,0,0.37,14.96-17.49,21.46c0,0-30.79,45.72,27.69,42.33c0,0,15.65-2.47,20.04-10.29c0,0-11.43-23,4.78-28.98
					c0,0,10.02,18.3,1.82,25.09c0,0,23.26-1.25,19.89,9.43c0,0-17.87,8-21.36-2.55c0,0,3.58,14.32-23.38,27.08
					c-24.08,11.39-29.63,47.01-33.6,58.42c-8.05,23.19-24.11,36.91-77.97,53.41c0,0,4.78-31.97-2.62-45.23
					C150.83,580.42,113.28,561.9,113.28,561.9z"/>
				<g transform="matrix(1.98454,-1.4132,1.4132,1.98454,-1008.41,-964.58)">
					<g class="st10">
						<path class="st11" d="M43.47,805.95c-2.12,1.21-5.18,1.55-7.77,0.53c-3.08-1.21-4.53-4.99-5.24-7.85
							c-0.67-2.56-0.27-6.23,2.01-8.64c1.72-1.87,5.32-2.67,7.56-1.66c1.41,0.6,4.07,2.87,1.95,4.16c-0.87,0.56-1.65,0.04-2.35-0.42
							c-2.35-1.44-5.14,0.15-5.43,2.68c-0.31,2.65,0.53,6.23,2.67,7.81c1.69,1.25,4.08,1.03,5.51-0.5c0.48-0.46,0.9-1.5,1.62-1.99
							c0.55-0.4,1.51-0.45,2.13,0.18C47.72,801.91,45.35,804.81,43.47,805.95z"/>
						<path class="st11" d="M57.51,783.02c0.07,0.2,0.12,0.44,0.16,0.63c0.01,0.2-0.03,0.41-0.16,0.64
							c-0.12,0.15-0.3,0.29-0.49,0.41c-0.21,0.15-0.43,0.25-0.7,0.39c-0.22,0.1-0.48,0.18-0.74,0.26l-1.32,0.42
							c-0.61,0.22-1.21,0.41-1.81,0.6c0.76,2.08,1.55,4.66,3.45,10.28l0.66,1.94c0.05,0.15,0.09,0.26,0.16,0.38
							c0.04,0.13,0.09,0.26,0.11,0.42c0.03,0.16,0.06,0.35,0.1,0.56c0.05,0.15,0.05,0.32,0.06,0.52c-0.05,0.1-0.06,0.16-0.05,0.19
							l-0.03,0.18c-0.03,0.24-0.16,0.45-0.33,0.64c-0.3,0.29-0.73,0.48-1.23,0.53c-0.29,0.06-0.55,0.06-0.75-0.02
							c-0.21-0.1-0.35-0.2-0.49-0.35c-0.17-0.17-0.28-0.31-0.36-0.48c-0.1-0.14-0.2-0.33-0.24-0.46l-4.45-13.14
							c-0.41,0.13-2.96,0.91-3.46,0.98c-0.22,0.04-0.79,0.14-1.07,0.14c-0.42,0.02-0.73-0.05-1.02-0.21
							c-0.25-0.15-0.44-0.37-0.54-0.65c-0.07-0.2-0.14-0.41-0.15-0.6c-0.01-0.2,0.06-0.42,0.24-0.64c0.1-0.14,0.37-0.43,0.63-0.6
							c0.18-0.14,0.45-0.28,0.73-0.4c0.28-0.12,0.54-0.2,0.85-0.3c1.22-0.39,2.25-0.71,3.44-1.12c1.99-0.66,3.99-1.26,5.98-1.83
							c0.45-0.11,0.88-0.19,1.36-0.15c0.35,0,0.68,0.07,0.94,0.24C57.24,782.57,57.42,782.77,57.51,783.02z"/>
					</g>
				</g>
			</g>
		</g>
		<g id="몸통_2_">
			<polygon class="st5" points="468.27,540.01 457.93,555.62 446.67,576.61 433.91,605.42 420.18,641.8 412.48,673.35 
				410.88,680.56 400.19,673.54 384.48,668.3 367.29,670.42 354.79,678.55 349.33,689.76 342.74,707.4 344.91,727.89 351.93,749.3 
				362.48,768.33 382,789.48 398.47,804.12 387.52,804.93 373.56,802.93 350.25,802.82 332.48,806.11 314.46,813.56 306.8,825.36 
				308.07,839.85 316.7,851.29 327.87,858.86 342.57,863.72 360.3,863.05 379.32,855.2 400.96,843.67 421.26,832.48 439.85,825.83 
				454.7,822.09 464.01,820.03 472.36,820.73 485.23,824.48 507.27,828.32 523.81,828.75 543.7,827.41 564.34,821.5 577.06,821.39 
				593.34,826.39 614.46,831.67 638.36,841.22 661.27,848.28 684.59,851.97 699.5,848.04 703.54,842.81 714.39,837.41 
				718.52,825.23 716.26,810.47 704.15,797.65 689.29,795.91 676.66,796.56 663.28,800.09 653.11,804.41 642.46,802.53 
				633.23,804.19 625.21,804.59 629.84,796.65 650.53,775.94 668.39,750.7 680.31,725.58 682.49,702.1 674.58,688.13 662.57,678.53 
				648.77,676.15 635.54,678.34 628.65,684.05 624.14,689.89 622.44,695.29 624.74,677.51 620.18,651.44 616.02,619.44 
				606.4,592.15 600.61,572.3 592.76,551.69 591.89,547.51 			"/>
			<path class="st2" d="M463.18,545.41c0,0-66.57,107.16-51.23,164.45"/>
			<path class="st2" d="M591.5,547.88c0,0,51.98,127.89,25.8,174.47"/>
			<path class="st2" d="M465.79,820.85c-53.83,3.7-96.92,51.47-128.86,41.52c0,0-12.27-25.18,13.15-28.14"/>
			<path class="st2" d="M328.85,819.53c0,0-20.15-4.84-20.14,20.6c0,0-3.61,11.64,27.57,22.13"/>
			<path class="st2" d="M409.96,678.92c0,0-17.52-11.11-30.51-11.3c0,0-34.48,1.54-36.17,45c0,0-6.82,47.89,56.71,93.03
				c0,0-111.55-21.25-91.69,36.8"/>
			<path class="st2" d="M625.7,685.3c0,0,13.98-18.25,35.94-8.08c19.13,8.85,28.04,31.73,13.41,60.6c0,0-8.11,31.36-54.51,68.97
				c0,0,28.91-4.46,58.54-10.8c20.35-4.35,42.72,3.82,38.66,33.51c0,0,1.47-20.35-23.11-18.28"/>
			<path class="st2" d="M566.57,821.43c45.43,2.79,111.55,51.1,134.34,24.5c0,0,9.32-17.41-17.46-19.64"/>
			<path class="st2" d="M717.79,828.79c-2.71,8.61-4.91,12.2-17.36,16.7"/>
			<path class="st2" d="M445.67,809.09c0,0,70.1,46.89,143.46-0.76"/>
			<path id="배_2_" class="st12" d="M477.13,545.59c0,0-65.56,92.42-38.91,180.15c9.68,31.86,47.14,49.61,81.29,50.49
				c22.39,0.58,74.02-13.56,83.22-60.1c7.71-38.97,4.66-115.4-38.56-170.05C506.01,472.52,477.13,545.59,477.13,545.59z"/>
		</g>
		<g id="하트_2_" class="st13">
			<path class="st14" d="M522.48,617.31c0,0,28.2-53.27,69.83-20.46c20.37,16.05,12.64,49.58-0.35,65.46
				c-35.97,43.99-69.95,60.87-69.16,61.01"/>
			<path class="st15" d="M522.48,617.31c0,0,28.2-53.27,69.83-20.46c20.37,16.05,12.64,49.58-0.35,65.46
				c-35.97,43.99-69.95,60.87-69.16,61.01"/>
			<path class="st14" d="M522.99,616.62c0,0-32-47.89-70.58-19.85c-20.46,14.86-14.08,48.28-0.89,66.33
				c32.17,44.04,72.47,59.83,71.68,59.96"/>
			<path class="st15" d="M522.99,616.62c0,0-32-47.89-70.58-19.85c-20.46,14.86-14.08,48.28-0.89,66.33
				c32.17,44.04,72.47,59.83,71.68,59.96"/>
		</g>
		<g id="오른쪽귀_2_">
			<path class="st5" d="M745.66,380.72c0,0,38.44-19.2,44.92,14.71c0,0,5.44,33.57-43.18,43.17L745.66,380.72z"/>
			<path class="st2" d="M745.66,380.72c0,0,38.44-19.2,44.92,14.71c0,0,5.44,33.57-43.18,43.17L745.66,380.72z"/>
			<path class="st0" d="M747.86,412.76c0,0,24.89-35.16,43.02-12.23c0,0-2.67,33.46-41.46,37.3L747.86,412.76z"/>
			<path class="st2" d="M747.86,412.76c0,0,24.89-35.16,43.02-12.23c0,0-2.67,33.46-41.46,37.3L747.86,412.76z"/>
		</g>
		<g id="왼쪽귀_2_">
			<path class="st5" d="M333.47,355.49c0,0-30.92-22.47-41.56,6.33c0,0-9.68,28.65,31.56,44.19L333.47,355.49z"/>
			<path class="st2" d="M333.47,355.49c0,0-30.92-22.47-41.56,6.33c0,0-9.68,28.65,31.56,44.19L333.47,355.49z"/>
			<path class="st0" d="M326.85,383.28c0,0-16.7-34.49-35.95-17.03c0,0-2.55,29.75,30.92,38.79L326.85,383.28z"/>
			<path class="st2" d="M326.85,383.28c0,0-16.7-34.49-35.95-17.03c0,0-2.55,29.75,30.92,38.79L326.85,383.28z"/>
		</g>
		<g id="얼굴_2_">
			<path class="st5" d="M535.43,191.7c0,0-138.07,14.44-200.73,159.24c-62.66,144.8,54.39,181.93,107.28,194.81
				c65.59,15.97,219.1,25.63,282.07-40.41c56.71-59.48,40.43-270.54-135.77-311.96c0,0-4.67-18.4,12.72-26.05
				c0,0-11.48-4.2-34.65,21.73l4.53-26.79c0,0-11.05,2.39-21.43,24.69l-18.24-15.61C531.21,171.35,540.46,184.3,535.43,191.7z"/>
			<path class="st2" d="M535.43,191.7c0,0-138.07,14.44-200.73,159.24c-62.66,144.8,54.39,181.93,107.28,194.81
				c65.59,15.97,219.1,25.63,282.07-40.41c56.71-59.48,40.43-270.54-135.77-311.96c0,0-4.67-18.4,12.72-26.05
				c0,0-11.48-4.2-34.65,21.73l4.53-26.79c0,0-11.05,2.39-21.43,24.69l-18.24-15.61C531.21,171.35,540.46,184.3,535.43,191.7z"/>
		</g>
		<g id="눈_2_">
			<path class="st16" d="M421.59,320.74c9.76,0,17.68,7.92,17.68,17.68c0,9.76-7.92,17.68-17.68,17.68
				c-9.76,0-17.68-7.92-17.68-17.68C403.91,328.66,411.83,320.74,421.59,320.74z"/>
			<path class="st2" d="M421.59,320.74c9.76,0,17.68,7.92,17.68,17.68c0,9.76-7.92,17.68-17.68,17.68
				c-9.76,0-17.68-7.92-17.68-17.68C403.91,328.66,411.83,320.74,421.59,320.74z"/>
			<path class="st12" d="M417.82,327.52c3.55,0,6.44,2.89,6.44,6.44s-2.89,6.44-6.44,6.44c-3.56,0-6.44-2.89-6.44-6.44
				S414.26,327.52,417.82,327.52z"/>
			<path class="st17" d="M424.81,342.73c1.72,0,3.12,1.4,3.12,3.12c0,1.72-1.4,3.12-3.12,3.12c-1.72,0-3.12-1.4-3.12-3.12
				C421.69,344.13,423.09,342.73,424.81,342.73z"/>
			<path class="st16" d="M653.09,344.5c9.76,0,17.68,7.92,17.68,17.68c0,9.76-7.92,17.68-17.68,17.68
				c-9.76,0-17.68-7.92-17.68-17.68C635.4,352.43,643.33,344.5,653.09,344.5z"/>
			<path class="st2" d="M653.09,344.5c9.76,0,17.68,7.92,17.68,17.68c0,9.76-7.92,17.68-17.68,17.68c-9.76,0-17.68-7.92-17.68-17.68
				C635.4,352.43,643.33,344.5,653.09,344.5z"/>
			<path class="st12" d="M649.31,351.29c3.55,0,6.44,2.89,6.44,6.44c0,3.56-2.89,6.44-6.44,6.44c-3.56,0-6.44-2.89-6.44-6.44
				C642.87,354.17,645.76,351.29,649.31,351.29z"/>
			<circle class="st17" cx="656.3" cy="369.62" r="3.12"/>
		</g>
		<g id="코입_2_">
			<path class="st16" d="M475.53,384.53c2.9-25.83,81.24-29.96,105.59-4.97c19.45,19.96-23.51,70.24-63.1,63.5
				C508.16,441.38,470.76,426.95,475.53,384.53z"/>
			<path class="st2" d="M475.53,384.53c2.9-25.83,81.24-29.96,105.59-4.97c19.45,19.96-23.51,70.24-63.1,63.5
				C508.16,441.38,470.76,426.95,475.53,384.53z"/>
			<polygon class="st12" points="558.75,491.73 535.68,485.67 518.33,475.39 500.61,482.89 487.71,486.01 494.42,531.27 
				545.5,533.37 			"/>
			<path class="st2" d="M519.92,444.6l-0.82,28.26c2.04,14.25,78.07,42.38,97-24.56"/>
			<path class="st2" d="M441.44,444.77c-3.49,18.91,26.2,63.42,77.59,28.63"/>
			<polyline class="st2" points="488.84,487.4 494.64,531.57 518.41,532.23 519.58,476.18 			"/>
			<polyline class="st2" points="558.47,491.74 546.67,533.8 518.55,531.98 			"/>
		</g>
		<g id="수염_2_">
			<path class="st2" d="M394.24,416.77c0,0-92.28-8.72-138.45,61.87"/>
			<path class="st2" d="M398.26,467.18c0,0-42.58-2.51-84.33,59.32"/>
			<path class="st2" d="M655.09,445.58c0,0,73.44-10.08,129.1,49.75"/>
			<path class="st2" d="M652.68,488.83c0,0,51.23,6.6,78.64,47.69"/>
		</g>
		<g class="st13">
			<path class="st18" d="M446.04,548.48l-30,48l16,11l-11,29c0,0,110,42,197-3l-7-30l14-7l-24-40c0,0-30.84,2.63-31.3,3.18
				c-15.7,18.82-70.7,23.82-92.94-4.52C476.54,554.82,456.37,551.26,446.04,548.48z"/>
			<line class="st18" x1="432.04" y1="607.48" x2="443.04" y2="582.48"/>
			<line class="st18" x1="611.04" y1="603.48" x2="602.04" y2="579.48"/>
		</g>
	</g>
	<g id="태극마크">
		<path class="st19" d="M522,622.06c-36.38-1.59-67.19,27.53-68.82,65.03c-0.02,0.44-0.01,0.87-0.03,1.31
			c1.4,5.48,7.69,22.61,32.13,24.81c27.06,2.44,33.06-19.3,33.75-20.73c5.39-11.16,16.01-23.05,32.47-22.47
			c30.91,1.09,32.15,33.07,32.15,33.07s0,0.11,0,0.27c0.67-3.42,1.1-6.93,1.26-10.53C586.54,655.33,558.37,623.64,522,622.06z"/>
		<path class="st20" d="M583.65,703.08c0,0-1.24-31.98-32.15-33.07c-16.46-0.58-27.08,11.3-32.47,22.47
			c-0.69,1.42-6.68,23.17-33.75,20.73c-24.44-2.2-30.74-19.33-32.13-24.81c-0.27-1.06-0.36-1.69-0.36-1.69
			c0.14,2.26,0.26,4.39,0.39,6.41c0.11,1.64,0.22,3.21,0.35,4.74c1.02,12.03,3.21,20.97,13.56,35.54
			c7.5,10.56,19.93,18.29,33.85,21.95c5.73,1.51,11.7,2.35,17.7,2.38c8.82,0.05,16.93-1.69,24.09-4.42
			c12.99-4.95,22.85-13.19,28.06-20.05c12.15-15.99,12.83-28.07,12.86-29.91C583.65,703.19,583.65,703.08,583.65,703.08z"/>
	</g>
</g>
</svg>
