<?xml version="1.0" encoding="UTF-8"?>
<!DOCTYPE svg PUBLIC "-//W3C//DTD SVG 1.1//EN" "http://www.w3.org/Graphics/SVG/1.1/DTD/svg11.dtd">
<!-- Creator: CorelDRAW X6 -->
<svg xmlns="http://www.w3.org/2000/svg" xml:space="preserve" width="98.7453mm" height="76.6741mm" version="1.1" style="shape-rendering:geometricPrecision; text-rendering:geometricPrecision; image-rendering:optimizeQuality; fill-rule:evenodd; clip-rule:evenodd"
viewBox="0 0 22795 17700"
 xmlns:xlink="http://www.w3.org/1999/xlink">
 <defs>
  <style type="text/css">
   <![CDATA[
    .str2 {stroke:#2B2A29;stroke-width:115.421;stroke-linecap:round;stroke-linejoin:round}
    .str1 {stroke:#2B2A29;stroke-width:277.011}
    .str0 {stroke:#FEFEFE;stroke-width:923.371;stroke-linecap:round;stroke-linejoin:round}
    .fil6 {fill:none}
    .fil5 {fill:#2B2A29}
    .fil8 {fill:#2B2A29}
    .fil1 {fill:#683224}
    .fil3 {fill:#CC6F3C}
    .fil4 {fill:#E1975A}
    .fil7 {fill:#F08143}
    .fil0 {fill:#FEFEFE}
    .fil10 {fill:#096540}
    .fil11 {fill:#BE2A2A}
    .fil9 {fill:#FBBA00}
    .fil2 {fill:#2B2A29;fill-rule:nonzero}
   ]]>
  </style>
 </defs>
 <g id="Layer_x0020_1">
  <metadata id="CorelCorpID_0Corel-Layer"/>
  <path class="fil0 str0" d="M8854 7084c-379,-829 -681,-1798 -1110,-3518 -1799,-7209 -9418,698 -6706,6632 680,1489 2168,2773 4380,3757 255,114 520,219 790,311 62,224 129,437 195,630 148,436 282,998 421,1381 332,916 1836,1177 2563,786 386,-181 572,-521 296,-1016 -490,-1063 499,-984 1668,-649 1146,329 1519,713 2345,1128 150,84 311,162 492,230 677,256 1695,477 2464,27l213 -148 155 -168c44,-54 74,-168 74,-168l10 -66c19,-343 -388,-668 -797,-903l-311 -163 -175 -80 -64 -27 -134 -54c-203,-77 -284,-276 -288,-537 -2,-522 347,-1309 602,-1789l4301 -638 113 0c157,0 333,-129 392,-286 514,-1073 1027,-2146 1541,-3219 8,-17 16,-33 24,-50 29,-61 34,-137 8,-201l-32 -49c-48,-52 -104,-54 -170,-44l-4391 640 2 -2c346,-585 768,-1329 1094,-2126 505,-1092 802,-2301 309,-3399 -193,-489 -535,-938 -1077,-1315 -59,-42 -121,-80 -182,-121 -630,-434 -1440,-597 -2074,-1006 -776,-702 -1887,-426 -1373,362 -55,0 -2933,244 -3100,281 -235,-537 -2431,-1140 -1507,841 288,617 64,1615 359,2927 25,112 -228,441 -296,531l-1024 1278z"/>
  <path class="fil1 str1" d="M10994 10638c-1971,-3130 -2292,-3235 -3250,-7072 -1799,-7209 -9418,698 -6706,6632 680,1489 2168,2773 4380,3757 1879,837 4282,1220 5228,-911 437,-985 391,-1354 243,-2374l105 -32z"/>
  <path class="fil2" d="M4594 2157c-9,-31 8,-63 38,-72 31,-9 63,8 72,38 122,399 266,796 427,1190 383,-330 754,-584 1064,-763 28,-15 63,-6 79,22 16,27 6,62 -21,78 -313,180 -689,438 -1075,775 218,522 467,1037 734,1539 131,245 266,488 404,727 232,-226 467,-405 699,-524 29,-15 63,-4 78,25 14,28 3,63 -25,77 -229,118 -463,297 -693,524 361,617 741,1210 1118,1767 18,27 11,63 -16,80 -26,18 -62,11 -80,-15 -372,-551 -748,-1137 -1106,-1747 -415,433 -814,1020 -1145,1691 80,97 161,194 241,291 553,665 1103,1326 1594,2016 19,26 13,62 -13,81 -26,18 -62,12 -80,-14 -490,-688 -1039,-1347 -1589,-2010 -70,-83 -139,-166 -208,-250 -65,136 -127,275 -186,416 -248,601 -439,1247 -542,1896 451,335 869,698 1253,1148 20,25 17,61 -7,81 -24,21 -60,18 -81,-6 -362,-426 -758,-773 -1184,-1094 -82,589 -90,1178 -1,1734 5,32 -16,61 -47,66 -32,5 -61,-16 -66,-48 -94,-587 -83,-1209 9,-1830 -333,-245 -685,-477 -1053,-720 -179,-117 -361,-238 -548,-363 -77,697 -105,1320 -110,1738 0,31 -26,57 -58,57 -32,-1 -57,-27 -57,-59 6,-432 35,-1084 118,-1809 -305,-208 -620,-431 -943,-681 -25,-19 -30,-55 -11,-80 20,-26 56,-30 81,-11 305,235 601,446 888,643 26,-219 57,-443 94,-670 116,-709 286,-1439 535,-2071 72,-182 150,-357 235,-526 -184,-275 -358,-556 -520,-845 -15,-27 -5,-62 23,-78 27,-15 62,-5 78,23 149,267 310,528 479,783 262,-495 573,-931 902,-1308 218,-251 444,-476 668,-676 -169,-408 -319,-821 -446,-1236zm-1941 6677c203,137 402,268 596,396 352,233 689,455 1010,689 106,-639 296,-1274 540,-1863 66,-161 137,-317 211,-470 -532,-643 -1058,-1294 -1526,-1982 -72,148 -140,300 -202,458 -245,624 -414,1346 -528,2048 -40,245 -73,488 -101,724zm890 -3347c465,688 990,1341 1523,1986 337,-674 743,-1263 1165,-1698 -144,-248 -285,-501 -421,-757 -262,-493 -507,-999 -723,-1512 -211,189 -423,402 -628,638 -336,385 -653,833 -916,1343z"/>
  <path class="fil3" d="M15795 864c645,416 1472,578 2107,1028 3950,2803 -1318,7490 -811,8162 587,779 1563,18 2365,17 642,0 608,1368 -765,2088 -178,94 -405,-71 -630,6 -919,315 -1852,60 -1926,173 -298,456 -1281,2378 -512,2668 491,185 2132,949 1200,1662 -783,599 -1906,364 -2635,88 -743,-280 -1133,-722 -1908,-1060 -1406,-612 -3362,-1018 -2597,351 804,1441 -2313,1574 -2848,250 -116,-287 -253,-894 -382,-1256 -224,-634 -491,-1542 -491,-2324 0,-3005 4317,-6975 4212,-7442 -295,-1312 -71,-2310 -359,-2927 -924,-1981 1272,-1378 1507,-841 167,-37 3045,-281 3100,-281 -514,-788 597,-1064 1373,-362z"/>
  <path class="fil4" d="M15264 1567c-53,-22 -2459,106 -2687,672 -992,2460 5747,2476 5304,508 -242,-1078 -1503,-1519 -2617,-1180z"/>
  <path class="fil2" d="M15878 753c317,203 677,355 1038,508 404,170 809,342 1173,588 2822,1915 640,5571 -411,7330 -280,470 -472,791 -459,823 145,354 524,226 951,81 180,-61 367,-124 561,-163 271,-55 512,62 758,181 49,24 97,47 150,71 255,115 330,390 273,711 -25,144 -79,299 -154,451 -75,150 -172,298 -285,431 -339,397 -829,662 -1346,471 -605,194 -1227,142 -1618,110 -167,-14 -240,-81 -259,-52 -118,181 -349,622 -529,1101 -120,319 -218,654 -242,933 -21,245 13,439 140,522 16,11 34,20 53,27 223,84 677,284 1034,546 193,142 359,303 453,477 106,197 122,406 -7,618 -54,88 -135,175 -245,260 -394,301 -866,405 -1336,399 -651,-9 -1297,-229 -1715,-421 -372,-171 -650,-337 -919,-496 -444,-263 -858,-510 -1624,-729 -566,-162 -1083,-264 -1389,-198 -230,50 -308,239 -116,656 200,434 127,772 -105,1010 -135,139 -322,239 -538,301 -207,59 -444,84 -687,75 -737,-29 -1540,-379 -1784,-1051 -76,-209 -148,-460 -221,-716 -65,-231 -132,-466 -201,-668 -107,-313 -219,-682 -304,-1066 -86,-386 -144,-786 -144,-1157 0,-2128 2086,-4694 3336,-6231 527,-647 897,-1102 879,-1180 -148,-658 -167,-1235 -184,-1727 -17,-486 -31,-885 -165,-1173 -286,-614 -289,-1013 -140,-1256 82,-134 205,-219 351,-265 134,-42 288,-51 445,-35 412,43 865,269 1046,507 173,-20 537,-55 955,-93 668,-60 1475,-129 1856,-160 -57,-147 -63,-279 -29,-392 36,-118 113,-211 218,-277 97,-60 218,-97 354,-108 332,-28 767,101 1132,426zm931 762c-377,-159 -752,-317 -1088,-534l0 0c-6,-4 -12,-9 -18,-14 -306,-277 -665,-387 -935,-364 -92,7 -170,30 -229,67 -50,31 -86,72 -101,122 -25,84 -1,201 94,350 18,23 29,52 29,84 0,76 -62,138 -139,138 -34,0 -1166,95 -2050,175 -526,48 -962,90 -1021,103l0 0c-63,13 -129,-19 -156,-80 -84,-192 -496,-397 -877,-437 -121,-12 -237,-6 -334,24 -85,27 -155,74 -198,145 -104,169 -86,480 154,995 158,339 173,764 191,1282 16,479 35,1041 178,1674 47,209 -358,707 -934,1415 -1227,1509 -3274,4026 -3274,6057 0,352 55,731 137,1098 81,368 190,728 296,1037 72,213 140,448 206,680 72,255 144,505 214,698 201,554 893,844 1533,869 214,8 421,-14 602,-65 172,-50 317,-125 416,-227 152,-157 196,-390 52,-702 -297,-645 -125,-949 309,-1042 358,-77 920,29 1522,202 800,229 1230,484 1690,757 263,156 535,318 894,483 393,181 999,388 1602,396 414,5 827,-84 1165,-343 83,-63 140,-124 177,-184 70,-115 60,-231 0,-343 -72,-134 -211,-265 -374,-385 -332,-244 -758,-432 -967,-511 -40,-14 -75,-33 -108,-54 -227,-148 -293,-433 -264,-775 27,-308 131,-668 259,-1009 189,-499 431,-963 557,-1155 71,-109 248,-95 513,-72 379,31 989,82 1554,-111l0 0c31,-11 66,-11 99,3 400,170 798,-49 1078,-377 98,-115 182,-243 247,-374 64,-128 108,-257 130,-376 35,-196 5,-357 -115,-411 -50,-22 -103,-48 -156,-74 -204,-99 -405,-196 -584,-160 -171,35 -352,96 -526,155 -558,189 -1052,356 -1295,-238 -66,-160 155,-529 477,-1070 1007,-1686 3100,-5191 493,-6959 -341,-232 -734,-398 -1125,-563z"/>
  <path class="fil2" d="M10759 1945c2,32 -23,59 -54,60 -32,2 -59,-22 -61,-54 -18,-335 -146,-441 -274,-434 -54,3 -109,24 -157,57 -49,32 -89,75 -114,121 -40,72 -36,153 54,203 28,15 38,50 23,78 -15,27 -50,38 -78,23 -161,-89 -170,-232 -100,-359 33,-62 87,-119 151,-162 64,-43 139,-72 215,-76 187,-10 372,122 395,543z"/>
  <path class="fil4" d="M16194 10496c254,-978 826,-2280 -742,-2328 -530,-16 -2430,2149 -3289,2703 -101,65 -209,132 -319,202 149,76 240,418 367,488 885,496 1254,584 1105,857 -161,294 -595,545 -1518,499 -504,-24 -1152,-274 -1642,-507 -302,406 -422,865 -175,1390 571,1209 2783,1574 4043,722 1070,-723 2170,-2576 2170,-4026z"/>
  <path class="fil2" d="M7590 16292c-9,-31 8,-63 38,-72 30,-10 62,7 72,37 33,104 82,244 133,384 46,124 92,244 131,333 12,29 -1,63 -30,75 -29,13 -63,-1 -76,-30 -41,-95 -88,-216 -133,-338 -50,-137 -99,-279 -135,-389z"/>
  <path class="fil2" d="M8301 16176c-12,-29 1,-63 31,-75 29,-12 63,1 75,31 85,200 101,361 118,524 12,116 24,233 62,365 8,31 -10,63 -40,71 -31,9 -63,-9 -71,-40 -40,-141 -53,-263 -65,-384 -16,-155 -32,-307 -110,-492z"/>
  <path class="fil2" d="M9056 16222c-15,-28 -4,-63 23,-78 28,-16 63,-5 78,23 229,420 229,576 229,1018l0 0 0 12c0,32 -26,58 -58,58 -31,0 -57,-26 -57,-58l0 -12 0 0c0,-421 0,-569 -215,-963z"/>
  <path class="fil2" d="M15475 16374c-25,-20 -29,-56 -10,-81 20,-24 56,-29 81,-9 65,52 191,127 322,206 244,147 507,305 497,406 -3,32 -31,55 -63,52 -31,-3 -54,-31 -51,-63 2,-28 -228,-167 -442,-296 -133,-80 -261,-157 -334,-215z"/>
  <path class="fil2" d="M16196 16101c-29,-13 -42,-48 -29,-77 13,-29 47,-41 76,-28 46,20 99,41 154,63l3 1c224,87 476,186 497,384 3,31 -20,59 -52,63 -31,3 -60,-20 -63,-52 -13,-127 -231,-213 -424,-288l-3 -1c-56,-22 -111,-43 -159,-65z"/>
  <path class="fil2" d="M16282 5176c32,3 55,31 52,62 -2,32 -30,55 -62,52 -417,-38 -721,-94 -1006,-227 -284,-134 -545,-343 -872,-688 -22,-23 -21,-60 2,-82 23,-22 59,-21 81,2 318,335 568,537 838,664 270,127 564,180 967,217z"/>
  <path class="fil0" d="M13372 2299c1054,-115 1123,455 633,598 -169,49 -369,122 -666,-2 -269,-112 -239,-567 33,-596z"/>
  <path class="fil2" d="M13366 2242c440,-48 718,22 862,132 60,47 99,102 116,159 19,60 14,122 -11,180 -43,102 -152,192 -312,239l0 0 -31 9 0 0c-171,51 -375,112 -673,-12 -97,-41 -162,-118 -195,-207 -25,-65 -33,-135 -25,-202 8,-69 32,-134 71,-186 47,-61 113,-103 198,-112zm791 223c-123,-94 -372,-153 -778,-109 -52,6 -91,31 -119,68 -27,35 -43,80 -48,128 -6,50 0,102 18,149 23,61 66,114 132,141 259,109 442,54 595,9l0 0 0 0 31 -9 0 0 1 0c125,-37 208,-103 238,-174 15,-34 17,-68 7,-101 -10,-35 -36,-70 -77,-102z"/>
  <path class="fil5" d="M13226 2572c-7,-838 1479,650 203,370 -120,-26 -203,-301 -203,-370z"/>
  <path class="fil2" d="M13168 2572c-2,-229 96,-316 229,-317 128,-1 291,95 414,218 126,125 214,282 189,398 -30,136 -193,213 -583,128 -2,-1 -4,-1 -6,-2 -64,-16 -116,-76 -155,-147 -55,-100 -88,-230 -88,-278zm229 -202c-66,1 -115,56 -114,202 0,35 28,138 74,222 26,46 54,84 82,92l2 0c308,68 430,34 446,-39 16,-75 -56,-192 -157,-293 -104,-103 -236,-184 -333,-184z"/>
  <path class="fil0" d="M16407 1783c1054,-115 1122,454 632,598 -168,49 -368,122 -665,-2 -269,-112 -240,-567 33,-596z"/>
  <path class="fil2" d="M16401 1725c439,-47 718,22 861,133 61,47 99,101 117,159 18,60 14,121 -11,179 -44,102 -152,193 -313,240l1 0 -31 9 0 0c-171,51 -375,112 -673,-13 -97,-40 -162,-117 -196,-207 -24,-64 -32,-135 -24,-202 7,-68 31,-133 71,-185 46,-61 113,-103 198,-113zm791 224c-123,-95 -373,-153 -779,-109 -51,5 -91,31 -119,67 -26,35 -42,81 -48,129 -5,50 0,102 18,149 23,61 67,114 132,141 260,108 443,54 596,9l0 0 0 0 31 -10 0 0 0 0c126,-36 208,-102 239,-174 14,-33 17,-68 7,-101 -11,-35 -36,-70 -77,-101z"/>
  <path class="fil5" d="M16260 2056c-6,-839 1479,650 204,370 -120,-26 -204,-301 -204,-370z"/>
  <path class="fil2" d="M16203 2056c-2,-229 95,-316 229,-317 128,-1 291,95 414,217 126,125 214,283 188,399 -29,136 -192,213 -582,128 -2,-1 -4,-1 -6,-2 -64,-17 -116,-76 -155,-148 -55,-99 -88,-230 -88,-277zm229 -202c-67,0 -115,56 -114,201 0,36 28,139 74,223 25,46 54,83 82,91l2 1c307,67 430,33 446,-39 16,-76 -56,-193 -157,-293 -105,-103 -236,-185 -333,-184z"/>
  <path class="fil6 str2" d="M14277 1287c109,0 1169,79 1154,-105"/>
  <path class="fil0" d="M16283 4978c202,668 25,1033 273,1085 179,37 582,-88 1511,-380 8,-21 216,-1237 -37,-1237 -138,0 -1796,371 -1747,532z"/>
  <path class="fil2" d="M16340 4969c91,302 105,542 116,721 11,189 18,297 112,316 80,17 217,-5 448,-65 231,-61 554,-162 1002,-303 18,-102 79,-497 79,-806 0,-93 -5,-177 -20,-240 -11,-49 -25,-81 -42,-87 -1,-1 -3,-1 -5,-1 -83,0 -745,142 -1226,287 -141,43 -265,86 -353,125 -63,27 -103,47 -111,53zm1 727c-10,-173 -25,-408 -114,-702l0 0c-2,-8 -3,-16 -3,-23l0 0c0,-57 68,-111 180,-161 94,-41 222,-86 366,-129 490,-148 1172,-292 1260,-292 16,0 31,2 46,8 58,22 94,83 114,169 16,73 23,165 23,266 0,329 -71,764 -89,855 -1,23 -17,44 -40,51 -465,146 -798,250 -1039,314 -248,66 -402,88 -501,67 -180,-38 -188,-177 -203,-423z"/>
  <path class="fil2" d="M17175 4579c-4,-31 18,-60 49,-65 32,-4 61,18 65,49 14,98 27,183 39,264 55,353 102,654 51,1036 -4,32 -33,54 -65,50 -31,-5 -53,-34 -49,-65 49,-366 3,-660 -50,-1003 -14,-88 -28,-179 -40,-266z"/>
  <path class="fil7" d="M17408 2769c-862,246 -991,9 -1506,508 -715,692 -1196,1972 726,1951 604,-7 1238,-63 1605,-609 475,-710 -93,-2059 -825,-1850z"/>
  <path class="fil2" d="M17424 2824c-319,92 -539,117 -715,138 -290,34 -454,53 -767,356 -241,233 -455,534 -553,827 -59,174 -76,344 -34,493 42,146 144,274 324,367 206,107 514,170 948,165 298,-3 603,-18 876,-100 268,-79 507,-223 682,-483 189,-283 203,-675 105,-1021 -41,-142 -101,-277 -175,-391 -74,-114 -161,-209 -258,-274 -130,-87 -278,-121 -433,-77zm-728 23c171,-20 386,-45 696,-133 191,-55 372,-14 529,92 110,74 209,180 290,306 81,125 146,270 189,422 108,375 90,804 -120,1117 -191,286 -452,443 -744,530 -286,85 -601,101 -908,104 -455,5 -780,-62 -1002,-177 -211,-110 -331,-263 -382,-438 -49,-173 -30,-366 36,-562 104,-310 329,-628 582,-873 341,-330 519,-351 834,-388z"/>
  <path class="fil2" d="M16824 3279c-25,-19 -31,-55 -12,-81 19,-26 55,-31 80,-12 246,179 443,461 561,812 111,327 153,714 102,1133 -4,31 -33,54 -64,50 -32,-4 -54,-33 -51,-64 49,-402 9,-771 -96,-1083 -111,-327 -293,-590 -520,-755z"/>
  <path class="fil8 str2" d="M16637 2409c-111,24 -1765,124 -1200,743 627,685 2708,143 1824,-642 -172,-153 -413,-144 -624,-101z"/>
  <path class="fil0" d="M16871 2452c423,-96 494,388 -99,93 -113,-56 79,-88 99,-93z"/>
  <path class="fil0" d="M22135 8190l-5253 766c-156,23 -321,134 -392,285l-694 1483 -5481 672c-155,20 -273,411 -110,447l4296 927c49,10 319,75 389,65l5348 -793 113 0c157,0 333,-129 392,-286l1571 -3281c58,-157 -23,-308 -179,-285z"/>
  <path class="fil2" d="M22155 8327l-5254 766c-57,9 -118,35 -171,73 -2,2 -5,4 -8,6 -46,35 -84,79 -107,128l-694 1483c-20,44 -62,72 -108,78l0 1 -5481 671 -1 0c-8,5 -23,33 -39,67 -13,29 -22,60 -26,87 -1,10 -2,19 -2,27l4266 921c3,0 6,1 9,2l26 6 5 1c84,19 265,59 300,54l5348 -793c6,-1 13,-2 20,-2l0 0 113 0c49,0 104,-22 152,-57 50,-36 91,-85 111,-138 1,-5 4,-10 6,-14l1566 -3272c8,-23 10,-45 8,-64 -2,-10 -5,-19 -9,-25 -3,-3 -5,-5 -8,-6 -4,-2 -12,-2 -22,0zm-5293 492l5254 -766c57,-9 110,-2 158,15 55,21 100,56 133,102 32,43 52,94 60,150 10,63 2,133 -24,203l0 0c-1,4 -3,7 -5,11l-1568 3276c-40,102 -115,194 -205,259 -94,69 -206,111 -314,111l-104 0 -5337 792c-82,12 -301,-36 -400,-59l-6 -1 -24 -5c-3,-1 -6,-1 -8,-2l-4296 -927c-84,-18 -138,-72 -167,-146 -20,-53 -25,-116 -17,-179 7,-56 24,-115 48,-167 50,-109 135,-202 239,-224 6,-2 13,-3 19,-4l5406 -662 661 -1413c43,-92 112,-171 193,-233 3,-2 6,-5 10,-8 88,-64 192,-108 294,-123z"/>
  <path class="fil9" d="M22309 8224l-5733 802c-32,32 -58,68 -75,105l-507 1146 5788 -804 509 -1145c17,-38 22,-73 18,-104z"/>
  <polygon class="fil10" points="21226,10723 15442,11527 15994,10277 21782,9473 "/>
  <path class="fil11" d="M21226 10723l-5765 803 -542 1250 5718 -802c36,-34 65,-72 83,-113l506 -1138z"/>
  <path class="fil2" d="M14702 12773l23 -66 0 0c2,-3 3,-7 5,-11l1572 -3415 0 0 1 -1 42 -90c3,-7 6,-14 10,-21 52,-85 123,-163 204,-224 3,-3 6,-6 10,-8 83,-61 178,-103 276,-118l5271 -766c57,-8 110,-2 158,15 55,21 100,56 133,102 32,43 52,94 60,150 9,63 2,133 -24,203l0 0c-1,4 -3,7 -5,11l-1571 3282c-45,96 -118,178 -203,240l0 -1c-89,65 -192,109 -293,123l-5337 789 -4 1c-49,7 -94,8 -134,4 -38,-4 -69,-10 -97,-18 -4,-2 -9,-3 -13,-5 -72,-25 -110,-104 -84,-176zm337 -86l5292 -782c58,-9 118,-35 171,-73l0 0 0 0c50,-37 92,-83 116,-135l1568 -3275c8,-23 10,-45 8,-63 -2,-11 -5,-20 -9,-26 -3,-3 -5,-5 -8,-6 -4,-2 -12,-2 -22,0l-5271 766c-51,8 -104,32 -153,68 -3,2 -5,4 -8,5 -50,39 -95,88 -129,142l-41 88 0 0 -1514 3291z"/>
  <path class="fil3" d="M11072 9285l-1829 -1601c-2938,3438 2155,6708 4427,4981 77,-59 -501,-132 -453,-228 142,-285 615,-563 -968,-873 -325,-64 -1166,-1703 -1177,-2279z"/>
  <path class="fil2" d="M9199 7646c21,-24 57,-27 81,-6 24,21 27,57 7,81 -867,1014 -1024,2011 -758,2864 152,488 441,929 815,1301 374,372 833,674 1323,882 996,422 2118,454 2910,-107 -29,-9 -68,-20 -109,-32 -81,-24 -169,-49 -227,-78 -70,-35 -106,-80 -76,-140 22,-43 49,-84 76,-124 41,-62 82,-124 93,-180 29,-147 -151,-302 -1096,-487 -180,-35 -484,-470 -743,-970 -257,-498 -475,-1065 -481,-1364 0,-32 25,-58 57,-58 32,-1 58,25 58,56 6,280 218,828 468,1313 245,473 520,882 663,910 1038,203 1228,412 1187,622 -15,79 -63,150 -110,222 -26,38 -51,76 -69,112 -8,15 16,-19 24,-15 49,24 131,48 208,70 100,29 191,56 220,93 27,36 24,69 -15,100 -831,631 -2027,611 -3083,163 -503,-213 -975,-524 -1360,-907 -386,-384 -685,-841 -843,-1347 -277,-889 -116,-1925 780,-2974z"/>
  <path class="fil2" d="M14126 12335c-91,13 -134,-113 -49,-158 10,-4 17,-6 28,-8l333 -42c90,-12 133,114 48,158 -10,5 -16,7 -27,9l-333 41zm-993 -732c-87,12 -133,-109 -50,-157 10,-5 20,-8 31,-9l316 -37c87,-12 133,109 50,157 -10,5 -19,8 -30,10l-317 36zm817 -94c-87,12 -133,-109 -50,-157 10,-5 19,-8 30,-10l334 -38c86,-12 132,109 50,157 -10,5 -20,8 -31,10l-333 38zm833 -96c-87,12 -133,-109 -50,-157 10,-5 20,-8 31,-10l333 -38c87,-12 133,109 50,157 -10,5 -20,8 -31,10l-333 38zm-1095 535c-111,10 -129,-152 -19,-167l307 -35c111,-10 129,152 19,167l-307 35zm808 -92c-111,10 -129,-152 -20,-167l334 -38c111,-10 129,151 19,166l-333 39z"/>
 </g>
</svg>
