<?xml version="1.0" encoding="UTF-8" standalone="no"?>
<svg
   version="1.1"
   viewBox="0 0 1280 819"
   width="1280pt"
   height="819pt"
   id="svg70"
   xmlns:xlink="http://www.w3.org/1999/xlink"
   xmlns="http://www.w3.org/2000/svg"
   xmlns:svg="http://www.w3.org/2000/svg">
  <defs
     id="defs1">
    <path
       d="m 600.9,169.22 1.17,-0.23 c 2.31,-0.37 4.59,-0.45 6.92,-0.48 11.66,-0.21 23.36,-0.3 35.01,0.28 4.39,0.89 8.54,0.66 13.02,0.96 9.89,1.48 20.05,2.2 29.87,4.37 5.85,0.81 11.59,1.89 17.22,3.68 5.38,1.92 10.8,3.62 16.03,5.94 6.85,3.38 13.14,7.14 18.01,13.17 2.18,2.76 2.99,5.8 4.24,9.02 0.25,4.07 0.23,8.06 -0.06,12.13 -1.32,4.75 -1.97,9.26 -4.73,13.48 -5.29,8.27 -14.34,14.23 -23.56,17.24 -4.6,1.39 -9.38,2.14 -14,3.48 -1.21,0.1 -2.43,0.2 -3.64,0.29 -2.94,6.62 -7.94,11.12 -13.03,16.03 1.02,1.87 2.02,3.75 2.87,5.71 2.8,6.11 3.34,12.22 7.77,17.61 6.88,8.56 15.21,14.77 20.2,24.93 0.63,1.74 1.27,3.47 1.9,5.2 1.29,5.17 1.71,9.62 1.25,14.95 -0.81,2.99 -1.59,5.98 -2.53,8.93 -5.23,11.56 -14.18,22.64 -25.66,28.41 0.42,2.22 0.96,4.41 1.55,6.59 9.01,6.02 16.96,13.2 25.26,20.11 4.33,4.13 9.23,8.42 9.25,14.91 -0.38,8.27 -4.61,15.19 -8.93,21.98 1.59,11.85 1.91,23.54 -1.52,35.13 -0.18,0.68 -0.37,1.37 -0.55,2.06 -1.48,3.92 -2.82,7.89 -4.35,11.8 -2.15,4.68 -4.75,9.18 -7.61,13.47 -7.29,10.32 -18.6,18.3 -28.88,25.5 0.52,2.08 0.95,4.21 1.64,6.24 10.33,1.74 22.47,-1.16 32.97,-1.66 8.32,-0.33 16.75,-0.53 25.06,0.19 1.7,0.72 3.39,1.44 5.1,2.13 2.78,2.12 5.63,4.48 7.77,7.26 2.07,2.72 3.18,5.71 4.57,8.8 0.12,3.99 0.66,7.49 -1.76,10.95 -2.05,3.77 -6.85,4.55 -10.73,4.74 -8.3,0.1 -16.87,-1.86 -24.95,-3.67 -8.34,-1.77 -16.58,-3.69 -25.01,-4.99 -2.65,-0.26 -5.27,-0.56 -7.88,-1 -6.98,-0.9 -14.16,0.12 -21.14,-0.44 -3.39,-1.23 -5.08,-5.28 -6.21,-8.43 -0.31,-1.68 -0.66,-3.36 -1.07,-5.02 -0.19,-2.94 -0.25,-5.89 -0.28,-8.83 -2.54,0.62 -5.07,1.3 -7.58,2.03 -8.49,1.04 -17.2,0.65 -25.73,0.38 3.04,2.77 7.29,5.51 9.1,9.25 2.2,5.4 -0.21,11.11 -2.35,16.1 -7.25,13.9 -16.1,26.65 -28.05,36.92 -2.36,1.78 -5.07,2.52 -7.81,3.57 -12.85,0.34 -24.29,-5.35 -33.62,-13.81 -3.21,-3.08 -4.69,-7.19 -5.04,-11.56 1.79,-3.1 3.34,-6.13 6.14,-8.49 6.14,-5.27 13.15,-9.7 20.07,-13.87 5.78,-3.37 13.57,-6.68 17.68,-12.12 2.28,-3.27 0.29,-6.73 -1.04,-9.94 -1.52,-2.75 -3.14,-6.31 -6.1,-7.7 -6.18,-3.2 -11.83,-7.28 -16.91,-12.02 -5.62,-5.55 -8.64,-12.03 -13.05,-18.41 -3.95,-5.36 -6.93,-11.32 -11.01,-16.62 -8.22,-12.08 -15.67,-24.71 -23.04,-37.32 -3.31,-5.08 -6.06,-10.44 -8.66,-15.9 -4.54,-8.53 -8.77,-17.22 -13.23,-25.79 -1.86,-3.87 -3.59,-7.8 -5.41,-11.69 -2.82,-6.29 -5.3,-12.72 -8.08,-19.02 -0.22,-0.66 -0.44,-1.33 -0.66,-1.99 -1.59,-3.6 -2.84,-7.32 -4.23,-11 -1,-2.71 -1.96,-5.43 -2.85,-8.18 -2.11,-7.58 -4.07,-15.2 -6.18,-22.79 -2.41,-8.63 -3.5,-17.41 -5,-26.22 -0.28,-3.39 -0.31,-6.63 -1.05,-9.96 -1,-15.99 0.41,-31.81 4.94,-47.21 2.01,-4.33 4.05,-8.65 6.17,-12.93 4.65,-9.06 12.1,-16.54 19.53,-23.42 8.13,-7.2 17.54,-13.19 27.41,-17.7 11.3,-4.8 23.19,-8.78 35.35,-10.63 6.86,-1.49 13.85,-2.08 20.75,-3.28 3.05,-0.23 6.08,-0.35 9.08,-1.03 3.29,-0.24 6.6,-0.33 9.89,-0.57 z m -101.12,43.51 c 7.52,-1.95 14.34,-4.66 22.21,-5.2 9.95,-0.53 20.29,-0.55 30.01,1.76 12.28,2.77 24.39,5.75 35.99,10.75 11.54,4.71 22.95,9.73 34.48,14.46 12.92,5.58 27.37,10.93 41.55,11.45 4.64,0.35 9.37,0.92 14.03,0.68 1.93,0.06 3.45,-2.35 4.8,-3.48 4.07,0.3 7.33,2.41 11.15,3.45 8.65,0.51 16.9,-4.16 24.03,-8.55 7.24,-4.49 13.33,-10.1 15.87,-18.49 1.73,-5.3 -0.54,-10.6 -3.59,-14.91 -5.65,-7.49 -14.51,-12.08 -22.79,-16.1 -9.48,-4.61 -19.3,-6.96 -29.58,-9.03 -20.76,-4.62 -42.75,-5.37 -63.94,-4.58 -18.94,0.47 -37.84,3.55 -56.19,8.21 -16.63,4.72 -34.72,10.62 -48.74,20.98 -3.51,2.42 -6.53,5.36 -9.29,8.6 z m 53.55,259.6 c 0.3,-7.01 -0.29,-13.64 1.62,-20.39 0.59,-2.44 1.6,-5.07 1.58,-7.6 -2.38,-4.15 -7.54,-7.42 -8.08,-12.52 -0.34,-4.52 2.34,-9.41 3.85,-13.6 3.58,-9.59 9.06,-18.29 16.78,-25.08 2.41,-2.15 5.44,-3.89 7.49,-6.38 0.3,-3.61 -0.88,-9.77 -2.48,-13.01 -2.62,-3.94 -6.36,-6.96 -8.71,-11.16 -5.25,-8.42 -5.36,-18 -4.63,-27.6 0.75,-9.2 4.65,-17.69 10.44,-24.8 3,-3.89 6.69,-7.22 7.78,-12.18 1.66,-7.07 1.32,-14.99 3.9,-22.23 1.33,-3.67 3.98,-6.16 5.76,-9.46 -2.44,-3.21 -6.4,-5.94 -8.36,-9.53 -2.02,-3.5 -0.18,-8.42 3.51,-9.94 2.67,-0.93 5.73,-0.56 7.48,1.86 3.54,4.33 3.24,9.49 3.32,14.76 6.03,-3.69 12.55,-5.95 19.46,-7.35 8.58,-1.58 16.27,-5.66 24.81,-7.44 -18.19,-0.97 -36.93,-9.82 -53.42,-17.13 -16,-6.96 -33.11,-12.99 -50.42,-15.53 -12.95,-1.59 -26.64,-1.29 -37.96,6 -11.09,6.93 -17.29,19.23 -19.4,31.82 -3.71,20.44 -1.26,39.85 1.56,60.16 1.14,7.12 3.47,14.26 5.46,21.21 3.11,10.77 7.08,21.25 11.58,31.51 5.14,12.32 10.61,24.48 16.73,36.34 8.73,19.29 19.89,37.87 30.92,55.99 2.86,4.63 5.83,9.17 9.43,13.28 z M 681.58,264.45 c 4.58,-3.57 8.75,-7.33 11.37,-12.63 -2.52,-2.29 -4.17,-4.87 -8.05,-4.27 -1.33,-0.33 -1.76,2.15 -2.25,3.06 -1.44,4.26 -1.12,9.38 -1.07,13.84 z m -99.36,-13.18 c 0.14,1.69 -0.16,4.06 1.08,5.37 1.99,2.49 4.89,4.46 7.4,6.39 0.07,-3.92 0.38,-8.23 -0.56,-12.07 -1.79,-3.25 -5.73,-1.56 -7.92,0.31 z m 61.15,1.19 0.45,1.09 c -1.36,0.16 -2.72,0.32 -4.07,0.49 13.51,0.41 26.38,4.02 38.76,9.28 -0.07,-3.19 -0.1,-6.38 -0.14,-9.57 -8.72,-0.13 -17.81,0.46 -26.39,-1.1 -2.87,-0.39 -5.73,-0.32 -8.61,-0.19 z m -58.29,33.49 c -0.07,-0.6 -0.13,-1.21 -0.19,-1.81 -0.52,7.67 -2.29,15.18 -5.93,21.99 -4.9,8.82 -12.28,18.48 -13.97,28.56 -1.25,9.32 -0.69,18.76 4.77,26.73 7.09,9.58 18.49,15.96 30.19,17.78 8.55,0.72 17.36,0.42 25.89,-0.58 -1.76,-3.47 -3.2,-7.1 -4.98,-10.55 -1.28,-2.66 -4.75,-4.2 -7.03,-5.94 -7.06,-5.1 -10.58,-11.89 -15.18,-18.89 -3.09,0.23 -6.21,1.94 -8.87,3.44 -3.66,2.19 -7.54,4.73 -10.33,7.99 -2.12,2.44 -3.67,5.58 -5.24,8.4 1.32,-3.21 2.46,-6.42 4.75,-9.09 5.05,-5.91 11.74,-9.6 18.67,-12.86 -1.44,-3.54 -2.72,-7.13 -3.77,-10.81 -5.28,-0.42 -10.38,0.8 -15.27,2.73 -3.97,1.56 -7.15,5.2 -10.3,8.04 2.84,-3.16 5.77,-6.91 9.74,-8.65 4.57,-2.04 9.89,-2.93 14.76,-4.08 -0.12,-3.41 -0.18,-6.83 -0.23,-10.25 -4.73,-0.71 -9.4,-0.34 -14.14,0.07 4.63,-1.81 9.34,-1.7 14.21,-1.62 0.04,-1.15 0.09,-2.3 0.13,-3.45 0.12,0.6 0.23,1.21 0.35,1.81 0.91,-8.29 3.38,-16.4 9.32,-22.5 2.6,-2.67 6.08,-3.7 9.62,-4.53 15.99,-3.63 33.02,-3.51 48.89,0.66 2.75,0.73 5.31,2.02 7.31,4.09 5.25,5.77 9.13,12.56 11.61,19.95 9.44,-0.26 20.29,0.01 26.72,8.04 -2.55,-1.8 -4.7,-3.69 -7.69,-4.74 -5.61,-2.08 -12.47,-1.49 -18.38,-1.36 0.62,3.67 0.96,7.28 1.1,11.01 7.06,1.19 13.6,2.35 19.74,6.33 2.23,1.44 3.59,3.99 5.03,6.17 -1.84,-2.06 -3.48,-4.42 -5.9,-5.8 -5.76,-3.32 -12.16,-4.74 -18.76,-5.05 -0.9,4.37 -2,8.64 -3.4,12.88 5.97,3.07 12,6 16.73,10.89 2.25,2.31 3.68,4.96 5.34,7.69 6.09,-7.04 10.89,-16.34 11.93,-25.67 1.03,-9.73 -4.25,-18.19 -9.77,-25.68 -4.67,-6.49 -11.73,-10.79 -14.93,-17.79 -3.03,-6.31 -4.34,-12.59 -8.79,-18.3 -4,-5.3 -9.93,-7.78 -16.07,-9.72 -19.76,-5.93 -41.79,-5.73 -60.88,2.51 -4.72,2.22 -9.69,4.8 -12.51,9.38 -2.59,3.82 -3.56,8.09 -4.29,12.58 z m 57.22,5.17 c 1.2,3.83 4.38,3.83 7.73,4.62 3.46,0.51 7.73,0.96 10.92,-0.8 0.2,-1.86 0.1,-2.21 -1.52,-3.09 -5.47,-2.19 -11.52,-2.82 -17.13,-0.73 z m -39.32,3.89 c -5.08,6.51 -6.16,14.12 -5.81,22.16 6.91,0.88 13.46,2.93 20.13,4.8 0.07,0.71 0.14,1.41 0.2,2.11 -6.99,-1.15 -13.2,-4.47 -20.33,-5.08 0.01,2.92 0.08,5.83 0.16,8.75 3.36,-0.04 6.71,-0.05 10.07,-0.02 0.03,0.84 0.05,1.68 0.08,2.52 -3.16,-0.41 -6.29,-0.63 -9.48,-0.72 0.42,3.62 1.31,6.93 2.52,10.36 4.65,-1.41 9.29,-2.82 14.04,-3.87 0.08,0.79 0.16,1.58 0.24,2.37 -4.46,0.85 -8.82,1.91 -13.16,3.23 2.66,8.1 8.42,14.54 15.17,19.54 2.17,1.35 4.44,3.08 7.02,1.58 4.06,-1.99 7.44,-5.59 10.87,-8.5 0.04,-7.42 -0.27,-14.83 -0.29,-22.24 0.06,-5.19 -0.82,-10.29 -0.84,-15.47 -12,-3.48 -23.47,-11.69 -29.81,-22.55 -0.27,0.34 -0.52,0.68 -0.78,1.03 z m 34.24,21.64 c 0.21,12.18 0.22,24.35 0.24,36.53 4.79,4.37 9.83,9.54 16.59,10.41 1.99,0.28 3.83,0.32 5.45,-1.06 6.86,-5.57 11.93,-13.74 15.39,-21.79 -5.43,-1.77 -10.93,-3.32 -16.54,-4.41 -0.02,-0.73 -0.05,-1.45 -0.08,-2.17 1.6,0.16 3.2,0.33 4.8,0.5 4.12,1.49 8.3,2.85 12.46,4.27 0.94,-3.85 1.68,-7.68 2.22,-11.6 -4.05,-0.07 -8.1,-0.03 -12.16,0.07 -0.02,-0.65 -0.05,-1.31 -0.08,-1.97 4.04,-0.03 8.07,-0.03 12.11,0.02 -0.09,-3.46 -0.3,-6.89 -0.89,-10.31 -7.41,1.07 -14.09,3.88 -21.21,5.98 -0.06,-0.81 -0.13,-1.63 -0.19,-2.45 6.84,-2.34 13.85,-3.94 20.91,-5.44 -1.69,-6.84 -4.32,-13.21 -9.27,-18.36 -7.54,9.35 -17.96,18.51 -29.75,21.78 z m 39.13,27.74 c -3,6.16 -6.29,11.98 -10.98,17.03 -2.16,2.17 -5.15,3.77 -7.79,5.29 -0.87,2.95 -1.71,5.9 -2.46,8.88 7.67,-1.03 15.3,-2.35 22.9,-3.77 4.85,-1.05 9.88,-1.84 13.98,-4.84 2.72,-1.97 5.52,-4.18 7.53,-6.9 0.04,-2.64 -2.69,-5.4 -4.32,-7.35 -4.73,-4.72 -10.91,-8.69 -17.38,-10.49 -0.52,0.69 -1.01,1.41 -1.48,2.15 z m -42.3,14.52 c -3.11,2.64 -6.54,4.79 -10.02,6.92 1.86,5.56 3.34,11.68 6.34,16.74 1.58,2.72 4.87,1.84 7.53,2.27 -0.78,-9.05 -2.22,-17.97 -2.39,-27.09 -0.49,0.38 -0.97,0.77 -1.46,1.16 z m 4.06,-1.56 c 0.22,1.89 0.48,3.77 0.76,5.65 0.87,4.6 0.51,9.16 1.14,13.79 0.34,2.83 0.34,5.63 0.45,8.48 2.48,-0.02 5.03,0.1 7.51,-0.21 1.8,-2.75 2.89,-6 4.34,-8.95 0.98,-3.09 1.77,-6.22 2.46,-9.39 -4.82,-1.73 -9.46,-3.6 -13.48,-6.86 -1.06,-0.83 -2.12,-1.67 -3.18,-2.51 z m -56.66,28.04 c 1.63,-0.55 3.25,-1.1 4.87,-1.67 -0.01,-1.31 -0.02,-2.63 -0.03,-3.94 -2.17,-0.94 -4.29,-1.89 -6.53,-2.64 0.36,2.81 1.03,5.5 1.69,8.25 z m 45.59,-1.78 c -9.01,-0.18 -18.03,0 -27.04,-0.03 -3.24,0.01 -6.41,-0.44 -9.58,-1.05 -0.04,0.6 -0.08,1.19 -0.12,1.79 1.16,0.69 2.33,1.38 3.49,2.07 -5.43,-0.11 -10.14,0.7 -14.8,3.6 -9.51,5.53 -16.91,15.29 -22.24,24.73 -2.25,4.12 -4.46,8.68 -5.2,13.34 -0.01,4.97 3.5,9.93 6.83,13.37 2.33,-4.1 4.6,-8.73 7.69,-12.3 2.01,-2.38 5.34,-3.68 8.04,-5.16 9.55,-5.08 18.5,-11.87 27.05,-18.49 -6.07,7.04 -13.08,12.85 -21.01,17.68 -3.84,2.53 -8.75,4.73 -11.48,8.45 -6.12,8.19 -10.93,17.16 -12.53,27.37 -1.7,8.78 0.83,18.51 4.51,26.51 7.71,16.29 20.75,29.45 36.67,37.82 1.42,6.29 1.56,12.58 1.39,19 -2.56,2.61 -5.17,5.13 -8.2,7.21 -8.85,5.95 -18.53,10.81 -27.51,16.51 -2.82,1.91 -6.1,4.13 -7.91,7.08 -1.42,2.32 -0.03,5.72 0.54,8.13 5.06,-1.63 8.41,-5 12.78,-7.83 7.92,-5.23 16.14,-9.98 24.12,-15.1 -2.04,2.38 -4.1,4.66 -6.71,6.44 -8.72,5.97 -18.71,11.07 -26.75,17.92 0.54,1.64 0.83,3.78 2.26,4.89 2.57,2.25 5.65,3 8.96,3.42 6.96,-9.37 16.06,-16.51 25.99,-22.5 2.46,-1.47 4.7,-3.22 6.93,-5.02 -8.49,8.66 -19.28,15.4 -27.29,24.48 -1.29,1.59 -3.56,4.97 -1.46,6.64 2.23,2.41 6.2,3.11 9.34,2.81 4.86,-0.5 9.53,-2.25 13.46,-5.17 6.81,-5.05 11.69,-11.61 16.31,-18.63 3.3,-5.18 6.37,-10.67 8.56,-16.42 1.2,-3.11 2.04,-7.07 0.96,-10.31 -1.47,-3.82 -6.5,-6.01 -8.42,-9.48 -1.19,-2.55 -1.63,-5.55 -2.28,-8.29 6.91,0.52 13.64,1.81 20.61,1.5 7.58,0.13 14.79,-1.55 22.25,-2.47 0.39,7.2 0.14,14.34 1.39,21.49 6.93,2.23 13.72,0.59 21.36,0.77 7.2,-0.25 14.07,0.64 21.04,2.38 11.23,2.81 22.54,5.26 33.91,7.44 3.76,0.48 8.29,1.17 11.94,-0.04 3.61,-2.42 2.54,-5.62 2.55,-9.33 -9.06,-3.85 -17.64,-5.89 -27.54,-5.88 10.02,-1.47 18.91,1.46 28.13,4.94 -1.5,-3.31 -2.91,-6.29 -6.4,-7.88 -7.2,-3.11 -16.18,-3.64 -23.87,-4.14 8.1,-1.34 15.17,1.77 23.14,1.73 -5.56,-4 -11.97,-6.5 -18.9,-6.24 -15.47,-0.51 -30.6,2.47 -46.02,2.1 -1.66,-0.13 -4.65,-0.17 -5.54,-1.89 -1.5,-2.84 -1.76,-6.56 -2.16,-9.71 13.45,-7.86 26.58,-18.63 34.37,-32.32 3.6,-7.07 7.15,-14.68 8.51,-22.55 0.91,-5.9 0.76,-12.04 0.52,-18 -0.5,-12.22 -4.83,-24.14 -9.1,-35.49 -5.47,-13.79 -15.35,-25.25 -20.39,-39.05 -5.18,-0.09 -10.15,0.69 -15.21,1.7 -3.9,0.83 -8.09,0.72 -11.9,1.81 -2,2.12 -3.18,5.78 -5.56,7.38 -5.01,1.02 -10.49,0.52 -15.57,0.27 -3.19,0 -4.68,-2.12 -6.91,-4 z m 87.97,47.66 c 2.43,-4.93 4.57,-10.73 4.46,-16.29 -0.03,-2.26 -0.97,-4.3 -2.37,-6.04 -4.24,-5.34 -9.57,-8.97 -14.59,-13.45 -2.94,-2.61 -6.05,-5.02 -9.36,-7.14 3.82,7.88 8.61,15.18 12.43,23.08 4.33,6.13 6.67,12.94 9.43,19.84 z"
       id="p1" />
    <path
       d="m 614,174.94 c 21.19,-0.79 43.18,-0.04 63.94,4.58 10.28,2.07 20.1,4.42 29.58,9.03 8.28,4.02 17.14,8.61 22.79,16.1 3.05,4.31 5.32,9.61 3.59,14.91 -2.54,8.39 -8.63,14 -15.87,18.49 -7.13,4.39 -15.38,9.06 -24.03,8.55 -3.82,-1.04 -7.08,-3.15 -11.15,-3.45 -1.35,1.13 -2.87,3.54 -4.8,3.48 -4.66,0.24 -9.39,-0.33 -14.03,-0.68 -14.18,-0.52 -28.63,-5.87 -41.55,-11.45 -11.53,-4.73 -22.94,-9.75 -34.48,-14.46 -11.6,-5 -23.71,-7.98 -35.99,-10.75 -9.72,-2.31 -20.06,-2.29 -30.01,-1.76 -7.87,0.54 -14.69,3.25 -22.21,5.2 2.76,-3.24 5.78,-6.18 9.29,-8.6 14.02,-10.36 32.11,-16.26 48.74,-20.98 18.35,-4.66 37.25,-7.74 56.19,-8.21 z"
       id="p2" />
    <path
       d="m 535.01,216.02 c 17.31,2.54 34.42,8.57 50.42,15.53 16.49,7.31 35.23,16.16 53.42,17.13 -8.54,1.78 -16.23,5.86 -24.81,7.44 -6.91,1.4 -13.43,3.66 -19.46,7.35 -0.08,-5.27 0.22,-10.43 -3.32,-14.76 -1.75,-2.42 -4.81,-2.79 -7.48,-1.86 -3.69,1.52 -5.53,6.44 -3.51,9.94 1.96,3.59 5.92,6.32 8.36,9.53 -1.78,3.3 -4.43,5.79 -5.76,9.46 -2.58,7.24 -2.24,15.16 -3.9,22.23 -1.09,4.96 -4.78,8.29 -7.78,12.18 -5.79,7.11 -9.69,15.6 -10.44,24.8 -0.73,9.6 -0.62,19.18 4.63,27.6 2.35,4.2 6.09,7.22 8.71,11.16 1.6,3.24 2.78,9.4 2.48,13.01 -2.05,2.49 -5.08,4.23 -7.49,6.38 -7.72,6.79 -13.2,15.49 -16.78,25.08 -1.51,4.19 -4.19,9.08 -3.85,13.6 0.54,5.1 5.7,8.37 8.08,12.52 0.02,2.53 -0.99,5.16 -1.58,7.6 -1.91,6.75 -1.32,13.38 -1.62,20.39 -3.6,-4.11 -6.57,-8.65 -9.43,-13.28 -11.03,-18.12 -22.19,-36.7 -30.92,-55.99 -6.12,-11.86 -11.59,-24.02 -16.73,-36.34 -4.5,-10.26 -8.47,-20.74 -11.58,-31.51 -1.99,-6.95 -4.32,-14.09 -5.46,-21.21 -2.82,-20.31 -5.27,-39.72 -1.56,-60.16 2.11,-12.59 8.31,-24.89 19.4,-31.82 11.32,-7.29 25.01,-7.59 37.96,-6 z"
       id="p3" />
    <path
       d="m 684.9,247.55 c 3.88,-0.6 5.53,1.98 8.05,4.27 -2.62,5.3 -6.79,9.06 -11.37,12.63 -0.05,-4.46 -0.37,-9.58 1.07,-13.84 0.49,-0.91 0.92,-3.39 2.25,-3.06 z"
       id="p4" />
    <path
       d="m 590.14,250.96 c 0.94,3.84 0.63,8.15 0.56,12.07 -2.51,-1.93 -5.41,-3.9 -7.4,-6.39 -1.24,-1.31 -0.94,-3.68 -1.08,-5.37 2.19,-1.87 6.13,-3.56 7.92,-0.31 z"
       id="p5" />
    <path
       d="m 651.98,252.65 c 8.58,1.56 17.67,0.97 26.39,1.1 0.04,3.19 0.07,6.38 0.14,9.57 -12.38,-5.26 -25.25,-8.87 -38.76,-9.28 1.35,-0.17 2.71,-0.33 4.07,-0.49 l -0.45,-1.09 c 2.88,-0.13 5.74,-0.2 8.61,0.19 z"
       id="p6" />
    <path
       d="m 662.76,261.48 c 6.14,1.94 12.07,4.42 16.07,9.72 4.45,5.71 5.76,11.99 8.79,18.3 3.2,7 10.26,11.3 14.93,17.79 5.52,7.49 10.8,15.95 9.77,25.68 -1.04,9.33 -5.84,18.63 -11.93,25.67 -1.66,-2.73 -3.09,-5.38 -5.34,-7.69 -4.73,-4.89 -10.76,-7.82 -16.73,-10.89 1.4,-4.24 2.5,-8.51 3.4,-12.88 6.6,0.31 13,1.73 18.76,5.05 2.42,1.38 4.06,3.74 5.9,5.8 -1.44,-2.18 -2.8,-4.73 -5.03,-6.17 -6.14,-3.98 -12.68,-5.14 -19.74,-6.33 -0.14,-3.73 -0.48,-7.34 -1.1,-11.01 5.91,-0.13 12.77,-0.72 18.38,1.36 2.99,1.05 5.14,2.94 7.69,4.74 -6.43,-8.03 -17.28,-8.3 -26.72,-8.04 -2.48,-7.39 -6.36,-14.18 -11.61,-19.95 -2,-2.07 -4.56,-3.36 -7.31,-4.09 -15.87,-4.17 -32.9,-4.29 -48.89,-0.66 -3.54,0.83 -7.02,1.86 -9.62,4.53 -5.94,6.1 -8.41,14.21 -9.32,22.5 -0.12,-0.6 -0.23,-1.21 -0.35,-1.81 -0.04,1.15 -0.09,2.3 -0.13,3.45 -4.87,-0.08 -9.58,-0.19 -14.21,1.62 4.74,-0.41 9.41,-0.78 14.14,-0.07 0.05,3.42 0.11,6.84 0.23,10.25 -4.87,1.15 -10.19,2.04 -14.76,4.08 -3.97,1.74 -6.9,5.49 -9.74,8.65 3.15,-2.84 6.33,-6.48 10.3,-8.04 4.89,-1.93 9.99,-3.15 15.27,-2.73 1.05,3.68 2.33,7.27 3.77,10.81 -6.93,3.26 -13.62,6.95 -18.67,12.86 -2.29,2.67 -3.43,5.88 -4.75,9.09 1.57,-2.82 3.12,-5.96 5.24,-8.4 2.79,-3.26 6.67,-5.8 10.33,-7.99 2.66,-1.5 5.78,-3.21 8.87,-3.44 4.6,7 8.12,13.79 15.18,18.89 2.28,1.74 5.75,3.28 7.03,5.94 1.78,3.45 3.22,7.08 4.98,10.55 -8.53,1 -17.34,1.3 -25.89,0.58 -11.7,-1.82 -23.1,-8.2 -30.19,-17.78 -5.46,-7.97 -6.02,-17.41 -4.77,-26.73 1.69,-10.08 9.07,-19.74 13.97,-28.56 3.64,-6.81 5.41,-14.32 5.93,-21.99 0.06,0.6 0.12,1.21 0.19,1.81 0.73,-4.49 1.7,-8.76 4.29,-12.58 2.82,-4.58 7.79,-7.16 12.51,-9.38 19.09,-8.24 41.12,-8.44 60.88,-2.51 z m -69.89,18.58 c 2.39,0.39 5.17,0.42 7.36,1.5 2.06,1.43 3.75,3.45 5.5,5.23 2.1,-0.69 5.42,-1.34 6.57,-3.41 0.16,-1.49 -1.47,-3.21 -2.09,-4.54 -5.99,-1.08 -11.48,0.24 -17.34,1.22 z m 66.31,0.66 c 0.69,2.06 0.74,4.12 2.91,5.16 1.93,1.17 3.46,0.32 5.29,-0.47 1.44,-1.24 2.79,-2.72 4.42,-3.7 1.95,-0.87 4.16,-1.22 6.23,-1.72 -5.12,-0.9 -9.76,-2.05 -15.04,-1.46 -1.41,0.15 -2.69,1.41 -3.81,2.19 z"
       id="p7" />
    <path
       d="m 610.21,278.84 c 0.62,1.33 2.25,3.05 2.09,4.54 -1.15,2.07 -4.47,2.72 -6.57,3.41 -1.75,-1.78 -3.44,-3.8 -5.5,-5.23 -2.19,-1.08 -4.97,-1.11 -7.36,-1.5 5.86,-0.98 11.35,-2.3 17.34,-1.22 z m -4.01,0.5 c 0.46,1.36 0.98,2.69 1.59,3.98 h 2.79 c 0.01,-1.18 -0.12,-2.32 -0.39,-3.43 -1.32,-0.23 -2.65,-0.42 -3.99,-0.55 z"
       id="p8" />
    <path
       d="m 662.99,278.53 c 5.28,-0.59 9.92,0.56 15.04,1.46 -2.07,0.5 -4.28,0.85 -6.23,1.72 -1.63,0.98 -2.98,2.46 -4.42,3.7 l -0.03,-0.71 c 0.08,-1.99 0.17,-3.98 0.19,-5.97 -1.25,0.32 -2.51,0.63 -3.77,0.94 -1.53,0.36 -3.06,0.71 -4.59,1.05 1.12,-0.78 2.4,-2.04 3.81,-2.19 z"
       id="p9" />
    <path
       d="m 663.77,279.67 c 0.47,2.89 1.36,3.37 3.58,5.03 l 0.03,0.71 c -1.83,0.79 -3.36,1.64 -5.29,0.47 -2.17,-1.04 -2.22,-3.1 -2.91,-5.16 1.53,-0.34 3.06,-0.69 4.59,-1.05 z"
       id="p10" />
    <path
       d="m 667.54,278.73 c -0.02,1.99 -0.11,3.98 -0.19,5.97 -2.22,-1.66 -3.11,-2.14 -3.58,-5.03 1.26,-0.31 2.52,-0.62 3.77,-0.94 z"
       id="p11" />
    <path
       d="m 606.2,279.34 c 1.34,0.13 2.67,0.32 3.99,0.55 0.27,1.11 0.4,2.25 0.39,3.43 h -2.79 c -0.61,-1.29 -1.13,-2.62 -1.59,-3.98 z"
       id="p12" />
    <path
       d="m 659.43,291.85 c 1.62,0.88 1.72,1.23 1.52,3.09 -3.19,1.76 -7.46,1.31 -10.92,0.8 -3.35,-0.79 -6.53,-0.79 -7.73,-4.62 5.61,-2.09 11.66,-1.46 17.13,0.73 z m -16.64,0.13 c 5.61,3.28 11.72,3.33 17.95,2.21 -5.33,-4.17 -11.74,-3.19 -17.95,-2.21 z"
       id="p13" />
    <path
       d="m 642.79,291.98 c 6.21,-0.98 12.62,-1.96 17.95,2.21 -6.23,1.12 -12.34,1.07 -17.95,-2.21 z"
       id="p14" />
    <path
       d="m 603.76,293.98 c 6.34,10.86 17.81,19.07 29.81,22.55 0.02,5.18 0.9,10.28 0.84,15.47 0.02,7.41 0.33,14.82 0.29,22.24 -3.43,2.91 -6.81,6.51 -10.87,8.5 -2.58,1.5 -4.85,-0.23 -7.02,-1.58 -6.75,-5 -12.51,-11.44 -15.17,-19.54 4.34,-1.32 8.7,-2.38 13.16,-3.23 -0.08,-0.79 -0.16,-1.58 -0.24,-2.37 -4.75,1.05 -9.39,2.46 -14.04,3.87 -1.21,-3.43 -2.1,-6.74 -2.52,-10.36 3.19,0.09 6.32,0.31 9.48,0.72 -0.03,-0.84 -0.05,-1.68 -0.08,-2.52 -3.36,-0.03 -6.71,-0.02 -10.07,0.02 -0.08,-2.92 -0.15,-5.83 -0.16,-8.75 7.13,0.61 13.34,3.93 20.33,5.08 -0.06,-0.7 -0.13,-1.4 -0.2,-2.11 -6.67,-1.87 -13.22,-3.92 -20.13,-4.8 -0.35,-8.04 0.73,-15.65 5.81,-22.16 0.26,-0.35 0.51,-0.69 0.78,-1.03 z"
       id="p15" />
    <path
       d="m 666.97,294.87 c 4.95,5.15 7.58,11.52 9.27,18.36 -7.06,1.5 -14.07,3.1 -20.91,5.44 0.06,0.82 0.13,1.64 0.19,2.45 7.12,-2.1 13.8,-4.91 21.21,-5.98 0.59,3.42 0.8,6.85 0.89,10.31 -4.04,-0.05 -8.07,-0.05 -12.11,-0.02 0.03,0.66 0.06,1.32 0.08,1.97 4.06,-0.1 8.11,-0.14 12.16,-0.07 -0.54,3.92 -1.28,7.75 -2.22,11.6 -4.16,-1.42 -8.34,-2.78 -12.46,-4.27 -1.6,-0.17 -3.2,-0.34 -4.8,-0.5 0.03,0.72 0.06,1.44 0.08,2.17 5.61,1.09 11.11,2.64 16.54,4.41 -3.46,8.05 -8.53,16.22 -15.39,21.79 -1.62,1.38 -3.46,1.34 -5.45,1.06 -6.76,-0.87 -11.8,-6.04 -16.59,-10.41 -0.02,-12.18 -0.03,-24.35 -0.24,-36.53 11.79,-3.27 22.21,-12.43 29.75,-21.78 z"
       id="p16" />
    <path
       d="m 677.83,342.24 c 6.47,1.8 12.65,5.77 17.38,10.49 1.63,1.95 4.36,4.71 4.32,7.35 -2.01,2.72 -4.81,4.93 -7.53,6.9 -4.1,3 -9.13,3.79 -13.98,4.84 -7.6,1.42 -15.23,2.74 -22.9,3.77 0.75,-2.98 1.59,-5.93 2.46,-8.88 2.64,-1.52 5.63,-3.12 7.79,-5.29 4.69,-5.05 7.98,-10.87 10.98,-17.03 0.47,-0.74 0.96,-1.46 1.48,-2.15 z"
       id="p17" />
    <path
       d="m 635.51,357.75 c 0.17,9.12 1.61,18.04 2.39,27.09 -2.66,-0.43 -5.95,0.45 -7.53,-2.27 -3,-5.06 -4.48,-11.18 -6.34,-16.74 3.48,-2.13 6.91,-4.28 10.02,-6.92 0.49,-0.39 0.97,-0.78 1.46,-1.16 z"
       id="p18" />
    <path
       d="m 638.11,357.35 c 1.06,0.84 2.12,1.68 3.18,2.51 4.02,3.26 8.66,5.13 13.48,6.86 -0.69,3.17 -1.48,6.3 -2.46,9.39 -1.45,2.95 -2.54,6.2 -4.34,8.95 -2.48,0.31 -5.03,0.19 -7.51,0.21 -0.11,-2.85 -0.11,-5.65 -0.45,-8.48 -0.63,-4.63 -0.27,-9.19 -1.14,-13.79 -0.28,-1.88 -0.54,-3.76 -0.76,-5.65 z"
       id="p19" />
    <path
       d="m 579.76,377.14 c 2.24,0.75 4.36,1.7 6.53,2.64 0.01,1.31 0.02,2.63 0.03,3.94 -1.62,0.57 -3.24,1.12 -4.87,1.67 -0.66,-2.75 -1.33,-5.44 -1.69,-8.25 z m 1.42,1.09 c 0.26,2.13 0.55,4.24 0.87,6.35 1.57,-0.99 3.1,-1.55 3.8,-3.44 -1.5,-1.06 -3.08,-1.98 -4.67,-2.91 z"
       id="p20" />
    <path
       d="m 682.19,376.45 c 5.04,13.8 14.92,25.26 20.39,39.05 4.27,11.35 8.6,23.27 9.1,35.49 0.24,5.96 0.39,12.1 -0.52,18 -1.36,7.87 -4.91,15.48 -8.51,22.55 -7.79,13.69 -20.92,24.46 -34.37,32.32 0.4,3.15 0.66,6.87 2.16,9.71 0.89,1.72 3.88,1.76 5.54,1.89 15.42,0.37 30.55,-2.61 46.02,-2.1 6.93,-0.26 13.34,2.24 18.9,6.24 -7.97,0.04 -15.04,-3.07 -23.14,-1.73 7.69,0.5 16.67,1.03 23.87,4.14 3.49,1.59 4.9,4.57 6.4,7.88 -9.22,-3.48 -18.11,-6.41 -28.13,-4.94 9.9,-0.01 18.48,2.03 27.54,5.88 -0.01,3.71 1.06,6.91 -2.55,9.33 -3.65,1.21 -8.18,0.52 -11.94,0.04 -11.37,-2.18 -22.68,-4.63 -33.91,-7.44 -6.97,-1.74 -13.84,-2.63 -21.04,-2.38 -7.64,-0.18 -14.43,1.46 -21.36,-0.77 -1.25,-7.15 -1,-14.29 -1.39,-21.49 -7.46,0.92 -14.67,2.6 -22.25,2.47 -6.97,0.31 -13.7,-0.98 -20.61,-1.5 0.65,2.74 1.09,5.74 2.28,8.29 1.92,3.47 6.95,5.66 8.42,9.48 1.08,3.24 0.24,7.2 -0.96,10.31 -2.19,5.75 -5.26,11.24 -8.56,16.42 -4.62,7.02 -9.5,13.58 -16.31,18.63 -3.93,2.92 -8.6,4.67 -13.46,5.17 -3.14,0.3 -7.11,-0.4 -9.34,-2.81 -2.1,-1.67 0.17,-5.05 1.46,-6.64 8.01,-9.08 18.8,-15.82 27.29,-24.48 -2.23,1.8 -4.47,3.55 -6.93,5.02 -9.93,5.99 -19.03,13.13 -25.99,22.5 -3.31,-0.42 -6.39,-1.17 -8.96,-3.42 -1.43,-1.11 -1.72,-3.25 -2.26,-4.89 8.04,-6.85 18.03,-11.95 26.75,-17.92 2.61,-1.78 4.67,-4.06 6.71,-6.44 -7.98,5.12 -16.2,9.87 -24.12,15.1 -4.37,2.83 -7.72,6.2 -12.78,7.83 -0.57,-2.41 -1.96,-5.81 -0.54,-8.13 1.81,-2.95 5.09,-5.17 7.91,-7.08 8.98,-5.7 18.66,-10.56 27.51,-16.51 3.03,-2.08 5.64,-4.6 8.2,-7.21 0.17,-6.42 0.03,-12.71 -1.39,-19 -15.92,-8.37 -28.96,-21.53 -36.67,-37.82 -3.68,-8 -6.21,-17.73 -4.51,-26.51 1.6,-10.21 6.41,-19.18 12.53,-27.37 2.73,-3.72 7.64,-5.92 11.48,-8.45 7.93,-4.83 14.94,-10.64 21.01,-17.68 -8.55,6.62 -17.5,13.41 -27.05,18.49 -2.7,1.48 -6.03,2.78 -8.04,5.16 -3.09,3.57 -5.36,8.2 -7.69,12.3 -3.33,-3.44 -6.84,-8.4 -6.83,-13.37 0.74,-4.66 2.95,-9.22 5.2,-13.34 5.33,-9.44 12.73,-19.2 22.24,-24.73 4.66,-2.9 9.37,-3.71 14.8,-3.6 -1.16,-0.69 -2.33,-1.38 -3.49,-2.07 0.04,-0.6 0.08,-1.19 0.12,-1.79 3.17,0.61 6.34,1.06 9.58,1.05 9.01,0.03 18.03,-0.15 27.04,0.03 2.23,1.88 3.72,4 6.91,4 5.08,0.25 10.56,0.75 15.57,-0.27 2.38,-1.6 3.56,-5.26 5.56,-7.38 3.81,-1.09 8,-0.98 11.9,-1.81 5.06,-1.01 10.03,-1.79 15.21,-1.7 z m -44.23,38.5 c -14.75,0.94 -29.37,2.8 -43.75,6.3 -3.04,0.88 -5.83,1.43 -7.56,4.36 -7.45,11.9 -12.75,24.99 -14.92,38.9 -1.7,12.03 3.05,25.51 12.59,33.21 3.07,2.7 6.81,2.56 10.66,3.36 8.94,1.67 17.92,2.99 27.02,3.39 5.59,0.34 11.19,0.16 16.78,0.5 9.16,0.71 18.84,-0.69 28.03,-1.52 6.68,-0.8 13.5,-1.32 20.05,-2.83 2.22,-0.45 3.41,-2.4 4.71,-4.07 11.95,-16.34 14.59,-38.99 9.01,-58.17 -1.41,-4.57 -3.15,-9.23 -5.75,-13.27 -1.81,-2.9 -4.96,-3.85 -8.01,-4.95 -11.2,-3.59 -23.09,-5.32 -34.83,-5.87 -4.7,-0.25 -9.36,0.08 -14.03,0.66 z"
       id="p21" />
    <path
       d="m 581.18,378.23 c 1.59,0.93 3.17,1.85 4.67,2.91 -0.7,1.89 -2.23,2.45 -3.8,3.44 -0.32,-2.11 -0.61,-4.22 -0.87,-6.35 z"
       id="p22" />
    <path
       d="m 693.15,388.35 c 3.31,2.12 6.42,4.53 9.36,7.14 5.02,4.48 10.35,8.11 14.59,13.45 1.4,1.74 2.34,3.78 2.37,6.04 0.11,5.56 -2.03,11.36 -4.46,16.29 -2.76,-6.9 -5.1,-13.71 -9.43,-19.84 -3.82,-7.9 -8.61,-15.2 -12.43,-23.08 z"
       id="p23" />
    <path
       d="m 651.99,414.29 c 11.74,0.55 23.63,2.28 34.83,5.87 3.05,1.1 6.2,2.05 8.01,4.95 2.6,4.04 4.34,8.7 5.75,13.27 5.58,19.18 2.94,41.83 -9.01,58.17 -1.3,1.67 -2.49,3.62 -4.71,4.07 -6.55,1.51 -13.37,2.03 -20.05,2.83 -9.19,0.83 -18.87,2.23 -28.03,1.52 -1.97,-14.57 -4.62,-28.91 -4.87,-43.97 0.06,-12.69 2.16,-24.78 4.32,-37.22 0.6,-3.05 0.39,-5.83 -0.27,-8.83 4.67,-0.58 9.33,-0.91 14.03,-0.66 z"
       id="p24" />
    <path
       d="m 637.96,414.95 c 0.66,3 0.87,5.78 0.27,8.83 -2.16,12.44 -4.26,24.53 -4.32,37.22 0.25,15.06 2.9,29.4 4.87,43.97 -5.59,-0.34 -11.19,-0.16 -16.78,-0.5 -9.1,-0.4 -18.08,-1.72 -27.02,-3.39 -3.85,-0.8 -7.59,-0.66 -10.66,-3.36 -9.54,-7.7 -14.29,-21.18 -12.59,-33.21 2.17,-13.91 7.47,-27 14.92,-38.9 1.73,-2.93 4.52,-3.48 7.56,-4.36 14.38,-3.5 29,-5.36 43.75,-6.3 z m -39.95,12.02 c -0.02,1.88 -0.04,3.76 -0.06,5.64 -0.77,0.78 -1.55,1.56 -2.32,2.34 -1.76,0.02 -3.52,0.04 -5.28,0.06 0.02,2.54 0.04,5.09 0.07,7.63 2.35,0.26 4.68,0.5 7.01,0.88 0.52,2.2 0.56,4.56 0.73,6.81 2.52,0.03 5.03,0.05 7.54,0.06 0.44,-1.99 -0.25,-5.85 1.73,-6.95 1.99,-0.51 4.1,-0.61 6.14,-0.84 0.03,-2.53 0.05,-5.07 0.08,-7.6 -1.89,0 -3.77,0 -5.66,-0.01 -0.63,-0.75 -1.27,-1.5 -1.9,-2.26 -0.08,-1.9 -0.15,-3.81 -0.23,-5.71 -2.62,-0.03 -5.24,-0.03 -7.85,-0.05 z"
       id="p25" />
    <path
       d="m 598.01,426.97 c 2.61,0.02 5.23,0.02 7.85,0.05 0.08,1.9 0.15,3.81 0.23,5.71 0.63,0.76 1.27,1.51 1.9,2.26 1.89,0.01 3.77,0.01 5.66,0.01 -0.03,2.53 -0.05,5.07 -0.08,7.6 -2.04,0.23 -4.15,0.33 -6.14,0.84 -1.98,1.1 -1.29,4.96 -1.73,6.95 -2.51,-0.01 -5.02,-0.03 -7.54,-0.06 l 0.92,-0.94 c 1.65,-0.16 3.3,-0.26 4.96,-0.37 0.52,-2 0.76,-4.36 1.85,-6.13 1.77,-1.22 4.34,-1.43 6.41,-1.98 -0.02,-1.59 -0.04,-3.19 -0.06,-4.78 -1.87,0.04 -3.74,0.09 -5.61,0.14 -1.24,-2.65 -2,-5.38 -2.55,-8.25 -1.67,0 -3.35,0 -5.02,0.01 0.09,1.7 0.17,3.4 0.26,5.1 -0.77,0.96 -1.53,1.92 -2.29,2.89 -2.03,0.02 -4.04,0.11 -6.06,0.2 -0.01,1.64 -0.02,3.29 -0.03,4.94 2.22,0.7 4.38,1.37 6.49,2.36 -2.33,-0.38 -4.66,-0.62 -7.01,-0.88 -0.03,-2.54 -0.05,-5.09 -0.07,-7.63 1.76,-0.02 3.52,-0.04 5.28,-0.06 0.77,-0.78 1.55,-1.56 2.32,-2.34 0.02,-1.88 0.04,-3.76 0.06,-5.64 z"
       id="p26" />
    <path
       d="m 599.06,428.03 c 1.67,-0.01 3.35,-0.01 5.02,-0.01 -0.06,1.97 -0.14,3.94 -0.23,5.9 -0.58,0.25 -1.15,0.49 -1.72,0.73 -0.89,0.38 -1.78,0.77 -2.67,1.16 -0.04,-0.89 -0.09,-1.79 -0.14,-2.68 -0.09,-1.7 -0.17,-3.4 -0.26,-5.1 z"
       id="p27" />
    <path
       d="m 604.08,428.02 c 0.55,2.87 1.31,5.6 2.55,8.25 0.16,1.55 0.28,3.11 0.41,4.67 1.75,-0.01 3.51,-0.01 5.26,-0.03 -2.07,0.55 -4.64,0.76 -6.41,1.98 -1.09,1.77 -1.33,4.13 -1.85,6.13 -0.04,-1.67 -0.09,-3.33 -0.14,-5 -1.57,-0.05 -3.13,-0.1 -4.69,-0.14 -0.54,-0.85 -1.1,-1.71 -1.6,-2.59 l -0.26,-2.26 c 1.91,-0.06 3.82,-0.12 5.74,-0.18 -0.32,-1.4 -0.64,-2.8 -0.96,-4.2 0.57,-0.24 1.14,-0.48 1.72,-0.73 0.09,-1.96 0.17,-3.93 0.23,-5.9 z m -1.75,12.18 c -0.92,-0.03 -1.51,0.35 -1.79,1.15 0.29,2.3 4.11,-0.13 1.79,-1.15 z"
       id="p28" />
    <path
       d="m 599.32,433.13 c 0.05,0.89 0.1,1.79 0.14,2.68 0.89,-0.39 1.78,-0.78 2.67,-1.16 0.32,1.4 0.64,2.8 0.96,4.2 -1.92,0.06 -3.83,0.12 -5.74,0.18 -0.1,-1 -0.19,-2.01 -0.32,-3.01 0.76,-0.97 1.52,-1.93 2.29,-2.89 z"
       id="p29" />
    <path
       d="m 590.97,436.22 c 2.02,-0.09 4.03,-0.18 6.06,-0.2 0.13,1 0.22,2.01 0.32,3.01 l 0.26,2.26 c -2.22,-0.02 -4.44,-0.06 -6.67,-0.13 0.01,-1.65 0.02,-3.3 0.03,-4.94 z"
       id="p30" />
    <path
       d="m 606.63,436.27 c 1.87,-0.05 3.74,-0.1 5.61,-0.14 0.02,1.59 0.04,3.19 0.06,4.78 -1.75,0.02 -3.51,0.02 -5.26,0.03 -0.13,-1.56 -0.25,-3.12 -0.41,-4.67 z"
       id="p31" />
    <path
       d="m 602.33,440.2 c 2.32,1.02 -1.5,3.45 -1.79,1.15 0.28,-0.8 0.87,-1.18 1.79,-1.15 z"
       id="p32" />
    <path
       d="m 590.94,441.16 c 2.23,0.07 4.45,0.11 6.67,0.13 0.5,0.88 1.06,1.74 1.6,2.59 -0.01,1.84 -0.03,3.68 -0.13,5.51 l -0.92,0.94 c -0.17,-2.25 -0.21,-4.61 -0.73,-6.81 -2.11,-0.99 -4.27,-1.66 -6.49,-2.36 z"
       id="p33" />
    <path
       d="m 599.21,443.88 c 1.56,0.04 3.12,0.09 4.69,0.14 0.05,1.67 0.1,3.33 0.14,5 -1.66,0.11 -3.31,0.21 -4.96,0.37 0.1,-1.83 0.12,-3.67 0.13,-5.51 z"
       id="p34" />
  </defs>
  <g
     id="g70"
     transform="matrix(1.2336993,0.0126523,-0.01624528,0.96084142,-556.23128,-142.73778)">
    <use
       fill="#171818"
       xlink:href="#p1"
       id="use37" />
    <use
       fill="#9a6126"
       xlink:href="#p2"
       id="use38" />
    <use
       fill="#573e24"
       xlink:href="#p3"
       id="use39" />
    <use
       fill="#eac48e"
       xlink:href="#p4"
       id="use40" />
    <use
       fill="#eac48e"
       xlink:href="#p5"
       id="use41" />
    <use
       fill="#f8f8f8"
       xlink:href="#p6"
       id="use42" />
    <use
       fill="#e79742"
       xlink:href="#p7"
       id="use43" />
    <use
       fill="#1e1c1b"
       xlink:href="#p8"
       id="use44" />
    <use
       fill="#3d2e25"
       xlink:href="#p9"
       id="use45" />
    <use
       fill="#191a19"
       xlink:href="#p10"
       id="use46" />
    <use
       fill="#b1b3a9"
       xlink:href="#p11"
       id="use47" />
    <use
       fill="#e7e9e4"
       xlink:href="#p12"
       id="use48" />
    <use
       fill="#9f9480"
       xlink:href="#p13"
       id="use49" />
    <use
       fill="#fafaf8"
       xlink:href="#p14"
       id="use50" />
    <use
       fill="#eac48e"
       xlink:href="#p15"
       id="use51" />
    <use
       fill="#eac48e"
       xlink:href="#p16"
       id="use52" />
    <use
       fill="#e79742"
       xlink:href="#p17"
       id="use53" />
    <use
       fill="#fffffe"
       xlink:href="#p18"
       id="use54" />
    <use
       fill="#fffffe"
       xlink:href="#p19"
       id="use55" />
    <use
       fill="#848585"
       xlink:href="#p20"
       id="use56" />
    <use
       fill="#e79742"
       xlink:href="#p21"
       id="use57" />
    <use
       fill="#f2f2f2"
       xlink:href="#p22"
       id="use58" />
    <use
       fill="#e79742"
       xlink:href="#p23"
       id="use59" />
    <use
       fill="#d23131"
       xlink:href="#p24"
       id="use60" />
    <use
       fill="#f3efee"
       xlink:href="#p25"
       id="use61" />
    <use
       fill="#db9282"
       xlink:href="#p26"
       id="use62" />
    <use
       fill="#c9cdcc"
       xlink:href="#p27"
       id="use63" />
    <use
       fill="#a7aaaa"
       xlink:href="#p28"
       id="use64" />
    <use
       fill="#8d9090"
       xlink:href="#p29"
       id="use65" />
    <use
       fill="#c9cdcc"
       xlink:href="#p30"
       id="use66" />
    <use
       fill="#c9cdcc"
       xlink:href="#p31"
       id="use67" />
    <use
       fill="#818485"
       xlink:href="#p32"
       id="use68" />
    <use
       fill="#ba7f73"
       xlink:href="#p33"
       id="use69" />
    <use
       fill="#c9cdcc"
       xlink:href="#p34"
       id="use70" />
  </g>
</svg>
