<?xml version="1.0" encoding="UTF-8"?><svg id="Capa_2" xmlns="http://www.w3.org/2000/svg" viewBox="0 0 825.91 759.95"><defs><style>.cls-1{fill:#fb5101;}.cls-1,.cls-2,.cls-3,.cls-4,.cls-5,.cls-6,.cls-7,.cls-8,.cls-9,.cls-10,.cls-11,.cls-12,.cls-13,.cls-14,.cls-15,.cls-16,.cls-17,.cls-18,.cls-19,.cls-20,.cls-21,.cls-22,.cls-23,.cls-24,.cls-25,.cls-26,.cls-27,.cls-28,.cls-29,.cls-30{stroke-width:0px;}.cls-2{fill:#3f4b73;}.cls-3{fill:#f20101;}.cls-4{fill:#bb2a59;}.cls-5{fill:#008efb;}.cls-7{fill:#a14413;}.cls-8{fill:#008901;}.cls-9{fill:#754c24;}.cls-10{fill:#01c5fc;}.cls-11{fill:#9f0139;}.cls-12{fill:#fc4ec8;}.cls-13{fill:#0251f7;}.cls-31{fill:none;stroke:#000;stroke-miterlimit:10;stroke-width:2px;}.cls-14{fill:#00d9a0;}.cls-15{fill:#f8f8f8;}.cls-16{fill:#0090fa;}.cls-17{fill:#ba00fc;}.cls-18{fill:#f7d601;}.cls-19{fill:#fad901;}.cls-20{fill:#fdd900;}.cls-21{fill:#01fa03;}.cls-22{fill:#fdfdfd;}.cls-23{fill:#f9fdfa;}.cls-24{fill:#d30080;}.cls-25{fill:#d30180;}.cls-26{fill:#940073;}.cls-27{fill:#01fc00;}.cls-28{fill:#fcfcfc;}.cls-29{fill:#fcd801;}.cls-30{fill:#b801dc;}</style></defs><g id="Capa_1-2"><path class="cls-14" d="m589.25,707.79c.12-3.83-.93-4.5-4.63-3.03-.96.38-1.99.58-2.98.87-.63-.82-.25-1.62.21-2.26,5.9-8.24,9.55-17.71,14.45-26.49,4.1-6.86,7.41-14.07,9.85-21.69,1.94-6.49,4.99-12.59,6.61-19.19.76-1.89,1.1-3.88,1.39-5.88,1.69-4.68,2.76-9.52,3.84-14.37,1.29-7.15,2.55-14.31,3.47-21.52,1.94-12.56.85-25.11-.15-37.66-.17-8.49-1.96-16.71-4.04-24.89-4.7-15.62-11.24-30.24-22.88-42.09-.21-.18-.41-.37-.61-.57-.1-.1-.2-.2-.3-.3-6.54-6.16-14.55-9.72-22.67-13.23-12.56-5.43-25.85-7.76-39.22-9.86-3.69-.58-7.47-.54-11.14-.11-6.03.71-12.08,1.33-18.06,2.47-6.45,1.23-12.72,2.94-18.69,5.74-6.56,3.08-13.73,4.83-19.82,8.93-5.72,3.85-11.6,7.46-17.41,11.17-6.19,4.1-10.8,9.91-15.82,15.2-6.41,6.76-12.23,14.07-17.9,21.49-4.65,6.09-6.81,13.35-9.48,20.37-1.1,3.03-2.43,5.98-3.15,9.14-.06.26-.14.52-.22.77-.12.39-.24.78-.36,1.17-2.01,7.25-4.36,14.41-6.12,21.73-.51,2.12-1.3,4.13-2.68,5.86-2.89-2.04-5.8-4.04-8.65-6.15-1.69-1.25-2.94-1.04-3.95.78-1.2.67-2.3.03-3.4-.32-19.19-6.08-36.77-2.54-52.86,9.07-5.21,3.76-10.65,7.28-15.34,11.75-1.92,1.83-3.6,3.86-5.04,6.06-5.78,8.8-11.82,17.46-15.52,27.42-2.49,6.69-3.95,13.6-4,20.74-.04,5.34-.41,10.72.76,16.01.18.81.24,1.63-.44,2.29-8.9-10.58-16.02-22.2-20.6-35.3.15-.23.34-.51.59-.52,5.44-.31,8.19-4.5,11.6-7.85,5.68-5.59,10.77-11.77,16.88-16.92,3.35-2.83,3.78-4.66.89-8-8.26-9.52-15.98-19.52-24.85-28.52-2.43-2.47-5.41-4.28-7.83-6.75-.99-1-2.54-1.93-1.99-3.59.54-1.65,2.29-1.55,3.71-1.71,9.11-1,18.23-1.95,27.15-4.16,5.38-1.33,10.53-3.42,15.83-5.02,2.69-.81,3.59-2.96,2.19-5.38-7.98-13.76-16.03-27.48-28.63-37.74-.7-.57-1.37-1.2-1.99-1.86-.25-.27-.47-.56-.58-.99.35-1.3,1.58-1.59,2.64-2,9.38-3.67,18.65-7.65,28.13-11.07,8.18-2.95,9.18-5.41,6.07-13.55-4.4-11.52-11.12-21.58-19-30.94-.75-.89-1.67-1.7-1.51-3.24,1.18-1,2.79-.97,4.25-1.17,8.38-1.11,16.63-2.86,24.86-4.77,1.24-.29,2.61-1.02,3.89.04.47,1.01.11,1.96-.24,2.9-3.83,10.45-6.55,21.18-7.26,32.29-.93,14.64,1.04,28.81,8.47,41.79,2.93,5.11,7.27,9.11,11.81,12.68,6.65,5.23,16.59,4.86,22.97-.27,3.9-3.14,5.51-7.33,5.74-12.15.28-5.65-.7-11.21-1.28-16.8-1.41-13.44-1.08-26.6,5.03-39.09,1.82-3.71,4.05-7.07,6.75-10.16,1.33-1.52,2.57-3.06,3.2-5,.94-2.27,2.87-3.66,4.63-5.2,4.89-4.28,10.45-7.75,14.98-12.48,2.9-3.04,5.4-6.31,6.87-10.28.25-.59.4-1.22.72-1.76,4.91-8.39,3.63-16.91.49-25.45-1.86-5.07-5.68-8.6-9.78-11.77-2.28-1.77-4.87-3.19-7.57-4.26-8.15-3.24-16.25-2.88-24.3.5-4.33,1.82-7.87,4.46-9.94,8.8-5.63,8.94-11.68,17.64-16.53,27.06-3.07,5.95-6.76,11.55-9.65,17.6-1,2.09-1.38,4.53-3.26,6.15-.81-.08-.96-.73-1.13-1.34-2.5-9.44-7.08-18.03-10.91-26.93-2.7-6.27-5.87-12.26-9.67-17.92-.49-.74-1.11-1.48-.61-2.48h-.04c3.8-1.9,7.7-3.56,11.84-4.59,7.92-1.99,15.89-3.79,23.6-6.53,4.24-1.51,4.83-2.54,3.07-6.62-4.3-10.01-9.33-19.67-14.39-29.31-1.39-2.65-2.8-5.29-4.09-7.99-1.16-2.41-.87-3.15,1.75-4.01,5.96-1.96,12.08-3.29,18.27-4.23,4.31-.65,8.57-1.54,12.85-2.35,3.57-.68,4.35-2.39,2.84-5.67-2.58-5.6-6.45-10.29-10.59-14.75-5.31-5.71-11.16-10.89-16.78-16.3-2.31-2.22-4.02-4.89-5.2-7.88,4.18-15.12,8.41-30.23,12.5-45.37,3-11.11,5.8-22.28,8.7-33.42.42-1.6.82-3.04,3.06-3.06.67,0,1.33-1.38,1.99-2.13-.73-.53-1.45-1.08-2.2-1.57-2.14-1.4-4.68-2.41-6.38-4.22-6.82-7.26-10.25-16.08-11.52-25.92-1.21-9.32.5-18.17,4.23-26.55,1.65-3.71,4.31-7.23,7.27-10.04,4.23-4.01,9.69-3.83,14.88-1.92,6.55,2.41,11.88,6.59,15.79,12.42,2.05,3.06,3.95,6.23,6.07,9.59,3.32-1.93,6.85-3.63,10.01-5.87,13.9-9.88,29.82-14.49,46.25-17.38,21.66-3.82,43.56-5.49,65.56-5.64,29.07-.2,57.21,5.17,84.74,14.2,7.49,2.46,14.35,6.06,20.76,10.59,1.69,1.19,3.48,2.25,5.27,3.29,2.4,1.39,4.05.95,5.74-1.58,1.67-2.49,3.12-5.13,4.89-7.53,3.07-4.15,7.07-6.66,12.46-6.66,2.22,0,3.76.84,5.08,2.57,5.68,7.45,7.77,16,7.09,25.11-.37,4.91-1.62,9.81-2.98,14.57-1.99,6.95-7.5,10.4-13.93,12.62-3.24,1.12-3.79,2.5-2.43,5.72,1.02,2.41,1.64,4.99,2.57,7.45,9.49,24.95,15.74,50.71,19.84,77.06,2.26,14.51,5.47,28.88,7.73,43.39,1.97,12.62,3.52,25.33,4.73,38.05,3.81,40.21,2.82,80.56,2.59,120.86-.1,18.05-.76,36.14-2.21,54.13-1.53,18.96-4.3,37.83-6.55,56.73-.45,3.77-.96,7.54-1.43,11.25-3.95.92-4.44,2.24-2.15,5.35.64.87,1.27,1.76,1.91,2.64.13.91.07,1.8-.27,2.67-4.36,11.14-7.43,22.73-11.85,33.85-2.86,7.19-6.59,13.92-11.32,20.06-2.77,3.59-5.02,7.54-7.79,11.14-2.44,3.18-5.18,6.06-8.31,8.56-.5.4-1.04.77-1.41,1.27-3.48,4.7-8.33,7.75-13.15,10.79-3.54,2.24-6.64,5.04-10.09,7.37-.9.61-1.78,1.71-3.14.92Z"/><path class="cls-24" d="m248.4,584.06c-.13,5.78-.54,11.57-.32,17.33.45,12.1,1.97,24.06,6.55,35.41,1.25,3.09,2.67,6.11,4.3,9.8-3.49.42-6.51,1.23-9.47,1.05-7.68-.47-15.39-.97-22.97-2.19-17.94-2.89-35-9.01-51.57-16.19-18.79-8.14-36.26-18.81-52.33-31.51-14.45-11.42-28.8-23.05-42.38-35.47-11.58-10.59-21.26-23.04-30.67-35.67-10.99-14.77-20.96-30.19-28.63-46.85-8.3-18.03-13.6-37.15-15.92-56.94-1.43-12.24-.03-24.42,1.33-36.63,1.94-17.31,7.77-33.22,16.52-48.03,6.74-11.41,15.53-21.21,26.74-28.63,8.98-5.95,19-8.81,29.5-10.55,13.86-2.3,27.44-.55,41.1,1.79,21.3,3.65,39.65,13.19,55.86,27.12,14.65,12.59,24.61,28.44,31.59,46.33,4.92,12.6,7.2,25.83,9.75,39.01,3.38,17.45,6.86,34.88,10.26,52.33,2.73,14.02,9.57,25.86,18.75,36.65,4.85,5.71,9.93,10.84,17.07,13.5,1.95.73,1.44,1.92,1.02,3.26-2.47,7.77-5.03,15.52-7.35,23.33-1.91,6.43-3.53,12.95-5.31,19.41-.23.84-.66,1.62-.99,2.43-1.17-.69-1.38-1.94-1.78-3.07-.16-.93-.51-1.78-.95-2.61-.13-.25-.23-.52-.31-.79-3.87-10.37-4.93-21.36-7.06-32.12-.33-1.69-.65-3.39-.92-5.09-.54-3.39.43-4.37,3.79-3.99,3.5.4,6.97,1.16,10.86.71-3.54-1.3-6.91-1.93-10.27-2.63-13.31-2.76-26.85-3.82-40.31-5.52-4.32-.55-8.66-.96-13.01-1.21-3.44-.2-4.08-1.03-4.16-4.38-.39-15.57.73-31.02,3.32-46.38,1.1-6.5,1.25-6.58,7.65-4.61,7.11,2.19,14.2,4.47,21.13,7.2-4.28-3.65-9.64-5.03-14.68-7.05-2.44-.98-4.99-1.68-7.49-2.52-4.79-1.61-4.91-1.85-3.66-6.88.87-3.53,2.2-6.92,3.29-10.39.31-1,.81-2,.34-3.27-1.46.55-1.92,1.77-2.5,2.83-1.88,3.44-3.35,7.05-4.59,10.76-1.26,3.78-1.92,4.17-5.78,3.08-10.15-2.87-20.46-5.07-30.79-7.15-5.43-1.09-10.89-1.96-16.4-2.54-3.37-.36-3.85-1.01-3.07-4.43,2.56-11.18,6.29-22.01,10.1-32.8,1.58-4.45,2.95-8.97,4.71-13.36,1.18-2.94,1.7-3.3,4.68-2.48,15.51,4.28,30.88,8.99,45.62,15.55.87.39,1.71,1.01,3.04.8-1.47-2.14-3.46-3.36-5.56-4.4-7.34-3.65-14.99-6.53-22.71-9.23-5.83-2.04-11.73-3.88-17.67-5.58-3.93-1.13-4.43-2.13-2.81-5.89,2.84-6.59,5.64-13.2,7.67-20.1.19-.65.7-1.28.26-2.16-1.1.68-1.51,1.79-2.02,2.8-3.31,6.47-6.23,13.13-9.47,19.63-1.56,3.14-1.76,3.43-5.22,2.43-12.61-3.63-25.48-5.88-38.47-7.55-6.3-.81-12.65-1.2-18.96-1.89-3.41-.37-3.9-1.14-2.56-4.41,3.49-8.49,7.57-16.72,11.89-24.81,3.93-7.37,7.85-14.76,12.53-21.7.48-.71,1.1-1.46.67-2.61-1.3.28-1.84,1.38-2.54,2.25-5.52,6.83-9.46,14.63-13.78,22.2-4.51,7.91-8.35,16.14-11.69,24.59-1.2,3.03-3.05,4.02-6.21,3.98-11.63-.15-23.23.34-34.74,2.15-4.04.64-8,1.59-11.85,3.29,1.78.22,3.56.14,5.33-.13,6.38-.97,12.81-1.2,19.25-1.55,6.73-.37,13.41-.32,20.11.1,3.73.23,4.3.84,2.9,4.27-4.61,11.3-8.46,22.82-10.96,34.78-1.79,8.54-3.14,17.15-3.82,25.85-.25,3.19-.88,4.12-4.04,4.93-6.7,1.7-13.28,3.79-19.8,6.07-3.22,1.13-6.37,2.47-9.42,4.9,1.78.44,2.93-.18,4.07-.59,7.8-2.8,15.84-4.73,23.87-6.69,3.3-.8,4.44-.03,4.17,3.27-.67,7.96-.9,15.93-1.36,23.9-.36,6.16-.49,12.34.12,18.5.39,3.87-.07,7.84,1.47,11.9-.14-4.03-.48-7.81-.33-11.5.29-6.9-.04-13.8.47-20.68.47-6.42.87-12.85,1.45-19.26.82-9.1.48-7.74,7.72-9.01,8.86-1.55,17.8-2.25,26.81-2.6,6.72-.26,13.43-.32,20.14-.45,2.74-.05,5.44.26,8.14.58,2.63.31,3.17.91,2.76,3.55-.98,6.28-1.95,12.56-2.69,18.88-1.47,12.64-2.22,25.31-1.9,38.04.05,2,.6,3.95.52,5.96-.11,3.12-.6,3.83-3.7,4.33-9.7,1.58-19.25,3.83-28.68,6.56-5.32,1.54-10.56,3.36-15.73,5.36-.64.25-1.45.34-1.67,1.36,1.2.73,2.44.27,3.63.04,8.22-1.56,16.2-4.12,24.38-5.85,6.13-1.3,12.26-2.64,18.46-3.59,3.48-.53,3.96-.11,4.45,3.29,3.14,21.7,7.42,43.14,14.25,64.02.93,2.83,2.29,5.51,2.58,8.58.15,1.58,2.19,2.39,2.68,4.17-.48-2.2.55-3.28,2.52-3.59,15.42-2.5,30.47-6.99,46.07-8.54,2.62-.26,5.23-.61,7.85-.84,2.47-.22,3.93.83,5.18,3.04,6.29,11.15,12.19,22.53,19.08,33.34,1.57,2.46,3.4,4.71,5.27,6.94.74.88,1.44,1.86,2.73,2.11.05-.87-.51-1.41-.95-1.95-5.46-6.77-9.16-14.61-13.25-22.19-3.1-5.75-6.23-11.5-9.03-17.41-1.71-3.61-1.31-4.35,2.56-4.42,11.11-.2,22.11.98,33.1,2.42,1.14.15,2.39.16,3.31,1.07Z"/><path class="cls-25" d="m282.3,677.25c-.3-7.41-1.11-14.83-.77-22.21.5-10.87,4.42-20.83,10.12-30.04,3.58-5.77,7.37-11.41,11.08-17.1.39-.6.82-1.22,1.36-1.69,12.97-11.44,26.17-22.43,44.13-25.22,9.15-1.42,18.06-.73,26.81,2.25,1.03.35,2.07.65,3.11.97.97,1.42,1.65,3.22,2.96,4.19,5.02,3.73,10.35,7.04,15.35,10.8,8.61,6.48,14.61,15.01,17.53,25.32,3.06,10.79,5.46,21.91,1.79,32.99-1.71,5.16-4.47,10.13-7.54,14.65-8.08,11.9-17.64,22.59-28.09,32.49-4.21,3.99-8.09,8.34-12.04,12.6-.78.84-1.48,1.91-1.77,2.99-.75,2.79.29,3.27,3.15,3.39,6.95.28,13.94.71,20.82,1.73,11.34,1.68,22.02,5.52,31.53,12.03,2.59,1.77,4.52,4.51,6.61,6.66-.98,1.56-1.67,2.4-2.09,3.37-1.17,2.72-3.23,4.5-6.03,5.05-5.32,1.03-10.68,2.16-16.07,2.55-7.78.55-15.66,1.14-23.4.51-14.99-1.21-30.19-.38-44.96-3.73-5.25-1.19-10.37-3.3-15.29-5.54-4.29-1.95-4.98-4.62-2.41-8.62,2.04-3.18,4.69-5.96,7.14-8.86,1.62-1.92,3.37-3.74,5.07-5.58.22-.23.56-.35.81-.55.81-.64,2.39-1.67,2.29-1.89-.66-1.38-1.54-3.52-2.64-3.71-9.72-1.7-17.24-7.45-24.84-13.04-1.84-1.35-3.31-3.23-4.86-4.95-3.58-3.98-7.13-7.98-10.63-12.02-2.79-3.22-5.48-6.52-8.22-9.79Z"/><path class="cls-27" d="m618.64,616.1c-1.08,4.35-2.14,8.7-3.26,13.04-.12.48-.58.87-.89,1.3-1.21-.59-2.4-1.21-3.83-.98-.96.16-1.75.47-1.99,1.52-.21.92.25,1.52.96,2.05,1.22.91,2.61,1.59,3.69,2.69-.53,1.98-.94,4-1.62,5.93-1.62,4.66-3.37,9.27-5.06,13.91-1.42.69-2.66-.14-3.91-.54-16.05-5.03-32.2-9.67-48.9-11.98-10.88-1.51-21.78-2.52-32.8-2.69-19.02-.3-37.69,1.84-56.03,6.8-14.58,3.94-28.74,9.07-42.37,15.61-1.28.62-2.48,1.58-4.06,1.3,5.4-14.87,4.06-29.51-1.42-44.03-.19-.5-.28-1.05-.42-1.57.39-.9,1.19-1.33,1.99-1.77,21.06-11.68,43.49-19.01,67.49-21.49,12.85-1.33,25.74-1.31,38.6-.9,19.17.61,38.15,2.94,56.7,8.14,11.99,3.36,23.63,7.69,35.21,12.24.78.31,1.48.68,1.91,1.44Z"/><path class="cls-10" d="m390.73,589.58c1.18-4.11,2.33-8.23,3.54-12.33,1.59-5.44,3.22-10.86,4.83-16.29.18-.1.33-.23.46-.38l-.05.08c2.95-2.68,6.64-4.07,10.22-5.56,18.61-7.73,37.98-12.79,57.77-16.46,9.83-1.82,19.73-3.14,29.64-4.24,13.99-1.55,28-1.63,42.09-.36,16.71,1.51,33.11,4.25,49.19,8.96,10.2,2.99,20.26,6.38,29.91,10.9,1.38.65,2.92,1.1,3.65,2.65.31,3.13.86,6.26.89,9.4.07,7.93-.04,15.87-.19,23.8-.03,1.57-.51,3.12-.79,4.68-1.28.38-2.29-.37-3.33-.87-22.39-10.78-45.99-17.39-70.65-20.22-9.19-1.06-18.41-1.72-27.66-2.25-20.51-1.17-40.57,1.36-60.44,6.07-15.52,3.68-30.44,9.06-44.88,15.82-3.22,1.51-6.39,3.04-9.34,5.02-.77.52-1.59.87-2.53.9l-12.35-9.3Z"/><path class="cls-5" d="m101.78,90.18c7.69,3.44,15.31,7.05,23.08,10.28,9.11,3.78,18.35,7.27,27.56,10.82,13.23,5.1,26.89,8.75,40.71,11.82,3.34.74,6.77,1.09,9.55,1.52,4.42,11.14,8.76,22.06,13.21,33.24-35.83,26.88-77.12,43.78-118.41,60.7-.56-.93-.08-1.77.3-2.57.88-1.89,1.42-3.96,2.44-5.76,6.09-10.72,7.24-22.71,8.92-34.54,1.23-8.61,1.89-17.29,1.73-26.01-.35-19.38-2.14-38.54-8.91-56.92-.31-.83-.77-1.68-.18-2.59Z"/><path class="cls-20" d="m596.75,677.26c-4.83,8.88-9.67,17.77-14.49,26.66-.29.53-.43,1.14-.64,1.71,0,0,.02-.04.02-.04-.2.18-.38.38-.58.55-.84.39-1.67.78-2.51,1.17-1.82.16-3.6-.07-5.39-.41-14.55-2.73-29.17-4.76-43.98-5.45-10.32-.48-20.65-1.29-30.98-.97-20.61.63-41.06,2.73-61.22,7.34-15.05,3.45-29.92,7.53-44.82,11.52-1.22.33-2.47.59-3.56,1.29-5.45-.46-10.89-.92-16.86-1.43,2.03-2.07,3.72-3.91,5.53-5.61,2.64-2.47,5.36-4.84,8.08-7.23.24-.21.7-.17,1.05-.25.3.25.38.58.41.96.26,3.03,2.59,4.25,5.28,2.74,1.3-.73,2.16-1.79,1.47-3.35-.69-1.54-1.99-1.6-3.46-1.19-1.21.34-2.17,1.86-3.69.83.15-.41.21-.92.48-1.23,5.58-6.31,11.19-12.6,16.8-18.89.31-.11.56-.31.73-.59h-.03c4.96-2.9,10.39-4.74,15.71-6.79,19.28-7.43,39.38-11.26,59.84-13.6,13.49-1.55,27.05-1.58,40.52-.9,23.97,1.2,47.68,4.66,70.92,10.87,1.87.5,4.01.55,5.38,2.3Z"/><path class="cls-5" d="m324.44,29.72c6.6,6.21,13.15,12.49,19.83,18.61,3.6,3.3,7.31,6.53,11.19,9.49,12.74,9.75,25.24,19.83,39.09,28.06,1.26.75,2.49,2.27,2.85,3.66,2.19,8.59,4.39,17.2,6.02,25.91.76,4.04.34,8.32.24,12.48-.02.65-1.06,1.66-1.8,1.85-7.81,2.03-15.65,3.96-23.52,5.78-.69.16-1.8-.51-2.42-1.1-5.16-4.97-10.6-9.49-17.92-10.77-6.88-1.21-13.19.04-17.6,5.87-2.7,3.58-4.63,7.73-7.05,11.53-.57.9-1.7,1.95-2.65,2.03-11.39.96-22.8,1.78-34.21,2.58-4.88.34-9.77.55-14.66.81-2.21-.09-4.45.84-6.63-.03-.28-1.56.79-2.32,1.45-3.23,3.51-4.86,7.57-9.27,11.28-13.97,7.52-9.53,13.75-19.83,19.34-30.53,5.77-11.05,10.75-22.48,13.09-34.79,1.73-9.07,2.95-18.26,3.14-27.54.04-2.26.39-4.51.93-6.72Z"/><path class="cls-1" d="m403.08,598.88c7.45-3.84,14.68-8.23,22.4-11.41,13.19-5.43,26.79-9.81,40.82-12.69,18.1-3.71,36.35-5.46,54.84-4.54,24.59,1.22,48.89,4.23,72.24,12.41,9.69,3.4,19.03,7.81,28.53,11.75-.79,5.72-1.57,11.44-2.39,17.16-.22,1.52-.58,3.02-.88,4.53-12.8-4.42-25.45-9.31-38.42-13.13-16.11-4.74-32.7-7.11-49.53-7.48-9.8-.22-19.61-.64-29.4-.48-27.59.47-53.62,7.21-78.05,20.08-2.16,1.14-4.33,2.24-6.5,3.35-3.24-7.43-7.94-13.85-13.65-19.56Z"/><path class="cls-11" d="m248.4,584.06c-6.01-.66-12.02-1.49-18.05-1.94-7.09-.52-14.21-.71-22.19-1.09,8.7,16.32,15.85,32.38,26.48,46.55-.36.3-.72.61-1.08.91-1.54-1.34-3.48-2.43-4.55-4.08-5.61-8.65-11.09-17.4-16.44-26.22-2.96-4.88-5.53-10-8.42-14.92-.42-.72-1.72-1.42-2.54-1.34-5.48.5-11,.92-16.41,1.91-12.18,2.23-24.29,4.77-36.44,7.17-1.38.27-2.79.39-4.38.61.32,1.79.57,3.22.83,4.66-.18.08-.37.17-.55.25-.49-.78-.91-1.61-1.47-2.34-.74-.95-1.58-1.83-2.38-2.74-.23-.27-.66-.55-.65-.81.27-6.09-3.06-11.2-4.64-16.77-4.31-15.26-7.67-30.7-10.23-46.33-.63-3.83-1.14-7.68-1.64-11.53-.21-1.67-1.01-1.76-2.46-1.44-12.88,2.89-25.77,5.72-38.67,8.53-2.64.58-5.31,1.11-7.99,1.43-.8.09-1.69-.62-2.54-.96.65-.63,1.19-1.6,1.97-1.85,9.05-2.92,18.07-5.97,27.23-8.48,6.26-1.72,12.73-2.7,19.12-3.9,1.63-.31,2.36-.92,2.28-2.66-.25-5.7-.59-11.41-.53-17.11.15-15.77,1.92-31.39,4.67-46.9.12-.7.13-1.41.21-2.34-2.56-.25-4.97-.71-7.38-.69-10.07.09-20.16-.03-30.2.62-8.09.52-16.11,2.07-24.18,3.08-1.49.19-1.98.81-2.06,2.25-.7,13.28-1.55,26.56-2.16,39.84-.25,5.5-.03,11.01-.02,16.52,0,.88,0,1.75,0,2.63-.31.05-.62.11-.93.16-.58-2.61-1.54-5.19-1.67-7.82-.38-7.79-.7-15.59-.54-23.38.17-7.86.97-15.7,1.46-23.55.09-1.52.01-3.06.01-4.96-1.14.14-2.1.13-2.99.38-8.54,2.39-17.07,4.83-25.61,7.21-1.23.34-2.53.42-3.95.26,1.21-2.65,3.59-3.8,5.9-4.6,8.21-2.85,16.48-5.54,24.79-8.07,1.99-.61,2.85-1.43,3-3.49,1.42-19.73,5.79-38.79,13.1-57.18.87-2.19,1.73-4.38,2.58-6.57.05-.14-.05-.34-.11-.72-16.57-1.83-33.1.16-49.64,1.72-.08-.39-.15-.78-.23-1.17.78-.44,1.52-1.04,2.36-1.29,9.94-3.02,20.12-4.38,30.5-4.49,6.07-.06,12.15-.23,18.21-.54.85-.04,2.06-1.03,2.41-1.86,6.43-15.35,14.07-30.05,23.13-44.01,1.57-2.42,3.47-4.64,5.34-6.85.4-.48,1.33-.52,2.01-.76.07.76.47,1.7.16,2.24-1.59,2.85-3.53,5.5-5.02,8.4-6.94,13.46-13.77,26.97-20.62,40.47-.39.77-.54,1.66-.89,2.79,21.73,1.6,42.93,4.3,63.54,10.51,3.86-8.01,7.55-15.79,11.38-23.5.65-1.3,1.84-2.33,3.22-3.2-1.7,9.78-6.03,18.52-9.68,27.95,3.65,1.11,7.05,1.95,10.3,3.17,11.45,4.28,22.89,8.62,34.26,13.11,2.82,1.11,5.3,2.96,6.44,5.91-17.61-6.01-35.11-11.99-52.8-18.03-1.02,2.56-1.87,4.36-2.46,6.23-4.61,14.41-9.21,28.82-13.72,43.26-1.01,3.24-.8,2.99,2.51,3.49,8.57,1.31,17.14,2.71,25.63,4.46,7.62,1.57,15.15,3.56,22.68,5.54,2.03.53,2.83.14,3.55-1.86,1.54-4.25,3.43-8.38,5.2-12.54.17-.41.37-.89.7-1.15.91-.7,1.9-1.31,2.86-1.95.02,1.18.31,2.44,0,3.54-1.26,4.54-2.61,9.05-4.11,13.52-.7,2.09,0,2.84,1.95,3.49,6.18,2.09,12.36,4.21,18.39,6.69,2.81,1.15,5.27,3.15,7.89,4.77-.15.25-.31.5-.46.74-9.56-3.19-19.12-6.39-29.1-9.72-.79,4.43-1.67,8.38-2.19,12.39-1.7,13.13-2.51,26.31-2.33,39.56.04,3.01,1.25,3.67,3.71,3.89,5.49.48,10.98.98,16.45,1.62,9.15,1.08,18.26,2.65,27.44,3.21,3.38.21,6.32,1.46,9.54,1.89,3.29.44,6.5,1.56,9.72,2.44.79.21,1.51.64,2.27.97-.07.34-.14.68-.21,1.02-5.22-.4-10.44-.79-16.26-1.23.76,4.34,1.35,8.41,2.21,12.42,1.98,9.27,4.09,18.51,6.12,27.77.09.4-.12.87-.19,1.31-2.2-.38-2.15-2.46-2.96-3.9-1.11-7.45-3.59-14.6-4.94-22-.63-3.47-1.68-6.87-1.98-10.41-.18-2.11-1.14-4-2.03-5.89-.81-1.72-2.53-2.08-4.11-2.22-2.89-.25-5.75-.73-8.66-.76-9.51-.08-18.99-.45-28.35-2.34-1.97-.4-4.12-1.05-5.97.55-.29.33-.61.63-.93.92-1.39,1.17-1.19,2.76-1.06,4.28,1.12,13.13,5.06,25.52,9.98,37.65,2.11,5.2,3.25,10.74,5.62,15.85.68,1.47,1.19,3.04,2.32,4.26.23.16.43.35.63.54.41.39.88.67,1.44.82,8.12.69,16.28.79,24.38,1.82,5.22.66,10.39,1.54,15.59,2.29.63.09,1.26.22,1.68.77-.14,1.09-.28,2.17-.42,3.26Z"/><path class="cls-19" d="m589.25,707.79c1.18-.62,2.43-1.13,3.51-1.88,5.35-3.72,10.97-7.15,15.9-11.37,5.56-4.76,11.09-9.8,15.56-15.54,8.96-11.51,17.42-23.44,22.09-37.55,3.35-10.12,6.84-20.19,10.26-30.28,4.36,4.39,7.83,9.34,9.55,15.37-.83,1.33-2.34,1.22-3.57,1.67-1.61.59-2.96,1.39-3.24,3.25-.29,1.9.81,3.01,2.24,3.97,1.57,1.06,3.22,1.98,4.91,2.85.86.44,1.9.72,2.17,1.86-.08,1.3-.17,2.6-.25,3.9-1.44,1.09-3.12.57-4.7.68-1.16.08-2.35-.1-3.48.27-2.47.8-3.19,3.24-1.54,5.38,1.37,1.78,3.22,3.14,4.58,4.94.59.79,1.28,1.52,1.43,2.56-.63,1.23-1.26,2.45-1.9,3.68-1.97.97-3.91.03-5.83-.19-4.41-.51-6.32,1.84-4.77,6,.94,2.52,2.57,4.81,2.51,7.65-.91,1.1-1.82,2.21-2.74,3.31-1.49.04-2.43-1.08-3.59-1.74-1.56-.89-3.12-1.56-4.8-.36-1.78,1.28-1.99,3.07-1.59,5.08.38,1.92,1.7,3.63,1.32,5.73l-2.81,2.24c-2.39-.16-4.44-1.44-6.73-1.99-3.64-.87-5.69.6-6.14,4.32-.26,2.14,1.14,4.27-.09,6.36l-2.76,1.86c-1.08.14-1.89-.43-2.7-1.03-.72-.53-1.44-1.09-2.22-1.52-1.59-.88-3.29-1.11-4.9-.21-1.71.95-1.59,2.72-1.42,4.33.2,1.87.65,3.72.17,5.61-1.89,1.06-3.97,1.98-4.34,4.45-.2,1.36-.3,2.82.01,4.12.07.3,2,.15,3.08.23,5.87.43,11.79.57,17.61,1.37,11.15,1.53,21.73,4.97,31.52,10.61,3.91,2.25,7.35,4.99,9.29,9.6-.36.27-1,.5-1.15.91-2.74,7.48-9.63,7.88-15.75,8.49-9.55.96-19.21,1.36-28.82,1.22-10.94-.17-21.87-1.28-32.81-1.83-7.87-.4-15.47-1.92-22.84-4.65-2.28-.85-4.55-1.84-6.66-3.04-3.74-2.11-4.29-4.29-2.33-8.15.45-.89.93-1.79,1.58-2.54,3.65-4.22,7.25-8.5,11.11-12.53,1.19-1.24,3.11-1.84,4.76-2.58,3.35-1.52,6.75-2.94,10.13-4.4.37-.25.89-.15,1.21-.52h-.05Z"/><path class="cls-5" d="m117.98,218.71c10.17-4.33,20.44-8.44,30.48-13.05,20.44-9.39,40.66-19.27,59.84-31.08,4.28-2.64,8.12-6.02,12.2-9.08,3.15,3.96,6.33,8.15,9.72,12.15,2.92,3.45,6.16,6.64,9.09,10.09.75.89,1.13,2.3,1.21,3.5.06,1.01-.46,2.11-.9,3.1-4.36,9.85-8.82,19.66-13.14,29.53-7.34,16.77-14.74,33.51-21.82,50.38-3.01,7.17-5.28,14.65-7.91,21.98-.27.75-.74,1.42-1.12,2.13-1.28-.49-1.25-1.71-1.44-2.73-2.44-13-6.52-25.51-11.17-37.84-2.74-7.27-6.81-13.62-13.17-18.33-1.38-1.02-2.86-1.99-3.96-3.32-6.13-7.36-14.43-10.8-23.42-12.94-7.34-1.74-14.77-2.93-22.28-3.68-.8-.08-1.66,0-2.2-.8Z"/><path class="cls-5" d="m203.49,305.66c11.88-38.34,27.76-75.12,43.82-112.1.7.4,1.41.73,2.06,1.17,7.54,5.13,15.67,9.05,24.2,12.26,7.1,2.67,6.5,1.67,5.67,9.37-2.51,23.33-2.2,46.39,5.84,68.77,1.77,4.92,4.29,9.58,6.56,14.32,2.31,4.82,4.74,9.59,7.08,14.4.12.24-.03.62-.06.93-1.01.36-1.75-.22-2.49-.73-4.41-3.04-8.59-6.36-12.67-9.83-7.47-6.35-16.06-10.68-25.78-11.94-4.96-.64-10.12.13-15.17.41-8.16.45-16.19,1.89-23.8,5.16-3.77,1.62-7.27,3.67-10.75,5.82-1.39.86-2.61,2.29-4.53,1.99Z"/><path class="cls-1" d="m596.75,677.26c-15.01-4.19-30.25-7.21-45.7-9.41-19.64-2.8-39.36-3.81-59.12-2.96-14.56.62-28.97,2.84-43.25,6.01-14.4,3.19-28.22,8.03-41.73,13.84-.8.35-1.71.45-2.57.67,1.39-1.97,2.84-3.9,4.16-5.92,3.37-5.13,6.68-10.29,10.02-15.44,21.61-10.88,44.27-18.54,68.21-22.23,15.66-2.42,31.36-2.78,47.18-1.72,22.15,1.48,43.6,6.26,64.7,12.88,2.67.84,5.33,1.72,7.99,2.59-3.3,7.24-6.6,14.47-9.89,21.71Z"/><path class="cls-1" d="m388.6,720.62c.68-.59,1.28-1.53,2.06-1.73,18.8-4.71,37.52-9.81,56.48-13.81,11.29-2.38,22.93-3.27,34.45-4.36,8.2-.77,16.48-1.08,24.72-1.01,23.97.2,47.76,2.36,71.29,7.1.34.07.64.32.96.49-9.49,4.46-19.24,8.17-29.69,9.7-12.43,1.82-24.87,3.59-37.31,5.34-1.24.17-2.53.04-3.8.05-3.42-.57-6.75.35-10.13.56-19.14,1.25-38.27,2.6-57.41,3.71-6.76.39-13.59-.15-20.33.42-6.1.52-11.43-1.54-17-3.26-4.65-1.44-9.52-2.16-14.29-3.2Z"/><path class="cls-5" d="m245.85,555.11c.77,1.15,1.55,2.3,2.32,3.46,0,0,.1-.05.1-.05.77.62.88,1.6,1.3,2.41.41,1.08.83,2.15,1.24,3.23-.66,5.55-1.33,11.1-1.99,16.65-4.66-.59-9.31-1.32-13.98-1.73-8.56-.75-17.15-1.3-25.72-1.98-1.05-.08-2.08-.43-3.12-.66-.34-.25-.17-.85-.69-.97l-.02-.03c-2.9-5.27-4.5-11.05-6.61-16.63-4.97-13.1-8.26-26.64-10.57-40.42-.35-2.1-.98-4.25-.27-6.42.18-.18.36-.36.54-.54,3.14-1.07,6.32-.24,9.38.17,6.63.89,13.3,1.17,19.94,1.87,5.5.58,10.98,1.28,16.48,1.77,2.36.21,2.85,1.88,3.11,3.78,1.05,7.73,2.75,15.34,4.65,22.9,1.12,4.46,2.7,8.79,3.9,13.23Z"/><path class="cls-16" d="m323.78,446.01c-10.71,2.23-21.42,4.46-32.43,6.75,1.2,1.5,2.56,3.21,3.93,4.9,7.18,8.87,13.13,18.47,17.17,29.18.26.68.53,1.35.76,2.04,1.77,5.28.29,8.54-4.9,10.6-10.2,4.04-20.42,8.03-30.62,12.05-.91.36-1.78.78-3,1.33,14.25,10.6,22.92,25.22,31.56,39.85,2,3.39,1.08,5.86-2.53,6.96-9.09,2.77-17.99,6.23-27.55,7.23-5.31.55-10.6,1.23-15.89,1.94-1,.14-1.94.73-2.91,1.11.55.87.92,1.97,1.68,2.57,13.25,10.31,22.79,24.04,33.75,36.46,2.34,2.65,2.05,4.76-.33,7.13-6.93,6.9-13.87,13.8-20.72,20.79-2.81,2.87-5.69,5.38-10.06,5.05-1.14-2.85-2.27-5.71-3.41-8.56,2.43.33,4.15-.85,5.56-2.65,5.16-6.61,11.68-11.91,17.43-17.95,2.21-2.33,2.27-3.23-.24-5.26-6.71-5.43-12.71-11.65-19.24-17.27-3.24-2.78-5.43-6.56-8.38-9.63,1.05-6.28,2.11-12.57,3.16-18.85,4.19-1.95,8.55-3.34,13.01-4.57,6.99-1.93,13.99-3.78,21-5.65.7-.19,1.39-.43,2.02-.8,1.87-1.09,2.12-2.3.74-3.98-1.04-1.26-2.26-2.36-3.42-3.5-7-6.86-13.76-13.93-19.86-21.62-.51-.64-1.09-1.22-1.34-2.03.4-.73.81-1.46,1.21-2.18.33-.59,1.05-1.31.92-1.75-1-3.2.78-5.82,1.59-8.64,9.33-3.98,17.63-10.09,27.42-13.1,1.23-.38,2.26-1.15,3.31-1.86,3.4-2.29,3.62-3.3.97-6.44-5.97-7.08-11.22-14.7-16.7-22.14-.49-.66-.88-1.37-1.2-2.12,1.35-5.07,2.69-10.15,4.04-15.22,2.12.1,4.1-.5,6.11-1.11,6.35-1.91,12.89-2.96,19.41-4.08.54-.09,1.08-.17,1.61-.28,2.89-.64,3.49-1.67,1.97-4.16-5.72-9.37-10.95-19.03-16.57-28.46-.66-1.11-1.76-1.83-2.45-2.9,1.07-4.18,2.13-8.35,3.2-12.53,2.9,5.09,6.18,10,8.63,15.3,4.39,9.51,8.31,19.24,12.36,28.91.59,1.4.84,2.93,1.25,4.4.5,2.07-.33,3.57-1.99,4.72Z"/><path class="cls-21" d="m687.15,427.94c-4.9,4.28-9.79,8.56-15.03,13.13-.28-.95-.45-1.24-.45-1.54-.37-18.51-.69-37.02-1.14-55.53-.05-2.22.68-2.91,2.72-3.71,4.52-1.79,8.8-4.18,13.18-6.33.56-.27,1.14-.52,1.71-.78.12.44.14.89.1,1.35-.13,1.42-.04,2.79,1.47,3.48,1.54.7,2.82-.05,4.01-.94.76-.56,1.36-1.26,1.09-2.3-.25-.97-1.02-1.45-1.9-1.79-1.3-.49-2.72-.04-4.02-.54,1.34-1.35,2.65-2.73,4.03-4.03,9.35-8.83,14.96-19.89,18.96-31.89,1.66-4.98,3.21-9.99,4.82-14.98,2.85-10.07,8.85-21.07,16.85-21.07,10,0,19,3,5,53,.6,1.17-2.71,5.23-3.21,6.43-1.67,4-3.72,7.84-5.62,11.74-2.08.8-4.1-.09-6.15-.23-8.1-.54-15.47.91-22.09,6.23-8.52,6.85-14.1,15.24-15.73,26.08-.99,6.62-.15,13.18,1.22,19.69.31,1.5.69,2.99.19,4.52Z"/><path class="cls-18" d="m117.98,218.71c12.12.88,24.03,2.87,35.4,7.32,2.41.94,4.78,2.27,6.78,3.9,4.56,3.72,8.91,7.69,13.28,11.63,6.12,5.52,9.15,12.88,11.88,20.39,4.2,11.55,7.76,23.28,9.87,35.42.06.34.28.66.43.99-2.4,7.2-4.81,14.39-7.34,21.99-.27-4.63-.32-8.9-.8-13.13-1.78-15.59-4.81-31.04-12.75-44.69-9.62-16.53-23.57-28.44-42.41-33.63-9.2-2.53-18.7-2.17-28.15-1.73-3.08.14-6.17.02-9.4.02,7.76-2.84,15.48-5.66,23.21-8.49Z"/><path class="cls-18" d="m323.44,29.72c-.69,8.75-1.21,17.51-2.12,26.24-1.78,17.14-8.8,32.46-16.8,47.44-6.85,12.83-15.06,24.69-24.67,35.6-1.96,2.22-3.72,4.63-6.02,7.52h7c-7.16.69-14.33,1.38-21.49,2.07,18.27-16.83,31.04-36.9,41.54-58.89,10.71-22.42,13.44-45.86,12.29-69.36,3.11,2.84,6.69,6.11,10.27,9.38Z"/><path class="cls-18" d="m203.49,305.66c7.27-4.6,14.57-9.2,23.09-11.14,4.57-1.04,9.23-1.86,13.89-2.25,6.03-.51,12.22-1.29,18.14-.52,9.96,1.31,18.56,6.15,26.29,12.6,4.42,3.68,9.17,6.97,13.77,10.43,0,0-.04-.04-.04-.04.28.23.5.5.61.84,2.19,2.86,4.37,5.71,6.56,8.57,2.32,2.94,4.18,6.14,5.27,9.75-.84,4.07-1.67,8.15-2.58,12.56-4.09-6.88-7.91-13.43-11.83-19.91-8.48-14.02-21.03-21.43-37.22-23.38-16.22-1.95-31.39.96-45.86,8.34-4.97,2.54-10.11,4.75-15.7,7.36,1.96-4.63,3.79-8.92,5.61-13.22Z"/><path class="cls-18" d="m101.78,90.18c2.64,10.04,5.85,19.97,7.72,30.14,1.46,7.97,1.25,16.25,1.79,24.39,1.19,17.9-1.3,35.49-5.26,52.84-1.4,6.15-4.73,11.87-7.19,17.78-.45,1.08-.92,2.15-1.37,3.23-4.84,1.95-9.69,3.9-14.53,5.85l-.2-.15c3.37-7.2,7.18-14.23,10.03-21.63,5.67-14.71,9.13-30,10.24-45.76.51-7.23,1.33-14.49,1.04-21.7-.67-16.27-4.64-31.89-10.78-46.97-.31-.75-.53-1.53-.79-2.3.04-.22.16-.36.37-.42,2.98,1.57,5.96,3.14,8.93,4.72Z"/><path class="cls-16" d="m326.67,282.44c5.94,9.32,15.34,15.37,22.36,23.64,3.96,4.67,7.47,9.77,10.72,14.96,2.42,3.87,1.12,5.89-3.45,6.78-9.24,1.79-18.47,3.62-27.68,5.49-1.75.36-3.44,1.03-5.62,1.7,1.62,3.24,3.11,6.19,4.58,9.15,4.93,9.91,9.86,19.82,14.77,29.74.32.65.55,1.34.79,2.03,1.17,3.31.45,4.91-2.98,5.91-8.27,2.39-16.59,4.61-24.85,7-3.97,1.15-7.88,2.54-11.81,3.83.41-2.26.82-4.53,1.22-6.79,7.11-3.17,13.81-7.19,21.09-10,2.11-.82,4.21-1.62,6.5-1.9,2.75-.33,3.5-1.8,1.83-4.12-4.33-6.05-7.87-12.61-12.22-18.63-2.6-3.59-5.09-7.27-7.38-11.07.88-4.22,1.76-8.44,2.64-12.67,5.35-1.47,10.89-1.72,16.33-2.57,6.18-.97,12.17-2.83,18.27-4.2,2.46-.55,2.78-2,1.02-3.94-1.83-2.01-3.7-4.01-5.77-5.76-6.79-5.74-12.46-12.65-19.31-18.33-1.27-1.06-2.14-2.45-2.8-3.96l1.75-6.29Z"/><path class="cls-18" d="m341.81,210.06c-.93,3.12-1.92,6.22-2.79,9.36-1.23,4.43-2.39,8.89-3.44,12.84-.27-5.09.08-10.82-1-16.26-3.89-19.65-12.9-36.37-29.89-47.86-8.14-5.5-17.52-8.24-26.89-10.86-2.51-.7-4.99-1.52-7.49-2.28.01-.25.03-.51.04-.76,3.99,0,7.97.05,11.96-.01,5.44-.09,10.87-.27,16.31-.41,3.07.18,5.32,2.22,7.78,3.65,6.68,3.89,12.59,8.81,18.26,14.06,3.3,3.05,5.22,6.9,7.31,10.7,4.08,7.4,7.88,14.9,9.48,23.3.29,1.51.6,2.99.35,4.53Z"/><path class="cls-1" d="m687.15,427.94c-.85-6.88-2.51-13.77-2.35-20.62.27-11.54,5.55-20.89,14.29-28.69,9.12-8.14,19.36-9.28,30.62-6.98-1.28,2.48-2.56,4.96-3.84,7.44-2.26.08-4.5-.76-6.77-.26-9.56,2.1-17.53,6.3-21.57,15.94-2.56,6.1-2.13,12.22-.56,18.41.33,1.31.89,2.6.37,3.98-3.4,3.59-6.8,7.19-10.2,10.78Z"/><path class="cls-21" d="m324.91,288.74c9.64,9.31,19.29,18.61,28.9,27.94,2.09,2.03,1.53,4.13-1.28,4.68-11.07,2.17-22.15,4.26-33.24,6.33-.67.13-1.41-.12-2.12-.2.32-1.92.63-3.85.95-5.77,5.39-1.15,10.63-2.92,16.06-3.88,1.88-.33,3.74-.74,5.54-1.33,2.45-.81,2.84-2.3,1.15-4.27-.95-1.11-2.2-1.88-3.37-2.72-3.97-2.85-8.03-5.58-11.97-8.48-1.26-.93-2.42-1.91-2.87-3.49.75-2.94,1.49-5.87,2.24-8.81Z"/><path class="cls-21" d="m268.71,519.64c.87.77,1.81,1.48,2.6,2.32,7.11,7.61,14.12,15.32,21.32,22.85,3.75,3.92,3.42,5.99-1.85,7.47-7.39,2.07-14.86,3.9-22.27,5.93-4.01,1.09-7.96,2.38-11.94,3.57.7-2.97,1.41-5.93,2.12-8.9,1.56.36,2.97.06,4.46-.57,5.29-2.22,10.77-3.77,16.51-4.34,1.13-.11,2.61.22,3.1-1.15.52-1.47-.89-2.24-1.72-3.13-3.1-3.3-6.56-6.25-9.27-9.93-1.88-2.57-3.74-5.12-4.85-8.13.6-2,1.2-4,1.8-6Z"/><path class="cls-16" d="m341.81,210.06c-1.89-9.84-5.74-18.85-10.34-27.76-4.21-8.17-10.66-13.85-17.7-19.06-4.77-3.53-10.08-6.32-15.15-9.44,6.78-.5,13.55-.98,20.33-1.52,3.41-.27,6.82-.65,10.63-1.02-1.63,7.69-.85,15.01.64,22.34,1.92,9.42,6.71,17.18,13.39,23.86,1.06,1.06,1.36,1.87.92,3.25-.98,3.09-1.82,6.22-2.72,9.34Z"/><path class="cls-30" d="m697.35,417.16c-.73-2.89-1.71-5.75-2.15-8.69-2.64-17.73,10.99-29.56,26.28-30.44,1.44-.08,2.93.68,4.4,1.05-2.41,4.06-4.83,8.12-7.24,12.18-.7.32-1.42.16-2.14.11-6.04-.46-10.58,3.65-10.92,9.74-.12,2.08.5,4.14.08,6.22-2.77,3.28-5.54,6.55-8.31,9.83Z"/><path class="cls-21" d="m253.4,580.63c.92.67,1.94,1.25,2.75,2.04,7.06,6.9,14.07,13.86,21.14,20.75,1.62,1.58,3.47,2.93,5.17,4.43,1.64,1.45,1.86,3.02.23,4.68-6.47,6.61-12.96,13.19-19.35,19.86-1.56,1.62-3.08,2.11-5.05,1.01-.31-.83-.61-1.66-.91-2.49,5.08-5.41,9.68-11.25,14.97-16.49,3.25-3.22,2.88-4.81-.98-7.24-6.17-3.88-11.86-8.35-17.07-13.43-.65-.63-1.32-1.25-1.76-2.06.29-3.68.58-7.37.87-11.05Z"/><path class="cls-21" d="m286.22,461.41c3.59,4.63,7.17,9.27,10.76,13.9,2.55,3.29,5.07,6.6,7.66,9.85,3.23,4.07,3.12,4.93-1.32,7.74-1.07.67-2.21,1.22-3.35,1.77-6.98,3.37-13.95,6.77-20.97,10.04-2.1.98-4.37,1.58-6.57,2.35.93-3.22,1.86-6.43,2.79-9.65,3.51-.7,6.67-2.33,9.86-3.83,2.71-1.28,5.43-2.51,8.35-3.25,4.29-1.09,4.71-2.47,1.81-5.94-3.65-4.39-7.69-8.46-10.75-13.33-.29-.46-.7-.84-.74-1.42.82-2.74,1.64-5.48,2.47-8.22Z"/><path class="cls-21" d="m300.34,405.2c1.04.79,2.44,1.36,3.06,2.4,5.74,9.66,11.35,19.4,16.99,29.12,1.46,2.51.68,4.01-2.19,4.63-8.13,1.75-16.23,3.61-24.36,5.3-1.11.23-2.38-.29-3.57-.46.48-2,.96-4,1.44-6,6.22-.83,12.08-3.25,18.27-4.24,2.54-.41,2.93-1.75,1.24-3.86-4.86-6.02-8.42-12.89-12.78-19.23.64-2.55,1.27-5.1,1.91-7.65Z"/><path class="cls-18" d="m252.53,591.69c1.92,1.62,3.78,3.32,5.77,4.85,4.8,3.68,9.62,7.32,14.5,10.89,2.92,2.14,3.25,3.3,1.07,6.18-1.2,1.58-2.67,2.96-3.99,4.45-3.22,3.66-6.38,7.38-9.66,10.98-.74.81-1.88,1.26-2.84,1.87-.88-3.29-1.77-6.57-2.65-9.86,2.1-2.08,4.67-3.35,7.41-4.36,3.44-1.27,3.76-2.54.91-4.82-3.23-2.58-6.3-5.45-10.21-7.05-.1-4.37-.19-8.75-.29-13.12Z"/><path class="cls-21" d="m314.54,340.16c.59.5,1.34.89,1.76,1.51,6.18,9.24,12.33,18.5,18.47,27.77,2.07,3.11,1.12,4.45-2.43,5.42-4.75,1.29-9.36,3.17-13.9,5.11-3.73,1.59-7.24,3.69-10.9,5.45-.83.4-1.88.33-2.83.47.57-2.91,1.13-5.82,1.7-8.73,4.4-1.03,8.75-2.2,12.94-3.94,2.09-.87,4.36-1.14,6.62-1.4,2.8-.32,3.47-1.69,1.83-4.04-2.38-3.41-4.94-6.7-7.82-9.71-2.38-2.49-4.28-5.37-6.65-7.88-.49-.52-.85-1.18-.63-1.97.61-2.68,1.22-5.37,1.84-8.05Z"/><path class="cls-13" d="m429.26,98.33c1.69,3.46,3.38,6.91,5.07,10.37-.26,1.74-1.46,2.88-2.66,3.96-6.06,5.39-12.7,9.81-20.6,12.06-1.18.33-2.35,1.02-3.64.37-.06-3.59-.12-7.17-.18-10.76,2.64.23,4.63-1.18,6.52-2.7,5.05-4.08,10.56-7.65,14.58-12.89.22-.28.5-.52.91-.4Z"/><path class="cls-19" d="m322.67,297.55c5.89,4.44,11.78,8.87,17.67,13.32.5.38,1,.78,1.4,1.26,1.99,2.35,1.52,4.21-1.49,4.99-5.74,1.5-11.52,2.85-17.32,4.16-1.56.35-3.2.31-4.8.45.38-2.28.76-4.56,1.14-6.85.98-1.13,2.32-.74,3.54-.81.81-.04,1.62.07,2.42.2,1.26.21,2.65.5,3.33-.95.68-1.47-.58-2.31-1.45-3.17-1.27-1.28-2.78-2.28-4.25-3.31-.73-.52-1.55-.92-2.13-1.63.65-2.55,1.3-5.11,1.95-7.66Z"/><path class="cls-18" d="m312.7,348.21c4.5,5.4,9.01,10.78,13.47,16.2,1.03,1.25,2.01,2.56,2.82,3.95,1.1,1.91.29,3.56-1.79,4.1-5.89,1.53-11.75,3.12-17.65,4.6-.99.25-2.09.07-3.14.09.51-2.5,1.02-5,1.54-7.5,2.53-1.01,5.14-.47,7.72-.35,1.21.05,2.47.22,3.03-1.11.51-1.21-.45-2.05-1.21-2.78-2.47-2.33-4.29-5.3-7.19-7.19.8-3.33,1.6-6.67,2.4-10Z"/><path class="cls-13" d="m574.54,119.42c1.31-2.1,2.63-4.2,3.94-6.31,1.12-1,2.51-.9,3.85-.88,5.59.1,11.18-.09,16.75-.58,1.63-.14,3.2-.55,4.77-.96,1.04-.27,2.09-.66,3.13.03-.47,3.1-.93,6.21-1.4,9.31-2.15,1.85-4.9,1.71-7.44,2.12-6.84,1.1-13.68,1.27-20.38-.97-1.17-.39-2.52-.52-3.23-1.77Z"/><path class="cls-12" d="m574.54,119.42c10.27,3.94,20.64,2.97,31.04.62-.58,2.93-1.17,5.87-1.75,8.8-.62.76-1.52.97-2.4,1.09-5.42.74-10.85,1.53-16.28,0-5-1.36-10-2.72-15.45-4.2,1.83-2.38,3.33-4.35,4.84-6.31Z"/><path class="cls-13" d="m582.19,105.68c1.25-3.32,2.5-6.63,3.75-9.95,2.48-.44,5-.57,7.47-1.1,3.2-.68,6.21-1.8,9.01-3.52,1.27-.78,2.52-1.8,4.2-1.57.02,4.53.03,9.06.05,13.6-2.74,1.73-5.93,2.19-8.99,2.71-4.26.73-8.6,1.16-12.95.91-.94-.05-2.06.13-2.54-1.08Z"/><path class="cls-18" d="m266.91,525.64c.38.22.98.35,1.1.66,2.84,7.4,9.03,12.07,14.15,17.62.81.88,1.12,2.23,1.66,3.36-1.11.44-2.19,1.18-3.33,1.28-6.27.55-12.22,2.24-17.95,4.75-1.42.62-2.72,1.11-3.86-.42.67-2.4,1.35-4.81,2.02-7.21,2.88-.11,5.74-.6,8.64-.52,1.14.03,2.53.24,3.1-1.1.62-1.46-.57-2.33-1.42-3.24-1.67-1.78-3.53-3.38-4.96-5.38-.63-.89-1.32-1.74-1.25-2.92.7-2.29,1.39-4.58,2.09-6.86Z"/><path class="cls-18" d="m283.76,469.63c1.02,1.23,2.06,2.45,3.07,3.68,3.33,4.04,6.71,8.05,9.97,12.15,1.95,2.46,1.26,4.1-1.72,5.23-5.64,2.14-11.2,4.46-16.84,6.59-.9.34-2.01.1-3.03.13,1.01-3.46,2.02-6.92,3.03-10.39,2.26-.23,4.44.56,6.68.56,1.37,0,2.83.07,3.47-1.44.58-1.37-.35-2.36-1.19-3.34-1.85-2.17-4.46-3.66-5.64-6.42.73-2.25,1.45-4.51,2.18-6.76Z"/><path class="cls-13" d="m406.3,107.55c-.8-3.51-1.6-7.03-2.4-10.54-.06-.19-.07-.43.07-.49,5.7-2.58,9.56-7.25,13.5-11.84.52-.61,1.08-1.23,1.9-1.48,1.99,3.15,3.99,6.31,5.98,9.46-4.99,5.45-10.13,10.73-16.76,14.26-.72.38-1.41.82-2.28.63Z"/><path class="cls-12" d="m407.43,125.08c8.31-1.88,15.55-5.84,21.94-11.39,1.77-1.53,3.32-3.32,4.97-4.99,1,2.56,2.01,5.13,3.01,7.69-1.02,3.24-3.12,5.54-6.15,7.01-7.91,2.28-15.83,4.56-24.04,6.93.09-1.74.18-3.49.28-5.24Z"/><path class="cls-18" d="m298.43,412.85c1.25,1.39,2.66,2.67,3.71,4.19,3.31,4.81,6.39,9.79,9.75,14.57,1.99,2.84,1.57,4.34-1.86,5.14-5.16,1.21-10.31,2.47-15.49,3.61-.89.2-1.89-.1-2.84-.17.7-2.89,1.4-5.79,2.1-8.68,2.66.11,5.11,1.13,7.66,1.72.77.18,1.59.76,2.3.07.76-.74.19-1.58-.18-2.24-2.23-3.91-3.88-8.17-6.82-11.67.56-2.18,1.12-4.36,1.67-6.53Z"/><path class="cls-21" d="m406.3,107.55c6.37-3.36,11.79-7.93,16.69-13.17.65-.7,1.57-1.15,2.36-1.72,1.3,1.89,2.61,3.78,3.91,5.67-1.92,2.14-3.64,4.52-5.81,6.38-3.77,3.23-7.82,6.13-11.74,9.18-1.41,1.1-2.86,1.54-4.47.44-.31-2.26-.63-4.52-.94-6.77Z"/><path class="cls-21" d="m582.19,105.68c6.85.51,13.62.14,20.26-1.83,1.36-.4,2.81-.48,4.21-.71.11,2.54.21,5.07.32,7.61-9.32,2.95-18.94,2.34-28.5,2.38,1.24-2.48,2.47-4.96,3.71-7.44Z"/><path class="cls-12" d="m606.62,89.54c-5.16,3.21-10.55,5.82-16.71,6.39-1.31.12-2.65-.12-3.97-.19.96-3.17,1.92-6.33,2.88-9.5.3-.2-.13-.05.21-.17,4.88-1.87,10.03-3.02,14.72-5.42.76-.39,1.62-.09,2.1.76.26,2.71.51,5.42.77,8.13Z"/><path class="cls-13" d="m406.92,68.23c2.51,2.88,5.02,5.76,7.53,8.64-.77,3.67-3.56,6-5.87,8.6-1.13,1.27-2.66,2.19-4.13,3.09-.83.51-1.66,1.2-2.75.59-1.14-3.28-2.28-6.57-3.41-9.85-.08-.5.16-.88.51-1.19,3.02-2.56,5.49-5.54,7.11-9.18.17-.39.44-.81,1.01-.7Z"/><path class="cls-13" d="m605.85,81.41c-1.13.09-2.33-.03-3.38.31-4.57,1.44-9.1,3-13.65,4.52.89-3.89,1.79-7.77,2.68-11.66.21-.73.86-.88,1.47-1.03,3.26-.81,6.32-2.14,9.26-3.75.54-.3,1.1-.66,1.78-.37.62,3.99,1.23,7.99,1.85,11.98Z"/><path class="cls-12" d="m401.7,89.16c5.94-2.34,9.46-7.19,12.75-12.28,1.64,2.11,3.28,4.22,4.93,6.32-3.64,3.84-7.19,7.77-10.97,11.46-1.16,1.13-2.98,1.59-4.5,2.35-.74-2.62-1.47-5.23-2.21-7.85Z"/><path class="cls-13" d="m395.25,72.8c-3.29-5.33-6.59-10.66-9.88-16,.26-.29.52-.58.78-.88,5.73,1.12,10.63,4.14,15.41,7.42.06,3.86-2.82,8.19-6.31,9.46Z"/><path class="cls-12" d="m252.82,604.81c.77.06,1.74-.17,2.27.21,3.27,2.43,6.52,4.9,9.61,7.55,1.73,1.48,1.35,3.03-.7,4.03-3.08,1.5-6.19,2.97-9.28,4.44-.63-5.41-1.27-10.83-1.9-16.24Z"/><path class="cls-15" d="m705.66,407.33c-1.71-4.39-1.19-8.58,1.31-12.49,2.64-4.13,6.23-5.18,11.67-3.57-4.33,5.35-8.65,10.71-12.98,16.06Z"/><path class="cls-10" d="m664.67,657.87c-2.1-2.22-4.38-4.31-6.23-6.73-.86-1.13-1.62-3.26-1.11-4.28.65-1.32,2.52-2.51,4.05-2.81,2.25-.44,4.66-.05,7.01,0-.02,4.94-1.38,9.52-3.72,13.83Z"/><path class="cls-12" d="m264.82,532.5c2.47,2.86,5.01,5.66,7.37,8.6.71.89,1.57,2.62,1.19,3.2-.57.88-2.16,1.48-3.34,1.53-3.11.14-6.23-.08-9.34-.16,1.37-4.39,2.75-8.78,4.12-13.17Z"/><path class="cls-10" d="m654.69,675c-1.23-2.87-2.6-5.68-3.66-8.61-1.3-3.59,1.27-6.5,5.11-5.96,2.22.31,4.42.73,6.64,1.11-2.7,4.49-5.39,8.97-8.09,13.46Z"/><path class="cls-12" d="m296.76,419.39c.82.6,1.94,1.04,2.39,1.84,1.84,3.31,3.53,6.7,5.13,10.13.35.74.11,1.76.14,2.65-.89,0-1.84.17-2.67-.06-2.67-.73-5.3-1.62-7.95-2.44.99-4.04,1.97-8.08,2.96-12.12Z"/><path class="cls-13" d="m592.25,66.6c.1-5.28.2-10.56.29-15.83.34-.11.68-.21,1.02-.32,3.51,3.14,5.8,7.14,7.41,11.61-1.51,2.75-6.3,5.24-8.72,4.54Z"/><path class="cls-21" d="m592.25,66.6c2.91-1.51,5.82-3.02,8.72-4.54,1.01,2.45,2.02,4.91,3.03,7.36-4.17,1.72-8.33,3.43-12.5,5.15.25-2.66.5-5.32.75-7.97Z"/><path class="cls-10" d="m627.52,697.97c-.18-2.08-.47-4.15-.52-6.23-.11-4.13,2.54-6.31,6.47-5.19,2.4.69,4.68,1.8,7.02,2.72-4.32,2.9-8.64,5.8-12.96,8.7Z"/><path class="cls-21" d="m395.25,72.8c3.11-2.48,5.17-5.66,6.31-9.46,1.79,1.63,3.58,3.26,5.36,4.89-1.79,4.54-4.59,8.29-8.64,11.07-1.01-2.17-2.02-4.34-3.03-6.5Z"/><path class="cls-10" d="m668.63,640.13c-2.66-1.52-5.48-2.84-7.92-4.66-1.11-.82-2.21-2.76-2.01-3.96.24-1.39,1.72-2.83,3.03-3.7,1.21-.81,2.91-.89,4.39-1.29.83,4.54,1.67,9.07,2.5,13.61Z"/><path class="cls-12" d="m310.3,358.21c.53.08,1.26-.03,1.55.28,2.58,2.74,5.23,5.43,7.52,8.4,1.15,1.49-.28,3.22-2.53,3.17-2.97-.06-5.93-.26-8.9-.41.78-3.81,1.56-7.63,2.35-11.44Z"/><path class="cls-12" d="m281.58,476.39c2.35,2.22,4.83,4.33,6.98,6.73.68.76.86,2.4.58,3.44-.2.73-1.62,1.63-2.45,1.58-2.83-.17-5.63-.72-8.44-1.12,1.11-3.54,2.22-7.09,3.33-10.63Z"/><path class="cls-10" d="m613.7,707.01c-.35-1.94-1.06-3.9-.96-5.82.09-1.63.68-3.82,1.84-4.62,1.16-.8,3.46-.63,4.96-.08,1.89.69,3.49,2.19,5.22,3.34-3.69,2.39-7.38,4.79-11.06,7.18Z"/><path class="cls-10" d="m643.29,687.03c-.67-1.95-1.41-3.89-1.99-5.87-.6-2.06-.26-3.99,1.52-5.38,1.72-1.34,3.58-1.07,5.33-.05,1.32.77,2.53,1.72,3.8,2.58-2.89,2.9-5.77,5.81-8.66,8.71Z"/><path class="cls-13" d="m585.15,129.94c6.23-.36,12.45-.73,18.68-1.09-.31,2.68-.63,5.37-.95,8.13-6.04-2.4-11.88-4.72-17.73-7.04Z"/><path class="cls-12" d="m320.72,305.21c2.82,2.04,5.7,4.01,8.41,6.19.46.37.58,1.96.19,2.41-.61.71-1.77,1.26-2.72,1.29-2.43.1-4.88-.12-7.33-.21.48-3.22.97-6.45,1.45-9.67Z"/><path class="cls-15" d="m688.88,372.45c1.73.06,3.63-.3,5.16.28,2.23.84,2.26,3.22.34,4.66-.57.43-1.18,1.11-1.79,1.13-1.4.04-3.11.19-4.15-.51-1.8-1.21-1.23-3.14-.31-4.83.25-.24.5-.49.75-.73Z"/><path class="cls-13" d="m431.19,123.39c2.05-2.34,4.1-4.67,6.15-7.01.87,1.75,1.73,3.49,2.79,5.62-3.2.5-6.07.94-8.94,1.39Z"/><path class="cls-16" d="m311.07,333.91c-1.76-3.25-3.52-6.5-5.27-9.75,1.35,1.28,2.65,2.63,4.08,3.83,2,1.69,2.42,3.62,1.2,5.92Z"/><path class="cls-14" d="m497.63,722.96c2.72-.49,5.42-1.06,8.15-1.42.61-.08,1.31.55,1.98.86-3.38.19-6.75.38-10.13.56Z"/><path class="cls-14" d="m589.29,707.77c-.4.17-.81.34-1.21.52.4-.17.81-.34,1.21-.52Z"/><path class="cls-18" d="m92.48,85.89c-.08-.16-.15-.33-.23-.49.2.02.4.05.6.07-.12.14-.25.28-.37.42Z"/><path class="cls-5" d="m299.24,315.6c-.2-.28-.41-.56-.61-.84.2.28.41.56.61.84Z"/><path class="cls-14" d="m581.07,706.13c.19-.18.39-.37.58-.55l-.58.55Z"/><path class="cls-22" d="m562.36,719.16c-.11-.06-.23-.13-.35-.19.06-.06.13-.18.18-.17.13.03.24.11.37.17-.06.06-.12.12-.19.19Z"/><path class="cls-18" d="m82.94,224.41c-.12.09-.24.2-.37.26-.04.02-.13-.09-.2-.14.13-.09.25-.18.38-.28l.2.15Z"/><path class="cls-1" d="m404.42,685.39c-.24.2-.49.39-.73.59.24-.19.49-.39.73-.59Z"/><path class="cls-30" d="m594.74,489.17c7.08,7.34,12.99,15.47,16.71,25.04,2.18,5.62,4.21,11.29,6.31,16.94-1.12.61-2.13.03-3.11-.37-18.27-7.46-37.29-12.07-56.77-14.84-5.92-.84-11.88-1.3-17.88-1.56-8.98-.38-17.96-.54-26.94-.42-16.73.22-32.98,3.19-48.88,8.45-12.8,4.24-24.93,9.92-36.87,16.1-6.28,3.25-12.73,6.15-18.35,10.59-1.62,1.28-3.59,3-6.11,1.55,2.87-9.94,7.28-19.06,14.26-26.83,6.6-7.34,13.02-14.84,19.71-22.09,2.74-2.97,5.99-5.47,9.01-8.18,20.24-9.11,41.69-13.45,63.56-16.11,7.3-.89,14.65-1.4,21.99-1,13.07.71,26,2.49,38.78,5.34,6.56,1.46,13.05,3.17,19.51,5.02,1.58.45,3.11,1,4.52,1.83l-.05-.04c.18.2.38.38.59.55Z"/><path class="cls-12" d="m354.46,390.63c5.35-9.73,14.34-12.26,24.53-12.25,11.03,0,19.77,5.34,25.73,13.85,5.77,8.25,8.05,17.93,3.55,27.97-.66,1.47-1.36,2.92-2.04,4.38-1.53-.61-2.23-2.1-3.25-3.21-3.45-3.74-7.77-6.58-10.89-10.65-.73-.95-1.85-1.62-3.13-1.1-1.37.55-1.28,1.9-1.22,3.06.38,6.43,1.08,12.83,2.31,19.17.29,1.49.99,3.32-.34,4.38-1.51,1.2-2.84-.5-4.12-1.17-4.98-2.64-10.16-4.85-15.35-7.03-1.08-.45-2.27-.99-3.36-.14-1.19.93-.95,2.28-.65,3.53,1.61,6.62,3.16,13.25,4.54,19.92.23,1.13.74,2.28-.34,3.79-3.45-.74-6.81-2.27-10.21-3.63-1.85-.74-3.6-1.74-5.32-2.75-1.17-.68-2.39-.93-3.59-.12-1.24.84-1.31,2.13-1.1,3.42.4,2.45,1.5,4.66,2.54,6.87,1.86,3.94,3.98,7.75,6.09,11.57,1.86,3.36,1.08,4.66-2.73,4.7-3.63.04-7.27-.02-10.9.02-1.65.02-3.44-.02-4.12,1.92-.66,1.89.39,3.42,1.68,4.6,3.68,3.37,7.4,6.69,11.16,9.97,3.15,2.74,3.1,3.97-.67,5.86-4.79,2.4-9.52,4.93-14.42,7.1-.83.37-1.67.74-2.33,1.38-1.36,1.32-1.25,2.8.31,3.88.98.68,2.16.93,3.27,1.32,4.88,1.73,9.96,2.82,14.78,4.74,2.31.92,4.88.39,7.15,1.44,3.67,12.65-7.33,21.24-16.12,19.04-6.78-1.7-11.4-5.75-15.56-10.75-4.39-5.27-6.68-11.59-8.51-18.11-4.3-15.34-2.92-30.51,1.01-45.71,4.09-15.81,11.37-30.15,19.29-44.3,4.17-7.46,8.93-14.54,13.15-21.95,1.15-2.03,1.43-3.67-.84-5Z"/><path class="cls-1" d="m402.85,550.67c1.77-.62,3.82-.86,5.25-1.93,9.82-7.36,21.12-11.93,31.97-17.36,14.84-7.42,30.46-12.65,46.73-15.67,11.5-2.14,23.19-3.08,34.94-2.55,10.78.49,21.59.62,32.32,1.65,13.99,1.34,27.76,4.17,41.19,8.4,7.59,2.39,15.02,5.27,22.53,7.93,2.41,8.29,4.09,16.71,4.22,25.38-20.38-10.03-42.01-16.19-64.33-19.66-15.49-2.41-31.19-3.99-46.92-2.87-28.07,2-55.77,6.41-82.59,15.16-9.76,3.18-19.1,7.62-28.64,11.48,1.11-3.32,2.22-6.65,3.33-9.97Z"/><path class="cls-29" d="m361.7,517.54c-1.61-.09-3.31.11-4.82-.33-6.25-1.81-12.46-3.78-18.66-5.78-1.7-.55-4-1.19-3.46-3.43.35-1.45,1.9-2.99,3.31-3.74,5.92-3.11,11.99-5.93,18.53-9.11-2.73-2.51-5.02-4.62-7.34-6.72-2.42-2.19-4.91-4.31-7.27-6.57-1.48-1.42-2.65-3.18-1.67-5.34.95-2.08,2.95-2.1,4.91-2.09,4.61.03,9.21,0,14.42,0-.53-1.4-.82-2.47-1.31-3.44-2.45-4.85-5-9.64-7.41-14.51-.71-1.44-1.36-3.05-1.46-4.62-.08-1.29.33-3.2,1.22-3.79,1.01-.67,2.99-.64,4.21-.13,5.15,2.16,10.18,4.61,15.92,7.26-.63-3-1.07-5.26-1.58-7.5-1.22-5.38-2.59-10.74-3.64-16.15-.27-1.4.02-3.33.86-4.38.49-.61,2.72-.32,3.9.18,6.39,2.74,12.69,5.67,19.53,8.76-.52-3.31-1.13-6.52-1.5-9.75-.58-5.03-1.07-10.08-1.4-15.13-.06-.87.68-2.24,1.42-2.59.76-.35,2.31-.08,2.94.52,4.88,4.72,9.63,9.59,14.4,14.43.24.24.32.64.47.96-1.94,6.47-6.77,10.74-11.57,14.96-4.94,4.34-10.11,8.41-15.18,12.6-2.62.2-4.32,1.7-5.98,3.67-8.21,9.69-12.09,21.09-12.62,33.49-.36,8.57.2,17.21,1.29,25.77.1.82.56,1.82-.46,2.47Z"/><path class="cls-1" d="m594.2,488.66c-4.52-1.18-9.04-2.4-13.57-3.54-18.43-4.64-37.04-8.13-56.13-7.82-21,.34-41.41,4.43-61.43,10.56-5.78,1.77-11.49,3.8-17.24,5.71,11.95-8.17,24.2-15.66,37.91-20.76,9.15-3.4,18.45-5.57,28.06-6.94,25.77-3.65,49.25,3.54,71.79,14.97,3.86,1.96,7.09,5.18,10.61,7.82Z"/><path class="cls-28" d="m550.73,429.66c-.02,10.03-8.08,18.02-17.97,17.83-10.1-.2-17.56-7.98-17.68-18.14-.11-9.32,8.08-18.03,18.41-17.65,9.58.35,17.26,8.06,17.24,17.96Z"/><path class="cls-12" d="m369.21,163.66c-.92,2.19-2.14,5.27-3.5,8.28-1.67,3.7-3.59,7.3-5.16,11.05-1.05,2.49-2.52,4.13-5.3,4.39-2.77.26-5.01-.96-6.08-3.26-2.09-4.47-4.55-9.01-5.34-13.78-.86-5.16-.39-10.65.24-15.92.54-4.54,3.53-7.67,8.13-8.88,4.21-1.11,7.42.77,10.15,3.72,3.51,3.78,6.3,7.95,6.88,14.39Z"/><path class="cls-12" d="m640.28,160.39c-.43,9.06-1.92,15.71-8.25,20.24-3.31,2.37-5.04,1.71-6.16-2.08-1.77-5.97-3.77-11.88-5.53-17.85-.32-1.1-.36-2.6.14-3.58,1.46-2.89,2.89-5.93,5-8.33,4.13-4.72,10.01-3.69,12.29,2.14,1.39,3.56,2,7.43,2.52,9.46Z"/><path class="cls-23" d="m455.59,434.18c5.81,0,10.83,5.2,10.89,11.3.06,6.08-5.09,11.18-11.28,11.17-6.08-.01-11.2-5.18-11.21-11.31,0-6.18,5.16-11.16,11.6-11.16Z"/><path class="cls-23" d="m597.22,468.49c-6.38,0-11.23-4.79-11.22-11.1.01-6.21,5.03-11.25,11.2-11.27,5.62-.01,11.35,4.84,11.2,11.21-.15,6.35-4.83,11.15-11.18,11.16Z"/><path class="cls-12" d="m390.8,268.7c0-8.25,6.34-14.34,14.87-14.28,7.76.05,14.22,5.8,13.82,13.04-.54,9.62-4.32,16.26-13.91,16.36-8.5.09-14.77-6.49-14.77-15.12Z"/><path class="cls-12" d="m643.89,253.05c-.22,7.61-4.47,11.9-11.59,11.74-6.82-.16-12.7-6.4-12.44-13.22.23-6.12,5.94-11.64,11.89-11.48,7.05.18,12.36,5.84,12.15,12.96Z"/><path class="cls-23" d="m633.33,520.82c-4.79.01-8.6-3.76-8.62-8.55-.02-4.86,3.93-8.84,8.68-8.91,3.69-.06,8.76,3.95,8.74,8.66-.02,4.77-3.93,8.78-8.79,8.8Z"/><path class="cls-23" d="m416.95,491.44c0,4.76-3.83,8.59-8.63,8.6-4.64.02-8.61-3.92-8.66-8.65-.05-4.85,3.69-8.46,8.86-8.67,4.69-.19,8.42,3.81,8.43,8.72Z"/><path class="cls-23" d="m489.11,442.32c-3.15-.03-7.42-3.23-7.47-5.6-.07-4.01,4.09-8.39,8.01-8.41,3.73-.03,6.62,3.2,6.65,7.43.03,3.58-3.29,6.62-7.19,6.58Z"/><path class="cls-23" d="m569.09,447.79c-3.89.05-6.53-2.51-6.54-6.36-.01-3.82,3-6.75,6.96-6.77,3.59-.02,5.58,2.51,5.6,7.09.02,3.92-2.03,5.98-6.02,6.04Z"/><path class="cls-23" d="m618.85,479.37c4.54,0,7.01,2.5,6.96,7.03-.04,3.34-2.57,5.26-6.82,5.18-3.5-.07-6.27-3.04-6.29-6.75-.01-3.55,2.16-5.48,6.15-5.47Z"/><path class="cls-23" d="m436.07,468.48c-.05,3.8-2.58,6.24-6.35,6.12-2.56-.08-5.1-3.06-5.11-6,0-3.13,3.33-6.65,6.29-6.64,2.79.01,5.22,3.07,5.17,6.51Z"/><path class="cls-15" d="m613.33,635.71c-1.67-.95-3.54-1.66-4.95-2.91-1.23-1.09-.93-2.64.54-3.62,1.66-1.11,4.24-.49,5.58,1.26-.39,1.76-.78,3.52-1.17,5.27Z"/><path class="cls-15" d="m642.29,541.87c-1.75,1.58-2.67,3.01-3.88,3.35-1.48.41-3.13-.71-2.67-2.42.35-1.31,1.67-2.58,2.89-3.32.42-.25,1.85,1.16,3.66,2.38Z"/><path class="cls-15" d="m394.1,519.04c.97-.78,1.93-2.2,2.91-2.21,1.94-.02,2.79,1.83,2.47,3.48-.19.97-1.53,2.3-2.49,2.42-1.92.24-2.57-1.27-2.89-3.69Z"/><path class="cls-1" d="m399.57,560.57c-.15.13-.31.26-.46.38.15-.13.31-.26.46-.38Z"/><path class="cls-1" d="m594.74,489.17c-.2-.18-.39-.37-.59-.55.2.18.39.37.59.55Z"/><path class="cls-15" d="m65.71,347.36c-.06-2.19.53-4.05,2.81-4.72,2.24-.65,3.38.98,4.66,2.45,2.54,2.9,3.64,5.99,1.87,9.66-1.32,2.74-4.1,3.22-6.15.94-2.1-2.34-3.33-5.11-3.2-8.34Z"/><path class="cls-15" d="m204.99,498.49c.61-2.54.84-4.46,1.54-6.18.86-2.09,2.69-2.68,4.75-1.76,3.66,1.64,4.34,9.44.88,11.49-1.31.78-3.63,1.31-4.71.66-1.31-.79-1.78-2.95-2.46-4.21Z"/><path class="cls-28" d="m51.42,399.16c3.57.06,6.67,2.57,6.73,5.44.05,2.43-2.54,4.7-5.36,4.7-3.63,0-6.76-2.47-6.74-5.33.02-2.91,2.2-4.87,5.37-4.82Z"/><path class="cls-15" d="m124.55,357.5c-1.09,2.76-1.76,5.23-3.04,7.34-.59.96-2.54,1.84-3.57,1.58-1.18-.3-2.55-1.75-2.93-2.98-1.06-3.42.42-6.47,2.74-8.85.83-.85,3.02-1.23,4.1-.73,1.19.55,1.8,2.34,2.7,3.65Z"/><path class="cls-15" d="m142.03,363.08c-.29.94-.66,2.82-1.44,4.52-.82,1.81-2.58,2.99-4.43,2.11-1.33-.63-2.63-2.19-3.06-3.6-.47-1.53-.08-3.41.23-5.08.54-2.93,1.91-4,4.35-3.75,2.89.3,4.37,1.95,4.35,5.8Z"/><path class="cls-15" d="m108.5,499.99c-.83-.04-1.11-.05-1.38-.07-3.48-.31-5.41-1.88-5.26-4.26.15-2.33,1.93-3.57,5.45-3.63,1.43-.03,3.05-.17,4.26.41,1.2.58,2.69,1.94,2.78,3.06.09,1.11-1.17,2.68-2.26,3.45-1.1.77-2.72.81-3.59,1.03Z"/><path class="cls-28" d="m224.34,494.11c.12-1.17.1-2.38.38-3.51.69-2.81,3.32-3.48,5.41-1.45,2.26,2.2,2.87,7.78,1.14,10.46-1.5,2.33-4.42,2.44-5.74-.02-.86-1.6-1.03-3.57-1.51-5.38.1-.03.21-.07.31-.1Z"/><path class="cls-15" d="m157.55,425c.04-.23.16-1.22.38-2.19.4-1.81,1.27-3.21,3.34-3.37,2.14-.17,3.67,1.04,4.12,2.84.47,1.84.46,3.94.1,5.82-.41,2.08-1.88,3.55-4.28,3.36-2.45-.19-3.26-1.99-3.64-4.08-.1-.52-.01-1.08-.01-2.39Z"/><path class="cls-15" d="m48.46,425.96c-.55,0-.65,0-.74,0-3.76-.13-6.11-1.99-5.82-4.61.3-2.75,2.76-4.18,6.44-3.74.54.06,1.08.1,1.61.22,2.13.49,3.74,1.65,3.72,3.99-.02,2.34-1.73,3.44-3.79,3.99-.6.16-1.25.12-1.42.14Z"/><path class="cls-15" d="m106.36,474.36c.73.07,1.09.1,1.45.13,3.52.26,5.12,1.46,5.18,3.89.06,2.31-1.68,3.72-5.17,3.96-1.24.09-2.55-.01-3.75-.33-1.94-.52-3.58-1.58-3.3-3.95.25-2.17,1.72-3.28,3.8-3.61.71-.11,1.44-.08,1.79-.1Z"/><path class="cls-15" d="m175.47,431.03c.93-2.31,1.25-4.27,2.37-5.52.9-1.01,2.98-1.84,4.13-1.48,1.14.36,2.33,2.25,2.49,3.59.19,1.58-.5,3.38-1.17,4.92-.81,1.86-2.49,3.42-4.5,2.44-1.43-.69-2.26-2.61-3.32-3.94Z"/><path class="cls-11" d="m249.57,560.92c-.43-.8-.86-1.6-1.3-2.41.43.8.86,1.6,1.3,2.41Z"/><path class="cls-28" d="m375.94,623.04c-.44,1.36-.5,3.38-1.42,3.9-.94.54-2.75-.27-4.13-.67-2.49-.73-4.88-1.98-7.41-2.32-9.82-1.34-18.2,1.99-25.38,8.58-6.93,6.37-10.99,14.3-12.48,23.58-.95,5.89.35,10.83,4.37,15.58,7.29,8.61,16.23,10.61,26.7,8.35,8.46-1.82,17.75-13.29,17.79-21.94.02-3.04-3.78-7.33-7.46-8.5-4.78-1.52-9.44-.78-13.71,1.43-1.59.82-2.71,2.98-3.51,4.76-.88,1.98.56,2.67,2.31,2.31,1.22-.25,2.37-.87,3.52-1.39,3.43-1.55,5.27-.63,6.06,3.07.25,1.12-.22,2.03-1.09,2.6-3.73,2.47-7.67,4.16-12.3,2.92-3.87-1.04-6.12-3.86-6.25-7.9-.16-4.9,1.55-9.08,5.63-11.75,10.36-6.77,24.6-6.58,32.58,5.66,2.43,3.73,2.07,7.75,1.1,11.84-2.37,10.03-8.69,17.26-17.31,22.09-10.79,6.05-30.21,4.11-38.51-7.33-1.17-1.61-2.72-2.91-3.9-4.54-5.02-6.93-4.4-14.68-2.69-22.25,2.93-13.01,10.35-23.02,21.88-29.89.47-.28.94-.57,1.32-.95,4.84-4.81,10.63-6.04,17.24-5.01,3.56.56,7.27.1,10.71,1.56,2.93,1.25,5.11,3.23,6.31,6.21Z"/><path class="cls-29" d="m375.94,623.04c-4.1-5.55-9.7-6.89-16.38-7.07-3.84-.1-7.55-.49-11.1.93-2.08.83-3.87,2.39-5.78,3.64-.59.39-1.11.91-1.73,1.24-14.92,8.09-24.37,25.85-22.6,42.71.18,1.68.59,3.47,1.41,4.91,7.48,13.12,18.13,19.71,34.39,18.09,12.75-1.28,25.67-15.7,26.73-28.19.55-6.57-3.16-10.78-7.96-13.85-3.06-1.95-7-3.02-10.66-3.38-5.01-.49-9.95.95-14.21,3.72-4.51,2.93-6.3,7.46-5.63,12.7.21,1.62,1.32,3.47,2.59,4.54,4.38,3.72,13.39,1.77,16.2-3.27,2.6,1.94,2.77,3.83.59,6.34-4.29,4.93-13.13,4.95-18.44.05-7.08-6.53-6.46-17.82,1.53-23.73,6.47-4.79,13.67-6.55,21.56-3.91,2.06.69,4.13,1.35,6.13,2.2,8.93,3.78,13.21,11.12,12.52,20.75-.71,9.99-5.02,17.84-13.29,23.48-6.58,4.48-13.3,8.45-21.74,8.13-12.36-.47-31.15-10.68-34.78-24.06-2.04-7.49-1.99-14.9.29-22.25,4.88-15.67,14.9-27.17,29.69-33.96,9.43-4.33,19.09-3.93,27.72,2.91.84.67,1.86,1.12,2.77,1.71,2.54,1.65,2.6,3.56.19,5.6Z"/><path class="cls-15" d="m389.41,631.19c0,2.04-1.56,3.53-3.66,3.52-2.18-.01-3.76-1.61-3.73-3.77.03-2.14,1.72-3.8,3.8-3.74,2.07.07,3.6,1.76,3.59,3.99Z"/><path class="cls-15" d="m313.29,625.54c1.85.25,3.32.98,3.31,3.16,0,1.86-1.17,2.81-2.93,2.87-1.94.06-3.4-.75-3.48-2.91-.08-2.04,1.26-2.83,3.1-3.11Z"/><path class="cls-15" d="m337.05,700.97c-.15,2-1.02,3.32-3,3.28-2-.03-2.89-1.37-2.82-3.26.07-1.73.93-2.97,2.82-3.02,2.06-.05,2.81,1.3,3,2.99Z"/><path class="cls-15" d="m304.9,667.52c.83,1.18,2.09,2.26,2.4,3.57.42,1.75-.79,2.97-2.67,2.92-1.87-.04-3.3-1.14-3.09-3.02.13-1.21,1.31-2.3,2.01-3.44.45-.01.9-.02,1.35-.03Z"/><path class="cls-15" d="m322.83,613.08c1.12-.73,2.18-1.93,3.37-2.1,1.77-.25,3.06,1.19,2.66,2.87-.25,1.07-1.71,2.53-2.69,2.58-1.07.06-2.23-1.3-3.34-2.03,0-.44,0-.88,0-1.32Z"/><path class="cls-15" d="m306.55,645.35c.78,1.1,2.17,2.21,2.15,3.31-.01.97-1.44,2.45-2.5,2.75-1.7.47-3.14-.8-2.94-2.56.14-1.21,1.31-2.31,2.02-3.46.42-.01.85-.02,1.27-.03Z"/><path class="cls-15" d="m315.07,693.4c-.69-1.15-2-2.36-1.89-3.43.1-.99,1.62-2.38,2.7-2.58,1.68-.31,3.08,1.01,2.74,2.79-.23,1.19-1.45,2.19-2.23,3.28-.44-.02-.88-.04-1.32-.05Z"/><path class="cls-15" d="m360.75,702.35c-1.12.71-2.19,1.86-3.39,2.03-1.81.25-2.99-1.26-2.59-2.89.26-1.06,1.72-2.5,2.7-2.54,1.07-.05,2.2,1.32,3.31,2.07,0,.44-.02.89-.02,1.33Z"/><path class="cls-15" d="m570.46,617.26c2.73,0,4.48,1.18,4.25,3.02-.3,2.46-2.32,2.77-4.23,2.89-2.59.16-4.75-1.37-4.53-3.18.32-2.69,2.46-2.7,4.5-2.73Z"/><path class="cls-15" d="m431.3,637.98c-2.04.05-3.51-1.34-3.48-3.29.02-1.96,1.84-3.64,4.01-3.56,1.93.07,3.33.98,3.55,3.03.22,2.01-1.72,3.76-4.08,3.82Z"/><path class="cls-15" d="m595.59,628.29c-3.96-.02-6.28-1.58-6.16-3.51.1-1.7,1.12-2.58,2.88-2.57,2.69.01,5.95,2.13,5.43,3.83-.34,1.11-1.78,1.89-2.15,2.25Z"/><path class="cls-15" d="m481.2,625.62c-.76-1.07-2.14-2.18-2.31-3.44-.23-1.82,1.14-2.92,3.15-2.83,2.76.12,4.79,1.42,4.67,3.18-.2,3.23-3.05,2.05-5.52,3.1Z"/><path class="cls-15" d="m510.37,622.32c-2.7-.5-4.42-1.11-4.51-3.37-.08-1.95,1.24-2.66,2.98-2.71,2.38-.08,4.46,1.34,3.96,2.96-.4,1.29-1.74,2.29-2.42,3.12Z"/><path class="cls-15" d="m535.79,615.06c2.39.79,4.45.8,4.44,3.37-.01,2.14-1.59,2.77-3.36,2.62-1.85-.16-3.91-.76-3.62-3.09.13-1.06,1.65-1.94,2.55-2.9Z"/><path class="cls-15" d="m456.32,629.49c-2.94-.33-4.88-.77-4.91-3.23-.02-1.93,1.44-2.51,3.17-2.45,2.07.07,4.18,1.78,3.73,3.37-.29,1.04-1.55,1.82-1.99,2.31Z"/><path class="cls-23" d="m498.38,557.56c-1.82-.1-3.31-.92-3.32-3.01,0-1.77,1.26-2.87,3-2.84,1.89.03,3.7.72,3.91,2.95.23,2.42-1.74,2.6-3.6,2.9Z"/><path class="cls-23" d="m562.42,558.52c-1.97,0-3.61-.51-3.69-2.9-.06-1.95,1.1-2.7,2.9-2.71,2.09,0,3.9.63,4.06,2.98.15,2.1-1.43,2.66-3.27,2.63Z"/><path class="cls-15" d="m470.97,559.61c.04,2.46-1.17,3.43-2.84,3.45-1.75.02-3.61-.52-3.63-2.77-.02-1.97,1.44-2.82,3.23-2.91,1.87-.1,3.1.74,3.24,2.23Z"/><path class="cls-15" d="m591.55,560.01c3.18-.09,4.56,1.15,4.54,3.13-.01.94-1.3,2.32-2.3,2.68-1.53.54-4.17-1.69-3.86-3.16.24-1.13,1.27-2.09,1.63-2.64Z"/><path class="cls-15" d="m436.49,571.42c-1.77-1.86-2.88-3.04-4-4.22.92-.82,1.76-2.18,2.77-2.33,1.77-.26,3.62.6,3.6,2.73,0,1-1.18,1.99-2.37,3.82Z"/><path class="cls-23" d="m406.5,580.42c-1.46-1.76-3.09-2.91-2.94-3.74.2-1.12,1.63-2.52,2.8-2.83,1.74-.47,3.42.72,3.2,2.63-.13,1.14-1.58,2.13-3.05,3.95Z"/><path class="cls-23" d="m617.71,576.51c-1.51-1.82-2.87-2.8-3.23-4.06-.47-1.63.86-2.63,2.5-2.8,1.72-.17,3.61,1.5,3.26,3.12-.23,1.07-1.27,1.95-2.52,3.74Z"/><path class="cls-23" d="m530.92,549.76c.72.94,1.89,1.79,2.08,2.82.35,1.96-1.26,2.71-2.89,2.78-1.52.06-2.84-.79-2.45-2.47.27-1.15,1.33-2.11,2.03-3.16.41,0,.82.01,1.23.02Z"/><path class="cls-21" d="m128.5,151.97c0-6.16,4.73-12.07,12.02-14.99,4.87-1.95,9.84-1.8,14.97-1.13,8.66,1.14,16.58,3.92,23.13,9.78,2.17,1.94,3.88,4.48,5.45,6.96,1.15,1.84.18,3.3-2.04,3.02-11.61-1.42-22.06,2.64-32.6,6.49-2.62.96-5.37,1.66-8.13,2.11-6.72,1.1-12.79-4.8-12.8-12.25Z"/><path class="cls-15" d="m457.65,693.05c-.96-1.08-2.88-2.38-2.68-3.19.35-1.46,1.73-3.29,3.08-3.72,1.53-.49,3.62.11,5.23.8.85.37,1.63,1.97,1.57,2.96-.04.7-1.45,1.57-2.41,1.9-1.32.46-2.79.5-4.2.72-.2.17-.39.35-.59.52Z"/><path class="cls-15" d="m545.71,687.5c-1.08-.3-2.65-.32-3.59-1.1-.93-.77-1.77-2.4-1.6-3.48.12-.74,2-1.51,3.18-1.68,1.28-.18,2.76.09,3.97.6,1.08.45,1.92,1.5,2.87,2.28-.81.96-1.53,2.03-2.47,2.83-.49.41-1.38.35-2.35.56Z"/><path class="cls-15" d="m488.93,682.37c1.5,1.28,3.08,2.06,3.53,3.26.25.68-1.18,2.29-2.18,3.06-1.83,1.41-3.99,1.24-5.73-.15-.62-.5-1.05-2.42-.69-2.75,1.34-1.25,3.05-2.11,5.07-3.41Z"/><path class="cls-23" d="m415.9,700.99c.05,1.97-1.72,3.33-4.65,3.41-1.85.05-3.45-.47-3.62-2.72-.16-2.14,1.94-4.03,4.47-4.06,2.15-.03,3.75,1.4,3.81,3.38Z"/><path class="cls-15" d="m514.37,688.71c-2.42,0-4.05-1.25-3.99-3.07.06-1.65,2.41-3.49,4.54-3.54,2.23-.06,4.1,1.54,4.05,3.45-.04,1.87-1.91,3.15-4.61,3.16Z"/><path class="cls-23" d="m386.41,706.1c1.12-.48,2.22-1.01,3.36-1.44,1.79-.69,3.44-.6,4.36,1.35.95,2,.22,3.81-1.71,4.41-1.57.49-3.57.44-5.12-.11-1.96-.7-1.17-2.65-.91-4.19,0,0,.01-.01.01-.01Z"/><path class="cls-15" d="m434.04,696.83c-.48-.58-1.82-1.51-2.13-2.71-.49-1.9,2.07-3.81,4.63-3.83,1.91-.02,3.14.79,3.29,2.77.14,1.89-2.27,3.71-5.8,3.77Z"/><path class="cls-23" d="m576.24,687.75c-.13,1.76-1.11,2.98-3.18,3.01-2.04.03-4.02-1.77-4.03-3.59-.01-2.04,1.14-2.84,3.09-2.84,2.56,0,4.09,1.13,4.12,3.42Z"/><path class="cls-21" d="m357.65,92.64c15.7-1.02,25.34,8.04,33.27,19.88,1.56,2.32,2.81,4.87,4.06,7.38.51,1.02.93,2.25.88,3.35-.04.8-.79,1.97-1.48,2.21-.68.23-1.76-.4-2.54-.86-1.64-.98-3.07-2.62-4.81-3.06-7.49-1.9-15.03-2.55-22.87-1.82-7.62.7-15.15-.66-21.34-6.09-3.32-2.91-5-10.22-2.76-13.35,1.31-1.83,2.91-3.91,4.87-4.72,4.03-1.67,8.38-2.56,12.59-3.78.05.29.1.58.14.88Z"/><path class="cls-12" d="m125.83,435.21l-.24-.05h-.24c-3.13.24-6.24.05-9.35-.4-.36,0-.71,0-1.07,0-4.78.57-9.59-.02-14.39.42-10.93,1-21.9,1.56-32.73,3.51-4.48.81-4.64.56-4.12-3.94,2.32-20.3,7.26-39.92,15.1-58.8,1.62-3.91,2.04-4.46,6.27-4.14,13.39,1.03,26.72,2.48,39.86,5.42,5.73,1.28,11.54,2.18,17.27,3.5,3.35.77,3.84,1.45,2.66,4.65-4.07,10.99-8.03,22.01-11.5,33.2-1.48,4.78-2.57,9.65-3.9,14.45-.53,1.91-1.34,3.25-3.63,2.17Z"/><path class="cls-24" d="m200.6,576.54c-6.81,1.01-13.4,1.6-19.8,3.01-11.75,2.58-23.4,5.57-35.06,8.53-2.2.56-3.05.07-3.72-2.04-4.97-15.63-8.85-31.51-11.3-47.73-1.13-7.5-2.08-15.02-3.19-22.52-.3-2,.96-2.33,2.35-2.52,3.22-.43,6.45-.99,9.69-1.1,13.31-.46,26.63-.73,39.95-1.17,2.56-.08,2.68,1.62,2.97,3.32,1.06,6.23,1.93,12.49,3.17,18.68,2.92,14.57,8.43,28.26,14.35,41.81.21.48.35,1,.6,1.74Z"/><path class="cls-17" d="m129.53,455.89c.02-.34.04-.69.06-1.03-.24-4.23.89-8.27,1.7-12.35.29-1.47,1.17-2.2,2.8-2.45,3.14-.47,6.17.17,9.2.56,13.6,1.75,26.98,4.67,40.28,7.98,3.31.82,3.93,1.75,3.22,5.03-3.43,15.75-4.56,31.71-4.53,47.79,0,.54,0,1.09-.01,1.63-.12,3.2-.48,3.63-3.67,3.56-1.97-.04-3.99.46-5.91-.42-.89,0-1.78-.01-2.67-.02-2.37.4-4.74-.39-7.1,0-.35,0-.7,0-1.05,0-2.98,1.11-6.11.44-9.16.63-7.61.49-15.18,1.29-22.77,2.01-3.02.29-3.78-.31-3.83-3.38-.25-14.72-.11-29.41,2.13-44.01.29-1.89.82-3.7,1.31-5.53Z"/><path class="cls-4" d="m125.83,435.21c1.67.13,2.5-.4,2.93-2.27,3.79-16.56,9.69-32.45,15.6-48.34.27-.73.46-1.49.8-2.63-6.93-1.45-13.5-3.18-20.19-4.15-13.69-1.99-27.43-3.54-41.15-5.33-2.06-.27-3.03.49-3.84,2.41-7.04,16.61-11.78,33.85-14.56,51.65-.6,3.84-1.04,7.7-1.61,12,17.02-3.03,34.01-4.37,51.12-3.8-.96.15-1.91.36-2.87.45-7.99.72-15.99,1.33-23.97,2.15-5.72.6-11.43,1.4-17.12,2.29-1.54.24-2.97,1.19-4.48,1.74-.86.31-2,.87-2.62.55-.67-.34-1.28-1.6-1.23-2.42.21-3.41.54-6.83,1.08-10.21,1.18-7.47,1.84-15.11,3.91-22.34,3.3-11.54,7.56-22.8,11.44-34.17.58-1.7,1.75-2.4,3.71-2.5,14.74-.78,28.77,2.73,42.82,6.53,5.88,1.59,12,2.41,18.05,3.29,3.5.51,4.51,1.93,3.31,5.26-3.64,10.13-7.23,20.27-10.76,30.44-2.08,5.97-4,11.99-6.02,17.98-.9,2.67-1.94,2.99-4.37,1.41Z"/><path class="cls-26" d="m172.67,506.18h8.79c-.28-18.93,1.05-37.45,5.2-56-4.84-1.18-9.35-2.51-13.95-3.37-11.47-2.12-22.97-4.1-34.48-6-5.73-.94-5.92-.65-6.9,5.06-.52,3-1.15,5.98-1.73,8.97-.34-.9-1.03-1.82-.97-2.7.2-3.23.51-6.47,1.08-9.66.17-.95,1.17-2.15,2.08-2.51,5.11-2.04,10.37-2.85,15.82-1.25,5.27,1.54,10.54,3.06,15.87,4.37,6.56,1.61,13.18,2.97,19.78,4.45,6.72,1.5,6.28,1.4,4.73,8.03-1.74,7.43-2.83,15.04-3.75,22.62-.61,5.01-.47,10.11-.59,15.18-.08,3.4-.08,6.81.02,10.22.05,1.89-.88,3.15-2.52,3.32-2.59.28-5.23.11-7.85.06-.21,0-.41-.52-.61-.8Z"/><path class="cls-26" d="m129.53,455.89c-.59,5.76-1.43,11.5-1.72,17.27-.6,11.57-.9,23.15-1.32,34.5,12.28-.52,23.82-1.01,35.36-1.5-.82.34-1.63.9-2.47.98-4.76.44-9.53.68-14.28,1.18-2.14.23-4.21,1.16-6.34,1.31-3.64.27-7.34.46-10.97.14-2.35-.2-2.99-2.56-2.98-4.59.06-8.78.05-17.57.52-26.33.33-6.19,1.29-12.36,2.2-18.5.23-1.55,1.32-2.98,2.01-4.47Z"/><path class="cls-2" d="m245.85,555.11c-1.38-3.7-3.17-7.3-4.06-11.11-2-8.62-3.52-17.34-5.36-26-.17-.78-1.19-1.88-1.92-1.96-9.07-1.05-18.15-1.96-27.23-2.87-6.29-.63-12.6-1.18-18.89-1.77,1.55-2.32,3.94-1.77,5.93-1.32,9.69,2.19,19.52,2.46,29.38,2.65,2.98.06,5.95.37,8.92.64,4.43.4,5.3,4.02,6.07,7.31,1.82,7.82,3.34,15.71,4.97,23.58.75,3.62,1.46,7.24,2.19,10.86Z"/><path class="cls-2" d="m187.84,511.94c2.14,15.02,5.48,29.76,10.53,44.08,1.96,5.56,4.13,11.04,6.17,16.57.34.91.51,1.88.76,2.82-.65-.68-1.58-1.25-1.9-2.06-1.77-4.46-3.41-8.97-5.05-13.48-2.29-6.3-4.96-12.5-6.7-18.96-2.15-8.01-3.63-16.22-5.12-24.39-.26-1.4.84-3.05,1.31-4.59Z"/><path class="cls-4" d="m116,434.76c3.12.13,6.23.27,9.35.4-3.2,1.75-6.26.31-9.35-.4Z"/><path class="cls-26" d="m162.91,506.15c2.37,0,4.74,0,7.1,0-2.37,0-4.74,0-7.1,0Z"/><path class="cls-2" d="m205.31,575.45c.23.32.46.65.69.97-.23-.32-.46-.65-.69-.97Z"/><path class="cls-21" d="m176.38,221.28c-.5-12.16,8.42-22.48,20.52-26.99,4.68-1.75,9.79-2.5,14.77-3.25,2.03-.3,4.27.48,6.35,1.01,1.53.39,1.36,2.22-.05,4.03-2.44,3.13-5.16,6.14-7.01,9.61-1.97,3.7-3.37,7.79-4.49,11.86-1.71,6.25-4.79,11.73-8.59,16.84-3.42,4.6-9.01,5.2-13.82,3.74-4.73-1.44-6.58-5.62-7.05-10.37-.22-2.16-.42-4.32-.63-6.48Z"/><path class="cls-21" d="m250.19,276.04c-1.45-.65-4.55-1.27-6.58-3.09-5.76-5.15-9.47-11.24-7.77-19.66,2.51-12.4,9.37-21.61,19.77-28.38,1.72-1.12,3.93-2.87,5.88-.76,1.84,1.99-.33,3.76-1.34,5.27-5,7.51-4.94,15.5-2.63,23.76,1.55,5.53,2.94,11.08,1.21,16.83-1.18,3.91-3.74,5.99-8.54,6.02Z"/><path class="cls-15" d="m705.88,367.61c-1.68-.05-3.75-2.33-3.54-4.15.28-2.49,2.38-2.75,4.26-2.89,1.84-.14,2.86,1.02,2.91,2.84.07,2.48-1.53,4.27-3.62,4.2Z"/><path class="cls-15" d="m725.94,359.79c-.05,2.18-1.94,4.14-3.76,4.01-1.97-.15-2.84-1.46-2.95-3.24-.12-1.98,1.85-3.86,3.77-3.8,2.06.07,2.71,1.44,2.95,3.03Z"/><path class="cls-15" d="m682.47,388.36c-.02,2.46-1.4,3.9-3.31,3.79-1.92-.11-3.13-1.23-3.07-3.07.07-2,1.34-3.32,3.46-3.42,2.08-.1,2.82,1.22,2.92,2.7Z"/><path class="cls-15" d="m679.95,429.34c-.57,2.75-1.24,4.36-3.78,4.28-2-.06-2.56-1.33-2.45-3.11.12-2.01,1.91-4.28,3.38-3.8,1.12.37,1.92,1.71,2.86,2.63Z"/><path class="cls-15" d="m679.68,407.11c-.24,2.82-1.17,4.08-3.27,4.18-1.61.08-2.6-.61-2.68-2.33-.09-1.9,1.46-3.95,3.15-3.65,1.13.2,2.1,1.32,2.8,1.8Z"/><path class="cls-15" d="m492.3,499.84c-.03,2.51-1.52,3.7-4.09,3.64-2.03-.05-3.31-1.01-3.37-3.1-.05-1.74,2.2-3.67,4.12-3.64,2.23.04,3.25,1.31,3.35,3.1Z"/><path class="cls-15" d="m557.05,503.48c-1.4-2.01-2.62-3.1-2.95-4.41-.42-1.69,1.76-3.45,3.78-3.27,1.87.16,3.72,1.13,3.17,3.12-.4,1.48-2.18,2.58-4,4.56Z"/><path class="cls-15" d="m523.43,497.03c-.24,2.25-1.57,3.39-3.61,3.39-2.01,0-3.24-1.21-3.1-3.29.14-2.2,1.62-3.13,3.69-3.1,1.95.03,2.94,1.14,3.01,3Z"/><path class="cls-15" d="m592.7,511.05c-2.91-.34-4.18-1.53-4.32-3.58-.11-1.65.8-2.77,2.57-2.83,1.67-.05,4.05,2.11,3.67,3.63-.28,1.14-1.41,2.07-1.92,2.78Z"/><path class="cls-15" d="m457.42,504.49c1.38,1.73,2.54,2.61,2.85,3.73.41,1.45-1.8,3.31-3.6,3.28-1.77-.03-3.36-1.03-2.94-2.71.35-1.38,2.01-2.43,3.69-4.3Z"/><path class="cls-15" d="m433.94,514.64c.44.77,1.42,1.8,1.59,2.96.27,1.85-1.78,3.39-3.84,3.23-1.69-.14-2.45-1.19-2.24-2.76.27-2.02,1.47-3.23,4.49-3.43Z"/><path class="cls-15" d="m542.25,290.8v55.25c-3.39.78-6.21-.5-8.9-2.23-.35-.23-.53-.88-.6-1.37-2.23-14.68-4.45-29.37-6.66-44.05-.07-.44-.09-.89-.17-1.83,5.28-1.86,10.6-3.74,16.33-5.77Z"/><path class="cls-15" d="m546.78,345.19v-54.46c2.72.78,5.18,1.48,7.63,2.18,1.37.39,1.71,1.28,1.58,2.66-.69,7.22-1.29,14.45-1.93,21.68-.63,7.14-1.38,14.26-1.89,21.41-.35,4.84-.32,4.99-5.39,6.54Z"/><path class="cls-15" d="m421.39,234.7c.04-3.88,1.29-6.99,3.43-10.03,9.1-12.92,26.85-12.73,37.96-7.93,3.55,1.53,5.99,7.34,4.44,11.53-1.23,3.33-2.86,6.86-5.3,9.32-5.91,5.96-13.04,9.75-21.88,9.03-1.99-.16-3.99-.07-5.99-.11-5.63-.12-13.47-5.42-12.66-11.81Z"/><path class="cls-15" d="m590.71,229.89c1.3-3.32,2.47-6.71,3.94-9.96,1.11-2.45,3.39-3.3,5.92-2.87,5.08.85,9.49,2.92,12.46,7.42,2.78,4.19,2.55,9.26-.71,13.1-3.85,4.53-8.61,6.43-12.57,5.01-4.11-1.47-8.4-7.86-8.34-12.42-.23-.09-.47-.18-.7-.27Z"/><path class="cls-25" d="m414.29,269.32c.03,4.92-4.86,9.78-10,9.94-4.72.14-9.1-4.63-9.15-9.97-.05-5.67,4.09-9.58,10.15-9.57,5.03.01,8.96,4.21,8.99,9.59Z"/><path class="cls-25" d="m631.56,244.92c4.4.03,7.98,3.76,7.94,8.27-.03,3.9-3.45,7.43-7.17,7.42-4.28-.01-8.22-4.37-8.1-8.94.11-3.91,3.22-6.77,7.33-6.75Z"/><path class="cls-23" d="m178.67,150.22c-10.57,1.75-20.05,3.44-29.05,7.16-2.16.89-4.4,1.61-6.67,2.19-3.83.98-7.04-.05-8.73-2.6-2.12-3.19-2.03-7.32.42-10.37,4.01-4.99,9.42-7.47,15.7-7.14,6.49.34,12.98,1.38,18.79,4.64,3.1,1.74,6,3.83,9.53,6.12Z"/><path class="cls-23" d="m389.08,116.64c-7.6-.47-14.89-1.48-22.14-1.18-5.64.23-11-.16-16.27-1.93-4.97-1.67-7.45-5.14-7.19-9.6.13-2.29,1.19-3.8,3.39-4.74,13.45-5.78,27.49-1.35,35.62,8.97,2.28,2.89,4.52,5.82,6.59,8.48Z"/><path class="cls-15" d="m179.67,576.25c-4.27-.3-6.78-1.92-6.78-4.66,0-2.52,2.47-4.31,6.44-4.45,1.88-.07,3.92-.21,5.6.43,1.26.48,2.77,2.08,2.88,3.3.11,1.23-1.07,3.13-2.23,3.78-1.72.97-3.92,1.1-5.91,1.59Z"/><path class="cls-15" d="m175.38,558.61c-3.91.06-5.65-1.15-6.65-4.61-.81-2.79.52-5.11,3.38-5.17,2.21-.05,4.52.38,6.64,1.04,2.15.67,3.46,2.42,3.15,4.82-.31,2.45-2.09,3.45-4.36,3.74-.72.09-1.45.12-2.17.18Z"/><path class="cls-23" d="m212.34,194.49c-2.89,5.42-5.67,10.44-8.26,15.56-.76,1.5-1.1,3.25-1.44,4.92-1.24,6.18-4.28,11.49-7.91,16.5-2.18,3.02-5.43,3.6-8.77,2.86-3.04-.68-4.11-3.36-4.62-6.12-2.95-15.91,4.81-26.74,21.29-31.63,3.2-.95,6.55-1.42,9.7-2.09Z"/><path class="cls-23" d="m253.96,231.35c-3.72,9.47-2.01,18.77.69,28.12.9,3.11,1.11,6.38-.13,9.59-.89,2.31-2.3,3.01-4.66,2.37-5.95-1.62-10.86-9.48-10-16.31,1.24-9.74,6.38-17.31,13.45-23.77.12-.11.43,0,.66,0h0Z"/><path class="cls-23" d="m253.97,231.35c0-.19,0-.37.01-.56l.38.07c-.13.16-.26.32-.4.48,0,0,0,0,0,0Z"/><path class="cls-10" d="m403.47,273.39c-1.74-.16-2.97-1.22-2.95-3.45.02-2.74,2.02-4.92,4.44-4.89,2.13.03,3.75,1.77,3.63,3.9-.13,2.19-2.58,4.49-5.13,4.43Z"/><path class="cls-10" d="m632.21,256.41c-1.9.07-3.62-1.57-3.72-3.53-.1-1.97,1.43-3.55,3.52-3.64,2.04-.08,3.96,1.67,3.95,3.61-.01,1.82-1.77,3.49-3.75,3.56Z"/><path class="cls-6" d="m208.73,582.46c8.45,15.16,16.9,30.32,25.34,45.48-.05.14-.1.28-.16.43-1.36-1.12-3.05-2.02-4.03-3.41-3.98-5.63-7.98-11.26-11.53-17.16-4.73-7.86-9.08-15.96-13.5-24-.83-1.51-1.79-2.13-3.46-1.86-12.81,2.08-25.63,4.08-38.43,6.22-5.37.9-10.69,2.12-16.04,3.09-1.66.3-2.53.84-1.9,2.68.19.56.11,1.22-.07,1.91-1.83-2.72-3.91-4.98-4.69-8.56-1.45-6.72-4.54-13.08-6.02-19.79-3.7-16.85-6.92-33.8-10.2-50.74-.41-2.11-1.16-2.52-3.07-2.09-12.94,2.91-25.89,5.78-38.84,8.64-2.3.51-4.62,1.03-6.96,1.25-.87.08-1.83-.67-2.75-1.03.69-.62,1.28-1.53,2.09-1.8,7.58-2.54,15.11-5.28,22.82-7.35,7.53-2.03,15.24-3.43,22.91-4.9,2.02-.39,2.79-1.05,2.68-3.13-.29-5.44-.59-10.89-.54-16.34.14-15.57,1.84-31,4.52-46.32.6-3.42.63-3.54-2.91-3.7-19.2-.84-38.32-.16-57.31,3.1-2.18.38-3.19,1.13-3.42,3.56-1.63,17.2-2.72,34.41-2.11,51.69.06,1.79,0,3.58,0,5.37-.28.07-.57.13-.85.2-.37-1.27-1.01-2.53-1.06-3.82-.38-9.52-.9-19.04-.86-28.57.04-7.71.81-15.41,1.24-23.12.06-1.07,0-2.14,0-3.51-.99.11-1.79.08-2.52.29-8.57,2.41-17.13,4.87-25.7,7.26-1.39.39-2.85.52-4.28.77-.12-.26-.23-.53-.35-.79.44-.47.8-1.11,1.34-1.38,3.82-1.87,7.57-3.99,11.56-5.4,5.99-2.11,12.15-3.77,18.27-5.5,1.6-.45,2.56-1.11,2.69-2.87,1.63-22.04,6.87-43.2,15.51-63.53.14-.32.17-.69.35-1.5-16.65-1.81-33.12.11-49.59,1.62-.05-.45-.11-.89-.16-1.34.94-.4,1.86-.87,2.83-1.18,8.62-2.82,17.56-3.87,26.56-4.3,6.89-.33,13.8-.38,20.71-.38,1.92,0,2.74-.84,3.37-2.44,5.29-13.3,11.99-25.89,19.33-38.14,2.42-4.04,5.3-7.81,8.11-11.61.54-.72,1.72-.97,2.6-1.44-.07,1.06.21,2.32-.26,3.16-5.6,10.09-11.49,20.02-16.91,30.2-3.2,6-5.71,12.37-8.52,18.58-.21.47-.29,1.01-.52,1.82,4.41.42,8.62.83,12.83,1.21,16.14,1.48,32.09,4.07,47.67,8.59,2.38.69,3.49.32,4.54-2.04,3.07-6.89,6.39-13.67,9.72-20.43.65-1.32,1.81-2.39,3.21-3.28-1.6,9.73-5.77,18.44-9.62,27.66,1.54.54,2.87.99,4.19,1.46,11.98,4.26,23.98,8.46,35.92,12.84,2.62.96,5.09,2.43,7.43,3.96,1.42.93,2.48,2.43,3.7,3.67-.18.27-.37.54-.55.81-.87-.26-1.78-.43-2.6-.8-15.24-6.79-31.09-11.76-47.12-16.26-2.36-.66-3.39-.18-4.14,2.16-4.76,14.98-9.7,29.9-14.42,44.88-1.27,4.03-.96,3.86,3.14,4.69,15.67,3.16,31.31,6.42,46.92,9.84,2.46.54,3.34.29,4.25-2.23,1.68-4.67,3.94-9.14,6.1-13.62.35-.72,1.47-1.06,2.24-1.57.15.98.63,2.05.39,2.92-1.33,4.72-2.79,9.4-4.29,14.07-.64,1.99-.05,2.9,1.95,3.58,6.02,2.03,12.04,4.12,17.93,6.52,2.84,1.16,5.36,3.1,8.03,4.68-.17.32-.33.65-.5.97-.88-.29-1.76-.58-2.65-.87-7.84-2.62-15.7-5.19-23.52-7.88-2.14-.74-2.84-.07-3.22,2.05-2.94,16.43-4.14,32.97-3.77,49.65.05,2.15.94,2.82,2.86,3.04,14.8,1.7,29.57,3.54,44.38,5.13,5.87.63,11.51,2.21,17.24,3.45,1.46.32,2.84,1.01,4.19,1.88-5.26,1.47-10.43-.44-16.19-.5,3.57,17.15,4.34,34.54,12.73,50.13-.26.12-.52.23-.78.35-.7-1.09-1.48-2.14-2.1-3.27-6.59-11.96-9.61-25.05-12.15-38.3-.48-2.49-.87-5.02-1.09-7.54-.14-1.59-.86-2.23-2.36-2.38-14.55-1.42-29.1-2.85-43.64-4.32-2.28-.23-2.54.8-2.27,2.74,2.53,18.19,7.52,35.72,14.22,52.79.5,1.27.92,2.57,1.46,3.82,2.78,6.46.81,5.23,8.53,5.96,10.84,1.02,21.66,2.29,32.48,3.47.54.06,1.17.09,1.57.39.6.45,1.03,1.13,1.54,1.72-.72.44-1.47,1.33-2.15,1.27-7.69-.67-15.35-1.64-23.04-2.19-4.57-.33-9.18-.06-13.77-.06-.25.3-.5.59-.76.89Zm-7.68-6.18c-.43-1.02-.86-2.1-1.34-3.16-8.57-18.89-14.74-38.47-16.94-59.18-.23-2.2-1.28-2.83-3.37-2.87-16.36-.27-32.67.13-48.93,2.19-2.11.27-2.82,1.1-2.51,3.19.58,3.95.98,7.92,1.51,11.88,2.66,19.56,6.72,38.81,12.81,57.62.71,2.19,1.63,2.83,3.94,2.18,7.87-2.2,15.72-4.52,23.71-6.21,10.19-2.16,20.5-3.74,31.11-5.63ZM63.86,438.44c1.5-.14,2.21-.15,2.9-.28,19.69-3.51,39.54-4.23,59.47-3.16,1.92.1,2.43-.66,2.94-2.28,5.07-15.92,10.18-31.83,15.45-47.69.8-2.4.35-3.15-1.98-3.7-19.23-4.55-38.69-7.48-58.4-8.91-2.07-.15-3.1.5-3.89,2.4-4.95,11.95-9.19,24.14-11.76,36.83-1.77,8.7-3.1,17.49-4.72,26.79Zm117.98,67.61c0-1.92,0-3.54,0-5.15.03-16.21,1.25-32.3,4.74-48.16.31-1.41.61-2.59-1.4-3.08-16.33-3.97-32.7-7.7-49.52-9.05-2.37-.19-3.16.63-3.55,2.85-3.57,20.54-5.82,41.17-4.87,62.06.11,2.45.99,2.76,3.17,2.55,8.49-.79,16.99-1.63,25.51-1.96,8.52-.33,17.07-.07,25.93-.07Z"/><path class="cls-6" d="m615.07,711.62c4.67.32,8.91.41,13.11.93,12.73,1.58,24.92,4.92,36.06,11.51,3.79,2.25,7.28,4.89,9.39,8.86.52.97.49,2.38.32,3.53-1.44,9.81-8.48,13.43-17.1,14.1-12.2.95-24.46,1.44-36.7,1.41-10.15-.02-20.3-1.03-30.44-1.7-9.98-.66-19.56-2.98-28.44-7.66-5.84-3.08-7.02-6.45-5.48-12.81.52-2.15.16-4.44,2.2-6.09,1.75-1.41,3.27-3.09,4.59-5.11-4.84.97-9.66,2.04-14.51,2.9-16.36,2.92-32.8,5.2-49.43,5.92-14.42.63-28.84,1.37-43.25,2.17-11.12.62-22.22,1.4-33.45,2.12,1.39,1.03,2.92,2.06,4.34,3.23,6.28,5.22,7,10.8,1.79,17.1-1.53,1.85-3.93,3.24-6.21,4.15-7.56,3.02-15.66,2.74-23.61,3.35-17.74,1.36-35.36-.99-53.03-1.82-9.02-.42-17.73-2.96-25.83-7.07-6.53-3.31-7.19-6.25-6.28-13.47.53-4.19,2.9-6.36,5.34-8.89,1.32-1.37,2.76-2.63,4.18-3.91,1.34-1.2,2.73-2.35,4.35-3.74-1.98-.68-3.79-1.12-5.44-1.9-8.93-4.24-17.27-9.6-24.01-16.73-7.76-8.21-14.71-17.21-21.75-26.07-6.22-7.81-11.93-15.99-15.18-25.61-11.65,3.16-22.86,1.5-34.06-.44-19.99-3.47-39.09-10.01-57.39-18.46-22.27-10.28-42.51-24.01-61.35-39.7-11.44-9.53-23.15-18.86-33.63-29.38-22.1-22.21-40.21-47.56-54.62-75.38-9.41-18.18-14.97-37.79-18-58-3.28-21.87-1.15-43.56,4.95-64.67,5.37-18.55,14.68-35.14,28.64-48.82,11.44-11.22,25.11-17.81,40.93-20.58,15.99-2.8,31.63-1.09,47.31,1.97,26.59,5.19,48.36,18.56,66.35,38.54,13.91,15.44,22.43,33.71,27.05,53.65,4.53,19.53,7.77,39.35,11.7,59.01,1.48,7.38,3.24,14.71,4.99,22.03,2.71,11.35,9.26,20.56,16.46,29.45,3.94,4.86,8.03,9.38,13.97,11.8.65.26,1.31.5,2.26.87,1.15-3.97,2.23-7.78,3.35-11.58,5.26-17.75,11.28-35.31,15.63-53.28,9.44-38.97,18.04-78.15,26.94-117.25,1.33-5.84,2.36-11.74,3.61-17.59,2.19-10.26,4.16-20.58,6.75-30.74,4.11-16.06,8.63-32.02,13.03-48,2.69-9.79,5.47-19.55,8.22-29.32.15-.52.26-1.06.43-1.57.9-2.63.49-4.51-1.65-6.81-12.38-13.29-15.99-29.13-12.36-46.71,1.27-6.15,3.39-11.96,7.05-17.27,7.73-11.23,19.31-10.38,27.62-5.67,5.59,3.17,10.4,7.29,13.8,12.88,1.03,1.7,2.19,3.31,3.43,5.18,2.69-1.58,5.39-2.91,7.8-4.63,13.59-9.69,29.22-14.14,45.26-17.04,27.43-4.95,55.14-6.7,83-5.54,20.98.87,41.46,4.86,61.46,11.14,8.37,2.63,16.65,5.71,24.66,9.29,4.22,1.89,7.77,5.29,11.8,8.13,1.47-2.29,2.93-4.67,4.48-6.98,3.7-5.49,8.64-8.93,15.45-9.36,3.6-.23,6.57.72,8.89,3.65,4.33,5.48,6.92,11.66,7.88,18.56,1.1,7.85.58,15.59-1.79,23.16-2.24,7.15-6.23,12.87-13.43,15.87-1.25.52-2.44,1.16-3.93,1.87,2.35,6.88,4.32,13.88,7.09,20.54,6.36,15.31,9.26,31.47,12.25,47.61,4.29,23.2,8.95,46.34,12.6,69.64,2.33,14.85,3.14,29.94,4.64,44.93.05.51.19,1.02.36,1.94,2.12-.75,4.14-1.25,5.97-2.14,10.09-4.9,17.7-12.4,23.44-22.04,4.74-7.97,7.54-16.63,10.54-25.31,2.12-6.14,4.9-12.11,7.99-17.83,3.85-7.11,10.09-10.93,18.34-11.15,3.29-.08,9.24,4.54,10.22,7.93,2.34,8.06,1.48,16.12.49,24.29-1.4,11.55-4.34,22.55-9.24,33.13-7.94,17.16-17.39,33.27-30.43,47.12-5.97,6.34-11.4,13.2-17.61,19.28-5.04,4.93-10.83,9.09-16.39,13.46-1.51,1.19-2.1,2.4-2.13,4.32-.3,22.16-.32,44.33-1.15,66.47-.84,22.31-2.8,44.55-6.28,66.64-1.38,8.78-2.52,17.6-3.69,26.41-.09.65.32,1.54.79,2.06,13.17,14.42,15.59,36.11,5.34,54.46-7.72,13.81-17.46,25.32-30.93,33.68-6.85,4.25-13.5,8.85-20.68,13.58Zm-186.8,33.12c-2.79-6.09-8.05-8.93-13.46-11.65-8.35-4.21-17.18-7.04-26.4-8.22-6.6-.84-13.31-.71-19.97-1.17-.77-.05-2.12-1.21-2.07-1.73.17-1.53.56-3.3,1.51-4.42,2.57-3.04,5.41-5.88,8.27-8.66,11.43-11.09,21.96-22.93,31.54-35.68,8.36-11.13,11.4-23.29,9.27-36.9-2.31-14.77-8.1-27.69-20.25-37.03-4.96-3.81-10.27-7.16-15.39-10.77-1.02-.72-2.17-1.54-2.7-2.59-.37-.73-.1-2.36.49-2.82.57-.45,2.11-.24,2.87.25,1.95,1.25,3.6,2.97,5.55,4.22,7.82,5.02,15.46,10.25,21.33,17.61,8.08,10.15,11.79,22.01,12.95,34.71.83,9.07.1,18.13-4.55,26.19-9.94,17.21-23.14,31.8-37.6,45.31-2.6,2.43-5.14,4.91-7.71,7.37,1.71.68,3.04.81,4.38.81,9.9,0,19.51,1.88,28.88,4.88,4.48,1.43,8.73,3,13.63,2.49,4.03-.42,8.17.37,12.23.12,14.22-.86,28.42-2.29,42.65-2.84,20.88-.8,41.74-1.63,62.36-5.23,9.81-1.71,19.65-3.61,29.21-6.34,6.91-1.97,13.39-5.45,20.07-8.24,1.41-.59,2.98-1.01,3.77.75.79,1.77-.51,2.61-1.95,3.26-2.99,1.33-5.98,2.63-8.92,4.06-1.78.87-3.67,1.71-5.14,2.99-2.09,1.82-3.91,3.97-5.71,6.09-2.23,2.62-4.59,5.18-6.43,8.06-2.72,4.26-2.09,6.94,2.47,9.03,4.84,2.21,9.88,4.27,15.05,5.42,14.97,3.34,30.34,2.77,45.53,3.69,9.92.6,19.99-.13,29.91-1.06,6.13-.58,13.03-.97,15.79-8.44.16-.42.78-.67,1.77-1.47-2.42-2.52-4.26-5.48-6.93-7.02-5.78-3.35-11.76-6.63-18.06-8.74-11.46-3.84-23.3-6.11-35.56-4.92-.63.06-1.74-.91-1.98-1.62-.62-1.88,1.02-5.28,2.7-6.35,6.6-4.17,13.1-8.5,19.78-12.53,14.24-8.59,24.84-20.36,32.26-35.26,6.39-12.83,7.11-25.66.62-38.43-2.43-4.78-6.23-8.87-9.45-13.25-2.42-3.3-2.03-4.54,2.04-5.64.39-3.35.79-6.77,1.2-10.19,2.29-19.09,5.16-38.13,6.7-57.28,1.5-18.63,2.14-37.36,2.26-56.05.26-37.86,1.06-75.76-2.09-113.56-1.13-13.55-2.66-27.09-4.7-40.53-2.39-15.69-5.82-31.22-8.29-46.89-4.1-25.98-10.14-51.43-19.52-76.04-1.06-2.79-1.82-5.71-2.96-8.47-1.23-2.99-.63-4.47,2.45-5.53,6.42-2.22,11.98-5.63,13.97-12.59,1.39-4.85,2.64-9.84,3.01-14.84.68-9.02-1.47-17.47-7.05-24.86-1.38-1.83-3.01-2.66-5.32-2.63-5.38.07-9.35,2.64-12.38,6.81-1.76,2.42-3.21,5.06-4.9,7.53-1.66,2.43-3.36,2.81-5.81,1.35-1.78-1.06-3.56-2.15-5.26-3.34-6.35-4.46-13.12-8.04-20.53-10.47-27.8-9.12-56.22-14.49-85.58-14.21-21.73.21-43.37,1.85-64.77,5.64-16.34,2.89-32.2,7.41-46.04,17.23-3.23,2.29-6.83,4.04-10.21,6.01-2.13-3.37-4.04-6.53-6.09-9.6-3.86-5.76-9.14-9.85-15.56-12.32-6.05-2.33-13.08-1.82-18.26,4.91-3.37,4.37-5.41,9.22-6.78,14.43-4.39,16.7-1.48,31.88,9.94,45.05,1.57,1.81,4.06,2.81,6.12,4.2.81.54,1.6,1.1,2.41,1.65-.77.75-1.51,2.08-2.32,2.12-1.72.1-2.12,1.09-2.47,2.33-1.41,5.07-2.85,10.13-4.17,15.22-3.76,14.48-7.41,28.99-11.22,43.46-4.34,16.47-10.09,32.54-13.06,49.41-2.81,15.99-6.05,31.91-9.59,47.76-6.85,30.74-13.59,61.51-21.24,92.05-4.94,19.7-11.46,39-17.17,58.51-.58,1.98-.47,4.16-.74,6.25-.07.51-.3,1.01-.55,1.48-.73,1.39-1.76,2.67-2.22,4.14-2.85,9.07-5.67,18.16-8.32,27.29-5.58,19.23-8.5,38.74-6.97,58.88,1.61,21.14,9.5,39.98,20.45,57.64,6.51,10.5,14.75,19.78,23.37,28.68,2.5,2.58,4.11,6.11,6.82,8.38,4.22,3.54,8.83,6.75,13.65,9.42,4.07,2.25,8.75,3.38,12.99,5.35,1.42.66,2.79,2.21,3.36,3.68.57,1.46-.92,2.08-2.38,2.13-.26,0-.54.36-.76.6-1.65,1.78-3.36,3.51-4.93,5.36-2.51,2.97-5.23,5.82-7.31,9.07-2.48,3.86-1.79,6.58,2.34,8.45,5.01,2.27,10.21,4.42,15.55,5.63,14.69,3.33,29.79,2.73,44.71,3.66,10.19.64,20.53-.13,30.73-1.06,6.15-.56,13-1.1,15.74-8.55.14-.37.62-.61,1.06-1.02Zm-169.4-98.44c-1.52-3.46-2.92-6.48-4.17-9.57-4.6-11.35-6.11-23.32-6.59-35.42-.78-20.01,2.82-39.39,8.75-58.41,2.51-8.05,5.12-16.06,7.67-24.09.37-1.18,1.05-2.41-.83-3.1-7.43-2.73-12.75-8.03-17.63-14.08-7.18-8.9-13.78-18.06-16.57-29.39-1.52-6.17-3.21-12.3-4.44-18.53-4.09-20.64-7.76-41.38-12.09-61.97-3.61-17.17-10.68-33.09-21.22-47.06-12.76-16.9-29.17-29.61-48.92-37.53-17.06-6.84-34.96-9.71-53.29-9.25-11.23.29-22.21,2.44-32.44,7.35-15.56,7.47-26.68,19.76-35.12,34.35-8.28,14.31-13.76,29.71-15.63,46.37-1.39,12.4-2.81,24.76-1.3,37.18,2.42,19.96,7.73,39.27,16.28,57.41,8.13,17.25,18.56,33.22,30.11,48.49,9.07,11.99,18.57,23.58,29.44,33.88,15.96,15.13,33.09,28.92,51.06,41.64,13.3,9.41,27.23,17.86,42.16,24.3,20.97,9.04,42.61,16.18,65.52,18.54,6.22.64,12.48.56,19.23-1.11Zm412.78-206.23c.24.15.49.29.73.44,4.4-3.6,9.2-6.81,13.11-10.89,8.15-8.51,15.95-17.36,23.64-26.29,4.31-5.01,8.66-10.13,12.05-15.77,7.05-11.74,13.8-23.79,17.87-36.89,2.64-8.49,3.43-17.56,5.08-26.36.96-5.11.52-10.12-.96-15.06-1-3.33-5.68-7.07-8.12-6.53-5.67,1.24-10.44,4.01-13.1,9.28-2.85,5.65-5.72,11.37-7.7,17.36-3,9.07-6.03,18.04-11.08,26.23-7.18,11.67-16.69,20.48-29.96,24.67-2.02.64-2.68,1.38-2.62,3.49.43,14.24.75,28.49,1.05,42.74.1,4.52.01,9.05.01,13.58Z"/><path class="cls-6" d="m546.34,286.48c11.7,1.96,21.69,8.01,31.96,13.23,4.95,2.52,9.36,6.1,14.92,7.45,10.58,2.56,18.3-.95,23.14-10.73,2.89-5.84,3.43-12.19,3.29-18.58-.05-2.29-1.19-4.05-3.04-5.75-2.47-2.27-4.41-5.18-6.23-8.04-.47-.73.02-2.95.74-3.38,1.52-.92,2.23.59,2.92,1.87,3.41,6.33,8.21,10.51,15.95,10.11,1.54-.08,3.96-.86,3.95,1.87-.02,2.47-2.31,2.48-4.11,2.5-1.98.02-3.96-.25-5.92-.39-.44,4.45-.51,8.92-1.42,13.21-.78,3.66-2.07,7.4-3.95,10.62-6.24,10.66-16.23,13.52-27.39,9.85-4.6-1.51-8.84-4.1-13.24-6.22-1.8-.87-3.56-1.81-5.35-2.68-3.9-1.88-7.82-3.73-12.09-5.77-.56,6-1.1,11.58-1.6,17.16-.81,9.04-1.49,18.09-2.43,27.11-.64,6.2-4.21,9.24-11.69,10.13-4.68.56-9.18.03-13.34-2.63-1.98-1.27-2.85-2.76-3.17-4.98-2.02-14.09-4.13-28.17-6.22-42.26-.05-.35-.23-.68-.42-1.22-.43.14-.85.21-1.2.4-6.42,3.5-12.85,6.96-19.23,10.52-12.59,7.03-25.63,9.03-39.15,3.08-9.37-4.12-15.66-11.57-20.44-20.4-.9-1.66-1.82-3.32-2.73-4.99-2.08.98-3.95,2.15-5.99,2.71-1,.28-2.91-.23-3.37-1-.97-1.63.59-2.26,1.96-2.74,6.95-2.42,10.42-7.77,12.28-14.53.45-1.65.57-4.27,3.1-3.54,2.59.75,1.56,3.2.88,4.85-1.45,3.49-3.24,6.85-4.84,10.28-.27.58-.66,1.42-.44,1.88,5.39,11.36,12.3,21.34,25.04,25.36,10.92,3.44,21.37,1.7,31.23-3.79,5.07-2.82,9.96-5.94,14.92-8.95,8.84-5.36,18.32-9.13,28.7-11.68,0-2.09.25-4.29-.09-6.39-.22-1.39-.96-3.07-2.03-3.89-6.51-5.03-13.01-10.12-19.89-14.61-3.33-2.18-7.47-3.12-11.26-4.58-1.6-.62-3.46-.85-4.8-1.82-1.41-1.01-3.32-2.72-3.27-4.06.07-1.74,1.78-3.47,2.95-5.09.37-.51,1.24-.72,1.93-.94,12.82-4.17,25.97-6.13,39.44-5.2,5.59.39,11.18,1.16,16.68,2.24,5.95,1.17,7.81,4.33,6.2,10.7-1.8,7.13-6.47,12.75-11.73,17.7-2.78,2.62-6.13,4.65-9.19,6.99-.43.33-.88.95-.89,1.45-.09,2.51-.04,5.03-.04,7.54Zm-4.11,4.21c-5.06,1.84-9.61,3.58-14.23,5.13-1.79.6-2.06,1.57-1.8,3.25,2.22,14.26,4.36,28.52,6.56,42.78.11.73.41,1.69.95,2.04,2.53,1.66,5.26,2.77,8.52,2.06v-55.26Zm4.67,54.27c4.71-1.16,4.98-1.66,5.31-6.15.53-7.23,1.26-14.45,1.9-21.68.63-7.13,1.31-14.27,1.84-21.41.06-.87-.46-2.33-1.09-2.6-2.45-1.03-5.05-1.69-7.95-2.6v54.44Z"/><path class="cls-6" d="m357.92,392.21c-2.24,3.82-4.47,7.74-6.8,11.59-11.99,19.75-23.56,39.66-28.64,62.58-3.47,15.66-3.48,31.11,1.74,46.45,2.7,7.95,7.59,14.22,13.95,19.42,5.82,4.76,13.91,4.78,19.34.43,2.99-2.4,4.48-5.6,4.36-9.27-.19-5.79-.78-11.57-1.27-17.35-1.17-13.71-1.16-27.33,5.39-39.91,2.48-4.77,6.04-8.98,9.17-13.41.89-1.26,2.21-2.29,3.67-1.06,1.6,1.34.69,2.87-.46,4-7.6,7.45-11.57,16.91-13.07,27.02-1.17,7.88-.41,16.08-.2,24.13.13,4.8.91,9.57,1.31,14.36.94,11.29-9.05,21.55-21.5,18.61-4.27-1.01-7.93-2.73-11.3-5.59-11.61-9.89-15.99-23.2-17.4-37.59-2.59-26.45,5.84-50.32,18.53-72.96,5.9-10.52,12.19-20.83,18.31-31.23,1.29-2.2,2.3-2.32,4.9-.23Z"/><path class="cls-6" d="m439.28,250.96c-5.1.02-10.08-.1-14.59-3.2-8.79-6.03-10.17-16.72-3.65-25.33,9.97-13.17,25.99-15.27,39.66-11.38,6.96,1.98,10.46,6.34,11.3,13.28.51,4.2-1.05,7.81-3,11.35-4.56,8.28-17.78,16.64-29.72,15.28Zm-1.05-3.58c.08-.25.15-.5.23-.75,8.73.35,14.7-1.57,21.42-7.04,3.68-3,6.29-6.77,7.5-11.4,1.39-5.35-1.41-10.53-6.6-12.32-4.94-1.71-9.92-2.22-15.22-2.03-9.49.33-16.35,4.66-21.67,12.07-4.49,6.25-3.21,14.27,3.44,18.06,3.23,1.85,7.24,2.32,10.9,3.42Z"/><path class="cls-6" d="m619.4,230.74c1.03,7.43-10.85,18.76-19.71,16.39-6.55-1.75-13.49-10.78-12.38-18.09.58-3.85,2.03-7.7,3.78-11.19,2.16-4.32,6.11-5.91,10.78-4.63,4.69,1.28,9.34,2.78,12.95,6.48,3.02,3.1,4.64,6.63,4.58,11.05Zm-28.64-1.02l.7.27c-.07,4.6,3.83,10.58,8.04,12.34,4.09,1.7,9.36-.39,13.18-5.23,2.89-3.66,3.08-8.5.59-12.45-2.94-4.65-7.39-6.81-12.58-7.69-2.53-.43-4.83.38-5.95,2.82-1.49,3.24-2.66,6.62-3.97,9.95Z"/><path class="cls-6" d="m432.84,178.96c8.29-5.47,15.51-12.31,25.55-14.42,6.5-1.36,12.46-.49,17.89,3.31.78.55,1.1,1.76,1.63,2.67-1.13.12-2.52.73-3.33.29-3.65-1.99-7.41-4.06-11.58-3.13-4.54,1.01-9.11,2.45-13.25,4.53-4.18,2.1-7.83,5.24-11.74,7.89-2.5,1.7-3.76,1.48-5.16-1.14Z"/><path class="cls-6" d="m586.58,167.65c7.45,1.4,14,4.01,19.13,9.4.69.73,1.03,2.87.51,3.48-1.27,1.46-2.31-.05-3.26-1.01-4.37-4.38-9.79-6.79-15.74-8.02-1.29-.27-2.78.62-4.2.69-.94.05-1.91-.39-2.87-.61.54-.91.87-2.25,1.66-2.64,1.49-.73,3.25-.92,4.76-1.3Z"/><path class="cls-6" d="m429.41,226.29c.8,2.6,1.99,4.16,4.48,3.44,2.31-.67,3.28-2.53,3.28-4.8,0-2.63-2.13-2.77-4.43-3.21,3.13-3.23,6.92-3.34,10.64-2.98,8.6.83,12.36,8.6,7.82,15.92-2.83,4.56-6.76,7.6-12.3,7.95-4.18.27-8.13-.48-10.46-4.4-2.33-3.91-1.56-7.82.97-11.92Z"/><path class="cls-6" d="m597.04,219.97c2.55-1.79,8.68.8,9.61,4.84.94,4.06.56,8.14-1.81,11.75-2.81,4.29-6.87,4.34-9.88.17-2.33-3.23-2.56-6.85-1.84-10.09,1.6.38,3.27,1.19,4.76.95.79-.13,1.94-2.23,1.75-3.21-.29-1.51-1.6-2.82-2.6-4.41Z"/><path class="cls-28" d="m798.97,263.62c-5.88,3.53-12.49,4.82-19.1,5.83-10.74,1.64-21.53,2.91-32.3,4.34-.78-.55-1.17-1.37-1.56-2.2-6.08-12.99-12.37-25.89-18.44-38.89-3.89-8.31-7.99-16.51-11.79-24.86-.44-.96-1.22-1.86-.77-3.05,8.08-1.99,16.31-2.52,24.55-2.01,9.44.59,18.8.47,28.07-1.61,1.28.43,1.66,1.62,2.18,2.65,9.48,18.91,18.93,37.82,28.38,56.75.47.94,1.23,1.85.79,3.05Z"/><path class="cls-8" d="m715,204.78c10.52,22.07,21.04,44.13,31.55,66.21.42.89.68,1.86,1.02,2.79-12.89,2.63-24.6,7.47-33.49,17.91-4.04-7.49-8.04-14.89-12.03-22.3-6.19-11.5-12.34-23.03-18.59-34.5-1.12-2.05-1.41-3.63.33-5.59,7.99-8.95,15.92-17.94,27.15-23.04,1.31-.59,2.7-.99,4.06-1.48Z"/><path class="cls-3" d="m798.97,263.62c-10.45-20.81-20.9-41.63-31.34-62.44,14.56-7.23,16.99-9.32,30.64-26.34,3.67,8.77,7.32,17.46,10.95,26.14,5.28,12.64,10.54,25.28,15.82,37.93.56,1.35,1.09,2.52-.15,3.98-6.86,8.14-14.78,14.97-24.17,20.05-.55.3-1.16.46-1.75.69Z"/><path class="cls-7" d="m743.66,373.12s-.1-.07-.16-.11c-.51-.35-1.37-.95-1.89-1.92-7.02-12.99-14.01-25.99-21-38.99-4.36-8.1-8.71-16.2-13.08-24.3-9.74-18.08-19.49-36.14-29.25-54.21l-8.51-15.75c-1.1-2.03-1.06-4.4.09-6.33,1.12-1.87,3.11-2.99,5.33-2.99.09,0,.17,0,.26,0,1.55.06,3.37,1.23,4.14,2.66,21.67,40.27,43.64,81.25,64.88,120.88,2.59,4.83,4.7,8.82,6.65,12.57.9,1.73.79,3.85-.3,5.66-1.23,2.05-3.42,3.29-5.84,3.31h-.77s-.55-.49-.55-.49Z"/><path class="cls-6" d="m675.19,230.51c.06,0,.12,0,.19,0,.86.03,2.04.83,2.46,1.61,21.68,40.28,43.29,80.6,64.9,120.91,2.23,4.16,4.44,8.33,6.62,12.52,1.29,2.49-.89,6.02-4.39,6.06-.29-.25-1.2-.72-1.6-1.47-11.39-21.08-22.71-42.19-34.08-63.29-12.57-23.33-25.17-46.65-37.76-69.97-1.57-2.92.36-6.38,3.66-6.38m0-4h0c-2.93,0-5.56,1.48-7.05,3.97-1.52,2.54-1.57,5.65-.13,8.31l8.22,15.23c9.85,18.24,19.7,36.48,29.53,54.73,4.34,8.06,8.67,16.12,13.01,24.18,6.9,12.82,14.03,26.09,21.07,39.12.75,1.39,1.94,2.22,2.51,2.61l.06.04,1.04.93h1.54c3.12-.04,5.94-1.65,7.54-4.3,1.45-2.42,1.59-5.26.37-7.62-1.95-3.75-4.06-7.74-6.64-12.56l-.3-.55c-21.15-39.46-43.03-80.27-64.61-120.37-1.11-2.06-3.56-3.62-5.82-3.71-.12,0-.23,0-.34,0h0Z"/><path class="cls-9" d="m751.97,236.4c0-4.74,1.4-7.22,3.88-8.1,2.89-1.03,5.03.23,6.92,2.37,2.31,2.6,4.14,5.26,3.07,9.01-1.24,4.32-5.4,6.03-9.19,3.56-2.97-1.94-4.64-4.75-4.68-6.83Z"/><path class="cls-31" d="m824.3,238.64c-5.28-12.64-10.54-25.29-15.82-37.92-3.63-8.69-7.27-17.37-10.95-26.14-13.65,17.02-16.08,19.1-30.64,26.34,0,0,0,0,0,0-9.27,2.08-18.62,2.19-28.07,1.61-8.25-.51-16.48.02-24.55,2.01-1.35.49-2.75.89-4.06,1.48-11.23,5.11-19.16,14.09-27.15,23.04-1.75,1.96-1.45,3.54-.33,5.59,6.25,11.47,12.4,23,18.59,34.5,3.99,7.41,7.99,14.81,12.03,22.3,8.89-10.45,20.6-15.28,33.49-17.91,0,0,0,0,0,0,10.77-1.43,21.56-2.7,32.3-4.34,6.61-1.01,13.22-2.3,19.1-5.83.58-.23,1.2-.4,1.75-.69,9.39-5.08,17.3-11.91,24.17-20.05,1.23-1.46.71-2.62.15-3.98Z"/><path class="cls-6" d="m247.36,192.95c-3.81,9.4-7.38,18.51-11.19,27.53-5.54,13.12-11.67,26.02-16.77,39.31-4.55,11.84-7.86,24.16-12.07,36.14-2.68,7.61-6,14.99-9.07,22.56,6.01-2.83,11.98-5.51,17.84-8.42,16.73-8.3,34.27-10.07,52.23-5.69,11.27,2.75,20.59,9.19,26.93,19.06,4.94,7.7,9.18,15.85,13.7,23.82.44.78,1,1.71.92,2.52-.11,1.09-.79,2.13-1.23,3.19-.99-.58-2.32-.93-2.91-1.79-.96-1.39-1.26-3.22-2.14-4.68-4.47-7.48-8.43-15.37-13.71-22.23-7.21-9.36-17.09-14.81-29.07-16.47-15.85-2.19-30.71.48-44.84,7.81-1.29.67-2.6,1.31-3.97,1.8-6.92,2.48-12.86,6.45-17.41,12.18-2.35,2.96-5.58,1.65-8.33,2.49-.31.09-1.49-1.44-1.64-2.32-.31-1.87-.09-3.81-.27-5.71-.84-8.84-1.17-17.79-2.8-26.49-1.57-8.43-3.69-16.95-6.99-24.84-8.45-20.22-23.2-34.01-44.64-39.78-9.23-2.48-18.79-1.6-28.21-1.16-8.24.38-16.45,1.28-24.68,1.88-1.05.08-2.26-.01-3.17-.48-.87-.44-1.89-1.41-1.99-2.26-.1-.78.85-1.77,1.49-2.53.81-.95,1.92-1.66,2.65-2.66,6.8-9.27,11.38-19.68,14.39-30.66,3-10.91,5.62-21.98,7.51-33.12,4.65-27.34.14-53.5-11.79-78.38-1.71-3.57-4.83-6.51-7.49-9.57-1.06-1.23-2.49-2.37-1.33-3.87.56-.73,2.38-.91,3.52-.72,6.86,1.18,12.67,4.55,18.21,8.67,3.46,2.57,7.31,4.65,11.08,6.77,3.47,1.96,7.25,3.42,10.58,5.57,8.76,5.64,18.59,8.63,28.33,11.77,12.08,3.9,24.04,8.4,36.83,9.51,6.93.6,13.86,1.82,20.86.08,1.03-.26,2.91.94,3.65,1.99,1,1.42,1.48,3.31,1.85,5.07,3.59,17.21,10.45,32.92,20.64,47.32,4.15,5.87,8.86,10.83,14.48,15.31,10.6,8.45,22.46,14.26,35.05,18.91,7.18,2.65,7.62,3.45,5.79,10.89-5.11,20.84-2.64,41.3,2.91,61.6,1.82,6.64,3.98,13.2,6.31,19.69,2.9,8.1,6.92,15.63,13.01,21.83,3.63,3.69,4.31,8.52,5.55,13.14.2.73-.38,2.22-.97,2.47-.79.33-2.29.16-2.9-.42-6.14-5.87-11.56-12.28-15.02-20.18-1.6-3.65-3.39-7.24-5.34-10.71-8.03-14.3-11.63-29.81-13.02-46-1.08-12.55-.22-25,.95-37.5.64-6.85,1.34-5.92-5.22-8.4-8.79-3.33-17.2-7.31-24.95-12.63-.51-.35-1.08-.62-2.12-1.22Zm-163.78,31.13c.32-.11,1.17-.36,1.98-.71,8.19-3.47,16.32-7.07,24.56-10.42,29.46-11.96,58.63-24.49,85.54-41.67,7.02-4.48,13.96-9.09,20.99-13.68-.54-1.24-.92-2.05-1.25-2.87-3.34-8.14-7.21-16.12-9.79-24.49-1.47-4.77-3.12-7.45-8.33-6.72-.26.04-.54-.08-.8-.13-20.59-4.22-40.6-10.57-60.07-18.29-14.06-5.58-27.51-12.69-41.23-19.12-.78-.37-1.57-.72-2.75-1.26,20.46,48.31,12.95,94.28-8.84,139.36Zm11.35,2.75c3.3,0,6.08.12,8.84-.02,9.73-.51,19.49-.88,28.98,1.71,18.81,5.12,32.45,17.26,42.27,33.51,7.32,12.11,9.97,26.03,12.19,39.87.92,5.74,1.01,11.62,1.52,17.88.45-1.1.78-1.81,1.04-2.55,5.04-14.46,9.6-29.11,15.24-43.33,6.73-16.94,14.35-33.52,21.66-50.22,4.36-9.96,8.86-19.86,13.28-29.8.37-.82.59-1.71.85-2.58.53-1.74.03-2.96-1.35-4.29-3.05-2.96-5.92-6.14-8.66-9.4-3.49-4.15-6.77-8.46-10.22-12.78-2.09,1.83-3.99,3.65-6.06,5.25-2.15,1.66-4.39,3.24-6.73,4.61-32.08,18.87-65.58,34.76-100.5,47.64-3.97,1.46-7.94,2.9-12.36,4.51Z"/><path class="cls-6" d="m374.13,136.21c2.66-.68,5.17-1.35,7.69-1.97,6.35-1.57,12.69-3.16,19.05-4.68,1.57-.37,2.14-1.1,2.25-2.78.89-13.44-2.74-26.09-6.69-38.67-.33-1.06-1.51-2.05-2.54-2.65-14.69-8.63-27.95-19.27-41.27-29.77-7.46-5.88-14.08-12.83-20.99-19.38-5.67-5.37-11.22-10.86-16.83-16.29-.37-.36-.78-.67-1.57-1.35,0,8.75.45,17-.1,25.18-.85,12.53-3.12,24.82-8.01,36.55-8.69,20.85-19.74,40.24-34.97,57.04-3.21,3.55-6.89,6.67-10.97,10.58,25.07-1.79,49.57-3.55,74.34-5.32-.47,2.35-.77,4.76-1.52,7.02-.21.62-1.75,1.08-2.71,1.13-18.58,1.09-37.17,2.12-55.76,3.15-.87.05-1.73.09-2.68.6,2.3.72,4.62,1.36,6.89,2.17,7.5,2.7,15.13,5.13,22.44,8.27,10.02,4.31,17.31,12.17,22.99,21.08,7.32,11.49,12.62,23.98,12.55,38.04-.06,11.37-.28,22.8-3.2,33.82-2.18,8.22-5.54,16.13-8.45,24.16-.17.47-.98.71-1.49,1.05-.29-.94-1.01-2-.79-2.8,3.28-12.01,7.43-23.86,8.08-36.4.48-9.31,1.54-18.9-.03-27.95-3.24-18.7-12.24-34.52-28.77-44.98-9-5.7-19.37-8.15-29.5-11.02-6.89-1.95-13.89-3.5-20.81-5.3-1.02-.27-2.14-.76-2.82-1.51-.65-.71-1.17-1.94-1.04-2.83.11-.69,1.26-1.31,2.06-1.78,1.23-.72,2.68-1.11,3.83-1.93,8.79-6.19,15.77-14.17,22.21-22.67,7.14-9.43,13.17-19.55,18.67-30.02,12.64-24.02,17.26-49.57,14.36-76.43-.5-4.64-2.89-9.07-4.23-13.64-.36-1.22-.09-2.63-.12-3.95,1.22.14,2.63-.08,3.63.47,6.2,3.38,10.67,8.52,14.6,14.3,2.32,3.42,5.18,6.49,7.95,9.58,2.66,2.96,5.78,5.55,8.27,8.64,6.05,7.53,13.53,13.4,21.28,18.97,6.98,5.02,15.9,11.23,26.94,18.96.8.56,1.73.91,3.16,1.65-2.51-4.41-4.81-8.24-6.89-12.17-1.22-2.31-3.59-4.8-1.24-7.45,2.45-2.75,6.09-2.85,9.11-1.45,5.57,2.58,11.27,5.22,16.14,8.88,7.91,5.94,13.42,14.2,18.96,22.31,1.79,2.62,3.67,5.2,5.25,7.94,2.84,4.94,5.67,9.9,8.17,15.01,2.19,4.47,3.94,9.16,5.88,13.76.18.42.53.9.45,1.26-.26,1.12-.7,2.2-1.07,3.3-1.08-.43-2.7-.56-3.14-1.35-1.71-3.08-3.24-6.3-4.48-9.61-3.01-8.02-6.52-15.7-11.93-22.5-5.13-6.45-9.65-13.38-14.62-19.96-5.33-7.05-12.83-11.1-20.82-14.36-.92-.37-2.01-.31-3.68-.54,1.75,3.21,2.91,5.99,4.63,8.38,7.76,10.78,11.45,23.18,14.7,35.79,2.69,10.41,3.51,20.91,2.18,31.58-.22,1.75-.73,3.14-2.66,3.67-.56.15-.98.77-1.49,1.15-3.36,2.53-6.83,4.72-11.18,5.3-3.68.5-7.3,1.48-10.97,2.09-.82.14-2.16-.09-2.56-.65-1.47-2.04-2.64-4.29-4.09-6.74Z"/><path class="cls-6" d="m593.18,49.74c-.28,3.75-.81,6.81-.69,9.84.65,16.04-4.3,30.81-10.13,45.37-2.92,7.29-7.04,13.91-12.18,19.88-.24.28-.43.72-.72.79-1.19.28-2.74,1.01-3.55.54-1.55-.9-.63-2.32.21-3.49,2.34-3.23,4.94-6.31,6.89-9.76,2.44-4.33,4.59-8.86,6.42-13.48,5.82-14.67,8.81-29.91,8.51-45.74-.03-1.8.22-3.63.54-5.42.45-2.56,2.26-4.03,4.69-3.22,2.31.78,4.92,1.96,6.34,3.79,5.64,7.24,10.01,15.29,10.81,24.59,1.01,11.74,1.57,23.53,2.02,35.3.13,3.49-.7,7.03-1.18,10.53-.95,6.9-1.91,13.81-3.04,20.69-.15.91-1.26,1.66-1.93,2.48-.8-.83-2.25-1.63-2.3-2.5-.2-3.31-.19-6.68.19-9.97.42-3.6,1.6-7.11,1.97-10.7.57-5.57,1.12-11.18.98-16.76-.25-9.69-.73-19.4-1.68-29.05-.8-8.15-4.89-15.12-9.64-21.64-.48-.66-1.3-1.08-2.53-2.08Z"/></g></svg>