<?xml version="1.0" encoding="utf-8"?>
<!-- Generator: Adobe Illustrator 24.0.1, SVG Export Plug-In . SVG Version: 6.00 Build 0)  -->
<svg version="1.1" id="Layer_1" xmlns="http://www.w3.org/2000/svg" xmlns:xlink="http://www.w3.org/1999/xlink" x="0px" y="0px"
	 viewBox="0 0 595.3 841.9" style="enable-background:new 0 0 595.3 841.9;" xml:space="preserve">
<style type="text/css">
	.st0{fill:#FFFFFF;}
	.st1{fill:#7554A2;}
	.st2{fill:#734EA0;}
</style>
<g>
	<path class="st0" d="M0.4,237.3c198.2,0,396.3,0,594.5,0c0,140.4,0,280.8,0,421.2c-198.2,0-396.3,0-594.5,0
		C0.4,518.1,0.4,377.7,0.4,237.3z M256.3,346c-0.6-0.5-1.2-1-1.8-1.6c-3.7-3.7-7.5-7.4-11.6-10.7c-1.9-1.6-3.8-3.2-6.1-4.1
		c-1.8-0.7-3.6-0.7-5.1,0.7c-2.4,2.1-3.5,5-3.7,8c-0.5,6.2,1.3,11.6,5.7,16.1c1.4,1.4,1.5,1.9,0.3,3.5c-1.4,1.9-3.2,3.6-5.5,4.4
		c-2.3,0.8-3.3,2.3-3.3,4.5c0,1.2,0.6,2.3,1.3,3.3c2,3.1,4.1,6.2,6.2,9.4c0.7,1.1,1.6,1.6,3,1.7c1.4,0.1,2.7,0.1,3.9-0.7
		c0.4-0.3,0.9-0.7,1.6,0c-1.3,3.2,0.3,5.3,2.8,7c5.6,3.7,11.2,7.3,16.8,11c0.4,0.3,0.8,0.6,1.1,0.9c4.8,5.3,9.5,10.8,14.4,16
		c0.8,0.9,1.9,1.7,2.3,3c0.6,2.3,1.9,4.4,2.7,6.6c0.6,1.6,1.2,3.4,2.7,4.4c3.4,2.4,6.8,4.7,10.3,6.9c2.1,1.3,3.1,0.7,3.3-1.6
		c0-0.4,0-0.8,0-1.2c0-2.5,0.2-4.9,0.7-7.4c0.3-1.8,0.8-3.6,0.1-5.4c-0.2-0.6-0.2-1.3,0-1.9c0.8-2.4,0.1-4.7-0.8-6.9
		c-0.7-1.8-1.5-3.5-2.7-5c-1.8-2-1.8-2-0.7-4.3c1.7-3.4,3.5-6.8,5.4-10.1c3.2-5.4,6.7-10.7,10.6-15.6c0.9-1.2,2-2.3,2.6-3.7
		c1.8-3.9,4-7.6,6.5-11.1c0.4-0.6,0.9-1.1,1.5-1.5c1.5-0.9,2.1-0.7,2.6,0.9c0.5,1.9,0.2,3.8,0,5.7c-0.2,2.4,0.2,4.5,1.7,6.3
		c2.1,2.6,3.1,3.6,6.2,2.8c4.7-1.2,9.2-2.5,13.4-5c1.5-0.9,3-2.1,5-2.1c0.7,0,1.1-0.5,1.3-1.2c1-2.8,1.5-5.7,1.9-8.6
		c0.1-0.7-0.2-1.2-0.4-1.8c-1-2.4-1.5-5-3-7.2c-0.9-1.3-0.4-2.2,1.2-2.2c2.2,0,4.5-0.1,6.7,0.3c2,0.4,2.7,0,3.6-1.9
		c0.2-0.4,0.4-0.9,0.5-1.3c0.3-1.3,1.1-1.9,2.4-2c1.3-0.1,2.5-0.7,3.7-1.1c4.8-1.7,4.8-1.7,4.5-7c-0.1-1.8-0.8-3.3-2.1-4.4
		c-1.1-1-2.4-1.8-3.5-2.8c-1.5-1.2-3.3-1.9-5.1-2.6c-5.2-2.2-9.5-5.8-14.1-8.9c-3.7-2.5-7.3-4.9-12-5.5c-3.6-0.5-7.1-1.6-10.1-4.1
		c-1.7-1.4-3.5-2.9-5.8-3.2c-2.8-0.4-4.7-2.3-6.5-4.2c-2.4-2.5-4.3-5.5-6.5-8.2c-1.7-2.1-3.1-4.4-5.2-6.2c-3.9-3.2-7.6-6.5-11.9-9.1
		c-0.9-0.5-1.3-1.2-1.8-2.1c-1.1-2.2-0.8-4.5-0.7-6.9c-1.7-0.6-3.4-1-5.2-0.5c-1.8,0.4-3.6,1.1-5.3,1c-1.8-0.1-3.5-0.9-5.3-1.4
		c-0.5-0.1-0.9-0.3-1.4-0.4c-0.6-0.2-1.3-0.1-1.9,0.3c-2.4,1.3-3.7,5.2-2.5,7.7c1.5,3.3,3,6.5,4.8,9.6c1.2,2.1,1.9,4.2,1.1,6.6
		c-0.2,0.5-0.1,1.2-0.8,1.3c-0.5,0-0.8-0.5-1.1-0.9c-0.2-0.3-0.4-0.5-0.5-0.8c-1.1-2.9-3.5-4-6.4-4.2c-2-0.1-3.9,0.4-5.5,1.8
		c-3.4,3-6.9,5.9-10.1,9.1c-1,1-1.5,1.9-1.9,3.2c-1.6,5.3-3.2,10.5-4.8,15.8c-0.3,1-0.8,1.6-2,1.7c-1.1,0.1-2.2,0.4-3.3,0.5
		c1.5,0.2,3,0.2,4.4,0.2c0.8,0,1.1-0.6,1.3-1.2c0.5-1.6,1-3.2,1.6-4.7c1.1-3.4,2.5-6.7,3.5-10.2c0.6-2,1.5-3.7,3.4-5
		c3.3-2.3,6.3-4.9,9.4-7.4c2.8-2.3,6.4-1.6,7.9,1.7c0.5,1,1.1,1.9,1.6,2.9c0.4,0.7,0.9,1.1,1.7,1c0.6-0.1,1.3-0.1,1.9-0.2
		c2-0.3,2.5-0.7,2.9-2.6c0.3-2,0.4-4.1,0.3-6.2c0-0.6-0.2-1.1-0.5-1.6c-1-1.7-2-3.4-2.9-5.2c-1-2.1-1.9-4.2-2.9-6.3
		c-0.5-1.1-0.3-2.1,0.3-2.9c0.7-0.9,1.6-0.3,2.4,0c0.2,0.1,0.5,0.1,0.7,0.2c3,1.7,6,1.6,9.1,0.3c2-0.8,2.2-0.5,2.4,1.7
		c0.2,2.9,1.3,5.5,3.9,7c2.6,1.6,5,3.3,7.4,5.2c1.9,1.5,3.9,2.9,5.4,4.7c3,3.6,5.7,7.4,8.7,11.1c2.7,3.3,5.6,6.6,10.2,7.2
		c0.6,0.1,1.2,0.4,1.7,0.8c2,1.3,4,2.6,5.9,4c1.1,0.8,2.2,1.3,3.5,1.5c2.6,0.3,5.1,1.2,7.7,1.8c1,0.2,2,0.4,2.9,1
		c3.4,2.3,6.8,4.7,10.2,7c2.4,1.7,4.8,3.5,7.5,4.7c2.8,1.2,5.5,2.5,7.9,4.4c1.6,1.2,2.2,2.6,2.4,4.4c0.2,1.5-0.1,2-1.5,2.2
		c-1.8,0.3-3.5,1.1-5.3,1.6c-1.7,0.4-2.9,1.2-3.4,3c-0.4,1.5-1.4,1.7-2.8,1.6c-1.9-0.2-3.8-0.2-5.7-0.2c-3.6,0-5.7,3.5-3.8,6.6
		c2.4,4,3.9,8.2,2.4,12.9c-0.2,0.7-0.2,1.4-1,1.7c-2.6,1.1-4.9,2.7-7.4,3.8c-3.1,1.4-6.3,2.7-9.8,3c-1.4,0.1-2.2-0.3-2.8-1.7
		c-0.4-0.9-0.6-1.8-0.6-2.8c0.1-1.9,0-3.8,0.1-5.8c0.1-1.8-0.6-3.3-1.6-4.7c-0.8-1.1-2-2.4-3.6-1.7c-2,0.9-4.1,1.8-5.3,3.9
		c-1.4,2.5-3.1,4.8-4.6,7.3c-1,1.7-1.7,3.6-2.9,5.2c-3.5,4.7-7.1,9.4-10.2,14.5c-3.3,5.4-6.3,10.9-8.9,16.6
		c-0.6,1.3-0.4,2.3,0.6,3.5c1.1,1.2,2.4,2.4,3,4c1.1,2.6,2.5,5,1.4,8c-0.2,0.4,0,1,0,1.4c0,0.9,0.6,1.7,0.5,2.6
		c-0.4,2.9-0.9,5.8-1.3,8.5c-0.4,0.3-0.7,0.2-0.8,0c-2.3-1.6-4.6-3.1-6.9-4.7c-0.5-0.3-0.9-0.7-1-1.3c-0.7-1.9-1.7-3.6-2.4-5.5
		c-0.7-1.9-1.4-4-2.7-5.5c-3.9-4.5-7.9-8.9-11.9-13.4c-1.6-1.8-3.1-3.9-5.1-5.4c-3-2.3-6.4-4.2-9.6-6.3c-2.5-1.7-5.1-3.3-7.6-5
		c-2-1.4-2.1-1.7-1.4-3.9c0.2-0.8,0.4-1.5,0.5-2.3c0.1-0.7-0.2-1.4-0.9-1.4c-1.9,0-4-0.8-5.7,0.8c-1,0.9-3.1,0.9-3.7,0.1
		c-2.3-3-4.8-6-6.9-9.2c-1.8-2.7-0.9-4.7,2.2-5.8c1.1-0.4,1.9-1,2.7-1.9c1.3-1.3,1.8-3.2,3-4.5c0.1,0,0.2,0,0.3,0
		c0.2,0.1,0.4,0.3,0.6,0.4c4,3,8.6,4.5,13.6,4.7c1.7,0.1,3.7-0.6,5.2,0.3c1.5,0.9,2.6,2.6,3.9,3.9c0.8,0.9,1.3,1.8,0.7,3
		c-0.5,1-0.8,2.1-1.2,3.1c-0.8,2.1-0.2,3.8,1.9,4.7c0.7,0.3,1.4,0.2,2.1,0.2c11.1,0,22.2,0,33.3,0c0.4,0,0.8,0,1.2,0
		c2.4-0.3,3.5-2.9,2.1-4.9c-0.6-0.8-1.3-1.4-2.3-1.7c-1.4-0.5-2.7-1-4.1-1.1c-1.3-0.1-1.5-0.5-0.9-1.5c1.6-2.3,1.8-4.8,1.6-7.5
		c-0.2-2.3,2.2-4.5,4.5-4.3c1.9,0.1,3.8,0.2,5.8,0c2-0.2,3.7-1.2,4.7-2.9c0.7-1.1,1.5-2,2.5-2.8c2-1.6,2.2-3.6,0.7-5.7
		c-1.1-1.5-2.6-2.1-4.3-2.3c-0.9-0.1-1.9,0.1-2.9,0.1c-1.1,0-2.2,0.1-3.4-0.8c1.1-0.6,1.5-1.4,1.8-2.3c0.4-1.4,1-2.7,2-3.7
		c0.9-0.9,1.3-2,1.4-3.2c0.2-1.6,0.5-3.2,0.7-4.7c0.3-1.8-0.3-3.1-1.8-4.1c-2-1.3-3.9-2.7-5.9-4.1c-5.6-3.9-11.4-4.2-16.9-0.2
		c-0.8,0.6-1.3,0.4-2-0.2c-2.5-2-4.9-1.6-6.6,1.1c-0.2,0.3-0.4,0.7-0.6,1c-1,1.8-0.8,3.3,0.6,4.8c0.4,0.4,0.9,0.7,0.9,1.3
		C274.6,327.6,256.7,345.5,256.3,346z M191.8,473.6c0,5.4,0,10.9,0,16.3c0,1.2,0.4,1.7,1.6,1.7c3.7-0.1,7.4,0,11,0
		c2.5,0,5.1,0.1,7.6-0.3c7.4-1.3,11.1-9.1,7.1-15.5c-1-1.6-0.9-2.5,0.1-3.9c2.4-3.5,1.6-10.1-1.5-12.8c-2.1-1.8-4.4-2.6-7-2.8
		c-5.8-0.4-11.7-0.1-17.5-0.2c-1.2,0-1.5,0.4-1.5,1.5C191.8,462.9,191.8,468.3,191.8,473.6z M266.1,473.7c0,5.3,0,10.5,0,15.8
		c0,2,0,2,1.9,2c5.2,0,10.4,0,15.6,0c1.7,0,3.3-0.3,4.9-0.9c2.6-0.9,4.6-2.5,5.6-5.2c1.3-3.6,1.4-7.2-1.1-10.5c-0.7-1-0.7-1.6,0-2.5
		c1.9-2.5,2.2-5.4,1.6-8.4c-1-4.8-4.3-7.5-9.5-7.9c-5.9-0.4-11.8-0.1-17.7-0.2c-1.3,0-1.4,0.6-1.4,1.6
		C266.1,463,266.1,468.3,266.1,473.7z M333.1,491.5c0.2-0.7-0.1-1-0.2-1.4c-1.6-3.3-3.2-6.6-4.8-9.9c-0.9-1.9-0.9-1.9,0.5-3.4
		c4.6-4.8,4.4-12.9-0.4-17.5c-2.6-2.5-5.8-3.3-9.2-3.3c-4.6-0.1-9.1,0-13.7-0.1c-1.3,0-1.7,0.4-1.6,1.7c0.1,2.6,0,5.3,0,7.9
		c0,8,0,16,0,24c0,2,0,2,2,2c2,0,4,0,6,0c2.1,0,2.1,0,2.1-2.1c0-2.4,0-4.8,0-7.2c0-0.5-0.2-1.3,0.5-1.5c1.2-0.3,2.6-0.3,3.8,0
		c0.8,0.1,0.9,1.1,1.1,1.7c1.2,2.6,2.3,5.3,3.4,7.9c0.2,0.6,0.4,1.2,1.3,1.2C327,491.5,330.1,491.5,333.1,491.5z M229.3,473.7
		c0,5.3,0,10.5,0,15.8c0,1.9,0,2,2,2c7,0,13.9,0,20.9,0c1,0,1.9,0,2.9,0c0.8,0,1.1-0.4,1.1-1.1c0-2.3,0-4.6,0-7c0-0.7-0.3-1-1-1
		c-0.6,0-1.1,0-1.7,0c-4.1,0-8.2,0-12.2,0c-0.5,0-1.3,0.2-1.6-0.3c-0.6-1-0.4-2.2-0.2-3.2c0.1-0.9,1-0.6,1.6-0.6c3.5,0,7,0,10.6,0
		c1.2,0,1.8-0.3,1.7-1.6c-0.1-1.9,0-3.8,0-5.8c0-1.8,0-1.8-1.9-1.8c-3.4,0-6.7,0-10.1,0c-1.9,0-1.9,0-1.9-2c0-0.3,0-0.6,0-1
		c0-0.7,0.4-1,1.1-1c0.6,0,1.1,0,1.7,0c4,0,8,0,12,0c2,0,2,0,2.1-2.1c0-1.8,0-3.5,0-5.3c0-1.7,0-1.7-1.8-1.7c-7.8,0-15.5,0-23.3,0
		c-1.8,0-1.8,0-1.8,1.9C229.3,463.2,229.3,468.4,229.3,473.7z M374.2,491.5c0-0.5,0.1-0.8,0-1c-3.7-11.1-7.4-22.2-11.1-33.4
		c-0.3-1-0.9-1.2-1.8-1.1c-2.8,0-5.6,0-8.4,0c-2,0-2,0-2.6,2c-3.5,10.5-7,21-10.4,31.6c-0.2,0.6-0.5,1.2-0.3,2c2.8,0,5.7,0,8.6,0
		c0.8,0,1.1-0.4,1.3-1.1c0.4-1.2,0.8-2.4,1.1-3.7c0.2-0.8,0.5-1.1,1.3-1.1c3.2,0,6.4,0,9.6,0c0.9,0,1.3,0.3,1.6,1.1
		c0.3,1.1,0.7,2.1,1,3.2c0.2,1,0.7,1.5,1.8,1.5C368.5,491.5,371.3,491.5,374.2,491.5z M402.8,467.7c1-1.7,1.9-3.3,2.8-4.9
		c1.3-2.3,1.3-2.3-0.7-3.9c-0.6-0.5-1.3-1-2-1.3c-5.1-2.6-10.3-3.1-15.7-1.4c-2.4,0.8-4.5,2.1-5.7,4.4c-2.6,4.6-1.4,11.6,4.1,14.4
		c2.2,1.1,4.6,1.8,6.9,2.6c1.4,0.5,2.9,1,4.3,1.5c0.8,0.3,1.3,0.9,1.3,1.8c0,1-0.6,1.6-1.5,2c-0.5,0.2-1,0.4-1.6,0.4
		c-1.3,0.2-2.5,0-3.8-0.3c-2.5-0.5-4.7-1.7-6.8-3.4c-1.1,1.8-2.1,3.4-3,4.9c-1.2,2-1.2,2,0.5,3.5c0.2,0.2,0.5,0.4,0.8,0.6
		c6,3.6,12.4,4.3,19,1.9c1.8-0.7,3.4-1.8,4.6-3.4c3.3-4.5,2.4-12.3-4.1-15.4c-2.3-1.1-4.8-1.7-7.3-2.4c-1.2-0.4-2.5-0.7-3.6-1.3
		c-0.8-0.5-1.3-1.2-1.3-2.1c0.1-1,0.7-1.5,1.6-1.9c1.1-0.4,2.2-0.4,3.3-0.2C397.9,464.5,400.4,465.8,402.8,467.7z M207.5,514.8
		c0.2,0,0.4,0.1,0.6,0.1c0.5,4.8,0.9,9.7,1.5,14.5c0.5,4,0.5,3.9,4.5,3.7c0.9-0.1,1.3-0.4,1.2-1.3c0-0.5,0-1-0.1-1.4
		c-1.1-6.9-1.9-13.9-2.7-20.9c-0.5-4.4-0.5-4.4-5-4.3c-1.1,0-1.8,0.3-2.1,1.5c-0.6,2.1-1.4,4.2-2.1,6.3c-1,3-1.9,6.1-2.9,9.1
		c-0.3,0.9-0.4,2-1.3,2.7c-0.8-1-0.7-2.2-1.1-3.2c-1.5-4.1-2.9-8.2-4.1-12.5c-1.1-4-1.2-4-5.4-3.9c-0.2,0-0.3,0-0.5,0
		c-1.1-0.1-1.6,0.3-1.7,1.4c-0.3,2.4-0.7,4.7-0.9,7.1c-0.4,5.2-1.3,10.3-2,15.4c-0.5,3.9-0.4,4,3.4,3.9c1.2-0.1,1.7-0.5,1.8-1.7
		c0.3-4.2,1.1-8.4,1.2-12.6c0-1.2,0.1-2.5,1-4c0.7,2.2,1.3,4,1.9,5.8c1.2,3.6,2.3,7.1,3.5,10.7c0.6,1.8,0.5,1.8,2.5,1.8
		c0.5,0,1,0,1.4,0c1,0.1,1.5-0.3,1.7-1.3c0.5-2.7,1.8-5.1,2.5-7.7C205.5,520.9,206.8,517.9,207.5,514.8z M367.2,514.1
		c-0.9-0.6-1.8-1.4-2.8-1.7c-6.4-2.3-13.7,3.2-13.2,10.1c0.6,8.1,8.6,11.5,14.4,8.2c0.4-0.2,0.9-0.8,1.5-0.2c-0.2,3-1.5,4.5-4.2,5.3
		c-2.3,0.6-4.4,0-6.6-0.6c-1.7-0.5-1.7-0.5-2.5,1c-0.1,0.3-0.3,0.6-0.4,0.9c-0.6,0.9-0.3,1.5,0.6,1.8c3.3,1.3,6.7,2,10.3,1.2
		c4.7-1,7.4-4,7.6-8.8c0.1-4.1,0.1-8.2,0.1-12.2c0-1.8,0-3.7,0-5.5c0-0.5,0.1-1.1-0.7-1.3C369.4,511.8,368.1,512.4,367.2,514.1z
		 M402.8,533.4c6.3,0.5,11.1-5.5,11.1-10.8c0-5.9-5-10.6-11.2-10.7c-6.2-0.1-10.7,4.7-10.8,10.6
		C391.8,528.8,397.3,533.8,402.8,533.4z M229.1,533.4c6.4,0.6,11.3-5.6,11.2-10.6c-0.2-6.2-4.6-10.7-10.9-10.9
		c-6.3-0.2-10.7,5.1-10.9,10.6C218.4,528.4,223.7,533.8,229.1,533.4z M333.4,524.2c3.4,0,6.6,0,9.8,0c1.4,0,2.7,0,4.1,0
		c0.6,0,1.1-0.1,1.2-0.9c0.3-3.5-0.7-6.6-3.2-9.1c-2.1-2.1-4.8-2.4-7.5-2.2c-1.4,0.1-2.8,0.2-4.1,1c-3.4,2.1-5.1,5.2-5.3,9.1
		c-0.2,4.3,1.5,7.7,5.4,10c3.4,1.9,6.9,1.9,10.3,0.2c3-1.4,2.9-1.8,0.8-4.2c-0.6-0.6-1-0.7-1.6-0.2c-0.3,0.2-0.7,0.4-1,0.6
		C338.4,530.3,334.4,528.4,333.4,524.2z M249.3,514.6c-0.7-2.4-0.7-2.4-2.6-2.4c-2.2,0-2.2,0-2.2,2.2c0,5.1,0,10.2,0,15.3
		c0,3.6-0.8,3.2,3.3,3.2c1.1,0,1.6-0.4,1.5-1.6c-0.1-2.3,0-4.6,0-6.9c0-1.4-0.2-2.7,0.2-4.1c0.5-2,2.2-4.3,5.7-3.9
		c2.3,0.2,3.7,1.9,3.8,4.7c0,1.7,0,3.4,0,5c0,1.8,0,3.7,0,5.5c0,0.5,0,1.1,0.6,1.1c1.3,0.1,2.6,0.1,3.8,0c0.7-0.1,0.6-0.8,0.6-1.3
		c0-1.8,0-3.5,0-5.3c0-2.6,0.1-5.1-0.2-7.7c-0.5-3.8-3-6.2-6.8-6.6C254.3,511.7,251.7,512.3,249.3,514.6z M292.9,524.2
		C292.9,524.2,292.9,524.2,292.9,524.2c2.2,0,4.3,0,6.5,0c0.9,0,1.4-0.3,1.4-1.2c-0.1-2.7-0.4-5.4-2.2-7.6c-2.4-3-5.6-3.6-9.2-3.3
		c-2.9,0.2-4.9,1.6-6.6,3.8c-1.9,2.4-2.2,5-2.1,7.9c0.1,3.2,1.7,5.5,4,7.5c2.4,2,5.2,2.3,8.1,2.1c2-0.1,3.6-1.1,5.2-2.2
		c0.3-0.2,0.6-0.4,0.5-0.7c-0.4-1-1-2-1.9-2.7c-0.8-0.7-1.3,0.3-1.8,0.6c-3.3,1.7-7.5,0.4-8.8-2.7c-0.4-0.9-0.3-1.4,0.8-1.4
		C288.8,524.2,290.9,524.2,292.9,524.2z M309.8,514.3c-0.1-0.1-0.3-0.2-0.3-0.3c-0.6-1.7-1.3-2-3.5-1.7c-1.6,0.2-1,1.4-1,2.2
		c-0.1,5-0.1,10.1,0,15.1c0,3.6-0.6,3.2,3.3,3.3c1.3,0,1.7-0.5,1.6-1.7c-0.1-3,0-5.9,0-8.9c0-1,0-1.9,0.4-2.8c1-2.2,2.5-3.3,5.3-3.1
		c2.1,0.2,3.2,1.3,3.7,3.7c0.2,0.8,0.2,1.6,0.2,2.4c0,2.4,0,4.8,0,7.2c0,3.5-0.5,3.1,3.2,3.1c1.7,0,1.7,0,1.7-1.7
		c0-3.8,0-7.5,0-11.3c0-1.9-0.7-3.6-1.8-5.1c-0.8-1.1-1.8-2.1-3.2-2.4c-3.1-0.6-6.2-0.8-8.9,1.5
		C310.6,514.1,310.3,514.4,309.8,514.3z M274.4,506.3c-0.6,0-0.9,0-1.2,0.1c-3.5,0.7-3.6,0.7-3.7,4.3c0,1.1-0.3,1.7-1.5,1.5
		c-1.3-0.2-1.7,0.5-1.6,1.7c0,0.4,0,0.8,0,1.2c-0.1,1.1,0.4,1.7,1.5,1.5c1.3-0.2,1.6,0.5,1.6,1.7c0,3.9,0,7.8,0,11.7
		c0,3-0.3,2.8,2.9,2.8c2,0,2,0,2-1.9c0-3.7,0-7.3,0-11c0-3.1,0-3.1,3.1-3.3c0.2,0,0.5,0,0.7,0c0.3-0.1,0.6-0.3,0.6-0.6
		c0-1.1,0.4-2.3-0.2-3.3c-0.5-0.9-1.6-0.3-2.4-0.4c-0.2,0-0.5,0-0.7,0c-0.8,0-1.1-0.4-1.1-1.2C274.5,509.6,274.4,508.1,274.4,506.3z
		 M382.4,514c-0.1-1.7-1.3-2-2.8-1.8c-0.1,0-0.2,0-0.2,0c-1.7,0.1-1.8,0.1-1.8,1.7c0,5.8,0,11.5,0,17.3c0,1.7,0.1,1.7,1.8,1.7
		c0.2,0,0.5,0,0.7,0c2.5,0,2.5,0,2.5-2.4c0-3-0.1-6.1,0.1-9.1c0.2-3.8,3-5.7,6.4-4.6c1,0.3,1.5,0.3,1.9-0.7c0.2-0.5,0.6-1,0.8-1.5
		c0.7-1.3,0.7-1.7-0.7-2.1c-2.6-0.9-5.3-1.3-7.6,0.9C383.2,513.8,383,514.1,382.4,514z"/>
	<path class="st1" d="M256.3,346c0.4-0.5,18.3-18.4,18.6-18.6c0-0.6-0.6-0.9-0.9-1.3c-1.4-1.5-1.5-3-0.6-4.8c0.2-0.4,0.4-0.7,0.6-1
		c1.7-2.7,4.1-3.2,6.6-1.1c0.7,0.6,1.2,0.8,2,0.2c5.4-4,11.3-3.7,16.9,0.2c2,1.4,3.9,2.8,5.9,4.1c1.5,1,2.1,2.3,1.8,4.1
		c-0.3,1.6-0.5,3.1-0.7,4.7c-0.2,1.2-0.6,2.4-1.4,3.2c-1,1.1-1.6,2.3-2,3.7c-0.2,0.9-0.6,1.7-1.8,2.3c1.2,0.9,2.3,0.8,3.4,0.8
		c1,0,1.9-0.2,2.9-0.1c1.7,0.1,3.2,0.8,4.3,2.3c1.5,2.1,1.3,4-0.7,5.7c-1,0.8-1.8,1.7-2.5,2.8c-1,1.7-2.7,2.7-4.7,2.9
		c-1.9,0.2-3.8,0.1-5.8,0c-2.4-0.1-4.7,2-4.5,4.3c0.2,2.7,0,5.2-1.6,7.5c-0.7,1-0.4,1.4,0.9,1.5c1.5,0.1,2.8,0.6,4.1,1.1
		c0.9,0.3,1.7,0.9,2.3,1.7c1.4,2,0.3,4.6-2.1,4.9c-0.4,0.1-0.8,0-1.2,0c-11.1,0-22.2,0-33.3,0c-0.7,0-1.4,0.1-2.1-0.2
		c-2-0.9-2.7-2.5-1.9-4.7c0.4-1,0.7-2.1,1.2-3.1c0.6-1.2,0.2-2.1-0.7-3c-1.3-1.3-2.4-3-3.9-3.9c-1.5-0.9-3.4-0.2-5.2-0.3
		c-5-0.3-9.5-1.7-13.6-4.7c-0.2-0.1-0.4-0.3-0.6-0.4c-0.1,0-0.2,0-0.3,0c-1.2,1.4-1.6,3.2-3,4.5c-0.8,0.8-1.7,1.5-2.7,1.9
		c-3.1,1.1-4,3.1-2.2,5.8c2.1,3.2,4.5,6.2,6.9,9.2c0.6,0.8,2.7,0.8,3.7-0.1c1.8-1.5,3.8-0.7,5.7-0.8c0.7,0,1.1,0.7,0.9,1.4
		c-0.2,0.8-0.3,1.6-0.5,2.3c-0.6,2.3-0.6,2.6,1.4,3.9c2.5,1.7,5,3.4,7.6,5c3.2,2.1,6.5,4,9.6,6.3c1.9,1.5,3.4,3.5,5.1,5.4
		c4,4.4,8,8.9,11.9,13.4c1.4,1.6,2,3.6,2.7,5.5c0.7,1.9,1.7,3.6,2.4,5.5c0.2,0.6,0.6,0.9,1,1.3c2.3,1.6,4.6,3.1,6.9,4.7
		c0.2,0.1,0.4,0.2,0.8,0c0.4-2.7,0.9-5.6,1.3-8.5c0.1-0.9-0.4-1.7-0.5-2.6c0-0.5-0.1-1,0-1.4c1.1-3-0.3-5.4-1.4-8
		c-0.7-1.6-1.9-2.7-3-4c-1-1.1-1.2-2.1-0.6-3.5c2.6-5.8,5.6-11.2,8.9-16.6c3.1-5,6.7-9.7,10.2-14.5c1.2-1.6,1.9-3.5,2.9-5.2
		c1.4-2.5,3.1-4.8,4.6-7.3c1.2-2.1,3.3-3,5.3-3.9c1.6-0.7,2.7,0.6,3.6,1.7c1,1.3,1.6,2.9,1.6,4.7c-0.1,1.9,0,3.8-0.1,5.8
		c0,1,0.2,1.9,0.6,2.8c0.6,1.3,1.4,1.8,2.8,1.7c3.5-0.3,6.7-1.5,9.8-3c2.5-1.2,4.9-2.7,7.4-3.8c0.9-0.4,0.8-1,1-1.7
		c1.5-4.8,0-8.9-2.4-12.9c-1.9-3.1,0.2-6.6,3.8-6.6c1.9,0,3.8,0,5.7,0.2c1.4,0.1,2.4-0.1,2.8-1.6c0.4-1.8,1.7-2.5,3.4-3
		c1.8-0.5,3.4-1.3,5.3-1.6c1.4-0.2,1.7-0.7,1.5-2.2c-0.2-1.8-0.8-3.1-2.4-4.4c-2.4-1.9-5.1-3.2-7.9-4.4c-2.7-1.2-5.1-3-7.5-4.7
		c-3.4-2.3-6.8-4.7-10.2-7c-0.9-0.6-1.9-0.8-2.9-1c-2.6-0.6-5-1.5-7.7-1.8c-1.2-0.1-2.4-0.7-3.5-1.5c-1.9-1.4-4-2.7-5.9-4
		c-0.5-0.4-1.1-0.7-1.7-0.8c-4.7-0.6-7.5-3.9-10.2-7.2c-3-3.6-5.6-7.5-8.7-11.1c-1.5-1.8-3.5-3.2-5.4-4.7c-2.3-1.9-4.8-3.7-7.4-5.2
		c-2.6-1.5-3.7-4.1-3.9-7c-0.2-2.2-0.4-2.5-2.4-1.7c-3.2,1.3-6.1,1.4-9.1-0.3c-0.2-0.1-0.5-0.1-0.7-0.2c-0.8-0.2-1.7-0.9-2.4,0
		c-0.6,0.9-0.8,1.9-0.3,2.9c1,2.1,1.9,4.2,2.9,6.3c0.9,1.8,1.9,3.5,2.9,5.2c0.3,0.5,0.4,1,0.5,1.6c0.1,2.1,0,4.2-0.3,6.2
		c-0.3,1.9-0.9,2.3-2.9,2.6c-0.6,0.1-1.3,0.2-1.9,0.2c-0.8,0.1-1.4-0.2-1.7-1c-0.5-1-1.1-1.9-1.6-2.9c-1.5-3.3-5.1-4-7.9-1.7
		c-3.1,2.5-6.1,5.1-9.4,7.4c-1.9,1.3-2.8,3-3.4,5c-1,3.5-2.3,6.8-3.5,10.2c-0.5,1.6-1.1,3.2-1.6,4.7c-0.2,0.6-0.4,1.2-1.3,1.2
		c-1.5,0-3,0-4.4-0.2c1.1-0.2,2.2-0.4,3.3-0.5c1.1-0.1,1.6-0.7,2-1.7c1.6-5.3,3.2-10.5,4.8-15.8c0.4-1.2,1-2.2,1.9-3.2
		c3.2-3.2,6.7-6.1,10.1-9.1c1.6-1.4,3.4-1.9,5.5-1.8c2.9,0.2,5.2,1.3,6.4,4.2c0.1,0.3,0.3,0.6,0.5,0.8c0.3,0.4,0.6,0.9,1.1,0.9
		c0.7-0.1,0.7-0.8,0.8-1.3c0.7-2.4,0.1-4.5-1.1-6.6c-1.8-3.1-3.3-6.4-4.8-9.6c-1.2-2.5,0.1-6.4,2.5-7.7c0.6-0.3,1.2-0.4,1.9-0.3
		c0.5,0.1,0.9,0.2,1.4,0.4c1.8,0.5,3.5,1.4,5.3,1.4c1.8,0.1,3.6-0.6,5.3-1c1.8-0.4,3.5-0.1,5.2,0.5c-0.1,2.3-0.4,4.6,0.7,6.9
		c0.5,0.9,0.9,1.6,1.8,2.1c4.3,2.6,8.1,5.9,11.9,9.1c2.1,1.8,3.5,4.1,5.2,6.2c2.2,2.7,4.1,5.7,6.5,8.2c1.8,1.9,3.6,3.8,6.5,4.2
		c2.3,0.3,4.1,1.8,5.8,3.2c3,2.4,6.5,3.6,10.1,4.1c4.7,0.6,8.3,3,12,5.5c4.6,3.1,8.9,6.7,14.1,8.9c1.8,0.7,3.6,1.4,5.1,2.6
		c1.2,0.9,2.4,1.8,3.5,2.8c1.3,1.1,2,2.6,2.1,4.4c0.2,5.3,0.3,5.3-4.5,7c-1.2,0.4-2.4,1-3.7,1.1c-1.2,0.1-2.1,0.7-2.4,2
		c-0.1,0.5-0.3,0.9-0.5,1.3c-0.9,1.8-1.6,2.3-3.6,1.9c-2.2-0.5-4.5-0.3-6.7-0.3c-1.5,0-2.1,0.9-1.2,2.2c1.5,2.2,2.1,4.8,3,7.2
		c0.2,0.6,0.5,1.2,0.4,1.8c-0.4,2.9-1,5.8-1.9,8.6c-0.2,0.7-0.6,1.2-1.3,1.2c-2,0-3.5,1.1-5,2.1c-4.2,2.5-8.7,3.8-13.4,5
		c-3.1,0.8-4.1-0.2-6.2-2.8c-1.4-1.8-1.9-4-1.7-6.3c0.2-1.9,0.5-3.8,0-5.7c-0.4-1.6-1.1-1.9-2.6-0.9c-0.6,0.4-1.1,0.9-1.5,1.5
		c-2.4,3.5-4.6,7.2-6.5,11.1c-0.7,1.4-1.7,2.5-2.6,3.7c-3.9,5-7.3,10.2-10.6,15.6c-2,3.3-3.7,6.7-5.4,10.1c-1.1,2.3-1.1,2.3,0.7,4.3
		c1.3,1.4,2.1,3.2,2.7,5c0.9,2.3,1.5,4.5,0.8,6.9c-0.2,0.6-0.3,1.3,0,1.9c0.7,1.8,0.3,3.6-0.1,5.4c-0.4,2.4-0.7,4.9-0.7,7.4
		c0,0.4,0,0.8,0,1.2c-0.2,2.4-1.3,3-3.3,1.6c-3.5-2.2-6.9-4.5-10.3-6.9c-1.5-1-2.1-2.8-2.7-4.4c-0.8-2.3-2.1-4.3-2.7-6.6
		c-0.3-1.3-1.4-2.1-2.3-3c-4.9-5.2-9.5-10.7-14.4-16c-0.3-0.3-0.7-0.7-1.1-0.9c-5.6-3.7-11.2-7.3-16.8-11c-2.5-1.7-4.2-3.8-2.8-7
		c-0.6-0.7-1.2-0.3-1.6,0c-1.2,0.9-2.5,0.8-3.9,0.7c-1.3-0.1-2.2-0.6-3-1.7c-2-3.1-4.1-6.2-6.2-9.4c-0.7-1-1.2-2.1-1.3-3.3
		c-0.1-2.2,1-3.7,3.3-4.5c2.4-0.9,4.1-2.5,5.5-4.4c1.2-1.6,1.1-2.1-0.3-3.5c-4.4-4.5-6.2-10-5.7-16.1c0.2-3,1.3-5.9,3.7-8
		c1.6-1.4,3.3-1.4,5.1-0.7c2.4,0.9,4.2,2.5,6.1,4.1c4,3.4,7.8,7,11.6,10.7C255.1,345,255.7,345.5,256.3,346z M304,330.2
		c-0.6-0.4-1.3-0.2-1.9-0.3c-1.2-0.2-2.1-0.8-2.8-1.7c-0.3-0.5-0.6-1-0.2-1.6c0.4-0.7,1.1-0.7,1.7-0.5c0.5,0.2,1,0.5,1.5,0.8
		c0.4,0.2,0.8,0,1-0.3c0.4-0.5,0-0.7-0.3-1c-2.6-2-5.1-4.1-8.1-5.5c-3.9-1.9-7.6-0.6-11.1,1.4c-0.9,0.5-1.4,1.8-2.4,1.8
		c-1.1,0-1.6-1.4-2.6-2c-0.5-0.3-0.9-0.7-1.5-0.4c-0.8,0.5-1.1,1.4-1.1,2.3c0.1,0.8,0.7,1.2,1.5,1.3c0.5,0,1,0,1.4,0.2
		c0.9,0.3,1.7,0.7,1.7,1.8c0.1,1-0.3,1.7-1.2,2.2c-1.1,0.6-2.1,1.2-3.2,1.7c-3.1,1.4-5.9,3.2-8.5,5.3c-4.4,3.6-7.5,8.3-9.4,13.6
		c-2,5.3-2,10.3,2.5,14.5c0.1,0.1,0.2,0.2,0.3,0.3c1.5,1.6,1.9,3.4,1,5.5c-0.5,1.2-0.9,2.5-1.1,3.8c0.6,0.4,1.2,0.3,1.7,0.3
		c6.1,0,12.2,0,18.2,0c0.3,0,0.6,0,1,0c0.2,0,0.5-0.2,0.6-0.3c0.1-0.3-0.1-0.6-0.4-0.7c-1.2-0.3-2.3-0.7-3.5-0.6
		c-2.9,0.1-5.8,0-8.6,0c-0.4,0-1,0.2-1.2-0.5c-0.2-0.6,0-1.2,0.4-1.6c0.4-0.3,1-0.5,1.5-0.8c1.2-0.6,2.5-0.9,3.5-1.9
		c3.5-3.6,3.8-7.7,2.2-12.2c-0.7-1.9-2.2-3.1-4.1-3.6c-0.6-0.2-1.3,0-1.9-0.4c-0.8-0.5-1-1.2-0.7-2.1c0.3-0.7,0.9-0.9,1.6-0.8
		c2.6,0.6,5.3,1.5,6.7,3.8c2.4,3.8,3.2,8,1.3,12.3c-0.5,1.3-1.2,2.5-1.8,3.8c4.6-0.3,13.4-8.3,14.2-12.7c-0.7-0.3-1.4-0.2-2.1-0.3
		c-2.9-0.3-5.7-0.8-8.3-2.2c-0.6-0.3-1.1-0.8-0.7-1.5c0.3-0.6,0.9-0.6,1.5-0.5c2.2,0.6,4.5,0.9,6.8,1.1c4.4,0.3,8.7,0.8,13.1,0.8
		c1.3,0,2.3-0.6,3.3-1.2c0.7-0.4,1-1.1,0.8-1.8c-0.2-0.7-1-0.7-1.6-0.7c-1.5-0.1-2.9,0.2-4.3,0.3c-4.6,0.3-8.8-1.3-12.9-3
		c-2-0.8-3.9-1.9-5.8-2.8c-0.6-0.3-1-0.7-0.8-1.5c0.2-0.8,0.8-0.9,1.5-0.9c0.9,0,1.7,0.4,2.5,0.7c2.1,0.8,4.1,1.7,6.2,2.6
		c1.1,0.4,2.4,1.4,3.3,0.7c1.2-0.9-0.1-2.3-0.2-3.6c-0.1-1.8-1-3.2-3.1-3c-0.2,0-0.5-0.1-0.7-0.2c-0.7-0.2-1-0.7-1-1.4
		c0.1-0.6,0.5-1,1.1-1c1.2-0.1,2.4-0.3,3.6-0.4c2.1-0.1,3.9-0.8,5.2-2.5c0.5-0.6,1-1,1.8-1c0.8,0,1.3,0.6,1.8,1.3
		C303.6,332.3,304,331.3,304,330.2z M254.3,356c-0.2-1.6,0.1-3.2,0.6-4.7c0.4-1.3,0.1-2-0.8-2.9c-3.7-3.8-7.5-7.4-11.4-10.9
		c-1.8-1.7-3.8-3.1-5.9-4.5c-2-1.4-3.6-0.8-4.7,1.3c-2.7,5.3-1.3,10.3,1.3,15c2.4,4.1,6.4,6.6,10.8,8.2c2.6,0.9,5.4,1.2,8.3,1.1
		c1.7-0.1,1.7-0.2,1.7-1.8C254.3,356.5,254.3,356.3,254.3,356z M285.9,372.1c0.1,1.2,0.4,1.9,1.4,1.9c2.9,0.1,5.9,0.1,8.8,0.1
		c0.3,0,0.6-0.1,0.7-0.5c0-0.3-0.2-0.6-0.5-0.7c-0.3-0.1-0.6-0.2-0.9-0.3C292.4,371.7,289.3,372.3,285.9,372.1z M304.1,346.2
		c1.6-0.2,3,0.4,4.4,1.3c0.2,0.1,0.5,0.2,0.6,0.1c0.3-0.2,0.3-0.6,0.2-0.9c-0.5-1.1-1.3-1.5-2.5-1.4c-2.7,0.2-5.4,0.3-8-0.8
		c-0.9-0.4-1.1,0.2-1.1,1c0,0.8,0.3,1.1,1.1,1.2C300.6,346.8,302.2,346,304.1,346.2z M290.5,363.3c-2.4,2.1-4.9,4.3-7.4,6.5
		c1,0.8,1.7,0.5,2.4,0C287.9,368.1,290.2,366.5,290.5,363.3z M298.8,341.1c-0.5-1.1-0.1-2.2-1.2-2.5c-0.5-0.1-1.2,0.3-1.2,0.8
		C296.5,340.6,297.5,340.8,298.8,341.1z M301.7,337.4c-0.1-0.6-0.5-0.9-1-0.8c-0.9,0.1-0.8,0.8-0.8,1.4c0,0.5,0.1,1,0.7,1
		C301.6,338.9,301.5,338,301.7,337.4z"/>
	<path class="st2" d="M191.8,473.6c0-5.4,0-10.7,0-16.1c0-1.1,0.3-1.6,1.5-1.5c5.8,0.1,11.7-0.2,17.5,0.2c2.6,0.2,4.9,1,7,2.8
		c3.1,2.7,4,9.3,1.5,12.8c-1,1.4-1.1,2.3-0.1,3.9c4,6.4,0.3,14.3-7.1,15.5c-2.5,0.4-5.1,0.3-7.6,0.3c-3.7,0-7.4,0-11,0
		c-1.3,0-1.7-0.4-1.6-1.7C191.8,484.5,191.8,479,191.8,473.6z M205.7,482.4c0.7,0,1.4,0,2.2,0c1.9-0.1,2.7-0.8,2.8-2.3
		c0-1.6-0.9-2.3-2.9-2.4c-1.3,0-2.6,0-3.8,0c-2,0-2.1,0-2.1,2.1c0,2.8-0.1,2.5,2.4,2.5C204.7,482.4,205.2,482.4,205.7,482.4z
		 M205.5,469.6c0.9,0,1.8,0,2.6,0c0.1,0,0.2,0,0.2,0c1.5-0.1,2.3-0.9,2.3-2.2c0-1.2-0.7-2.1-2.1-2.2c-1.9-0.1-3.8,0-5.7,0
		c-0.5,0-0.8,0.2-1,0.8c-0.6,3,0,3.6,2.9,3.6C205,469.6,205.2,469.6,205.5,469.6z"/>
	<path class="st2" d="M266.1,473.7c0-5.4,0-10.7,0-16.1c0-1,0.1-1.6,1.4-1.6c5.9,0.1,11.8-0.2,17.7,0.2c5.2,0.4,8.5,3.1,9.5,7.9
		c0.6,3,0.3,5.9-1.6,8.4c-0.7,0.9-0.8,1.5,0,2.5c2.4,3.2,2.3,6.8,1.1,10.5c-0.9,2.7-3,4.3-5.6,5.2c-1.6,0.5-3.2,0.8-4.9,0.9
		c-5.2,0-10.4,0-15.6,0c-1.9,0-1.9,0-1.9-2C266.1,484.2,266.1,478.9,266.1,473.7z M279.9,482.4C279.9,482.4,279.9,482.4,279.9,482.4
		c1,0,1.9,0.1,2.9,0c1.5-0.1,2.2-1,2.2-2.3c0-1.3-0.8-2.2-2.2-2.3c-1.8-0.1-3.7,0-5.5,0c-0.5,0-1,0.1-1,0.7c0,1.2-0.4,2.5,0.2,3.5
		c0.5,0.8,1.8,0.3,2.7,0.4C279.4,482.4,279.6,482.4,279.9,482.4z M279.8,469.6C279.8,469.6,279.8,469.6,279.8,469.6c1,0,1.9,0,2.9,0
		c1.5-0.1,2.3-0.9,2.3-2.2c0-1.2-0.7-2.1-2.1-2.2c-1.9-0.1-3.8,0-5.7,0c-0.5,0-0.8,0.2-1,0.8c-0.6,3,0,3.6,2.9,3.6
		C279.4,469.6,279.6,469.6,279.8,469.6z"/>
	<path class="st2" d="M333.1,491.5c-3,0-6.1,0-9.2,0c-0.9,0-1-0.6-1.3-1.2c-1.1-2.6-2.2-5.3-3.4-7.9c-0.3-0.6-0.4-1.6-1.1-1.7
		c-1.2-0.2-2.6-0.3-3.8,0c-0.7,0.2-0.5,0.9-0.5,1.5c0,2.4,0,4.8,0,7.2c0,2.1,0,2.1-2.1,2.1c-2,0-4,0-6,0c-1.9,0-2,0-2-2
		c0-8,0-16,0-24c0-2.6,0.1-5.3,0-7.9c0-1.2,0.4-1.7,1.6-1.7c4.6,0.1,9.1-0.1,13.7,0.1c3.4,0.1,6.6,0.9,9.2,3.3
		c4.8,4.6,5,12.7,0.4,17.5c-1.4,1.5-1.4,1.5-0.5,3.4c1.6,3.3,3.2,6.6,4.8,9.9C333,490.5,333.3,490.9,333.1,491.5z M313.8,468.1
		c0,0.8,0,1.6,0,2.4c0,0.5,0.2,1,0.8,1c1.7,0,3.4,0.3,5-0.2c1.6-0.5,2.3-1.6,2.2-3.3c-0.1-1.4-1-2.5-2.5-2.7
		c-0.8-0.1-1.6-0.1-2.4-0.1C313.3,465.2,313.8,464.8,313.8,468.1z"/>
	<path class="st2" d="M229.3,473.7c0-5.3,0-10.5,0-15.8c0-1.8,0-1.9,1.8-1.9c7.8,0,15.5,0,23.3,0c1.7,0,1.7,0,1.8,1.7
		c0,1.8,0,3.5,0,5.3c0,2.1,0,2.1-2.1,2.1c-4,0-8,0-12,0c-0.6,0-1.1,0-1.7,0c-0.7,0-1.1,0.2-1.1,1c0,0.3,0,0.6,0,1c0,2,0,2,1.9,2
		c3.4,0,6.7,0,10.1,0c1.9,0,1.9,0,1.9,1.8c0,1.9-0.1,3.8,0,5.8c0.1,1.3-0.5,1.6-1.7,1.6c-3.5-0.1-7,0-10.6,0c-0.6,0-1.5-0.3-1.6,0.6
		c-0.2,1.1-0.4,2.2,0.2,3.2c0.3,0.5,1,0.3,1.6,0.3c4.1,0,8.2,0,12.2,0c0.6,0,1.1,0,1.7,0c0.7,0,1,0.3,1,1c0,2.3,0,4.6,0,7
		c0,0.8-0.3,1.2-1.1,1.1c-1,0-1.9,0-2.9,0c-7,0-13.9,0-20.9,0c-2,0-2,0-2-2C229.3,484.3,229.3,479,229.3,473.7z"/>
	<path class="st2" d="M374.2,491.5c-2.9,0-5.6,0-8.3,0c-1.1,0-1.6-0.5-1.8-1.5c-0.3-1.1-0.7-2.1-1-3.2c-0.2-0.8-0.7-1.1-1.6-1.1
		c-3.2,0-6.4,0-9.6,0c-0.8,0-1.1,0.3-1.3,1.1c-0.3,1.2-0.7,2.4-1.1,3.7c-0.2,0.7-0.5,1.1-1.3,1.1c-2.9,0-5.7,0-8.6,0
		c-0.2-0.8,0.1-1.4,0.3-2c3.5-10.5,6.9-21,10.4-31.6c0.6-1.9,0.7-1.9,2.6-2c2.8,0,5.6,0,8.4,0c0.9,0,1.5,0.2,1.8,1.1
		c3.7,11.1,7.4,22.2,11.1,33.4C374.2,490.7,374.2,491,374.2,491.5z M353.6,477.2c2.2,0.1,4.2,0.3,6.4-0.1c-1.1-3.4-1.8-6.7-3.5-9.7
		C355.6,470.5,354.6,473.8,353.6,477.2z"/>
	<path class="st2" d="M402.8,467.7c-2.4-1.9-4.9-3.2-7.8-3.7c-1.1-0.2-2.2-0.2-3.3,0.2c-0.9,0.3-1.5,0.9-1.6,1.9
		c-0.1,1,0.4,1.7,1.3,2.1c1.1,0.6,2.4,0.9,3.6,1.3c2.4,0.7,4.9,1.3,7.3,2.4c6.5,3.1,7.4,11,4.1,15.4c-1.2,1.6-2.7,2.7-4.6,3.4
		c-6.6,2.4-13,1.7-19-1.9c-0.3-0.2-0.5-0.4-0.8-0.6c-1.7-1.5-1.7-1.5-0.5-3.5c0.9-1.6,1.9-3.1,3-4.9c2.1,1.7,4.3,2.8,6.8,3.4
		c1.3,0.3,2.5,0.4,3.8,0.3c0.6-0.1,1.1-0.2,1.6-0.4c0.9-0.4,1.5-0.9,1.5-2c0-0.9-0.5-1.5-1.3-1.8c-1.4-0.5-2.8-1.1-4.3-1.5
		c-2.3-0.8-4.7-1.4-6.9-2.6c-5.5-2.8-6.7-9.8-4.1-14.4c1.3-2.3,3.4-3.7,5.7-4.4c5.4-1.7,10.7-1.3,15.7,1.4c0.7,0.4,1.4,0.8,2,1.3
		c2,1.6,1.9,1.6,0.7,3.9C404.7,464.4,403.8,465.9,402.8,467.7z"/>
	<path class="st1" d="M207.5,514.8c-0.7,3.2-2,6.1-2.9,9.2c-0.7,2.6-2,5-2.5,7.7c-0.2,0.9-0.8,1.3-1.7,1.3c-0.5,0-1,0-1.4,0
		c-2,0-1.9,0-2.5-1.8c-1.1-3.6-2.3-7.1-3.5-10.7c-0.6-1.8-1.2-3.6-1.9-5.8c-0.9,1.5-1,2.7-1,4c-0.1,4.2-0.9,8.4-1.2,12.6
		c-0.1,1.2-0.6,1.6-1.8,1.7c-3.8,0.2-4,0.1-3.4-3.9c0.7-5.1,1.6-10.2,2-15.4c0.2-2.4,0.6-4.7,0.9-7.1c0.1-1.1,0.6-1.6,1.7-1.4
		c0.2,0,0.3,0,0.5,0c4.2-0.1,4.3-0.1,5.4,3.9c1.2,4.2,2.6,8.3,4.1,12.5c0.4,1,0.2,2.2,1.1,3.2c0.9-0.7,1-1.8,1.3-2.7
		c1-3,1.9-6.1,2.9-9.1c0.7-2.1,1.5-4.2,2.1-6.3c0.3-1.1,1-1.4,2.1-1.5c4.5-0.1,4.5-0.2,5,4.3c0.8,7,1.5,13.9,2.7,20.9
		c0.1,0.5,0,1,0.1,1.4c0.1,0.9-0.3,1.2-1.2,1.3c-3.9,0.3-4,0.3-4.5-3.7c-0.6-4.8-1-9.7-1.5-14.5
		C207.9,514.8,207.7,514.8,207.5,514.8z"/>
	<path class="st2" d="M367.2,514.1c0.9-1.7,2.2-2.3,4-1.8c0.8,0.2,0.7,0.8,0.7,1.3c0,1.8,0,3.7,0,5.5c0,4.1,0,8.2-0.1,12.2
		c-0.1,4.8-2.9,7.8-7.6,8.8c-3.6,0.8-7,0.1-10.3-1.2c-0.9-0.4-1.2-0.9-0.6-1.8c0.2-0.3,0.3-0.6,0.4-0.9c0.8-1.6,0.8-1.5,2.5-1
		c2.1,0.6,4.3,1.2,6.6,0.6c2.7-0.7,4-2.3,4.2-5.3c-0.6-0.6-1-0.1-1.5,0.2c-5.8,3.2-13.8-0.2-14.4-8.2c-0.5-6.8,6.8-12.3,13.2-10.1
		C365.4,512.7,366.3,513.5,367.2,514.1z M361.9,516.5c-3.4,0-5.5,2.1-5.6,5.4c0,3.3,2.2,5.5,5.5,5.6c2.9,0.2,5.8-2.8,5.6-5.5
		C367.3,518.7,365.3,516.5,361.9,516.5z"/>
	<path class="st1" d="M402.8,533.4c-5.5,0.5-11-4.5-10.9-10.8c0.1-6,4.6-10.8,10.8-10.6c6.1,0.1,11.2,4.8,11.2,10.7
		C413.9,527.9,409.1,533.9,402.8,533.4z M402.8,516.5c-3.6,0-5.7,2.3-5.7,6.2c0,3.6,2.5,6.3,5.8,6.2c2.9-0.1,5.8-2.3,5.9-6.3
		C408.8,519.2,405.8,516.1,402.8,516.5z"/>
	<path class="st2" d="M229.1,533.4c-5.5,0.4-10.8-5-10.6-10.8c0.1-5.5,4.5-10.8,10.9-10.6c6.3,0.2,10.8,4.7,10.9,10.9
		C240.5,527.7,235.6,533.9,229.1,533.4z M223.5,522.6c0,3.4,2.6,6.3,5.8,6.3c3.2,0,6.1-2.7,6.1-6.3c0-2.8-2.5-6.2-6-6.1
		C226.5,516.4,223.5,519,223.5,522.6z"/>
	<path class="st1" d="M333.4,524.2c1,4.2,5,6,8.6,4.3c0.4-0.2,0.7-0.4,1-0.6c0.6-0.5,1-0.4,1.6,0.2c2.1,2.4,2.2,2.8-0.8,4.2
		c-3.4,1.7-6.9,1.7-10.3-0.2c-3.9-2.2-5.5-5.7-5.4-10c0.2-3.9,1.8-7,5.3-9.1c1.3-0.8,2.7-0.9,4.1-1c2.8-0.2,5.4,0.1,7.5,2.2
		c2.6,2.5,3.5,5.6,3.2,9.1c-0.1,0.7-0.5,0.9-1.2,0.9c-1.4,0-2.7,0-4.1,0C340,524.2,336.8,524.2,333.4,524.2z M338.4,520.7
		C338.4,520.7,338.4,520.7,338.4,520.7c1.3,0,2.7,0,4,0c1.1,0,1.1-0.6,0.8-1.4c-0.8-1.9-2.7-3.2-4.9-3.1c-1.9,0.1-3.8,0.6-4.7,2.7
		c-0.6,1.5-0.5,1.8,1.1,1.8C336.1,520.7,337.3,520.7,338.4,520.7z"/>
	<path class="st1" d="M249.3,514.6c2.3-2.3,5-2.9,7.9-2.6c3.7,0.4,6.3,2.8,6.8,6.6c0.3,2.5,0.2,5.1,0.2,7.7c0,1.8,0,3.5,0,5.3
		c0,0.5,0.1,1.3-0.6,1.3c-1.3,0.1-2.5,0.1-3.8,0c-0.6,0-0.6-0.7-0.6-1.1c0-1.8,0-3.7,0-5.5c0-1.7,0-3.4,0-5
		c-0.1-2.8-1.5-4.4-3.8-4.7c-3.6-0.4-5.2,1.9-5.7,3.9c-0.4,1.3-0.2,2.7-0.2,4.1c0,2.3,0,4.6,0,6.9c0,1.1-0.4,1.6-1.5,1.6
		c-4.1-0.1-3.3,0.4-3.3-3.2c-0.1-5.1,0-10.2,0-15.3c0-2.2,0-2.2,2.2-2.2C248.6,512.3,248.6,512.3,249.3,514.6z"/>
	<path class="st1" d="M292.9,524.2c-2.1,0-4.2,0-6.2,0c-1.1,0-1.2,0.5-0.8,1.4c1.4,3.1,5.5,4.4,8.8,2.7c0.6-0.3,1-1.3,1.8-0.6
		c0.9,0.7,1.4,1.7,1.9,2.7c0.1,0.3-0.2,0.6-0.5,0.7c-1.6,1.1-3.2,2.1-5.2,2.2c-2.9,0.2-5.7-0.1-8.1-2.1c-2.3-2-3.9-4.4-4-7.5
		c-0.1-2.9,0.2-5.5,2.1-7.9c1.7-2.2,3.7-3.6,6.6-3.8c3.6-0.2,6.8,0.3,9.2,3.3c1.8,2.3,2.1,4.9,2.2,7.6c0,0.9-0.5,1.3-1.4,1.2
		C297.3,524.2,295.1,524.2,292.9,524.2C292.9,524.2,292.9,524.2,292.9,524.2z M285.6,520.7c1.9,0,3.5,0,5.2,0c1.6,0,3.3,0.2,4.9-0.1
		c-0.6-3.2-2-4.4-4.8-4.4C288.1,516.2,286.4,517.5,285.6,520.7z"/>
	<path class="st2" d="M309.8,514.3c0.5,0.1,0.7-0.2,1-0.5c2.7-2.2,5.8-2.1,8.9-1.5c1.4,0.3,2.4,1.3,3.2,2.4c1.1,1.5,1.8,3.2,1.8,5.1
		c0,3.8,0,7.5,0,11.3c0,1.7-0.1,1.8-1.7,1.7c-3.7,0-3.2,0.4-3.2-3.1c0-2.4,0-4.8,0-7.2c0-0.8-0.1-1.6-0.2-2.4
		c-0.5-2.4-1.6-3.5-3.7-3.7c-2.8-0.2-4.4,0.9-5.3,3.1c-0.4,0.9-0.4,1.8-0.4,2.8c0,3,0,5.9,0,8.9c0,1.2-0.3,1.7-1.6,1.7
		c-3.9-0.1-3.3,0.3-3.3-3.3c0-5,0-10.1,0-15.1c0-0.8-0.6-2,1-2.2c2.2-0.3,2.9,0,3.5,1.7C309.6,514.1,309.7,514.1,309.8,514.3z"/>
	<path class="st2" d="M274.4,506.3c0,1.8,0,3.3,0,4.8c0,0.8,0.3,1.2,1.1,1.2c0.2,0,0.5,0,0.7,0c0.8,0.2,1.9-0.5,2.4,0.4
		c0.5,1,0.2,2.2,0.2,3.3c0,0.3-0.3,0.6-0.6,0.6c-0.2,0-0.5,0-0.7,0c-3.1,0.2-3.1,0.2-3.1,3.3c0,3.7,0,7.3,0,11c0,1.9,0,1.9-2,1.9
		c-3.2,0-2.9,0.2-2.9-2.8c0-3.9,0-7.8,0-11.7c0-1.2-0.3-1.9-1.6-1.7c-1.1,0.1-1.6-0.4-1.5-1.5c0-0.4,0-0.8,0-1.2
		c-0.1-1.2,0.3-1.8,1.6-1.7c1.2,0.2,1.4-0.4,1.5-1.5c0.1-3.6,0.1-3.6,3.7-4.3C273.5,506.3,273.8,506.4,274.4,506.3z"/>
	<path class="st1" d="M382.4,514c0.6,0.1,0.9-0.2,1.2-0.5c2.3-2.2,5-1.8,7.6-0.9c1.4,0.5,1.4,0.8,0.7,2.1c-0.3,0.5-0.6,0.9-0.8,1.5
		c-0.4,0.9-0.9,1-1.9,0.7c-3.5-1.1-6.2,0.8-6.4,4.6c-0.2,3-0.1,6.1-0.1,9.1c0,2.4,0,2.4-2.5,2.4c-0.2,0-0.5,0-0.7,0
		c-1.7-0.1-1.8-0.1-1.8-1.7c0-5.8,0-11.5,0-17.3c0-1.7,0-1.7,1.8-1.7c0.1,0,0.2,0,0.2,0C381.1,512,382.2,512.3,382.4,514z"/>
	<path class="st0" d="M304,330.2c0,1.1-0.4,2.2-1,3.4c-0.5-0.7-1-1.3-1.8-1.3c-0.8,0-1.3,0.5-1.8,1c-1.3,1.7-3.1,2.4-5.2,2.5
		c-1.2,0.1-2.4,0.2-3.6,0.4c-0.6,0.1-1.1,0.4-1.1,1c-0.1,0.7,0.2,1.2,1,1.4c0.2,0.1,0.5,0.2,0.7,0.2c2.2-0.2,3,1.2,3.1,3
		c0.1,1.2,1.4,2.7,0.2,3.6c-0.9,0.7-2.2-0.3-3.3-0.7c-2.1-0.8-4.1-1.7-6.2-2.6c-0.8-0.3-1.6-0.7-2.5-0.7c-0.7,0-1.3,0.1-1.5,0.9
		c-0.2,0.8,0.2,1.2,0.8,1.5c1.9,1,3.8,2,5.8,2.8c4.1,1.7,8.3,3.3,12.9,3c1.4-0.1,2.8-0.5,4.3-0.3c0.6,0.1,1.4,0,1.6,0.7
		c0.3,0.8-0.1,1.4-0.8,1.8c-1,0.6-2,1.3-3.3,1.2c-4.4,0-8.8-0.5-13.1-0.8c-2.3-0.2-4.6-0.5-6.8-1.1c-0.6-0.1-1.2-0.1-1.5,0.5
		c-0.4,0.8,0.1,1.2,0.7,1.5c2.6,1.4,5.4,1.9,8.3,2.2c0.7,0.1,1.4-0.1,2.1,0.3c-0.8,4.4-9.6,12.5-14.2,12.7c0.6-1.3,1.3-2.6,1.8-3.8
		c1.8-4.3,1.1-8.5-1.3-12.3c-1.5-2.3-4.1-3.2-6.7-3.8c-0.7-0.2-1.3,0.1-1.6,0.8c-0.3,0.8-0.1,1.6,0.7,2.1c0.6,0.4,1.2,0.2,1.9,0.4
		c2,0.5,3.4,1.6,4.1,3.6c1.6,4.5,1.3,8.6-2.2,12.2c-1,1-2.4,1.3-3.5,1.9c-0.5,0.3-1.1,0.4-1.5,0.8c-0.4,0.4-0.5,1-0.4,1.6
		c0.2,0.6,0.8,0.5,1.2,0.5c2.9,0,5.8,0.1,8.6,0c1.2,0,2.4,0.3,3.5,0.6c0.4,0.1,0.5,0.4,0.4,0.7c-0.1,0.2-0.3,0.3-0.6,0.3
		c-0.3,0.1-0.6,0-1,0c-6.1,0-12.2,0-18.2,0c-0.6,0-1.1,0-1.7-0.3c0.1-1.3,0.6-2.6,1.1-3.8c0.9-2.1,0.5-3.9-1-5.5
		c-0.1-0.1-0.2-0.2-0.3-0.3c-4.6-4.2-4.5-9.3-2.5-14.5c2-5.3,5-10,9.4-13.6c2.6-2.1,5.4-4,8.5-5.3c1.1-0.5,2.1-1.1,3.2-1.7
		c0.9-0.5,1.2-1.2,1.2-2.2c-0.1-1-0.9-1.5-1.7-1.8c-0.4-0.1-0.9-0.1-1.4-0.2c-0.8-0.1-1.4-0.5-1.5-1.3c-0.1-0.9,0.3-1.8,1.1-2.3
		c0.6-0.4,1,0.1,1.5,0.4c1,0.6,1.4,2,2.6,2c1,0,1.5-1.3,2.4-1.8c3.5-2,7.2-3.3,11.1-1.4c3,1.4,5.5,3.5,8.1,5.5
		c0.3,0.2,0.6,0.5,0.3,1c-0.3,0.4-0.6,0.5-1,0.3c-0.5-0.2-0.9-0.6-1.5-0.8c-0.6-0.2-1.3-0.2-1.7,0.5c-0.4,0.6-0.1,1.1,0.2,1.6
		c0.7,0.9,1.6,1.6,2.8,1.7C302.7,330,303.3,329.8,304,330.2z M290.7,324.8c0-1.2-0.9-2.1-2.1-2.1c-1.1,0-2,1-2,2.1
		c0,1.1,0.8,1.9,1.9,2C289.7,326.8,290.7,325.9,290.7,324.8z"/>
	<path class="st0" d="M254.3,356c0,0.3,0,0.5,0,0.8c0,1.6-0.1,1.7-1.7,1.8c-2.8,0.2-5.6-0.1-8.3-1.1c-4.4-1.6-8.5-4.1-10.8-8.2
		c-2.6-4.7-4-9.7-1.3-15c1.1-2.1,2.7-2.7,4.7-1.3c2,1.4,4,2.9,5.9,4.5c3.9,3.5,7.8,7.1,11.4,10.9c0.9,0.9,1.2,1.7,0.8,2.9
		C254.4,352.8,254.1,354.4,254.3,356z"/>
	<path class="st0" d="M285.9,372.1c3.3,0.2,6.4-0.4,9.5,0.5c0.3,0.1,0.6,0.1,0.9,0.3c0.3,0.1,0.5,0.4,0.5,0.7c0,0.4-0.3,0.5-0.7,0.5
		c-2.9,0-5.9,0-8.8-0.1C286.4,373.9,286,373.3,285.9,372.1z"/>
	<path class="st0" d="M304.1,346.2c-1.9-0.1-3.6,0.7-5.4,0.5c-0.8-0.1-1.1-0.4-1.1-1.2c0-0.7,0.2-1.3,1.1-1c2.6,1,5.3,0.9,8,0.8
		c1.2-0.1,2,0.4,2.5,1.4c0.1,0.3,0.1,0.6-0.2,0.9c-0.2,0.1-0.4,0.1-0.6-0.1C307.1,346.6,305.7,345.9,304.1,346.2z"/>
	<path class="st0" d="M290.5,363.3c-0.4,3.2-2.7,4.9-5,6.5c-0.7,0.5-1.4,0.8-2.4,0C285.6,367.5,288.1,365.4,290.5,363.3z"/>
	<path class="st0" d="M298.8,341.1c-1.4-0.3-2.4-0.4-2.4-1.6c0-0.6,0.7-1,1.2-0.8C298.7,338.9,298.4,339.9,298.8,341.1z"/>
	<path class="st0" d="M301.7,337.4c-0.2,0.6-0.1,1.5-1.1,1.6c-0.7,0.1-0.7-0.5-0.7-1c0-0.6-0.1-1.4,0.8-1.4
		C301.2,336.6,301.6,336.8,301.7,337.4z"/>
	<path class="st0" d="M205.7,482.4c-0.5,0-1,0-1.4,0c-2.5,0-2.4,0.3-2.4-2.5c0-2.1,0-2.1,2.1-2.1c1.3,0,2.6,0,3.8,0
		c2,0,2.9,0.8,2.9,2.4c0,1.5-0.9,2.2-2.8,2.3C207.1,482.4,206.4,482.4,205.7,482.4z"/>
	<path class="st0" d="M205.5,469.6c-0.2,0-0.5,0-0.7,0c-3,0-3.5-0.7-2.9-3.6c0.1-0.6,0.4-0.8,1-0.8c1.9,0,3.8-0.1,5.7,0
		c1.4,0.1,2.1,1,2.1,2.2c0,1.3-0.8,2.1-2.3,2.2c-0.1,0-0.2,0-0.2,0C207.2,469.6,206.4,469.6,205.5,469.6z"/>
	<path class="st0" d="M279.9,482.4c-0.2,0-0.5,0-0.7,0c-0.9-0.1-2.2,0.5-2.7-0.4c-0.6-1-0.2-2.3-0.2-3.5c0-0.6,0.5-0.7,1-0.7
		c1.8,0,3.7-0.1,5.5,0c1.4,0.1,2.2,1,2.2,2.3c0,1.3-0.8,2.2-2.2,2.3C281.8,482.5,280.8,482.4,279.9,482.4
		C279.9,482.4,279.9,482.4,279.9,482.4z"/>
	<path class="st0" d="M279.8,469.6c-0.2,0-0.5,0-0.7,0c-3,0-3.5-0.7-2.9-3.6c0.1-0.6,0.4-0.8,1-0.8c1.9,0,3.8-0.1,5.7,0
		c1.4,0.1,2.1,1,2.1,2.2c0,1.3-0.8,2.1-2.3,2.2C281.8,469.6,280.8,469.6,279.8,469.6C279.8,469.6,279.8,469.6,279.8,469.6z"/>
	<path class="st0" d="M313.8,468.1c0-3.4-0.5-3,3.1-3c0.8,0,1.6,0,2.4,0.1c1.5,0.3,2.4,1.3,2.5,2.7c0.1,1.6-0.6,2.8-2.2,3.3
		c-1.6,0.5-3.3,0.2-5,0.2c-0.6,0-0.8-0.4-0.8-1C313.8,469.7,313.8,468.9,313.8,468.1z"/>
	<path class="st0" d="M353.6,477.2c1-3.4,2-6.6,2.9-9.9c1.7,3.1,2.4,6.4,3.5,9.7C357.8,477.4,355.8,477.3,353.6,477.2z"/>
	<path class="st0" d="M361.9,516.5c3.3,0,5.3,2.2,5.5,5.5c0.2,2.8-2.7,5.7-5.6,5.5c-3.3-0.2-5.5-2.3-5.5-5.6
		C356.4,518.5,358.5,516.5,361.9,516.5z"/>
	<path class="st0" d="M402.8,516.5c3-0.4,6,2.7,6,6.1c0,4-3,6.2-5.9,6.3c-3.3,0.1-5.8-2.6-5.8-6.2
		C397.1,518.9,399.2,516.5,402.8,516.5z"/>
	<path class="st0" d="M223.5,522.6c0-3.7,3-6.2,5.9-6.2c3.5,0,6,3.4,6,6.1c0,3.6-3,6.4-6.1,6.3C226.1,528.9,223.5,526.1,223.5,522.6
		z"/>
	<path class="st0" d="M338.4,520.7c-1.2,0-2.4,0-3.6,0c-1.6,0-1.7-0.3-1.1-1.8c0.9-2.1,2.7-2.5,4.7-2.7c2.2-0.2,4.1,1.1,4.9,3.1
		c0.3,0.8,0.2,1.4-0.8,1.4C341.1,520.7,339.8,520.7,338.4,520.7C338.4,520.7,338.4,520.7,338.4,520.7z"/>
	<path class="st0" d="M285.6,520.7c0.8-3.2,2.4-4.5,5.2-4.5c2.9,0,4.3,1.2,4.8,4.4c-1.6,0.3-3.3,0.1-4.9,0.1
		C289.2,520.7,287.5,520.7,285.6,520.7z"/>
	<path class="st1" d="M290.7,324.8c0,1.1-1,2-2.2,2c-1.1,0-1.9-0.8-1.9-2c0-1.2,0.9-2.2,2-2.1C289.8,322.7,290.7,323.6,290.7,324.8z
		"/>
</g>
</svg>
