<?xml version="1.0" encoding="UTF-8" standalone="no"?>
<svg
   width="100%"
   height="100%"
   viewBox="0 0 2037 1994"
   version="1.1"
   xml:space="preserve"
   style="fill-rule:evenodd;clip-rule:evenodd;stroke-linecap:round;stroke-linejoin:round;stroke-miterlimit:1.5;"
   id="svg288"
   sodipodi:docname="BebrasNamibia_onlybeaver.svg"
   inkscape:version="1.1.1 (3bf5ae0d25, 2021-09-20)"
   xmlns:inkscape="http://www.inkscape.org/namespaces/inkscape"
   xmlns:sodipodi="http://sodipodi.sourceforge.net/DTD/sodipodi-0.dtd"
   xmlns="http://www.w3.org/2000/svg"
   xmlns:svg="http://www.w3.org/2000/svg"><defs
   id="defs292" /><sodipodi:namedview
   id="namedview290"
   pagecolor="#ffffff"
   bordercolor="#666666"
   borderopacity="1.0"
   inkscape:pageshadow="2"
   inkscape:pageopacity="0.0"
   inkscape:pagecheckerboard="0"
   showgrid="false"
   inkscape:zoom="0.72116349"
   inkscape:cx="1093.372"
   inkscape:cy="354.2886"
   inkscape:window-width="1680"
   inkscape:window-height="987"
   inkscape:window-x="-8"
   inkscape:window-y="-8"
   inkscape:window-maximized="1"
   inkscape:current-layer="svg288" />
    <g
   transform="translate(-16516.5,-3942.86)"
   id="g286">
        <g
   transform="matrix(0.665296,0.350645,-0.350645,0.665296,19060.3,-1526.91)"
   id="g4">
            <path
   d="m 2592.37,7819.56 c 11.34,-54.77 76.63,-56.77 100.45,-74.63 67.5,-50.63 316.94,-68.81 401.72,-47.61 48.41,12.1 173.24,43.8 208.29,78.85 8.17,8.17 52.41,57.7 82.89,100.61 -0.41,0.79 -0.75,1.71 -0.97,2.78 -3.42,2.61 -12,4.06 -16.09,3.75 -22.35,-1.66 -38.66,-12.96 -59.07,-21.53 -9.53,-4 -16.86,3.23 -25.8,5.18 -4.33,0.94 -8.86,1.02 -13.28,0.73 -28.45,-1.83 -27.75,-5.04 -56.13,-9.2 -6.31,-0.93 -13.09,2.15 -19.28,-0.13 -14.62,-5.37 -16.65,-23.19 -28.27,-31.65 -4.2,-3.06 -10.52,-2.91 -15.09,-3.11 -24.83,-1.09 -50.66,10.66 -75.47,10.73 -31.2,0.1 -34.9,-0.55 -65.97,0.17 -28.63,0.66 -53.27,-7.08 -81.88,-5.81 -22.38,1 -44.73,2.74 -67.13,3.36 -20.56,0.57 -41.14,0.57 -61.71,0.23 -3.63,-0.06 -7.35,-0.24 -10.78,-1.42 -2.75,-5.07 -4.91,-10.51 -8.2,-15.24 -7.34,-10.51 -102.03,-12.76 -125.79,0.22 -7.77,-3.48 -16.24,-12.42 -25.79,-11.91 -13.31,0.72 -21.41,12.22 -33.85,15.17 -0.86,0.2 -1.8,0.34 -2.8,0.46 z m 802.02,69.82 c 8.87,13.38 15.76,25.56 18.93,34.87 -8.46,3.27 -18.32,11.38 -21.76,28.44 -3.23,15.99 -3.12,26.88 -2.29,43.1 -39.59,6.25 -78.73,21.45 -115.16,2.86 10.86,-10.37 12.8,-23.48 6.77,-36.92 4.52,-12.25 5.59,-26.58 -2.44,-37.73 -3.74,-5.21 -9.87,-8.03 -13.13,-13.7 4.69,-9.07 12.47,-15.66 17.38,-24.89 7.3,-0.64 14.76,-13.84 21.63,-15.96 22.74,19.69 70.74,24.47 90.07,19.93 z m 20.6,40.85 c 27.02,109.42 30.86,221.82 -5.03,329.49 -6.63,19.86 -24.28,41.12 -34.22,61 -16.93,33.85 -14.72,78.36 -26.79,114.56 -0.89,2.68 -1.49,5.48 -1.89,8.39 -14.17,-8.68 -26.53,-14.18 -43.63,-18.17 -0.08,-28.75 6.81,-95.64 7.66,-104 1.63,-16.2 2.18,-32.5 3.47,-48.74 10.93,-1.32 57.32,-11.01 68.61,-12.9 8.43,-1.4 5.41,2.02 9.99,-5.21 0.04,-0.06 0.07,-0.04 0.09,0.04 0,0.4 0.01,0.75 0.01,1.04 0.01,0.29 0.06,-0.76 -0.01,-1.04 -0.14,-15.5 2.24,-110.33 3.01,-130.42 5.51,-0.19 11.7,-0.15 15.1,-5.51 4.53,-7.13 -9.24,-12.85 -14.2,-12.67 1.72,-27.08 10.24,-54.03 6.99,-81.09 -3.94,-32.77 -19.19,-77.99 10.84,-94.77 z m -68.04,536.02 c 0.74,10.89 1.89,21.88 0.52,31.52 -1.19,8.35 -2.31,19.51 -3.41,32.76 -7.21,-4.88 -14.46,-7.68 -21.53,-7.72 -7.55,-0.05 -11.68,-9.67 -18.15,-13.58 -0.06,-21.65 -0.5,-43.31 -0.79,-64.96 15.11,4.09 25.17,8.96 38.26,17.48 1.56,1.02 3.26,2.76 5.1,4.5 z m -3.57,72.74 c -1.21,15.52 -2.42,33.41 -3.72,52.7 -11.43,-1.15 -23.36,0.62 -34.36,1.78 -0.05,-20.52 -0.48,-41.08 -0.73,-61.53 12.61,-5.35 26,-1.97 38.81,7.05 z m -4.23,60.3 c -6.08,89.9 -14.3,206.57 -33.28,257.89 -1.07,0.14 -2.14,0.28 -3.21,0.42 -1.32,-12.33 -12.01,-34.09 -12.02,-46.62 -0.02,-16.08 6.26,-37.16 7.32,-53.11 1.95,-29.42 2.97,-24.86 3.64,-54.44 0.69,-30.58 3.34,-61.11 3.65,-91.7 7.59,-9.62 22.02,-14.43 33.9,-12.44 z m -47.85,281.96 c -74.87,74.31 -361.56,286.99 -464.94,286.99 l -20.96,-124.96 c 49.69,32.37 253.06,-64.53 195.75,-159.04 11.81,3.98 25.93,-12.26 28.86,-22.02 1.34,-4.47 2.03,-9.12 3.4,-13.58 0.95,-3.1 1.81,-6.33 3.56,-9.06 1.81,-2.82 8.01,-6.28 10.8,-7.71 4.31,2.95 7.72,4.76 13.08,5.44 0.48,7.79 0.73,18.77 9.57,22.11 -3.2,5.61 -4.71,11.68 -1.93,17.92 3.19,15.58 18.61,22.07 33.03,21.86 6.33,-0.09 16.98,-4.15 23.15,0.53 6.68,5.06 12.28,15.43 22.03,15.6 10.2,0.19 18.71,-9.19 27.3,-12.67 9.1,0.9 23.91,15.14 33.1,6.27 3.66,3.27 7.35,6.62 11.61,9.06 14.31,8.21 24.95,-17.66 29.91,-25.58 1.48,-2.36 2.92,-4.78 4.69,-6.94 9.46,-11.61 22.4,-13.66 36.89,-12.04 0.17,2.43 0.53,5.1 1.1,7.82 z m -299.57,-9.81 c -1.36,-1.56 -2.8,-3.13 -4.32,-4.69 -7.38,-7.59 -21.14,-27.87 -31.24,-31.24 -53.77,-17.92 -73.45,-151.9 -89.27,-199.37 -5.12,-15.36 3.09,-35.49 -4.47,-50.59 -4.55,-9.11 -7.79,-18.9 -10.26,-29.09 0.31,-0.02 0.61,-0.04 0.89,-0.08 23.23,-3.02 48.68,-11.53 72.14,-4.37 6.55,1.99 10.6,6.07 10.68,13.29 0.14,12.27 -7.16,19.65 1.06,31.39 3.37,4.82 10.77,17.9 16.12,17.93 2.38,0.01 5.87,-2.55 8.44,-1.29 1.23,4.11 3.43,11.41 6.49,14.71 6.74,7.28 19.49,3.76 23.82,-4.33 3.46,-6.47 3.71,-29.75 6.43,-36.45 22.5,3.54 45.23,13.22 65.32,31.6 2.57,2.35 10.19,1.4 13.56,-0.44 6.14,-3.35 8.21,-7.8 7.92,-14.62 -0.1,-2.25 -1.54,-4.23 -2.19,-6.38 -0.32,-1.08 -0.81,-3.65 0.27,-3.35 16.77,4.69 33.5,15.39 50.45,5.6 8.21,-4.73 6.83,-6.28 14.31,-12.22 19.35,17 43.34,16.62 67.24,19.91 14.9,2.06 28.73,8.94 43.73,9.47 10.08,0.36 24.13,-2.43 33.07,-3.52 -0.34,29.49 1.74,57.38 1.1,86.87 -0.59,27.23 -1.7,32.11 -3.7,59.36 -1.21,16.59 -7.05,32.79 -6.2,49.58 1.17,23.15 2.86,22.81 5.85,45.89 -6.02,-0.28 -12.07,0.12 -18.05,0.89 -4.55,0.58 -7.9,12.5 -12.13,14.3 -17.38,7.39 -24.77,14.75 -35.46,28.6 -6.75,-5.65 -17.84,-17.23 -26,-6.48 -3.84,-1.59 -7.6,-3.44 -11.55,-4.75 -3.95,-1.32 -7.97,-2.62 -12.11,-3.1 -9.49,-1.1 -18.95,7.68 -26.09,11.82 -8.54,-6.91 -16.57,-16.35 -28.59,-16.36 -9.21,-0.01 -25.96,14.97 -32.12,3.57 2.16,11.02 -9.14,-9.85 -9.61,-11.04 3.77,-9.27 19.94,-21.94 8.2,-29.11 -1.77,-1.09 -4.04,-1.13 -6.11,-1.19 -0.76,-12.16 -4.16,-22.25 -17.97,-23.07 -15.07,-10.73 -26.97,1.22 -34.41,17.66 -5.62,12.4 -6.44,16.59 -10.58,29.24 -3.33,3.12 -8.76,-3.49 -12.16,-1.04 -5.93,-3.39 -11.24,1.15 -12.5,6.49 z m -143.42,-334.27 c -5.48,-32.98 -6.98,-68.22 -21.58,-97.43 -3.06,-6.11 -4.67,-12.6 -5.28,-19.33 0.83,-0.28 1.64,-0.73 2.42,-1.36 2.02,-0.27 5.97,-0.83 7.56,-1.26 12.75,-0.88 33.59,1.68 46.95,3.11 9.04,0.96 24.54,2.28 32.79,5.32 6.16,2.27 10.04,8.69 15.94,11.58 -0.72,1.52 -1.58,3.02 -1.92,4.68 -0.6,2.97 -0.95,6.03 -0.86,9.07 0.19,6.7 5.92,9.51 11.89,10.36 8.84,1.26 18.62,-1.96 26.92,-4.45 0.14,10.89 11.46,16.92 21.14,14.1 8.28,-2.41 2.86,-24.61 6.61,-31.13 3.79,0.14 25.08,13.14 23.14,9.49 -7.89,-14.84 -4.39,-26.86 -3.21,-26.4 9.81,-4.01 -0.31,-19.68 -0.5,-27.53 -0.09,-3.82 6.51,-3.55 9.16,-7.12 6.17,3.05 11.19,1.03 18.64,-3.38 4.03,-2.38 12.49,2.89 15.9,-0.31 3.05,8.29 11.52,11.15 19.7,8.32 -0.85,2.86 -1.17,5.91 -1.09,8.89 0.1,3.29 0.67,6.58 1.63,9.72 5.52,18.12 25.98,7.72 38.04,5.28 8.65,5.12 22.54,21 31.84,7.1 1.34,-1.99 2.22,-4.26 3.21,-6.43 3.43,-2.26 7.98,-1.99 12.03,-2.67 8.59,25.56 47.02,16.44 65.52,11.97 8.66,4.96 13.17,24.53 25.91,20.61 2.83,-0.88 5.6,-2.02 8.16,-3.5 8.62,-4.24 19.73,-4.68 31.31,-2.99 0.24,21.33 0.76,42.4 0.77,62.4 -7.15,-2.05 -22.69,2.28 -15.49,11.99 3.78,5.1 10.17,5.09 15.59,7.22 0.23,23.86 0.8,47.91 0.85,71.91 -12.28,1.48 -19.25,10.6 -31.83,10.53 -13.65,-0.08 -28.81,-5.73 -42.33,-6.92 -14.27,-1.25 -18.53,-8.41 -32.62,-11.87 -5.33,-1.31 -10.53,-3.31 -15.35,-5.93 -6.32,-3.44 -13.86,-14.17 -22.69,-12.93 -12.56,1.76 -16.5,16.04 -28.48,18.74 -13.03,-3.11 -24.41,-9.73 -37.98,-11.12 -7.14,-0.73 -14.41,2.98 -15.84,10.51 -0.51,2.71 -0.45,5.53 -0.26,8.29 0.16,2.23 0.84,4.39 1.33,6.57 -7.92,-1.01 -44.11,-16.88 -67.71,-13.61 -10.33,1.43 -18.26,6.54 -20.33,18.16 -4.35,-9.5 -14.25,-11.52 -23.67,-9.54 0.75,-19.04 4.73,-46.62 -15.72,-57.62 -3.12,-1.68 -6.45,-2.98 -9.85,-3.97 -3.66,-1.05 -7.45,-1.7 -11.24,-2.12 -4.07,-0.47 -8.2,-0.84 -12.28,-0.54 -18.99,1.43 -37.93,3.39 -56.84,5.54 z M 2822,8400.93 c 3.65,-29.56 17.46,-61.35 9.19,-86.16 -14.47,-43.42 -46.8,-77.25 -72.16,-117.22 2.97,-0.86 5.54,-2.88 6.34,-5.9 22.3,-9.57 38.72,-17.85 62.41,-19.42 10.99,-0.73 22.53,1.02 32.14,-3.43 18.01,-8.33 38.34,-19.1 51.8,-32.88 3.99,12.23 19.51,17.95 29.87,17.18 23.4,-1.74 91.68,52.1 58.12,62.04 -7.92,2.35 -3.09,24.47 -4.62,32.74 -3.26,17.63 5.94,20.38 6.58,37.8 -4.12,3.69 -18.39,9.19 -23.16,12 -13.15,7.74 -36.75,13.77 -32.33,33.99 0.86,3.92 2.59,7.61 4.17,11.3 -28.84,13.5 -15.18,52.58 -17.14,77.29 -5.04,-3.11 -9.22,-7.5 -14.32,-10.51 -2,-1.18 -4.4,-1.55 -6.68,-1.9 -16.53,-2.5 -33.14,-4.51 -49.72,-6.65 -11.2,-1.44 -24.82,-4.21 -36.2,-0.83 -1.61,0.21 -3.01,0.38 -4.29,0.56 z M 2749.88,8182 c -16.89,-31.45 -27.45,-67.99 -42.77,-98.64 -13.72,-27.42 -36.17,-71.45 -58.86,-106.46 -19.9,-30.71 -40.45,-52.36 -49.09,-78.27 -6.14,-18.43 -7.78,-38.8 -8.42,-58.08 -0.03,-0.82 -0.05,-1.63 -0.06,-2.43 2.99,-0.35 5.97,-0.76 8.9,-1.4 10.68,-2.34 18.46,-9.97 28.23,-14.36 1.42,-0.64 4.01,1.54 4.91,2.08 8.09,4.82 17.98,13.07 28.3,8.66 6.43,-2.74 32.69,-17.83 38.89,-20.99 6.7,-3.42 23.4,5.5 31.24,5.4 11.84,10.99 24.4,-0.67 36.06,10.44 2.46,5.68 5.41,16.43 12.67,18.83 4.94,1.63 10.06,2.87 15.24,3.36 0.14,0.63 0.35,1.23 0.62,1.81 -1.03,13.21 10.6,71.4 26.2,92.65 14.26,19.42 -20.79,53.52 -2.74,73.94 -1.67,5.4 -5.94,11.92 -4.29,18.05 4.92,18.3 13.71,17.23 20.47,2.8 2.76,-5.89 17.34,-16.83 14.59,-22.04 2.6,-0.29 5.23,-0.23 7.84,-0.18 2.13,4.42 8.14,-8.45 12.51,-10.58 0.99,-0.33 10.66,0.52 17.38,-0.69 15.97,0.86 37.76,5.78 62.39,11.08 2.81,4.23 5.72,4.16 10.31,2.39 13.34,3.35 31.46,19.02 43.28,27.41 1.1,2.59 3.35,4.55 6.07,5.27 4.22,4.73 5.78,10.27 2.97,16.79 -9.8,-2.02 -12.67,10.78 -9.04,23.25 -12.24,-0.1 -25.11,3.25 -22.58,13.24 -5.33,1.95 -16.16,0.16 -21.52,1.27 -8.56,1.78 -5.21,17.79 -15.2,16.29 -3.4,-0.51 -8.35,-4.02 -10.97,-4.95 -7.66,-2.74 -17.48,-5.95 -25.39,-1.65 -14.72,7.99 -24.01,22.34 -35.43,33.99 -3.08,3.14 -12.85,11 -17.6,11.66 -23.21,3.23 -46.77,3.41 -70.05,6.16 -7.57,0.9 -15.03,2.73 -22.38,4.77 -2.34,0.65 -4.55,1.83 -6.53,3.24 -2.24,1.59 -4.41,3.4 -5.99,5.65 -0.05,0.08 -0.11,0.16 -0.16,0.24 z m 55.52,861.28 c -1.39,-0.9 -2.66,-1.91 -3.8,-3.02 z m 10.81,-1320.18 c -9.1,-3.52 -16.75,9.06 -9.42,15.34 0.49,9.94 -4.64,38.27 13.59,39.73 2.81,0.22 5.69,0.14 8.43,-0.52 11.9,-2.88 23.48,-6.93 35.32,-10.05 5.31,-1.4 10.69,-2.61 16.11,-3.5 9.21,12.19 10.52,29.18 22.6,39.43 5.01,4.25 13.32,8.6 19.12,2.9 2.8,-2.76 5.01,-6.06 7.27,-9.27 1.74,-2.46 3.23,-5.1 4.73,-7.71 11.66,-11.64 16.87,-15.55 30.08,-22.18 7.81,0.81 29.47,13.23 37,1.98 1.69,-2.53 3.02,-5.33 4.04,-8.21 0.58,-1.64 0.49,-3.44 0.68,-5.17 5.84,-4.13 26.52,-2.57 28.62,-2.68 8.4,-0.44 12.1,-1.17 19.4,-5.43 4.34,-2.53 3.75,-10.21 2.7,-13.8 -2.3,-7.89 -4.7,-13.87 -10.3,-19.39 -12,-11.86 -31.24,-13.81 -47.03,-16.09 -6.83,-0.98 -13.62,-2.26 -20.5,-2.76 -21.86,-1.59 -42.53,4.74 -63.55,9.78 -32.5,7.8 -65.09,17.81 -98.89,17.6 z m 9.19,18.05 c 27.4,-15.77 157.08,-54.36 175.16,-29.24 6.53,9.07 32.71,6.25 36.57,22.18 -16.06,0.78 -46.55,-2.32 -49.53,20.1 -7.52,-1.71 -14.9,-4.19 -22.56,-5.12 -4.41,-0.52 -11.64,2.75 -15.24,4.82 -14.96,8.6 -26.94,20.12 -36.58,34.63 -7.29,-7.66 -9.69,-18.77 -14.25,-27.88 -2.79,-5.55 -7.64,-14.95 -15.5,-14.77 -5.38,0.13 -10.78,0.8 -16.04,1.97 -6.9,1.54 -13.51,4.21 -20.32,6.14 -6.79,1.93 -13.51,4.25 -20.47,5.45 -0.31,-4.98 -0.78,-12.31 -1.24,-18.28 z m -6.7,0.12 c -0.38,0.14 -0.89,0.29 -1.29,0.35 -0.44,0.07 -0.88,0.11 -1.32,0.16 -0.16,0.02 -0.49,0.07 -0.65,0.05 -0.17,-0.02 -0.05,-0.12 0.01,-0.12 0.18,-0.01 0.37,0.03 0.55,0.02 0.93,-0.05 1.76,-0.48 2.7,-0.46 z m 130.92,688.82 c 8.63,-19.89 -2.42,-41.47 1.6,-62.01 2.1,-10.69 17.09,-9.71 18.24,-20.96 0.74,-7.33 -2.88,-11.4 -5.13,-17.88 -0.42,-1.22 -1.14,-2.63 -0.63,-3.82 -3.12,-23.1 71.35,-44.38 94.87,-32.26 5.26,2.71 6.01,-6.42 9.21,-10.84 2.32,0.91 4.61,2.01 7.06,2.44 2.97,0.52 6.03,0.54 9.04,0.39 12.93,-0.64 14.29,-19.08 15.56,-27.79 10.85,-4.7 21.32,-6.98 33.41,-9.9 -0.46,17.72 -15.46,30.29 -16.13,48.26 -0.55,14.56 17.89,17.23 27.33,25.61 23.25,20.61 25,43.66 19.19,70.17 -1.91,1.2 -3.38,3.1 -3.98,5.45 -9.69,2.01 -22.47,2.4 -27.85,12.33 -3.74,-2.82 -7.18,-6.11 -11.31,-8.32 -9.67,-5.19 -20.11,2.92 -29.27,4.19 -1.1,-1.56 -0.43,-4.12 0.06,-5.66 2.47,-7.71 9.74,-14.72 -6.59,-14.66 -2.93,0.01 -3.71,-14.25 -6.52,-13.39 -2.8,0.85 -5.22,2.64 -7.87,3.89 -0.68,-1.93 -1.35,-3.89 -2.33,-5.68 -0.85,-1.56 -11.51,8.28 -12.77,7.03 -10.21,-10.15 -11.55,-4.58 -18.65,0.05 -4.98,-2.04 -9.77,-4.65 -14.98,-6.02 -13.57,-3.57 -20.77,12.77 -21.3,23.33 -0.34,6.82 2.78,7.02 0.78,13.91 -10.61,3.45 -32.04,10 -27.04,25.54 -1.77,0.62 -3.38,1.43 -4.88,2.67 -7.67,2.88 -15.77,5.86 -24.02,7.05 2.02,-4.49 3.89,-7.59 4.9,-13.12 z m 340.54,-6.93 c -12.43,-1.45 -28.33,-1.08 -39.85,5.35 -6.19,-8.1 -12.98,-20.69 -25.34,-19.7 -12.51,1 -23.64,5.94 -36.22,5.66 -3.71,-0.08 -10.89,-0.47 -12.31,-5.29 11.12,-8.58 3.9,-28.46 1.55,-38.35 -1.85,-7.79 -3.94,-15.51 -6.04,-23.23 -4.16,-15.3 -7.14,-31.9 -18.98,-43.51 -4.21,-4.12 -12.5,-8.08 -17.18,-11.48 7.37,-15.22 19.63,-36.18 13.96,-53.82 6.95,-4.92 18.28,-14.01 15.47,-24.02 -1.36,-4.85 -7,-10.2 -9.67,-13.06 4.85,-2.69 14.06,-6.33 18.84,-10.71 8.79,-8.03 19.09,-35.74 19.82,-37.14 5.74,-10.9 11.07,-29.29 20.66,-37.22 3.77,-3.13 14.81,-7.5 19.41,-8.75 10.05,-2.73 20.08,-5.66 30.36,-7.28 24.52,-3.87 48.36,7.41 71.23,13.57 15,4.05 31.97,11.96 47.12,10.87 -1.36,36.14 4.58,115.78 4.68,126.97 -9.98,2.57 -76.3,2.4 -83.92,10.72 -1.34,1.46 -1.96,3.56 -2.16,5.52 -1.72,16.83 -2.79,130.06 -11.43,154.9 z m -150.13,-450.79 c -0.55,11.18 -18.21,0.07 -21.43,9.81 -3.59,10.86 -0.06,19.83 1.12,30.93 0.58,5.45 -5,8.28 -5.39,13.53 -5.76,-3.76 -13.89,-1.75 -20.02,-1.05 -7.48,-9.99 -16.37,-39.82 -35.71,-28.89 -7.07,3.99 -13.74,8.67 -20.54,13.11 -12.02,7.86 -16.31,10 -25.63,20.96 -14.5,-9.67 -33.98,-15.51 -50.62,-19.53 l -0.99,-2.15 c 10.8,-6.87 2.8,-17.16 -3.84,-23.24 l -1.43,-12.68 c 4.15,-3.52 21.74,-13.23 14.65,-22.26 -1.93,-2.45 -4.13,-4.69 -6.49,-6.72 -8.33,-12.03 8.51,-21.78 8.99,-33.48 0.37,-9.23 -4.54,-17.84 -3.39,-27.08 3.99,3.61 7.04,8.23 11.21,11.63 11.81,9.66 20.15,-0.62 27.92,-9.27 6.3,-3.62 7.43,-0.38 13.6,-4.4 15.24,-0.65 89.67,-7.51 101.47,-7.34 -1.54,29.98 -2.77,39.97 -3.92,69.91 -0.2,5.03 -0.17,10.1 0.47,15.1 1.55,12.16 8.35,14.01 19.97,13.11 z m -225.56,-124.52 c 0.76,0.7 1.61,1.25 2.52,1.64 1,4.98 1.12,10.14 2.44,15.04 -5.72,3.58 -11.63,6.86 -17.21,10.66 -8.39,5.71 -27.9,8.54 -14.03,18.76 5.89,4.35 13.23,21.21 19.92,23.81 -0.68,4.37 -1.96,10.48 -0.96,14.96 1.56,6.96 7.42,14.69 5.24,22.39 -16.97,21.07 -8.99,14.65 4.53,18.21 -0.28,1.12 -2.55,10.56 -2.74,11.4 -4.06,2.01 -7.62,5.73 -6.61,10.69 -8.54,1.53 -17.09,3.01 -25.66,4.38 -13.44,-0.67 -23.13,-1.53 -36.58,-0.23 -4.34,0.42 -10.34,2.52 -13.41,5.86 -6.15,-8.29 -4.1,-20.58 -3.57,-29.8 0.51,-8.92 1.62,-17.81 1.73,-26.74 0.18,-13.8 -8.04,-25.83 -12.38,-38.31 -2.55,-7.32 -4.71,-14.79 -6.39,-22.35 -2.75,-12.37 3.08,-24.9 2.63,-37.2 29.95,0.48 75.89,-1.91 100.53,-3.17 z m 19.02,157.68 c 2.7,-4.37 1.23,-10.02 -2.65,-12.99 4.03,-10.33 -9.32,-19.7 -17.23,-27.49 8.95,-11.23 14.51,-24.15 11.3,-36.23 1.1,-6.06 4.83,-18.15 -1.88,-23.31 -3.29,-2.53 -7.22,-4.13 -10.95,-5.94 -2.25,-1.1 -4.66,-1.82 -6.97,-2.76 6.78,-7.19 16.88,-12.71 24.53,-17.42 6.42,0.02 14.53,0.03 22.11,-1.34 -1.07,12.63 -1.42,12.61 1.21,24.89 0.39,1.82 2.64,4.71 1.64,6.85 -2.88,6.25 -7.24,11.75 -10.25,17.94 -4.45,9.17 -0.65,19.74 4.87,27.45 -4.08,3.17 -8.39,5.48 -10.85,10.36 -4.85,9.66 -2.35,24.95 5.2,32.64 -2.21,2.43 -3.03,5.14 -2.74,8.63 -2.46,-0.45 -4.91,-0.87 -7.34,-1.28 z m 456.92,9.21 c 1.87,31.46 -4.74,61.03 -6.58,92.22 -14.11,1.17 -28.9,2.84 -42.89,-0.7 -21.07,-5.33 -41.61,-13.41 -63.54,-14.64 -16.76,-0.94 -34.57,4.04 -50.06,9.43 -12.26,4.27 -24.88,10.02 -33.35,20.3 -13.51,16.39 -13.56,44.05 -22.94,62.84 -6.08,3.72 -20.71,11.68 -25.99,16.41 -3.8,3.42 -12.52,0.51 -9.73,4.88 3.03,4.73 6.98,8.83 10.92,12.83 -3.91,3.64 -9.04,6.12 -12.46,10.2 -12.81,2.39 -24.45,5.76 -36.7,10.24 -5.76,2.1 -11.27,4.34 -14.31,10.21 -2.31,4.45 -2.46,13.46 -3.1,18.27 -4.48,0.69 -8.64,-2.96 -13.14,-3.55 -7.61,-1.01 -13.84,8.23 -16.83,13.29 -13,2.43 -26.35,2.55 -39.29,5.24 -1.2,-14.54 -6.42,-28.52 -6.26,-43.21 4.01,-8.04 9.81,-19.41 11.15,-29.16 3.42,-25.02 -19.3,-40.31 -38.58,-51.05 -5.91,-3.29 -11.74,-6.8 -18.01,-9.35 -8.16,-3.33 -22.56,-3.07 -27.52,-12.66 14.28,6.2 32.34,5.17 36.92,-12.68 13.49,0.91 35.24,-2.67 31.14,-21.14 8.44,0.24 17.17,-6.21 15.83,-15.64 6.83,-0.17 10.26,-3.6 13.35,-9.21 6.11,-11.06 4.87,-25.18 -2.72,-35.22 10.63,-11.94 26.71,-22.53 40.84,-29.86 9.66,9.18 10.91,30.58 27.5,30.84 3.23,0.05 6.46,-0.42 9.66,-0.87 2.37,4.91 5.31,10.68 11.17,12.05 13.68,3.19 23.14,-14.26 18.52,-25.91 8.07,-10.84 3.03,-21.79 0.94,-33.38 14.44,0.06 23.32,-18.46 13.55,-32.55 18.19,0.79 26.32,0.2 44.52,2.12 8.97,0.94 26.05,2.59 34.98,4.39 -1.14,13.14 -9.61,29.76 -4.05,42.27 5.23,11.77 25.13,3.95 32.77,3.82 14.99,-0.26 29.96,1.37 44.96,1.45 22.5,0.1 22.21,-2.06 44.83,-3.46 17.6,-1.09 25.26,-0.01 42.85,0.22 0.53,0.3 1.08,0.54 1.65,0.72 z m -255.05,-168.52 c 0.3,-0.06 0.61,-0.14 0.91,-0.23 0.16,-0.04 0.3,-0.12 0.45,-0.18 0.22,-0.09 0.23,-0.1 0.46,-0.14 0.02,0 0.05,-0.01 0.06,0 0.02,0.01 -0.01,0.02 -0.02,0.03 -0.09,0.03 -0.17,0.06 -0.26,0.08 -0.53,0.17 -1.06,0.34 -1.6,0.44 z m 126.19,39.15 c -2.16,2.25 -4.26,4.58 -6.15,7.06 -2.18,2.89 -4.42,5.79 -6.03,9.02 -8.73,17.47 10.82,23.5 16.72,37.06 2.93,6.75 -3.07,15.4 -3.76,21.58 -0.55,4.88 2.26,9.51 3.93,13.75 -0.04,3.95 -0.64,7.34 -3.22,10.51 -3.72,4.57 -9.8,7.31 -10.95,13.66 -4.43,0.54 -8.82,1.37 -13.23,1.99 0.61,-9.02 7.49,-20.97 2.89,-30.35 -5.84,-11.89 -18.63,-9.42 -29.56,-10.47 -24.22,-2.34 -49.28,-7.28 -73.81,-5.19 -2.47,-19.47 -10.58,-38.27 -8.62,-57.54 1.58,-15.51 15.49,-37.78 15.16,-53.41 4.08,-0.12 8.09,-0.19 12.02,-0.19 8.43,10.26 14.17,22.39 25.71,29.69 7.96,5.03 16.97,2.7 25.77,3.61 10.03,1.04 9.39,3.36 19.45,4.99 11.17,1.8 22.38,3.56 33.68,4.23 z m -135.05,-41.59 c -0.29,4.62 -0.96,15.14 -1.39,22.85 -9.94,0.2 -77.57,-5.58 -98.03,-4.64 -7.19,0.32 -9.98,2.91 -16.7,4.93 -5.48,1.64 -7.53,0.32 -12.33,4.14 -0.75,0.6 -6.46,10.31 -9.94,8.03 -3.78,-2.47 -2.97,-5.35 -6.02,-8.39 -3.71,-3.7 -9.84,-7.53 -15.21,-8.12 -3.51,-5.16 -8.76,-5.55 -14.18,-3.43 -4.66,1.53 -9.98,2 -14.98,2.11 -0.32,-0.8 -0.63,-1.51 -0.85,-2.01 -0.17,-1.56 -0.83,-7.82 -1.71,-12.46 22.55,-1.18 45.08,-2.69 67.66,-3.17 32.49,-0.69 91.19,1.7 123.68,0.16 z"
   style="fill:#725656"
   id="path2" />
        </g>
        <g
   transform="translate(11640.3,-26.8591)"
   id="g8">
            <path
   d="m 5971.31,4707.92 c -2.01,-11.2 19.3,29.73 23.23,34.31 18.22,21.25 35.45,43.76 53.82,64.96 43.94,50.7 77.26,106.06 122.49,155.89 256.7,282.84 116.37,528.05 -79.78,685.61 -185.39,148.9 -595.8,-39.86 -660.1,-167.25 -57.63,-114.15 61.17,-449.62 162.71,-581.46 22.56,-29.3 36.49,-79.58 48.6,-126.2 6.3,-24.23 12.1,-47.47 18.37,-66.27 z"
   style="fill:#4c3232"
   id="path6" />
        </g>
        <g
   transform="translate(11640.3,-26.8591)"
   id="g12">
            <path
   d="m 6213.58,5094.28 c -21.7,-57.89 -87.96,-181.03 -42.73,-131.2 256.7,282.84 116.37,528.05 -79.78,685.61 -152.01,122.09 -455.3,17.16 -595.04,-94.8 154.45,89.29 439.12,163.87 568.44,60 153.13,-123 226.37,-313.57 149.11,-519.61 z"
   style="fill:#313131"
   id="path10" />
        </g>
        <g
   transform="translate(11640.3,-26.8591)"
   id="g16">
            <path
   d="m 5969.15,4706.08 c -2.01,-11.21 21.46,31.57 25.39,36.15 18.22,21.25 35.45,43.76 53.82,64.96 43.94,50.7 77.26,106.06 122.49,155.89 256.7,282.84 116.37,528.05 -79.78,685.61 -185.39,148.9 -595.8,-39.86 -660.1,-167.25 -57.63,-114.15 61.17,-449.62 162.71,-581.46 34.29,-44.53 34.83,-87.6 53.15,-142.57"
   style="fill:none;stroke:#000000;stroke-width:8.48px"
   id="path14" />
        </g>
        <g
   transform="matrix(1,0,0,0.945712,11517.8,377.934)"
   id="g28">
            <path
   d="m 6262.47,5428.78 c 58.42,33.47 -24.74,176.57 47.79,179.13 27.71,0.98 233.55,6.67 246.83,87.23 24.83,150.59 -242.19,234.29 -308.07,135.47 -27.7,-41.55 -71.8,-104.38 -57.53,-161.45 9.59,-38.38 57.86,-74.68 22.27,-128.06 -14.28,-21.42 -36.11,-20.12 -53.82,-33.4 -18.46,-13.85 79.74,-91.97 102.53,-78.92 z"
   style="fill:#4c3232"
   id="path18" />
            <path
   d="m 6548.89,5761.19 c -46.5,106.47 -244.42,152.59 -299.87,69.42 -27.7,-41.55 -71.8,-104.38 -57.53,-161.45 9.59,-38.38 57.86,-74.68 22.27,-128.06 -14.28,-21.42 9.21,-57.85 23.49,-36.42 35.58,53.38 0.41,107.29 -9.19,145.68 -14.27,57.07 16.75,102.28 44.45,143.83 48.62,72.93 206.83,46.43 276.38,-33 z"
   style="fill:#313131"
   id="path20" />
            <path
   d="m 6262.47,5428.78 c 58.42,33.47 -24.74,176.57 47.79,179.13 27.71,0.98 233.55,6.67 246.83,87.23 24.83,150.59 -242.19,234.29 -308.07,135.47 -27.7,-41.55 -71.8,-104.38 -57.53,-161.45 9.59,-38.38 57.86,-74.68 22.27,-128.06 -14.28,-21.42 -36.11,-20.12 -53.82,-33.4"
   style="fill:none;stroke:#000000;stroke-width:8.71px"
   id="path22" />
            <path
   d="m 6488.18,5813.49 c 0.55,5.14 3.96,-35.25 3.96,-42.26 0,-33.19 -11.89,-82.39 -46.4,-94.65"
   style="fill:none;stroke:#000000;stroke-width:8.71px"
   id="path24" />
            <path
   d="m 6412.66,5825.52 c -1.1,4.64 4.98,-4.19 5.24,-6.04 1.74,-12.15 3.07,-26.84 1.86,-38.97 -4.51,-45.14 -23.61,-74.68 -66.81,-89.08"
   style="fill:none;stroke:#000000;stroke-width:8.71px"
   id="path26" />
        </g>
        <g
   transform="translate(11644.2,-19.2359)"
   id="g54">
            <g
   transform="matrix(-1,0,0,1,11736.7,-42.9348)"
   id="g32">
                <path
   d="m 6219.56,5520.73 c 60.18,60.18 11.04,142.37 47.79,179.12 11.77,11.77 222.53,14.33 246.83,87.23 48.26,144.79 -242.2,234.29 -308.07,135.48 -27.71,-41.56 -71.8,-104.39 -57.53,-161.46 9.59,-38.38 57.85,-74.68 22.27,-128.06 -14.29,-21.42 -36.11,-20.12 -53.82,-33.4 -18.46,-13.85 83.95,-97.49 102.53,-78.91 z"
   style="fill:#4c3232"
   id="path30" />
            </g>
            <g
   transform="matrix(-1,0,0,1,11736.7,-42.9348)"
   id="g36">
                <path
   d="m 6219.56,5520.73 c 60.18,60.18 11.04,142.37 47.79,179.12 11.77,11.77 222.53,14.33 246.83,87.23 48.26,144.79 -242.2,234.29 -308.07,135.48 -27.71,-41.56 -71.8,-104.39 -57.53,-161.46 9.59,-38.38 57.85,-74.68 22.27,-128.06 -14.29,-21.42 -36.11,-20.12 -53.82,-33.4 -18.46,-13.85 83.95,-97.49 102.53,-78.91 z"
   style="fill:#4c3232"
   id="path34" />
            </g>
            <g
   transform="matrix(-1,0,0,1,11731.9,-42.9348)"
   id="g40">
                <path
   d="m 6489.8,5890.18 c -78.5,56.01 -212.42,69.82 -254.54,6.64 -27.7,-41.55 -71.8,-104.39 -57.53,-161.46 9.59,-38.38 57.86,-74.67 22.27,-128.05 -14.28,-21.43 -92.83,-15.07 -82.97,-7.67 17.71,13.28 39.53,11.98 53.82,33.4 35.58,53.38 -12.68,89.68 -22.27,128.06 -14.27,57.07 29.82,119.9 57.53,161.46 47.98,71.96 215.08,44.04 283.69,-32.38 z"
   style="fill:#313131"
   id="path38" />
            </g>
            <g
   transform="matrix(-1,0,0,1,11734.2,-39.1256)"
   id="g44">
                <path
   d="m 6219.56,5520.73 c 60.18,60.18 11.04,142.37 47.79,179.12 11.77,11.77 222.53,14.33 246.83,87.23 48.26,144.79 -242.2,234.29 -308.07,135.48 -27.71,-41.56 -71.8,-104.39 -57.53,-161.46 9.59,-38.38 57.85,-74.68 22.27,-128.06 -14.29,-21.42 -36.11,-20.12 -53.82,-33.4"
   style="fill:none;stroke:#000000;stroke-width:8.48px"
   id="path42" />
            </g>
            <g
   transform="matrix(-1,0,0,1,11734.2,-39.1256)"
   id="g48">
                <path
   d="m 6445.27,5905.43 c 0.55,5.14 3.95,-35.25 3.95,-42.26 0,-33.19 -11.88,-82.39 -46.39,-94.65"
   style="fill:none;stroke:#000000;stroke-width:8.48px"
   id="path46" />
            </g>
            <g
   transform="matrix(-1,0,0,1,11734.2,-39.1256)"
   id="g52">
                <path
   d="m 6369.75,5917.46 c -1.1,4.65 4.98,-4.19 5.24,-6.04 1.74,-12.15 3.07,-26.84 1.86,-38.97 -4.52,-45.14 -23.62,-74.68 -66.82,-89.08"
   style="fill:none;stroke:#000000;stroke-width:8.48px"
   id="path50" />
            </g>
        </g>
        <g
   transform="matrix(-0.880738,0.0492552,0.0487609,0.871899,24783.8,231.911)"
   id="g58">
            <path
   d="m 8219.83,4979.36 c 0,-99.38 -130.18,-237.92 -197.07,-304.81 -41.29,-41.29 -73.76,-95.18 -109.3,-142.57 -31.89,-42.52 -67.74,-126.59 -120.39,-144.14 -40.9,-13.64 -137.79,12.27 -177.41,22.17 -27.73,6.93 -67.76,53.45 -99.8,42.77 -1.12,-0.37 -2.18,-0.93 -3.17,-1.58 -21.41,-14.12 -5.45,-43.96 -11.92,-43.95 -53.17,0.11 -94.87,-20.58 -20.35,-92.91 8.65,-8.4 -19.18,-3.37 -19.18,-5.08 -39.44,-33.86 3.7,-82.12 70.46,-106.76 18.22,-6.72 92.77,-16.37 158.3,-20.88 20.21,-1.4 35.22,3.36 47.11,9.24 13.95,6.89 23.62,15.32 32.4,17.16 31.94,6.74 38.92,-17.71 40.99,-19.78 22.98,-22.98 1.15,-120.79 74.45,-106.13 27.52,5.51 80.22,27.6 71.28,63.37 -8.1,32.38 -62.68,42.99 -77.62,72.86 -6.2,12.41 12.49,23.57 19.01,30.1 28.72,28.72 18.73,79.48 -4.75,102.96 -10.31,10.32 48.77,101.05 58.61,110.89 85.02,85.02 201.18,136.09 251.1,246.73 37.16,82.34 136.14,6.78 173.34,-26.88 14.4,-13.02 -156.09,297.22 -156.09,297.22 z"
   style="fill:#4c3232"
   id="path56" />
        </g>
        <g
   transform="matrix(-0.880738,0.0492552,0.0487609,0.871899,24783.8,231.911)"
   id="g62">
            <path
   d="m 8219.83,4979.36 c 56.43,24.72 -21.42,-248.88 -172.65,-352.71 -48.14,-33.05 -73.76,-95.18 -109.3,-142.57 -31.9,-42.53 -70.44,-96.16 -123.09,-113.71 -40.9,-13.64 -135.09,-18.17 -174.72,-8.26 -27.72,6.93 -67.75,53.45 -99.79,42.77 -1.12,-0.37 -2.18,-0.93 -3.17,-1.58 -21.41,-14.12 8.36,-33.41 2.04,-32.04 -54.13,11.69 -89.99,-10.46 -74.63,-40.32 -51.78,58.95 -12.61,76.41 36.25,76.31 6.47,-0.01 -9.49,29.83 11.92,43.95 0.99,0.65 2.05,1.21 3.17,1.58 32.04,10.68 72.07,-35.84 99.8,-42.77 39.62,-9.9 136.51,-35.81 177.41,-22.17 52.65,17.55 88.5,101.62 120.39,144.14 35.54,47.39 68.01,101.28 109.3,142.57 66.89,66.89 197.07,205.43 197.07,304.81 z"
   style="fill:#313131"
   id="path60" />
        </g>
        <g
   transform="matrix(-0.880738,0.0492552,0.0487609,0.871899,24783.8,231.911)"
   id="g66">
            <path
   d="m 8379.38,4682.6 c -37.21,33.65 -139.64,108.76 -176.8,26.42 -49.92,-110.64 -166.08,-161.71 -251.1,-246.73 -9.84,-9.84 -68.92,-100.57 -58.61,-110.89 23.48,-23.48 33.47,-74.24 4.75,-102.96 -6.52,-6.53 -25.21,-17.69 -19.01,-30.1 14.94,-29.87 69.52,-40.48 77.62,-72.86 8.94,-35.77 -43.76,-57.86 -71.28,-63.37 -73.3,-14.66 -51.47,83.15 -74.45,106.13 -2.07,2.07 -9.05,26.52 -40.99,19.78 -8.78,-1.84 -18.45,-10.27 -32.4,-17.16 -11.89,-5.88 -26.9,-10.64 -47.11,-9.24 -65.53,4.51 -140.08,14.16 -158.3,20.88 -66.76,24.64 -109.9,72.9 -70.46,106.76"
   style="fill:none;stroke:#000000;stroke-width:9.66px"
   id="path64" />
        </g>
        <g
   transform="matrix(-0.880738,0.0492552,0.0487609,0.871899,24783.8,231.911)"
   id="g70">
            <path
   d="m 7670.24,4256.87 c 6.03,-1.27 -30.92,3.69 -45.08,2.66 -40.25,-2.95 -151.41,35.12 -181.09,103.07 -20.02,45.83 71.86,52.72 63.18,34.89"
   style="fill:none;stroke:#000000;stroke-width:9.66px"
   id="path68" />
        </g>
        <g
   transform="matrix(-0.880738,0.0492552,0.0487609,0.871899,24783.8,231.911)"
   id="g74">
            <path
   d="m 7692.5,4326.6 c -12.35,-7.57 -71.33,1.06 -113.68,18.52 -41.76,17.22 -110.94,61.26 -66.13,106.08 0.84,0.83 2.05,1.21 3.17,1.58 32.04,10.68 72.07,-35.84 99.8,-42.77 39.62,-9.9 136.51,-35.81 177.41,-22.17 52.65,17.55 88.5,101.62 120.39,144.14 35.54,47.39 68.01,101.28 109.3,142.57 66.89,66.89 197.07,205.43 197.07,304.81"
   style="fill:none;stroke:#000000;stroke-width:9.66px"
   id="path72" />
        </g>
        <g
   transform="matrix(-0.880738,0.0492552,0.0487609,0.871899,24783.8,231.911)"
   id="g78">
            <path
   d="m 7872.29,4326.6 c -0.39,-57.95 -87,-69.48 -128.32,-59.15"
   style="fill:none;stroke:#000000;stroke-width:9.66px"
   id="path76" />
        </g>
        <g
   transform="rotate(8.1721643,1187.348,86977.956)"
   id="g82">
            <path
   d="m 6227.43,2758.78 c 10.09,-0.95 1.76,-8.55 0.12,-9.13 -31.5,-11.23 -97.41,31.28 -86.58,72.01 1.92,7.25 10.77,-21.13 30.76,-38.37 23.26,-20.05 51.82,-24.15 55.7,-24.51 z"
   style="fill:#313131"
   id="path80" />
        </g>
        <g
   transform="matrix(-0.880738,0.0492552,0.0487609,0.871899,24783.8,231.911)"
   id="g86">
            <path
   d="m 7872.29,4326.6 c -0.39,-57.95 -87,-69.48 -128.32,-59.15"
   style="fill:none;stroke:#000000;stroke-width:9.66px"
   id="path84" />
        </g>
        <g
   transform="matrix(0.983378,0.18157,-0.183342,0.992976,12543.5,548.66)"
   id="g112">
            <g
   transform="matrix(0.744372,0,0,0.710803,1419.34,990.854)"
   id="g90">
                <path
   d="m 5423.07,3504.71 c -12.42,-78 -155.98,-61.81 -162.02,123.84 -0.62,19.05 147.61,-124.21 163.62,-118.87 z"
   style="fill:#313131"
   id="path88" />
            </g>
            <g
   transform="matrix(-1,0,0,1,13509.6,600.983)"
   id="g94">
                <path
   d="m 8077.43,2611.52 c -4.16,28.26 129.76,209.45 157.7,228.28 30.52,20.57 171.25,183.51 198.99,192.76 6.28,2.09 92.72,-28.84 109.53,-34.44 61.1,-20.37 123.78,-19.36 185.96,-9 24.31,4.05 71.04,10.19 44.97,48.87 -0.16,0.23 -1.38,1.13 -2.98,2.33 -5.84,4.42 0.61,5.65 1.74,8.1 12.86,28.1 -4.51,40.3 -29.68,44.23 -34.44,5.37 5.2,-8.52 -2.28,8.63 -21.15,48.46 -109.51,16.95 -149.17,22.62 -47.85,6.83 -65.93,39 -112.55,45.66 -7.23,1.04 -32.45,-6.58 -49.74,-15.52 -4.6,-2.38 -29.66,-16.5 -31.97,-18.94 -66.08,-69.78 -148.96,-137.94 -210.9,-210.21 -8.93,-10.41 -97.99,-49.12 -135.63,-44.79 -39.78,4.59 26.01,-268.58 26.01,-268.58 z"
   style="fill:#4c3232"
   id="path92" />
            </g>
            <g
   transform="matrix(-1,0,0,1,13509.5,601.362)"
   id="g98">
                <path
   d="m 8077.43,2611.52 c -4.16,28.26 129.76,209.45 157.7,228.28 30.52,20.57 171.25,183.51 198.99,192.76 6.28,2.09 92.72,-28.84 109.53,-34.44 61.1,-20.37 123.78,-19.36 185.96,-9 24.98,4.16 89.61,28.05 43.14,51.29 -34.65,17.32 -68.85,8.28 -106.28,8.28"
   style="fill:none;stroke:#000000;stroke-width:8.44px"
   id="path96" />
            </g>
            <g
   transform="matrix(-1,0,0,1,13509.5,601.362)"
   id="g102">
                <path
   d="m 8773.34,3048.42 c 30.47,66.55 -108.69,43.93 -119.27,33.35"
   style="fill:none;stroke:#000000;stroke-width:8.44px"
   id="path100" />
            </g>
            <g
   transform="matrix(-1,0,0,1,13509.5,601.362)"
   id="g106">
                <path
   d="m 8741.38,3101.28 c -21.15,48.46 -109.51,16.95 -149.17,22.62 -47.85,6.83 -65.93,39 -112.55,45.66 -9.15,1.31 -47.18,-11.26 -61.37,-22.8"
   style="fill:none;stroke:#000000;stroke-width:8.44px"
   id="path104" />
            </g>
            <g
   transform="matrix(-1,0,0,1,13509.5,601.362)"
   id="g110">
                <path
   d="m 8490.75,3069.61 c 31.88,-2.16 76.96,-26.1 109.27,-36.87 40.84,-13.61 100.08,7.27 50.81,42.61 -67.1,48.12 -122.73,-2.25 -131.3,41.2 -3.48,17.66 -23.6,31.09 -46.64,37.07 -25.16,6.53 -53.8,4.19 -68.06,-11.19 -67.13,-72.35 -153.67,-142.74 -217.78,-217.54 -8.93,-10.41 -97.99,-49.12 -135.63,-44.79"
   style="fill:none;stroke:#000000;stroke-width:8.44px"
   id="path108" />
            </g>
        </g>
        <g
   transform="translate(11854.7,1507.56)"
   id="g116">
            <path
   d="m 5585.13,3494.11 c 116.15,-20.91 377.49,93.66 374.24,181.25 -1.83,49.05 18.33,109.69 7.66,157.53 -11,49.24 -40.13,111.71 -82.28,142.16 -36.19,26.13 -83.81,22 -125.61,27.23 -133.33,16.66 -272.08,38.76 -374.2,-75.46 -35.89,-40.15 -50.19,-101.72 -50.82,-157.07 -1.33,-118.47 141.86,-255.99 251.01,-275.64 z"
   style="fill:#725656"
   id="path114" />
        </g>
        <g
   transform="matrix(2.61946,0,0,-2.61946,17134.8,5892.07)"
   id="g120">
            <path
   d="M 91.535,229.383 60,241.027 91.535,252.676 Z m 0,23.293 -21.488,25.851 33.133,-5.679 z m 11.645,20.172 -5.68,33.133 25.852,-21.485 z m 20.172,11.648 11.648,31.531 11.648,-31.531 z m 23.296,0 25.852,21.485 -5.68,-33.133 z m 20.172,-11.648 33.133,5.679 -21.488,-25.851 z M 178.465,252.676 210,241.027 178.465,229.383 Z m 0,-23.293 21.488,-25.856 -33.133,5.68 z m -11.645,-20.176 5.68,-33.129 -25.852,21.485 z M 146.648,197.563 135,166.027 123.352,197.563 Z m -23.296,0 -25.852,-21.485 5.68,33.129 z m -20.172,11.644 -33.133,-5.68 21.488,25.856 z m 71.01,31.82 c 0,-21.629 -17.561,-39.19 -39.19,-39.19 -21.629,0 -39.19,17.561 -39.19,39.19 0,21.629 17.561,39.19 39.19,39.19 21.629,0 39.19,-17.561 39.19,-39.19 z"
   style="fill:#313131"
   id="path118" />
        </g>
        <g
   transform="translate(11870.7,1499.67)"
   id="g136">
            <path
   style="color:#000000;clip-rule:nonzero;fill:#003580;fill-rule:nonzero;stroke-linecap:butt;stroke-linejoin:miter;-inkscape-stroke:none"
   d="m 5771.2207,3176.1387 c -0.5945,-0.058 -0.6383,-0.015 0.4629,0.2793 a 8.335,8.335 0 0 0 -10.2051,5.8984 8.335,8.335 0 0 0 5.8985,10.2051 c 0.1957,0.052 0.2071,0.02 0.3867,0.064 -0.1838,3.4343 -0.448,7.9002 -0.8028,13.4473 -0.7577,11.85 -1.84,27.6026 -2.9765,43.5762 -1.1366,15.9735 -2.3288,32.1718 -3.3047,44.9219 -0.9759,12.75 -1.8234,22.6882 -1.9805,23.9433 -5.9222,47.3623 -14.1375,113.5464 -34.2832,170.0605 -20.1457,56.5141 -51.3737,102.0483 -102.9648,112.793 -13.5914,2.8357 -29.0303,5.6134 -38.2578,0.9961 -6.6558,-3.326 -14.6249,-11.8776 -22.0742,-21.789 -7.4481,-9.9099 -14.4619,-20.892 -21.7422,-29.1602 v 0 c -17.2418,-19.6012 -29.1205,-37.8175 -40.8906,-61.3574 v 0 c -20.3951,-40.8005 -28.8826,-74.2574 -40.2988,-119.9023 v 0 c -9.7801,-39.1401 -23.1309,-78.7776 -23.1309,-117.248 0,-21.1444 4.6797,-43.8608 4.6797,-67.8203 a 8.335,8.335 0 0 0 -8.334,-8.334 8.335,8.335 0 0 0 -8.3359,8.334 c 0,21.6804 -4.6797,44.3447 -4.6797,67.8203 0,42.2489 14.089,83.1118 23.6289,121.291 11.4234,45.6735 20.3566,80.8964 41.5606,123.3145 12.2487,24.4975 25.1513,44.3013 43.2871,64.918 5.8484,6.6413 12.994,17.6035 20.9297,28.1621 7.9348,10.5574 16.573,20.9992 27.9453,26.6836 5e-4,3e-4 0,-3e-4 0,0 8e-4,4e-4 0,0 0,0 16.9114,8.4599 35.8696,3.1762 49.1172,0.4121 v 0 c 59.4688,-12.3853 94.2303,-64.4968 115.2695,-123.5176 21.0393,-59.0208 29.2033,-126.2603 35.1211,-173.5879 0.403,-3.2198 1.0815,-11.9481 2.0606,-24.7402 0.9791,-12.7921 2.1721,-29.0116 3.3105,-45.0117 1.1385,-16.0002 2.2222,-31.7776 2.9844,-43.6973 0.3811,-5.9598 0.683,-10.9495 0.8711,-14.5566 0.094,-1.8036 0.1589,-3.2532 0.1934,-4.3653 0.017,-0.556 0.028,-1.0181 0.025,-1.4843 0,-0.2332 0,-0.4585 -0.023,-0.795 -0.02,-0.3348 0.2235,-0.3299 -0.4336,-2.3086 -1.119,-3.3739 -4.0134,-5.3765 -5.8672,-6.1347 -1.8562,-0.7592 -3.1897,-0.8842 -4.2949,-0.9903 -1.1052,-0.106 -2.2512,-0.2642 -2.8457,-0.3222 z"
   id="path122" />
            <g
   transform="translate(-5.46879,-12.5424)"
   id="g126">
                <path
   style="color:#000000;clip-rule:nonzero;fill:#d21034;fill-rule:nonzero;stroke-linecap:butt;stroke-linejoin:miter;-inkscape-stroke:none"
   d="m 5758.9707,3183.5547 a 8.335,8.335 0 0 0 -5.3867,10.4863 c 39.2959,122.2824 39.3833,242.063 -48.1192,352.9961 -29.3774,37.2486 -56.4411,68.4292 -84.5234,80.8613 -14.0411,6.216 -28.1862,8.1109 -44.3613,4.3457 -16.1751,-3.7652 -34.5305,-13.4801 -55.6055,-31.4316 -35.0722,-29.8793 -50.1047,-50.2776 -64.082,-95.5059 -12.1147,-39.1841 -21.7596,-77.6032 -26.5879,-117.8027 v 0 c -6.3865,-53.2738 -5.4977,-102.3243 9.0977,-153.3984 a 8.335,8.335 0 0 0 -5.7246,-10.3028 8.335,8.335 0 0 0 -10.3047,5.7227 c -15.3246,53.6257 -16.1745,105.2968 -9.6211,159.9629 4.9917,41.5604 14.9276,81.0025 27.2129,120.7383 14.6025,47.2505 32.95,72.3912 69.1973,103.2715 22.445,19.1184 43.0315,30.4133 62.6348,34.9765 19.6033,4.5632 38.0711,2.1054 54.8887,-5.3398 33.6351,-14.8904 61.2727,-48.26 90.8652,-85.7813 91.1573,-115.5666 91.1844,-243.0645 50.9004,-368.4218 a 8.335,8.335 0 0 0 -10.4844,-5.3848 z"
   id="path124" />
            </g>
            <path
   d="m 5785.91,3149.4 c 0,7.68 19.49,43.4 18.48,53.18 -5.37,51.86 -4.61,101.26 -12.86,153.18 -18.94,119 -61.95,274.02 -198.78,298.17 -37.03,6.53 -104.3,5.22 -132.13,-26.9 -25.07,-28.92 -46.63,-66.04 -65.48,-99.39 -27.46,-48.57 -27.11,-100.12 -25.73,-155.51 1.69,-67.56 9.3,-139.85 32.9,-202.79"
   style="fill:none;stroke:#003580;stroke-width:16.67px"
   id="path128" />
            <path
   style="color:#000000;clip-rule:nonzero;fill:#ffffff;fill-rule:nonzero;stroke-linecap:butt;stroke-linejoin:miter;-inkscape-stroke:none"
   d="m 5811.791,3152.2715 c -2.229,-0.023 -4.7047,0.7669 -5.9941,1.8105 a 8.335,8.335 0 0 0 -1.2364,11.7207 8.335,8.335 0 0 0 0.01,0.01 c 0.1921,0.6667 0.3961,1.3257 0.6914,2.7012 0.8183,3.8109 1.7688,9.512 2.6426,15.3632 1.7475,11.7026 3.2217,24.0142 3.4121,25.5704 4.4002,36.3165 7.1777,72.4928 7.1777,108.9765 0,36.9344 -17.203,102.0759 -42.2441,162.416 -25.0411,60.3402 -58.703,116.6005 -86.709,137.1329 -27.6424,20.2745 -66.5079,52.4078 -95.8887,53.3496 -39.9381,1.2839 -73.3681,-31.4675 -104.125,-58.7071 v 0 c -48.0133,-42.5278 -73.1707,-82.3553 -86.8223,-127.5 -13.6518,-45.1454 -15.5976,-96.0626 -15.5976,-159.75 0,-35.0325 17.2396,-108.6567 37.1894,-138.586 a 8.335,8.335 0 0 0 -2.3125,-11.5586 8.335,8.335 0 0 0 -11.5586,2.3125 c -24.0701,36.1107 -39.9883,107.8847 -39.9883,147.8321 0,64.0124 1.7874,116.5472 16.3106,164.5742 14.5232,48.027 41.9813,91.0948 91.7266,135.1562 30.1026,26.66 66.692,64.4667 115.7129,62.8907 39.8782,-1.2783 78.7534,-37.1626 105.2109,-56.5684 v 0 c 34.1232,-25.0185 66.6403,-82.4827 92.2461,-144.1836 25.6063,-61.7023 43.5176,-126.9212 43.5176,-168.8067 0,-37.333 -2.8398,-74.192 -7.2989,-110.9922 a 8.3358335,8.3358335 0 0 0 0,-0.01 c -0.1596,-1.3039 -1.6752,-13.9685 -3.4727,-26.0059 -0.8987,-6.0187 -1.8589,-11.8796 -2.8301,-16.4023 -0.4855,-2.2614 -0.9212,-4.1091 -1.6035,-5.9727 -0.3411,-0.9318 -0.5414,-1.8083 -1.8574,-3.4766 -0.658,-0.8341 -1.6749,-2.1425 -4.2148,-2.9746 -0.635,-0.208 -1.3508,-0.3069 -2.0938,-0.3144 z m -6.4668,13.9473 a 8.335,8.335 0 0 0 4.3203,2.3476 c -0.3177,-0.047 -0.6632,-0.045 -0.9492,-0.1387 -2.0407,-0.6685 -2.8554,-1.5717 -3.3711,-2.2089 z m 10.959,0.8203 c -1.174,0.9501 -3.5395,1.6928 -5.6484,1.6718 a 8.335,8.335 0 0 0 5.6484,-1.6718 z"
   id="path130" />
            <g
   transform="translate(-1.0142,-32.7)"
   id="g134">
                <path
   d="m 5809.65,3174.75 c 4.07,2.18 4.09,143.55 4.09,151.78 0,69.2 -16.61,159.27 -55.64,217.82 -12.43,18.65 -30.13,33.31 -43.75,51.11 -16.66,21.79 -28.1,47.03 -50.28,64.31 -81,63.14 -193,11.6 -229.79,-77.3 -17,-41.08 -26.82,-87.12 -33.3,-130.83 -6.74,-45.53 -9.2,-97.94 4.68,-142.65 9.08,-29.26 24.56,-49.66 24.56,-81.85"
   style="fill:none;stroke:#ffce00;stroke-width:16.67px"
   id="path132" />
            </g>
        </g>
        <g
   transform="matrix(-1,0,0,1,23087.6,1491.95)"
   id="g152">
            <path
   style="color:#000000;clip-rule:nonzero;fill:#009543;fill-rule:nonzero;stroke-linecap:butt;stroke-linejoin:miter;-inkscape-stroke:none"
   d="m 5771.2207,3176.1387 c -0.5945,-0.058 -0.6383,-0.015 0.4629,0.2793 a 8.335,8.335 0 0 0 -10.2051,5.8984 8.335,8.335 0 0 0 5.8985,10.2051 c 0.1957,0.052 0.2071,0.02 0.3867,0.064 -0.1838,3.4343 -0.448,7.9002 -0.8028,13.4473 -0.7577,11.85 -1.84,27.6026 -2.9765,43.5762 -1.1366,15.9735 -2.3288,32.1718 -3.3047,44.9219 -0.9759,12.75 -1.8234,22.6882 -1.9805,23.9433 -5.9222,47.3623 -14.1375,113.5464 -34.2832,170.0605 -20.1457,56.5141 -51.3737,102.0483 -102.9648,112.793 -13.5914,2.8357 -29.0303,5.6134 -38.2578,0.9961 -6.6558,-3.326 -14.6249,-11.8776 -22.0742,-21.789 -7.4481,-9.9099 -14.4619,-20.892 -21.7422,-29.1602 v 0 c -17.2418,-19.6012 -29.1205,-37.8175 -40.8906,-61.3574 v 0 c -20.3951,-40.8005 -28.8826,-74.2574 -40.2988,-119.9023 v 0 c -9.7801,-39.1401 -23.1309,-78.7776 -23.1309,-117.248 0,-21.1444 4.6797,-43.8608 4.6797,-67.8203 a 8.335,8.335 0 0 0 -8.334,-8.334 8.335,8.335 0 0 0 -8.3359,8.334 c 0,21.6804 -4.6797,44.3447 -4.6797,67.8203 0,42.2489 14.089,83.1118 23.6289,121.291 11.4234,45.6735 20.3566,80.8964 41.5606,123.3145 12.2487,24.4975 25.1513,44.3013 43.2871,64.918 5.8484,6.6413 12.994,17.6035 20.9297,28.1621 7.9348,10.5574 16.573,20.9992 27.9453,26.6836 5e-4,3e-4 0,-3e-4 0,0 8e-4,4e-4 0,0 0,0 16.9114,8.4599 35.8696,3.1762 49.1172,0.4121 v 0 c 59.4688,-12.3853 94.2303,-64.4968 115.2695,-123.5176 21.0393,-59.0208 29.2033,-126.2603 35.1211,-173.5879 0.403,-3.2198 1.0815,-11.9481 2.0606,-24.7402 0.9791,-12.7921 2.1721,-29.0116 3.3105,-45.0117 1.1385,-16.0002 2.2222,-31.7776 2.9844,-43.6973 0.3811,-5.9598 0.683,-10.9495 0.8711,-14.5566 0.094,-1.8036 0.1589,-3.2532 0.1934,-4.3653 0.017,-0.556 0.028,-1.0181 0.025,-1.4843 0,-0.2332 0,-0.4585 -0.023,-0.795 -0.02,-0.3348 0.2235,-0.3299 -0.4336,-2.3086 -1.119,-3.3739 -4.0134,-5.3765 -5.8672,-6.1347 -1.8562,-0.7592 -3.1897,-0.8842 -4.2949,-0.9903 -1.1052,-0.106 -2.2512,-0.2642 -2.8457,-0.3222 z"
   id="path138" />
            <g
   transform="translate(-5.46879,-12.5424)"
   id="g142">
                <path
   d="m 5772.6,3164.72 c 6.86,13.81 3.35,25.99 4.89,41.37 12.93,129.28 13.21,235.02 -65.48,346.11 -55.04,77.71 -109.4,129.1 -196.44,54.96 -35.66,-30.38 -52.35,-53.15 -66.64,-99.39 -12.2,-39.46 -21.99,-78.39 -26.9,-119.27 -6.47,-53.97 -5.6,-104.33 9.36,-156.68"
   style="fill:none;stroke:#d21034;stroke-width:16.67px"
   id="path140" />
            </g>
            <path
   style="color:#000000;clip-rule:nonzero;fill:#003580;fill-rule:nonzero;stroke-linecap:butt;stroke-linejoin:miter;-inkscape-stroke:none"
   d="m 5446.957,3145.5469 a 8.335,8.335 0 0 0 -10.7304,4.875 c -5.2514,13.997 -11.8608,29.4458 -18.9844,45.7383 -24.3082,55.6114 -54.779,120.5064 -56.1641,175.7598 -1.3823,55.4836 -1.9118,109.0244 26.8067,159.8203 18.8859,33.4136 40.6045,70.9479 66.4375,100.748 16.0548,18.5281 41.7413,27.0574 67.7461,30.7364 26.0057,3.6791 52.6699,2.3435 72.1289,-1.0879 71.2739,-12.5796 118.5232,-59.7332 149.5039,-117.8008 30.9808,-58.0676 46.523,-127.3553 56.0586,-187.2676 8.391,-52.8076 7.6141,-102.3885 12.9199,-153.6289 0.2422,-2.3448 2.6887,-8.4839 5.4864,-14.4882 2.7977,-6.0044 6.2461,-11.4039 6.2461,-19.1075 0,-3.5241 -3.6594,-8.233 -6.5215,-9.2539 -2.8621,-1.0208 -4.5662,-0.7207 -6.0371,-0.5722 -2.9419,0.2969 -5.4761,0.8666 -5.3672,0.8593 a 8.335,8.335 0 0 0 -7.7656,8.8672 8.335,8.335 0 0 0 6.4687,6.9532 c -0.6696,1.7107 -1.2538,3.3263 -2.1328,5.2129 -2.7948,5.9981 -6.1911,12.3831 -6.959,19.8183 -5.4337,52.478 -4.692,101.6955 -12.8008,152.7266 -9.4044,59.0871 -24.8383,126.8098 -54.3047,182.039 -29.4667,55.2299 -72.1373,97.6621 -137.6933,109.2325 v 0 c -17.571,3.0985 -43.0561,4.3734 -66.9004,1 -23.8442,-3.3733 -45.7071,-11.558 -57.4824,-25.1484 -24.307,-28.0398 -45.7075,-64.7449 -64.5215,-98.0312 -26.2012,-46.3435 -26.0319,-95.9018 -24.6543,-151.1973 v 0 c 1.2356,-49.2658 30.364,-113.6507 54.7754,-169.4981 v 0 c 7.1561,-16.3669 13.8679,-32.0381 19.3164,-46.5606 a 8.335,8.335 0 0 0 -4.877,-10.7304 z"
   id="path144" />
            <path
   style="color:#000000;clip-rule:nonzero;fill:#009543;fill-rule:nonzero;stroke-linecap:butt;stroke-linejoin:miter;-inkscape-stroke:none"
   d="m 5811.791,3152.2715 c -2.229,-0.023 -4.7047,0.7669 -5.9941,1.8105 a 8.335,8.335 0 0 0 -1.2364,11.7207 8.335,8.335 0 0 0 0.01,0.01 c 0.1921,0.6667 0.3961,1.3257 0.6914,2.7012 0.8183,3.8109 1.7688,9.512 2.6426,15.3632 1.7475,11.7026 3.2217,24.0142 3.4121,25.5704 4.4002,36.3165 7.1777,72.4928 7.1777,108.9765 0,36.9344 -17.203,102.0759 -42.2441,162.416 -25.0411,60.3402 -58.703,116.6005 -86.709,137.1329 -27.6424,20.2745 -66.5079,52.4078 -95.8887,53.3496 -39.9381,1.2839 -73.3681,-31.4675 -104.125,-58.7071 v 0 c -48.0133,-42.5278 -73.1707,-82.3553 -86.8223,-127.5 -13.6518,-45.1454 -15.5976,-96.0626 -15.5976,-159.75 0,-17.1791 5.1341,-48.2797 13.0429,-78.4199 7.9089,-30.1403 18.8879,-59.9595 28.6973,-74.6758 a 8.335,8.335 0 0 0 -2.3125,-11.5586 8.335,8.335 0 0 0 -11.5586,2.3125 c -12.2005,18.3036 -22.7925,48.5992 -30.9512,79.6914 -8.1586,31.0922 -13.5879,62.3395 -13.5879,82.6504 0,64.0124 1.7874,116.5472 16.3106,164.5742 14.5232,48.027 41.9813,91.0948 91.7266,135.1562 30.1026,26.66 66.692,64.4667 115.7129,62.8907 39.8782,-1.2783 78.7534,-37.1626 105.2109,-56.5684 v 0 c 34.1232,-25.0185 66.6403,-82.4827 92.2461,-144.1836 25.6063,-61.7023 43.5176,-126.9212 43.5176,-168.8067 0,-37.333 -2.8398,-74.192 -7.2989,-110.9922 a 8.3358335,8.3358335 0 0 0 0,-0.01 c -0.1596,-1.3039 -1.6752,-13.9685 -3.4727,-26.0059 -0.8987,-6.0187 -1.8589,-11.8796 -2.8301,-16.4023 -0.4855,-2.2614 -0.9212,-4.1091 -1.6035,-5.9727 -0.3411,-0.9318 -0.5414,-1.8083 -1.8574,-3.4766 -0.658,-0.8341 -1.6749,-2.1425 -4.2148,-2.9746 -0.635,-0.208 -1.3508,-0.3069 -2.0938,-0.3144 z m -6.4668,13.9473 a 8.335,8.335 0 0 0 4.3203,2.3476 c -0.3177,-0.047 -0.6632,-0.045 -0.9492,-0.1387 -2.0407,-0.6685 -2.8554,-1.5717 -3.3711,-2.2089 z m 10.959,0.8203 c -1.174,0.9501 -3.5395,1.6928 -5.6484,1.6718 a 8.335,8.335 0 0 0 5.6484,-1.6718 z"
   id="path146" />
            <g
   transform="translate(-1.0142,-32.7)"
   id="g150">
                <path
   style="color:#000000;clip-rule:nonzero;fill:#ffce00;fill-rule:nonzero;stroke-linecap:butt;stroke-linejoin:miter;-inkscape-stroke:none"
   d="m 5807.2383,3166.7715 a 8.335,8.335 0 0 0 -4.9356,4.043 8.335,8.335 0 0 0 3.4121,11.2832 c -4.004,-2.1447 -3.4064,-3.5571 -3.5371,-3.92 -0.1306,-0.3629 -0.059,-0.2082 0.01,0.127 0.1296,0.6704 0.3322,2.1438 0.5137,4.0469 0.3629,3.806 0.6965,9.4585 0.9804,16.2265 0.5679,13.5361 0.9527,31.6277 1.209,49.9102 0.5127,36.565 0.5176,73.9328 0.5176,78.041 0,67.8662 -16.7932,157.0218 -54.2402,213.1973 -11.5228,17.2887 -29.038,31.8543 -43.4336,50.6679 -17.428,22.7946 -28.6092,47.0813 -48.7812,62.7969 -38.1635,29.7487 -82.9316,32.3985 -123.4082,17.1406 -40.4766,-15.2579 -76.0848,-48.8382 -93.5547,-91.0527 -16.592,-40.0942 -26.3324,-85.5224 -32.7578,-128.8633 v 0 c -6.6471,-44.9036 -8.8538,-96.2755 4.3965,-138.9571 3.9256,-12.6501 15.5361,-31.593 26.3652,-51.0254 10.8292,-19.4323 21.2891,-39.4731 21.2891,-58.8652 a 8.335,8.335 0 0 0 -8.3359,-8.3359 8.335,8.335 0 0 0 -8.334,8.3359 c 0,12.7979 -8.6408,31.8369 -19.1817,50.752 -10.5408,18.915 -22.5702,37.5874 -27.7246,54.1972 -14.5095,46.7378 -11.7975,100.1859 -4.9648,146.3418 6.5346,44.0785 16.436,90.7298 33.8437,132.795 19.3201,46.6854 58.1073,83.3252 103.0781,100.2773 44.9709,16.952 96.7008,13.8014 139.5372,-19.5898 v 0 c 24.1871,-18.8437 35.8843,-45.0353 51.7753,-65.8203 v 0 c 12.8442,-16.7854 30.7278,-31.5404 44.0645,-51.5507 40.6128,-60.9245 57.039,-151.9097 57.039,-222.4434 0,-4.1218 0,-41.5529 -0.5195,-78.2754 -0.2574,-18.3612 -0.6401,-36.5339 -1.2207,-50.375 -0.2903,-6.9205 -0.6258,-12.7348 -1.043,-17.1094 -0.2086,-2.1872 -0.4224,-3.985 -0.7402,-5.6289 -0.1589,-0.8219 -0.32,-1.5831 -0.6895,-2.6093 -0.3694,-1.0263 -0.017,-2.848 -4.2754,-5.129 a 8.335,8.335 0 0 0 -6.3476,-0.6308 z"
   id="path148" />
            </g>
        </g>
        <g
   transform="translate(11643,-36.9396)"
   id="g156">
            <path
   d="m 5933.06,4077.07 c 7.74,5.81 35.41,35.49 44.51,25.67 19.37,-20.9 17.94,-74.01 40.26,-100.69 11.04,-13.19 33.24,-14.93 40.31,-18.01 23.46,-10.23 20.17,45.39 15.97,61.32 -3.67,13.92 -77.65,77.24 -73.1,80.51 123.82,89.05 260.53,264.66 200.05,385.63 -56.89,113.77 -129,175.16 -246.4,217.85 -48.74,17.72 -116.19,25.16 -167.31,21.99 -157.39,-9.78 -295.64,-20.35 -365.54,-195.58 -51.49,-129.12 -3.03,-268.59 85.31,-366.31 3.1,-3.43 -1.02,-17.01 -7.92,-34.45 -7.75,-19.6 -40.89,-39.79 -49.38,-60.21 -8.12,-19.54 6.41,-41.42 10.68,-43.92 51.02,-29.86 121.26,44.65 99.3,83.28 -12.57,22.12 48.3,-28.43 70.19,-39.38 4.97,-2.48 279.68,-35.24 303.07,-17.7 z"
   style="fill:#4c3232"
   id="path154" />
        </g>
        <g
   transform="translate(11640.3,-26.8591)"
   id="g160">
            <path
   d="m 5736.38,3989.29 c 13.44,-15.54 36.01,16.08 49,2.68 21.48,-22.17 39.87,-22.04 64.9,0 14.41,12.69 30.04,44.42 51.34,35.52 33.53,-14.02 22.12,51.77 20.31,58.99 -0.54,2.18 -62.59,52.4 -66.27,53.01 -33.01,5.5 -81.8,2.9 -113.76,-1.1 -38.62,-4.83 -61.85,42.34 -115.97,24.3 -14.7,-4.9 -27.29,-5.35 -32.03,-24.3 -5.59,-22.35 40.85,-20.65 22.09,-51.91 -11.44,-19.06 -41.58,-3.2 -46.39,-32.03 -6.22,-37.32 84.4,-44.66 107.14,-27.61 0.28,0.21 3.57,1.94 4.41,1.1 8.2,-8.2 -44.42,-34.12 2.21,-57.43 11.84,-5.92 44.1,29.08 53.02,18.78 z"
   style="fill:#494949"
   id="path158" />
        </g>
        <g
   transform="matrix(1.02784,0,0,0.960472,11220,427.352)"
   id="g164">
            <path
   d="m 6066.2,3984.43 c 48.65,-77.27 112.06,-56.29 139.31,-6.59 32.85,59.89 23.82,103.91 -28.72,136.24 -14.78,9.1 -28.78,18.31 -47.16,17.23 -67.88,-3.99 -77.8,-124.05 -63.43,-146.88 z"
   style="fill:#ffffff;stroke:#000000;stroke-width:8.52px"
   id="path162" />
        </g>
        <g
   transform="matrix(0.408899,-0.192022,0.180193,0.33506,14286.1,4137.81)"
   id="g168">
            <path
   d="m 6066.2,3984.43 c 48.65,-77.27 112.06,-56.29 139.31,-6.59 15.53,28.31 44.86,80.64 13.45,96.06 -35.02,17.19 -89.85,-38.43 -138.45,-16.25 -63.11,28.8 -28.68,-50.39 -14.31,-73.22 z"
   id="path166" />
        </g>
        <g
   transform="matrix(1.02413,0,0,0.960472,11074.3,427.352)"
   id="g172">
            <path
   d="m 6066.2,3984.43 c 48.65,-77.27 112.06,-56.29 139.31,-6.59 32.85,59.89 23.82,103.91 -28.72,136.24 -14.78,9.1 -28.78,18.31 -47.16,17.23 -67.88,-3.99 -77.8,-124.05 -63.43,-146.88 z"
   style="fill:#ffffff;stroke:#000000;stroke-width:8.54px"
   id="path170" />
        </g>
        <g
   transform="matrix(0.428894,-0.144666,0.119345,0.308963,14236.8,3967.99)"
   id="g176">
            <path
   d="m 6066.2,3984.43 c 48.65,-77.27 131.28,-77.94 158.54,-28.24 32.84,59.89 5.48,176.32 -26.59,113.39 -15.09,-29.6 -86.29,-27.25 -101.77,3.27 -37.35,73.65 -44.55,-65.59 -30.18,-88.42 z"
   id="path174" />
        </g>
        <g
   transform="translate(11640.3,-26.8591)"
   id="g180">
            <path
   d="m 5993.98,4529.43 c 0,0 -63.45,123.78 -161.76,135.53 -55.88,6.68 -190.09,-124.74 -190.09,-124.74 -2.32,-10.36 219.15,-38.36 351.85,-10.79 z"
   id="path178" />
        </g>
        <g
   transform="translate(11640.3,-26.8591)"
   id="g184">
            <path
   d="m 5935.45,4540.22 c 8.33,4.42 14.85,70.31 11.76,73.4 -11.79,11.79 -199.61,25.83 -211.74,19.77 -0.94,-0.48 -8.73,-60.63 -3.87,-70.36 l -1.58,-32.55 195.23,-25.63 z"
   style="fill:#ffffff"
   id="path182" />
        </g>
        <g
   transform="translate(11643,-36.9396)"
   id="g188">
            <path
   d="m 5933.06,4077.07 c 87.88,65.91 346.13,277.08 272.04,425.27 -56.89,113.77 -133.04,184.32 -250.44,227.01 -48.74,17.72 -116.19,25.16 -167.31,21.99 -157.39,-9.78 -295.64,-20.35 -365.54,-195.58 -72.33,-181.37 52.57,-383.18 208.18,-460.99"
   style="fill:none;stroke:#000000;stroke-width:8.48px"
   id="path186" />
        </g>
        <g
   transform="translate(11640.3,-26.8591)"
   id="g192">
            <path
   d="m 5906.17,4078.27 c 9.05,2.34 18.89,-17.32 18.89,-25.25 0,-17.1 -11.85,-22.86 -27.55,-23.64 -5.9,-0.29 -14.36,-1.52 -19.88,1.24 -12.31,6.16 0.13,60.5 28.57,27.33"
   style="fill:none;stroke:#000000;stroke-width:8.48px"
   id="path190" />
        </g>
        <g
   transform="matrix(1.2677,0,0,1.18461,10073.7,-804.667)"
   id="g196">
            <path
   d="m 5937.15,4218.38 c 6.37,-9.59 -12.79,-20.96 -20.08,-25.52 -23.59,-14.72 -49.78,-8.17 -71.7,5.77"
   style="fill:none;stroke:#000000;stroke-width:6.91px"
   id="path194" />
        </g>
        <g
   transform="translate(11640.3,-26.8591)"
   id="g200">
            <path
   d="m 5935.45,4540.22 c 8.33,4.42 14.85,70.31 11.76,73.4 -11.79,11.79 -199.61,25.83 -211.74,19.77 -0.94,-0.48 -10.32,-83.44 -5.45,-93.17"
   style="fill:none;stroke:#000000;stroke-width:8.48px"
   id="path198" />
        </g>
        <g
   transform="translate(11640.3,-26.8591)"
   id="g204">
            <path
   d="m 5829.22,4529.46 c 3.09,-1.98 -1.78,80.23 10.8,105.39"
   style="fill:none;stroke:#000000;stroke-width:8.48px"
   id="path202" />
        </g>
        <g
   transform="translate(11640.3,-26.8591)"
   id="g208">
            <path
   d="m 5886.54,4423.41 c 69.47,7.83 115.33,40.98 145.36,91.13 20.44,20.01 -8.23,16.88 -179.91,25.68 -11.76,0.61 -30.57,-29.84 -33.17,-31.39 5.44,5.34 -5.54,28.7 -27.06,31.39 -126.24,15.8 -199.65,17.77 -189.25,-25.68 38.12,-47.39 89.58,-78.72 156.76,-91.13 z"
   style="fill:#725656"
   id="path206" />
        </g>
        <g
   transform="translate(11640.3,-26.8591)"
   id="g212">
            <path
   d="m 5752.45,4381.5 c 36.58,-29.11 171.45,11.84 166.53,34.51 -18.96,87.28 -160.1,56.13 -193.39,43.75 -8.37,-3.11 -13.9,-12.28 -16.94,-18.35 -17.22,-34.45 22.62,-43.05 43.8,-59.91 z"
   id="path210" />
        </g>
        <g
   transform="matrix(-0.824451,0.0545215,-0.0588037,-0.889205,22501.6,8020.66)"
   id="g216">
            <path
   d="m 5909.23,4439.74 c -37.67,57.21 -153.84,31.1 -183.64,20.02 -8.37,-3.11 -13.9,-12.28 -16.94,-18.35 -13.13,-26.27 6.92,-37.51 26.58,-48.85 -2.89,6.53 -2.76,14.43 2.31,24.57 3.03,6.07 8.56,15.24 16.94,18.35 24.12,8.97 104.89,27.8 154.75,4.26 z"
   style="fill:#3b3b3b"
   id="path214" />
        </g>
        <g
   transform="translate(11640.3,-26.8591)"
   id="g220">
            <path
   d="m 5818.82,4451.13 c 2.52,5.5 -1.12,45.89 0,55.95 3.72,33.65 44.9,33.14 84.63,33.14 15.87,0 128.45,-3.74 128.45,-19.76"
   style="fill:none;stroke:#000000;stroke-width:8.48px"
   id="path218" />
        </g>
        <g
   transform="translate(11640.3,-26.8591)"
   id="g224">
            <path
   d="m 5813.51,4451.21 c 7.02,-2.89 6.78,71.44 1.01,79.13 -16.84,22.45 -165.48,22.41 -192.78,9.88 -7.83,-3.59 -25.46,-25.68 -16.98,-25.68"
   style="fill:none;stroke:#000000;stroke-width:8.48px"
   id="path222" />
        </g>
        <g
   transform="matrix(1.2677,0,0,1.18461,10050.8,-816.458)"
   id="g228">
            <path
   d="m 5788.95,4214.58 c 22.51,-8.8 -37.42,-37.19 -51.53,-36.55 -39.5,1.8 -58.65,31.06 -67.58,66.75"
   style="fill:none;stroke:#000000;stroke-width:6.91px"
   id="path226" />
        </g>
        <g
   transform="translate(11640.3,-26.8591)"
   id="g232">
            <path
   d="m 5858.13,4073.6 c 20.38,-20.83 -30.6,-50.74 -44.46,-29.94 -4.41,6.61 -5.59,14.54 -5.59,22.36 0,33.76 33.18,19.1 35.4,-3.1"
   style="fill:none;stroke:#000000;stroke-width:8.48px"
   id="path230" />
        </g>
        <g
   transform="translate(11640.3,-26.8591)"
   id="g236">
            <path
   d="m 5881.01,4092.43 c 5.45,1.76 3.76,3.19 5.32,8.37 10.52,35.06 -48.25,20.32 -51.55,14.28 -12.95,-23.68 44.61,-35.18 32.92,-11.8"
   style="fill:none;stroke:#000000;stroke-width:8.48px"
   id="path234" />
        </g>
        <g
   transform="translate(11640.3,-26.8591)"
   id="g240">
            <path
   d="m 5847.06,4015.47 c 7.38,-1.38 4.06,-18.31 2.31,-23.11 -5.77,-15.87 -35.41,-19.03 -46.84,-7.6 -3.92,3.92 -5.66,10.12 -6.25,15.43 -2.18,19.57 40.32,14.21 40.37,3.73"
   style="fill:none;stroke:#000000;stroke-width:8.48px"
   id="path238" />
        </g>
        <g
   transform="translate(11640.3,-26.8591)"
   id="g244">
            <path
   d="m 5778.58,4049.2 c 19.7,-12.01 -34.54,-40.55 -46.25,-25.49 -25.97,33.38 29.15,55.65 34.76,16.85"
   style="fill:none;stroke:#000000;stroke-width:8.48px"
   id="path242" />
        </g>
        <g
   transform="translate(11640.3,-26.8591)"
   id="g248">
            <path
   d="m 5766.62,4082.86 c 12.95,-0.82 19.81,17.51 5.3,24.11 -38.95,17.7 -49.37,-23.15 -36.51,-35.36"
   style="fill:none;stroke:#000000;stroke-width:8.48px"
   id="path246" />
        </g>
        <g
   transform="translate(11640.3,-26.8591)"
   id="g252">
            <path
   d="m 5675.84,4033.98 c 6.44,5.32 16.55,7.88 19.83,17.14 3.44,9.71 -4.19,40.95 -16.66,42.2 -5.08,0.5 -10.37,-0.2 -15.16,-1.91 -4.2,-1.51 -8.17,-3.97 -11.66,-6.76 -34.2,-27.36 29.26,-28.43 31.68,-23.6"
   style="fill:none;stroke:#000000;stroke-width:8.48px"
   id="path250" />
        </g>
        <g
   transform="translate(11640.3,-26.8591)"
   id="g256">
            <path
   d="m 5710.44,4001.31 c 14.05,-6.03 -24.97,-44.52 -37.75,-10.43 -12.05,32.11 30.43,40.01 30.43,5.58"
   style="fill:none;stroke:#000000;stroke-width:8.48px"
   id="path254" />
        </g>
        <g
   transform="translate(11640.3,-26.8591)"
   id="g260">
            <path
   d="m 5626.64,4043.15 c 11.31,-11.58 -31.18,-25.11 -35.93,-1.35 -4.85,24.28 23.71,37.55 32.92,9.94"
   style="fill:none;stroke:#000000;stroke-width:8.48px"
   id="path258" />
        </g>
        <g
   transform="translate(11640.3,-26.8591)"
   id="g264">
            <path
   d="m 5626.64,4139.58 c 19.06,-11.26 -24.61,-23.92 -19.16,-2.14 3.07,12.28 24.87,24.71 35.53,14.97 8.04,-7.35 6.7,-21.33 6.7,-31.12"
   style="fill:none;stroke:#000000;stroke-width:8.48px"
   id="path262" />
        </g>
        <g
   transform="translate(11640.3,-26.8591)"
   id="g268">
            <path
   d="m 6009.25,4104.63 c 0.81,0.62 -1.59,3 -0.58,3 8.34,0 21.81,-19.94 26.71,-24.84 25.18,-25.18 52.88,-47.12 45.96,-88.19 -7.51,-44.52 -60.51,-6.76 -69.56,17.39 -5.16,13.76 -6.36,29.01 -8.07,43.47"
   style="fill:none;stroke:#000000;stroke-width:8.48px"
   id="path266" />
        </g>
        <g
   transform="translate(11640.3,-26.8591)"
   id="g272">
            <path
   d="m 5567.02,4112.4 c 4.31,4.94 -10,-36.58 -12.72,-41.33 -14.7,-25.74 -54.25,-36.98 -82.21,-30.51 -43.64,10.1 -1.39,65.68 15.53,82.6"
   style="fill:none;stroke:#000000;stroke-width:8.48px"
   id="path270" />
        </g>
        <g
   transform="translate(11640.3,-26.8591)"
   id="g276">
            <path
   d="m 5757.89,3986.4 c -1.84,-5.34 24.1,0.02 17.14,13.93 -5.76,11.53 -43.34,5.66 -48.59,-2.21 -7.85,-11.77 18.13,-19.75 24.3,-20.98"
   style="fill:none;stroke:#000000;stroke-width:8.48px"
   id="path274" />
        </g>
        <g
   transform="translate(11640.3,-26.8591)"
   id="g280">
            <path
   d="m 5803.11,4104.61 c -2.45,-14.01 24.88,32.66 -8.19,27.15 -17.48,-2.91 -8.36,-24.54 6.62,-23.19"
   style="fill:none;stroke:#000000;stroke-width:8.48px"
   id="path278" />
        </g>
        <g
   transform="translate(7218.64,756.656)"
   id="g284">
            <path
   d="m 9166.3,5989.75 c -75.41,-77.59 -297.5,-243.34 -321.13,-368.95 -153.65,-816.85 933.46,-1325.49 1145.87,-896.23 485.26,980.67 -2053.55,1926.5 -1733.45,233.49 42.08,-222.59 157.02,-438.03 245.96,-642.25"
   style="fill:none"
   id="path282" />
        </g>
    </g>
</svg>
