<?xml version="1.0" encoding="UTF-8"?>
<!DOCTYPE svg PUBLIC "-//W3C//DTD SVG 1.1//EN" "http://www.w3.org/Graphics/SVG/1.1/DTD/svg11.dtd">
<!-- Creator: CorelDRAW X6 -->
<svg xmlns="http://www.w3.org/2000/svg" xml:space="preserve" width="98.0847mm" height="69.3983mm" version="1.1" style="shape-rendering:geometricPrecision; text-rendering:geometricPrecision; image-rendering:optimizeQuality; fill-rule:evenodd; clip-rule:evenodd"
viewBox="0 0 9808 6940"
 xmlns:xlink="http://www.w3.org/1999/xlink">
 <defs>
  <style type="text/css">
   <![CDATA[
    .str0 {stroke:#1F1B20;stroke-width:16.68}
    .fil1 {fill:#086BA9}
    .fil4 {fill:#1F1B20}
    .fil0 {fill:#A16A48}
    .fil6 {fill:#A36B49}
    .fil3 {fill:#E2A46E}
    .fil7 {fill:#EFB07C}
    .fil5 {fill:#FECC09}
    .fil2 {fill:#FEFEFE}
   ]]>
  </style>
 </defs>
 <g id="__x0023_Layer_x0020_1">
  <metadata id="CorelCorpID_0Corel-Layer"/>
  <path class="fil0" d="M2644 948c-49,36 -153,117 -175,155 -1,-62 22,-70 -5,-126 -59,22 -140,140 -172,176 -38,-83 -51,-115 -82,-108 -48,78 -93,152 -116,163 -16,7 -71,-21 -118,-44 -49,117 -61,153 -145,282 -32,51 -90,145 -120,221 -28,-37 -15,-114 -68,-123 -46,36 -29,168 -31,214 -15,61 -66,84 -121,115 -136,77 -284,80 -419,156 -94,79 -32,251 18,339 69,128 233,187 371,161 25,-5 33,-3 61,-16 -3,58 -19,102 5,178 107,117 147,131 260,158 155,136 229,224 316,248 119,44 264,57 388,74 61,1 170,21 237,29 112,23 222,36 317,11 63,-16 124,-59 163,-93 36,-3 369,-98 438,-160 15,-30 8,-64 15,-96 9,-50 29,-99 62,-137 42,-49 89,-92 145,-124 54,-28 76,-43 149,-70 -18,-26 -24,-59 -30,-91 -4,-23 -6,-46 -5,-70 7,12 22,7 33,1 11,-3 20,-15 14,-27 -9,-32 -19,-65 -6,-79 35,-14 86,9 141,1 71,-13 129,-65 166,-125 46,-74 64,-164 60,-252 -2,-38 -2,-90 -32,-118 -26,-25 -76,-26 -109,-20 -51,10 -100,-5 -150,-16 -61,-15 -122,-36 -176,-67 -26,-16 -50,-28 -73,-48 -3,-32 33,-62 42,-84 6,-14 5,-40 -7,-37 -22,4 -56,32 -74,44 -11,15 -24,29 -38,39 0,-61 29,-120 10,-166 -39,39 -47,74 -75,112 -25,-62 -50,-147 -93,-193 -45,13 -30,23 -45,50 -115,-109 -169,-206 -271,-316 -28,25 -58,67 -60,89 -70,-69 -101,-159 -158,-211 -32,24 -37,59 -64,89 -50,-20 -53,-70 -88,-119 -60,16 -54,135 -58,172 -65,-94 -41,-242 -56,-257 -103,68 -135,78 -171,116l0 0zm1565 1948l0 0 0 0c-18,-36 -28,-108 39,-111 66,-2 117,23 147,69 45,55 40,133 57,197 14,-33 34,-73 77,-67 71,10 64,30 172,217 8,174 34,308 -7,360 -68,108 -109,101 -180,130 -101,-57 -123,-67 -164,-52 -116,50 -247,70 -373,55 -62,-5 -80,-74 -79,-127 -1,-106 18,-240 51,-338 101,-23 216,1 287,-89 56,-81 -4,-164 -27,-244zm-2577 489l0 0c-92,31 -184,95 -265,149 -66,57 -141,117 -184,195 -88,163 -97,221 -67,341 24,79 67,111 110,143 95,54 197,121 311,116 110,-19 173,-132 207,-226 21,-95 13,-137 -64,-269 -15,-87 105,-137 117,-214 -22,-75 -67,-152 -112,-215 -9,-8 -41,-21 -53,-20l0 0zm1201 1704l0 0 0 0c0,0 197,-17 307,-50 164,-51 613,-310 761,-361 6,-11 39,78 104,121 47,-107 -14,-462 285,-461 190,-125 378,-156 333,129 6,50 123,53 60,212 -62,156 -208,770 -392,937 -191,174 -462,15 -667,-6 -220,17 -490,15 -732,106 11,46 21,95 33,141 21,85 -36,120 -90,138 -81,30 -170,19 -255,19 -182,-30 -356,-97 -532,-151 -341,-106 -716,-203 -1052,-273 -314,-63 -740,-150 -907,-329 -66,-133 -70,-323 -32,-434 75,-148 176,-296 443,-419 149,-85 293,-151 448,-151 155,1 260,38 392,81 40,19 189,35 190,96 -33,109 -121,224 -142,339 89,140 72,160 315,233 584,228 320,186 515,-288 73,-77 143,-113 174,-140 53,-61 111,-128 196,-139 45,4 71,49 116,120 35,56 69,53 139,120 69,68 -10,410 -10,410z"/>
  <path class="fil1" d="M3734 2833c-8,-3 -25,-3 -37,7 -11,9 -13,20 -14,27 -2,7 -2,14 -1,21 0,10 -9,35 -29,59 -20,24 -49,48 -80,63 -4,2 -28,11 -57,20 -28,8 -62,17 -96,25 -169,39 -231,57 -274,89 -9,7 -48,26 -75,34 -81,26 -175,28 -395,3 -243,-28 -336,-44 -574,-98l-202 -46 -76 31c-89,37 -171,85 -238,141 -38,32 -66,86 -79,118 -4,8 -6,11 -7,24 -1,2 -1,4 0,7 0,1 0,3 0,5 1,2 3,7 3,7 0,0 6,8 6,8 0,1 10,8 10,8 0,0 12,3 12,3 0,0 7,0 9,-1 11,-2 14,-5 16,-7 3,-3 5,-4 6,-6 10,-11 22,-34 38,-61 5,-1 7,-3 18,1 16,7 55,43 91,95 36,52 73,120 101,189 4,9 3,13 2,19 -2,6 -7,14 -14,23 -14,20 -41,48 -41,91 0,23 8,44 21,59 14,15 31,23 47,26 16,4 31,4 45,1 14,-2 26,-5 39,-17 6,-6 10,-10 16,-18 6,-7 13,-17 21,-28 9,-11 20,-27 30,-40 -13,23 -20,42 -35,67 -24,38 -79,133 -124,217 -45,82 -112,197 -148,254 -95,147 -154,242 -190,314 -35,71 -48,121 -49,169 0,24 0,41 8,60 8,19 20,31 38,49 51,51 157,102 271,147 113,44 230,79 307,79l71 0 7 -96c8,-107 20,-164 36,-198 9,-17 36,-54 64,-85 15,-15 29,-29 42,-40 12,-11 24,-18 26,-19 31,-13 53,-40 80,-82 18,-29 51,-67 62,-76 60,-50 156,-64 209,-39 13,7 18,10 24,16 5,7 12,18 22,38 27,58 55,88 106,119 46,28 74,65 88,117 14,52 12,118 -8,198 -10,37 -20,78 -23,92l-17 73 85 -14c65,-11 169,-44 288,-88 118,-44 249,-99 359,-152 143,-69 220,-118 280,-183 21,-23 39,-46 41,-78 2,-31 -7,-62 -22,-119 -9,-31 -23,-112 -30,-172 -25,-202 -56,-388 -108,-634 -19,-93 -26,-138 -34,-188 33,119 70,218 114,275 24,32 51,55 83,64 33,8 69,-4 95,-28l78 -73 -139 -9 -30 -2 2 -150c3,-191 14,-262 40,-314 13,-25 38,-41 65,-41 5,0 8,0 13,0 5,-1 12,3 26,-14 7,-9 8,-25 6,-33 -3,-8 -7,-12 -9,-14 -5,-5 -8,-6 -11,-8 -17,-11 -31,-14 -49,-14l-1 0c-1,0 -33,-4 -55,-9 -32,-7 -38,-10 -71,-44 -36,-35 -37,-38 -50,-87 -9,-33 -16,-56 -23,-74 -8,-19 -17,-34 -32,-44 -6,-3 -11,-7 -20,-9l0 0z"/>
  <g id="_754526368">
   <path class="fil2" d="M2805 3206c-40,-12 -66,-49 -102,-146 -61,-170 -58,-215 19,-264 58,-37 149,-71 160,-60 9,9 19,64 61,319 18,112 21,148 12,154 -16,10 -111,8 -150,-3l0 0z"/>
   <path class="fil2" d="M3003 3184c-17,-32 -37,-142 -53,-288 -12,-102 -8,-164 11,-176 6,-3 57,0 115,7l106 12 -6 163c-7,203 -13,223 -75,272 -57,46 -79,48 -98,10l0 0z"/>
  </g>
  <path class="fil3" d="M1270 2236c43,-18 193,-51 264,-56 0,41 9,53 7,91 -2,43 -21,122 -49,140 -54,35 -185,8 -218,-11 -45,-25 -66,-131 -4,-164l0 0z"/>
  <path class="fil3" d="M3956 2057c-30,-60 -53,-110 -53,-110 1,-2 182,14 227,20 22,3 99,12 101,14 29,71 -58,79 -98,132 -96,42 -147,43 -177,-56l0 0z"/>
  <path class="fil4" d="M2869 749l-73 37c-40,20 -126,88 -190,150 -110,107 -147,113 -94,14 13,-24 17,-43 9,-43 -36,0 -147,99 -178,158 -38,75 -76,67 -76,-16 0,-35 -11,-53 -28,-48 -28,10 -117,129 -134,180 -7,19 -17,20 -41,2 -17,-14 -63,-36 -102,-49 -71,-24 -72,-23 -59,41 10,48 -9,107 -73,232 -47,92 -93,167 -101,167 -8,0 -22,-31 -31,-70l-15 -71 -53 87c-33,55 -53,122 -53,180 0,115 -31,137 -300,216 -253,74 -287,109 -274,287 16,213 135,330 351,346l134 10 0 73c0,95 19,144 58,144 17,0 31,15 31,33 0,22 22,33 63,33 75,0 212,86 222,139 5,25 -58,80 -197,174 -187,125 -203,142 -192,196 11,53 -6,74 -140,179 -142,111 -201,186 -201,256 0,16 -15,43 -34,58 -47,39 -22,259 37,323 23,26 42,51 42,58 0,6 -55,1 -123,-11 -162,-29 -337,19 -592,165 -339,194 -481,406 -460,688 21,287 142,355 1026,578 340,85 784,212 987,281 303,103 405,128 562,137 165,9 205,4 284,-36 98,-51 130,-107 108,-195 -12,-49 -2,-60 86,-99 106,-47 422,-94 535,-79 37,5 82,10 100,11 54,5 106,28 192,42 85,15 182,44 261,17 78,-28 151,-27 268,-221l245 -608c39,-135 123,-316 39,-397 -43,-43 -56,-76 -52,-131 14,-157 -138,-189 -377,-81 -168,76 -214,122 -252,250l-28 95 -36 -56c-44,-67 -82,-252 -82,-399 0,-58 -20,-170 -44,-247 -58,-184 -57,-189 24,-121 72,61 96,57 159,-23 27,-34 75,-53 156,-64 64,-9 145,-31 180,-49 57,-29 68,-28 105,6 51,46 128,30 213,-43 55,-48 62,-69 68,-222 3,-93 -4,-192 -17,-220 -71,-157 -171,-272 -209,-240 -18,15 -37,-3 -64,-63 -59,-136 -204,-173 -260,-68 -26,49 -11,124 37,179 40,44 9,139 -56,174 -60,32 -63,31 -78,-32 -11,-43 -29,-56 -76,-56 -95,0 -158,-57 -174,-158 -8,-51 -33,-102 -59,-119 -60,-43 -38,-86 85,-173 72,-51 92,-75 67,-80 -48,-10 -183,94 -237,182 -23,39 -42,102 -42,142 0,50 -11,73 -34,73 -23,0 -33,-24 -32,-84 1,-91 21,-133 120,-255 67,-82 80,-125 81,-264 1,-74 5,-80 59,-69 38,7 52,2 42,-14 -37,-60 -298,-58 -274,2 6,15 18,43 26,62 9,24 -4,44 -37,62 -48,24 -49,25 -3,14 71,-18 86,29 26,86 -88,83 -215,171 -300,207 -95,39 -408,22 -408,-23 0,-15 54,-59 120,-99 138,-84 202,-147 181,-179 -48,-79 -433,-64 -609,24 -136,67 -147,119 -28,135 102,14 252,82 263,120 5,14 -50,53 -121,86 -121,57 -138,59 -285,39 -181,-25 -313,-81 -349,-148 -15,-26 -32,-87 -39,-136 -13,-94 -17,-95 -151,-66 -80,18 -58,47 28,37 77,-9 78,-9 78,77 0,48 14,107 32,133 52,74 250,147 429,159 154,10 162,13 162,66 0,51 -6,54 -80,40 -44,-8 -96,-21 -117,-28 -21,-8 -29,-5 -19,7 10,11 69,35 132,54 92,27 117,45 130,94 16,60 15,61 -85,61 -122,0 -379,-42 -434,-71 -27,-14 -39,-46 -39,-109 0,-83 -79,-282 -103,-259 -6,6 11,51 37,101 30,58 44,120 40,175l-7 85 -107 -114c-59,-62 -149,-132 -200,-154 -121,-53 -116,-48 -80,-91 28,-34 26,-35 -20,-11 -61,33 -84,-6 -64,-109 17,-82 4,-84 -39,-5l-34 61 -1 -73c0,-41 16,-105 35,-142 33,-65 33,-68 -2,-55 -27,11 -35,6 -26,-16 6,-18 24,-75 40,-129 15,-53 44,-121 64,-152 76,-115 72,-120 -26,-31 -71,66 -134,99 -221,120 -66,15 -138,37 -159,48 -49,25 -51,115 -4,162 47,47 60,44 32,-8 -48,-90 -10,-124 162,-144 85,-10 105,-6 105,22 0,18 -10,28 -21,21 -11,-6 -14,10 -7,38 12,47 10,48 -30,17 -39,-31 -40,-30 -13,4 22,28 23,49 5,82 -32,60 -30,77 10,61 18,-7 33,-4 33,7 0,41 -185,37 -271,-6 -157,-78 -254,-337 -157,-419 21,-18 102,-50 179,-71 77,-20 193,-67 258,-104l117 -66 -10 -122c-11,-132 26,-172 51,-56 17,76 56,112 56,51 0,-22 40,-105 89,-184 86,-140 112,-154 67,-35 -12,31 -13,57 -2,57 23,0 68,-121 68,-183 0,-23 10,-36 22,-28 13,7 23,48 23,89 0,59 -18,93 -80,149 -44,40 -94,81 -112,91 -17,10 -26,27 -19,38 17,28 245,-59 355,-135 49,-34 118,-91 153,-128 35,-37 78,-62 94,-56 40,15 38,-5 -12,-115 -39,-87 -39,-91 6,-173 57,-103 83,-106 67,-8 -7,42 -2,94 12,117 19,34 24,35 24,6 1,-38 132,-230 147,-215 5,5 -1,42 -12,83 -12,41 -13,89 -3,107 13,23 24,0 36,-75l17 -109 27 116c25,106 73,197 93,177 5,-5 -7,-38 -25,-73 -44,-83 -43,-146 3,-249l36 -82 17 104c19,116 35,151 68,151 12,0 16,-10 8,-22 -8,-13 -7,-55 2,-94l15 -70 41 76c28,54 36,103 27,161 -15,98 37,170 175,240 111,57 393,133 408,110 6,-10 -38,-54 -98,-98 -134,-99 -171,-155 -175,-269 -1,-49 3,-75 11,-57 7,18 47,67 88,110 41,42 105,122 141,177 67,102 74,102 68,3 -3,-54 -2,-54 32,-11 20,25 41,72 48,106 16,78 36,78 68,0 24,-58 25,-57 13,22 -8,54 -3,84 13,84 13,0 25,-10 25,-22 0,-12 20,-32 46,-46 44,-24 45,-23 9,31 -36,55 -35,57 49,111 106,70 261,112 348,94 91,-18 126,20 126,135 0,191 -112,342 -253,342 -64,0 -76,-13 -139,-143l-69 -143 147 12c81,7 151,16 157,21 5,5 -20,39 -56,76 -64,67 -64,68 -9,48 30,-11 70,-47 89,-80 29,-53 29,-62 0,-81 -19,-11 -72,-21 -118,-21 -93,-1 -226,-49 -288,-105 -32,-29 -39,-30 -39,-5 0,47 98,243 164,330 34,46 49,83 36,91 -14,8 -8,45 18,96 22,46 46,77 54,69 7,-8 9,-26 3,-41 -5,-15 18,-40 52,-56 34,-15 87,-40 118,-54 85,-39 166,-222 166,-374 0,-69 -6,-132 -13,-139 -7,-7 -83,-22 -168,-33 -85,-10 -198,-41 -250,-68l-95 -48 46 -76c49,-84 42,-92 -42,-44 -83,48 -93,42 -76,-50l15 -83 -56 51 -56 51 -58 -100c-74,-124 -110,-151 -90,-65 13,55 0,47 -111,-71 -69,-73 -132,-156 -139,-183 -7,-28 -21,-50 -30,-50 -21,0 -76,130 -73,172 1,15 -32,0 -73,-33 -40,-34 -74,-79 -75,-100 -2,-60 27,-47 71,31 22,38 45,64 51,59 6,-6 -16,-58 -47,-115 -58,-102 -99,-118 -99,-36 0,83 -44,66 -58,-23 -15,-97 -48,-106 -89,-25 -46,92 -59,81 -44,-37l15 -118zm-642 338l0 0c10,1 16,14 23,40 8,32 -2,45 -42,53 -60,11 -64,0 -22,-56 19,-25 32,-37 41,-37zm-238 112l0 0c16,-16 122,64 121,92 0,15 -14,51 -30,80 -28,51 -30,50 -64,-55 -20,-59 -32,-112 -27,-117zm1349 9l0 0 0 0c4,-5 31,31 59,79 62,109 47,116 -19,8 -27,-43 -45,-83 -40,-87zm-697 10l0 0c10,0 19,16 19,34 0,38 -2,39 -23,18 -20,-20 -18,-52 4,-52zm559 308l0 0 0 0c65,1 141,10 200,26 120,32 239,140 270,244 49,163 -70,294 -313,345 -83,18 -162,54 -120,56 14,0 32,15 39,34 15,41 0,40 -91,-5 -68,-34 -154,-180 -143,-244 2,-14 -4,-31 -14,-38 -24,-14 10,-372 39,-400 14,-14 68,-20 133,-18zm-19 28l0 0c95,-13 253,53 350,164 40,46 68,88 62,94 -6,7 -48,-1 -93,-16 -63,-20 -102,-21 -167,-1 -50,15 -112,58 -149,103 -35,42 -71,71 -79,62 -24,-24 -18,-317 8,-365 12,-23 37,-37 68,-41zm-812 43l0 0 0 0c125,0 214,374 134,564 -24,57 -27,79 -8,64 15,-12 48,-27 72,-33 24,-7 62,-19 83,-28 22,-9 39,-7 39,3 0,11 -55,48 -123,84 -68,35 -133,83 -145,105 -32,60 -68,52 -45,-9 19,-49 16,-50 -151,-51 -159,-1 -311,-46 -316,-94 -1,-9 -5,-34 -9,-57 -13,-66 50,-245 120,-342 67,-93 259,-206 349,-206zm-23 44l0 0c55,0 105,99 130,256 7,49 6,116 -3,148l-17 60 -76 -68c-71,-63 -83,-66 -228,-58 -84,4 -152,0 -152,-10 0,-10 20,-58 45,-107 49,-97 219,-221 301,-221l0 0zm1138 202l0 0c37,5 71,19 98,41l53 43 -52 55c-28,30 -93,65 -145,78 -267,68 -319,51 -249,-83 50,-97 185,-151 295,-134l0 0zm-772 43l0 0c12,0 22,10 22,22 0,12 -10,22 -22,22 -13,0 -23,-10 -23,-22 0,-12 10,-22 23,-22zm-580 133l0 0c87,1 194,37 274,107 57,50 47,86 -32,114 -175,61 -397,-6 -397,-120 0,-68 68,-102 155,-101zm802 0l0 0c12,0 22,10 22,23 0,12 -10,22 -22,22 -12,0 -22,-10 -22,-22 0,-13 10,-23 22,-23zm-313 89l0 0c13,0 24,10 24,23 0,12 -5,22 -10,22 -5,0 -16,-10 -24,-22 -7,-13 -3,-23 10,-23zm267 16l0 0 0 0c80,-6 164,-1 184,23 17,21 14,28 -13,28 -20,0 -36,-9 -36,-19 0,-11 -42,-10 -95,1 -160,34 -194,37 -194,18 0,-26 74,-44 154,-51zm811 155l0 0c18,-7 41,11 55,42 13,30 15,54 5,54 -11,0 -16,18 -10,39 10,42 -30,123 -133,269 -49,70 -63,114 -63,199 1,108 0,110 -84,135 -46,14 -121,26 -165,26 -117,0 -111,-69 12,-138 51,-28 97,-65 103,-82 7,-23 -2,-23 -43,4 -29,18 -75,40 -103,48 -43,13 -50,7 -50,-42 0,-32 10,-57 22,-57 63,0 272,-100 352,-168 99,-86 138,-194 96,-273 -18,-34 -17,-47 6,-56l0 0zm-277 52l0 0c13,0 24,10 24,22 0,12 -5,22 -10,22 -6,0 -16,-10 -24,-22 -7,-12 -3,-22 10,-22zm558 0l0 0c20,0 31,35 51,161 10,69 8,73 -23,33 -31,-38 -53,-194 -28,-194zm-909 147l0 0c16,9 5,26 -28,44 -64,36 -87,38 -87,10 0,-32 86,-72 115,-54l0 0zm-365 32l0 0c23,0 50,7 72,20 17,11 28,24 22,28 -22,15 -133,-9 -133,-28 0,-14 17,-20 39,-20l0 0zm-780 12l0 0 0 0c5,4 9,14 14,33 7,28 3,66 -9,85 -17,27 -19,23 -8,-17 10,-36 7,-48 -10,-38 -29,18 -32,-8 -5,-50 7,-11 13,-16 18,-13zm385 31l0 0c12,0 22,10 22,22 0,13 -10,23 -22,23 -12,0 -22,-10 -22,-23 0,-12 10,-22 22,-22zm667 184l0 0c14,-4 32,-1 56,5 25,6 68,11 97,11 51,0 52,4 44,181 -7,156 -15,185 -60,222 -104,84 -124,62 -156,-172 -23,-174 -23,-237 19,-247l0 0zm-98 22l0 0c7,7 23,76 34,154 11,77 26,173 34,213 13,72 13,72 -75,72 -102,0 -125,-21 -172,-155 -57,-159 -47,-195 66,-250 54,-26 105,-42 113,-34l0 0zm1420 48l0 0c71,17 127,99 129,190 3,83 30,108 47,44 8,-33 27,-44 64,-39 42,6 53,23 58,94 10,117 -30,203 -113,244 -137,66 -144,-23 -12,-145 51,-47 86,-92 79,-99 -7,-7 -30,0 -50,17 -108,87 -147,135 -159,197 -15,77 -100,145 -153,125 -22,-9 -29,-5 -20,10 8,14 52,21 98,17 76,-8 84,-3 104,63 22,69 20,73 -58,104 -103,41 -263,60 -335,40 -45,-13 -57,-33 -63,-104 -4,-49 4,-140 18,-202l25 -114 114 -14c129,-15 218,-82 218,-164 0,-29 -21,-93 -46,-143 -53,-104 -35,-144 55,-121l0 0zm-571 62l0 0c25,5 43,37 53,94 16,99 89,167 180,168 32,0 66,11 73,23 8,12 -6,22 -31,22 -86,0 -122,97 -123,331l-2 214 62 -1c67,-1 75,12 34,52 -73,73 -178,-31 -239,-237 -25,-84 -46,-164 -46,-178 0,-14 -9,-25 -21,-25 -25,0 -20,37 66,434 35,159 70,374 79,478 8,104 29,223 46,264 35,86 27,103 -87,203 -137,118 -849,398 -895,352 -5,-5 7,-61 26,-125 46,-158 8,-289 -97,-338 -46,-22 -76,-55 -85,-93 -33,-146 -273,-119 -358,40 -23,41 -52,75 -65,75 -36,0 -138,114 -164,185 -13,34 -24,107 -24,161 0,89 -5,99 -50,96 -161,-7 -487,-134 -576,-223 -81,-81 -37,-208 186,-538 49,-72 127,-207 175,-300 48,-94 107,-196 131,-226 38,-48 99,-201 80,-201 -4,0 -43,55 -88,123 -89,135 -131,156 -111,58 8,-41 -5,-103 -35,-172 -104,-236 -228,-351 -266,-248 -13,36 -21,40 -36,17 -25,-42 129,-176 272,-236l110 -46 221 53c121,30 311,64 421,76 110,12 249,27 309,34 115,13 273,-22 313,-69 12,-15 113,-46 223,-68 159,-33 213,-54 264,-104 38,-39 58,-77 50,-98 -10,-24 -2,-32 25,-27l0 0zm940 329l0 0c58,0 -4,205 -87,288 -25,25 -67,46 -92,46 -85,0 -70,-60 44,-174 62,-62 113,-124 113,-136 0,-13 10,-24 22,-24zm-2504 161l0 0c7,-6 18,6 26,26 8,21 9,43 3,49 -6,6 -17,-6 -25,-27 -8,-20 -10,-42 -4,-48zm-515 40l0 0c16,0 127,192 127,219 0,13 -25,48 -55,79 -64,64 -70,130 -21,224 52,100 45,173 -27,281 -87,130 -160,135 -375,25 -106,-54 -177,-127 -157,-160 28,-45 125,-23 238,54 111,77 175,98 175,58 0,-11 -43,-45 -95,-76 -161,-95 -261,-229 -261,-350 0,-61 152,-201 308,-284 72,-39 137,-70 143,-70l0 0zm1264 59l0 0 0 0c144,0 509,407 509,562 0,58 -9,69 -109,127 -142,81 -238,105 -262,67 -10,-15 -24,-69 -33,-119l-16 -92 -37 111c-45,140 -82,147 -259,49 -114,-64 -134,-85 -140,-146 -8,-81 61,-209 143,-262 52,-34 144,-33 234,3 25,10 39,-1 48,-34 17,-65 60,-34 60,43 0,34 12,119 26,188 19,97 34,126 65,126 75,0 154,-43 154,-84 0,-61 -102,-254 -185,-350 -66,-76 -84,-85 -176,-83 -174,2 -436,151 -504,282 -91,177 45,367 323,477 113,44 115,44 397,-8 58,-11 62,-8 33,18 -44,43 -236,104 -322,104 -45,0 -138,-41 -258,-112 -196,-118 -322,-225 -343,-292 -17,-51 3,-92 138,-254 87,-104 156,-159 298,-230 100,-50 197,-91 216,-91zm-790 13l0 0 0 0c7,7 9,41 5,76l-8 63 -14 -67c-14,-67 -7,-96 17,-72zm2559 1l0 0c24,24 -62,152 -117,172 -66,26 -64,25 -82,7 -27,-27 -16,-75 17,-75 17,0 62,-26 101,-58 38,-32 74,-53 81,-46zm-2882 238l0 0c11,0 21,15 21,33 0,35 -27,45 -52,19 -17,-17 3,-52 31,-52zm1007 109l0 0c130,-9 144,14 97,165 -44,136 -72,157 -158,115 -67,-33 -79,-84 -46,-187 25,-77 38,-87 107,-93zm-1050 62l0 0c2,-8 16,-6 41,0 25,7 45,18 45,26 -1,8 -10,28 -20,45 -16,25 -25,22 -44,-15 -17,-32 -25,-49 -22,-56zm-608 14l0 0c16,-2 34,10 48,36 22,41 18,46 -33,46 -43,0 -56,-10 -51,-37 5,-28 19,-43 36,-45zm3399 384l0 0c72,24 56,127 -44,332 -110,225 -116,242 -79,229 13,-4 55,-72 94,-152 44,-89 87,-147 113,-152 61,-11 68,69 -68,429 -136,360 -115,325 -170,437 -56,112 -147,241 -262,259 -158,25 -207,-34 -365,-61 -21,-34 49,-131 112,-155 47,-18 52,-31 40,-94 -7,-40 -28,-101 -45,-135 -30,-60 -30,-62 13,-39 75,40 72,29 -42,-146 -61,-94 -111,-178 -111,-188 0,-19 119,-110 144,-110 29,0 101,200 134,369 45,239 89,276 64,54 -11,-92 -20,-267 -19,-389 0,-254 34,-348 140,-385 115,-40 123,-14 72,251 -26,132 -41,245 -35,252 6,6 14,7 17,2 16,-24 129,-504 128,-546 0,-35 17,-51 66,-60 44,-9 78,-10 103,-2l0 0zm-3591 9l0 0c92,0 400,72 495,115l53 24 -76 138c-81,149 -98,277 -43,324 29,23 29,35 -4,97 -78,150 -38,325 121,522 92,113 121,110 43,-4 -97,-144 -133,-438 -62,-509 15,-15 84,3 209,56 103,43 244,91 313,106 70,16 126,38 126,49 0,31 159,424 181,449 38,42 19,-38 -56,-240 -94,-254 -113,-382 -79,-534 44,-196 154,-288 154,-128 0,34 17,115 38,182 35,115 38,118 50,54 14,-66 1,-187 -31,-304 -13,-49 -3,-73 58,-137 154,-162 247,-104 198,124 -30,141 -31,335 -1,317 13,-8 17,-23 10,-35 -15,-23 53,-288 82,-320 12,-13 38,-3 67,26 56,56 62,183 18,367 -35,143 -16,516 35,685 65,221 66,216 -9,254 -132,69 -289,45 -770,-117 -245,-82 -495,-172 -557,-201 -61,-30 -202,-91 -313,-138 -574,-240 -788,-387 -855,-589 -42,-129 43,-374 170,-493 65,-60 314,-140 435,-140l0 0zm-715 323l0 0 -23 62c-50,140 -1,372 103,486 28,31 29,47 7,90 -22,43 -21,47 3,24 47,-45 66,-33 43,27 -12,31 -13,56 -2,56 10,0 25,-15 32,-33 20,-53 59,-39 59,21 0,85 -21,87 -184,18 -70,-30 -98,-62 -164,-196l-79 -161 36 -125c20,-69 66,-158 103,-197l66 -72zm3751 63l0 0c6,6 8,29 4,50 -7,35 -10,35 -36,4 -21,-25 -22,-40 -4,-51 13,-8 30,-10 36,-3zm-308 177l0 0 91 143c75,118 84,140 47,129 -43,-14 -42,-9 11,90 69,131 73,176 12,144 -23,-13 -61,-23 -83,-22 -30,0 -24,9 22,34l62 34 -68 78c-37,42 -68,84 -68,93 0,9 -122,16 -272,17 -225,0 -293,9 -391,48 -83,33 -120,40 -126,21 -4,-14 -23,-75 -43,-136 -19,-60 -35,-171 -35,-247l0 -138 184 -46c101,-25 290,-90 421,-144l236 -98zm-1345 394l0 0 0 0c3,-23 26,27 69,167 83,273 152,394 259,454 48,27 87,53 87,59 0,19 -79,7 -146,-22 -96,-42 -134,-112 -212,-390 -41,-150 -60,-245 -57,-268zm-1800 71l0 0c7,3 12,23 17,62 7,45 1,67 -18,67 -44,0 -57,-39 -31,-88 16,-30 25,-45 32,-41zm79 51l0 0c13,-8 23,11 23,43 0,32 -10,57 -23,57 -12,0 -22,-19 -22,-43 0,-24 10,-49 22,-57zm72 20l0 0c4,-4 9,1 17,14 12,18 22,46 22,61 0,15 -9,28 -22,28 -12,0 -22,-28 -21,-62 0,-23 1,-37 4,-41l0 0zm67 40l0 0c4,-1 11,3 20,12 13,13 21,36 16,50 -11,33 -41,3 -41,-41 0,-13 2,-19 5,-21l0 0zm82 18l0 0c11,0 25,15 32,33 7,19 4,34 -6,34 -11,0 -25,-15 -32,-34 -7,-18 -4,-33 6,-33z"/>
  <path class="fil5" d="M7121 2112c29,-33 111,-87 175,-107 41,-13 130,-122 171,-143 119,-56 223,-125 277,-204 52,-78 95,-197 95,-255 0,-60 -42,-114 -98,-152 -259,-99 -344,-85 -596,-131 -71,-14 -76,-12 -265,-88 -106,-42 -425,-165 -495,-204 -107,-45 -188,-53 -437,-130 -183,1 -394,4 -523,42 -136,23 -267,81 -458,234 -35,62 -88,143 -101,143 -15,0 -89,-43 -94,-61 -5,-22 6,-101 75,-194 70,-93 148,-173 246,-265 222,-208 574,-473 700,-521 134,-51 458,-47 683,3 104,23 284,98 569,219 96,41 315,124 381,150 72,29 242,115 285,200 8,17 32,120 41,160 29,126 217,305 383,476 -132,314 -192,461 -287,570 -75,87 -200,166 -323,207 -74,25 -171,70 -261,130 -206,154 -245,55 -143,-79l0 0z"/>
  <path class="fil6" d="M5723 6784c-121,18 -183,-13 -234,-67 -36,-106 -82,-95 -152,-171 29,-216 140,-303 130,-363 -10,-62 -198,-64 -404,-63 -181,1 -334,22 -594,48 -259,26 -389,33 -437,9 -116,-54 -237,-100 -310,-162 -11,-47 -8,-146 -7,-177 239,-341 356,-374 511,-382 272,20 695,108 695,108 -199,-189 -389,-334 -390,-527 0,-163 223,-462 669,-938 107,-115 61,-203 65,-346 59,-356 101,-673 168,-821 -164,-130 -156,-247 -183,-499 -93,0 -275,-268 -340,-398 -56,-161 -232,-124 -233,-318 5,-91 48,-219 91,-325 43,-110 77,-195 206,-401 28,-25 157,-135 186,-149 50,-24 258,-73 394,-86 149,-13 473,-1 541,17 108,35 316,104 472,162 265,113 524,205 750,232 257,32 352,58 435,127 61,49 85,111 80,169 -11,115 -155,285 -295,354 -98,62 -163,146 -234,194 -64,42 -137,49 -191,91 -146,153 -138,227 -103,369 19,72 47,127 265,554 229,-219 343,-333 628,-433 183,-63 306,-46 594,-33 205,10 310,48 447,107 349,151 507,356 650,659 58,111 129,291 149,428 20,161 -52,332 -157,437 -62,62 -179,117 -297,149 -289,78 -358,131 -520,292 -137,137 -242,294 -393,640 -84,193 -135,281 -235,386 -142,149 -332,265 -715,466 -323,168 -457,242 -873,491 -191,114 -371,218 -414,238 -83,40 -147,40 -165,22 -56,-97 -79,-131 -250,-90l0 0z"/>
  <polygon class="fil2 str0" points="5217,1092 5064,1140 4940,1250 4866,1363 4808,1478 4806,1566 4855,1654 4960,1751 5022,1816 5247,1689 5244,1350 5244,1112 "/>
  <polygon class="fil2 str0" points="5935,1012 5846,1164 5779,1339 5736,1728 5867,1856 5915,1952 5971,1938 6095,1886 6409,1837 6585,1745 6564,1436 6422,1173 6259,1055 6131,1013 6026,989 "/>
  <polygon class="fil2 str0" points="5403,2414 5296,2421 5258,2451 5256,2565 5295,2779 5411,2898 5549,2928 5650,2904 5735,2883 5766,2792 5789,2583 5773,2500 5608,2451 "/>
  <g id="_754528960">
   <path class="fil4" d="M7102 278l156 60c307,118 422,171 448,207 14,19 39,103 54,185 27,143 35,156 213,341l185 192 -35 119c-66,223 -190,444 -318,569 -67,65 -138,118 -158,118 -92,0 -279,76 -342,139 -38,38 -114,86 -169,107 -151,58 -144,121 48,458l90 159 174 -139c95,-76 226,-160 292,-186 417,-165 910,-151 1279,37 268,136 414,272 592,548 110,172 195,457 197,666 3,234 -165,429 -464,535 -271,98 -415,183 -582,347 -137,136 -173,190 -314,481 -88,180 -188,368 -222,418 -86,125 -339,289 -823,533 -451,228 -691,364 -912,519 -179,125 -419,250 -479,249 -24,0 -62,-11 -83,-23l0 0c-21,-13 -39,-43 -39,-68 0,-37 -9,-42 -50,-27 -27,10 -112,19 -187,19 -160,0 -230,-46 -230,-151 0,-49 -8,-62 -33,-53 -21,8 -47,-8 -69,-40 -33,-51 -30,-63 45,-215 90,-185 91,-183 -109,-218 -102,-18 -201,-16 -412,10 -642,76 -869,70 -972,-25 -32,-29 -75,-54 -95,-54 -21,0 -56,-14 -79,-31 -37,-27 -39,-38 -15,-91 21,-46 21,-68 2,-91 -19,-24 -25,-42 23,-112 47,-70 167,-195 239,-251 72,-56 153,-92 252,-99 100,-6 194,9 255,18 61,8 123,26 123,26 142,30 178,34 178,21l0 0c0,-5 -28,-37 -62,-72 -34,-35 -94,-102 -133,-151 -24,-30 -41,-49 -69,-88 -28,-39 -49,-109 -28,-163 22,-54 31,-94 59,-153 56,-120 88,-165 115,-203 26,-38 66,-91 90,-116 24,-25 244,-240 244,-240l245 -239 12 -200c11,-176 134,-858 163,-905 6,-10 -20,-45 -58,-79 -61,-55 -70,-79 -82,-223 -13,-160 -14,-162 -123,-255 -123,-104 -230,-247 -252,-337 -8,-33 -57,-97 -109,-143 -51,-45 -100,-101 -108,-123 -20,-54 15,-210 98,-434l69 -186 -58 -60c-32,-34 -58,-77 -58,-96 0,-124 478,-596 837,-827 251,-161 351,-192 617,-192 245,0 355,27 702,176l165 70 70 32zm-782 6443l0 0c100,-59 327,-196 504,-303 178,-107 463,-264 634,-350 533,-266 743,-450 875,-764 213,-505 349,-702 592,-859 123,-80 195,-107 453,-174 216,-55 357,-280 331,-529 -15,-146 -59,-212 -59,-88 0,223 -121,336 -540,507 -314,128 -484,317 -768,859 -98,185 -210,384 -250,442 -89,130 -352,400 -370,381 -8,-7 42,-86 109,-175 110,-144 350,-549 350,-589 0,-48 183,-356 305,-512 242,-310 341,-384 757,-564 63,-27 141,-77 172,-109 75,-79 146,-284 146,-424 0,-294 -295,-626 -719,-808 -148,-64 -181,-69 -449,-74 -258,-5 -309,1 -466,51 -214,69 -311,128 -429,263 -117,132 -130,189 -73,302 89,174 181,436 260,745 80,308 81,315 83,789 2,499 -30,809 -91,884 -30,36 -31,34 -18,-27 58,-266 51,-1082 -13,-1446 -71,-410 -214,-791 -480,-1283 -271,-499 -277,-581 -66,-788 109,-106 115,-116 85,-161 -45,-67 -14,-60 52,11l55 58 0 -54c0,-30 -20,-93 -45,-141 -58,-114 -41,-125 31,-19l58 85 0 -81c0,-89 -43,-204 -124,-333 -30,-47 -45,-86 -32,-86 12,0 37,24 57,54 52,79 91,85 267,44 178,-42 232,-33 232,37 0,59 -85,182 -114,164 -13,-9 -11,-26 6,-46 43,-52 -12,-94 -73,-56 -26,16 -53,21 -61,11 -7,-11 -41,-22 -75,-26 -58,-7 -60,-4 -37,55 31,81 62,99 143,84 64,-11 65,-10 24,23 -24,19 -67,34 -95,34 -40,0 -51,12 -51,57 0,49 7,55 50,42 145,-45 281,-166 338,-304 43,-104 21,-170 -86,-251 -69,-52 -116,-65 -352,-91 -364,-40 -400,-52 -803,-250 -11,-5 27,49 85,119 70,86 96,135 81,150 -15,16 -69,-20 -166,-108 -170,-155 -357,-273 -479,-300 -156,-35 -515,-28 -722,13 -182,37 -200,46 -250,120 -30,44 -54,91 -54,105 0,14 -17,39 -37,56 -33,27 -36,24 -25,-31 6,-33 8,-61 3,-61 -4,0 -59,103 -122,228 -133,264 -220,538 -148,466 35,-35 74,-34 45,1 -12,16 -30,53 -39,84 -13,45 -11,50 13,27 44,-41 70,-33 54,16 -10,33 3,52 58,80 70,36 73,36 110,-14 39,-51 38,-54 -56,-158 -121,-135 -134,-198 -69,-341 54,-118 124,-203 219,-265 69,-46 283,-105 283,-79 0,10 -13,22 -28,27 -20,7 -28,88 -28,302 0,241 6,294 34,300 21,6 10,18 -31,35 -173,71 -335,256 -311,356 41,170 195,337 312,337 68,0 74,-6 74,-67 0,-54 -15,-74 -85,-109 -46,-24 -123,-86 -170,-138l-84 -94 57 -30c105,-55 300,-59 498,-11 291,71 294,80 46,205 -226,113 -231,118 -201,183 18,40 58,59 187,89 200,47 268,48 415,4 150,-44 222,-109 313,-277l74 -139 -82 15c-112,21 -82,-19 39,-53 121,-33 288,-23 301,19 8,24 -9,28 -79,19l-90 -12 -115 177c-141,216 -234,277 -518,339 -81,18 -78,77 6,109 74,28 92,72 22,53 -28,-7 -39,-3 -30,13 10,14 2,18 -19,10 -26,-10 -38,7 -48,69 -19,111 -40,138 -116,147 -48,5 -64,18 -61,49 41,394 23,631 -48,631 -24,0 -26,-16 -10,-72 27,-95 26,-442 -2,-484 -15,-24 -21,14 -21,125 -1,228 -59,532 -132,687 -35,73 -127,204 -205,290 -542,598 -649,764 -611,951 26,133 250,382 441,491 58,33 116,79 128,104 31,57 12,55 -74,-11 -105,-80 -369,-146 -687,-172 -282,-23 -284,-23 -378,33 -85,49 -146,113 -207,216 -11,18 41,-20 116,-86 84,-72 153,-115 177,-111 32,7 18,24 -59,78 -124,85 -312,283 -312,328 0,35 66,80 116,79 16,0 54,-41 85,-91 75,-123 270,-287 367,-309 43,-10 106,-9 139,1l61 18 -60 2c-33,1 -85,11 -117,23 -85,33 -255,198 -306,299l-45 89 49 40c61,49 142,50 523,7 159,-18 407,-33 550,-33 243,-1 262,-4 294,-50 46,-65 45,-224 -2,-313 -20,-39 -108,-157 -197,-261 -242,-285 -283,-388 -215,-540 23,-51 58,-107 78,-124 49,-40 47,-20 -7,69 -91,149 -39,305 201,595 75,92 153,197 172,234 38,71 48,250 21,349 -22,82 43,95 121,24 66,-61 182,-94 336,-94l106 -1 -98 -120c-90,-111 -107,-148 -135,-297 -14,-72 69,-352 149,-501 37,-71 108,-174 156,-229 88,-99 88,-101 47,-150 -23,-27 -44,-53 -47,-57 -2,-5 -20,3 -38,19 -75,62 -100,20 -169,-284 -54,-241 15,-391 346,-761 235,-263 262,-321 273,-579 7,-162 1,-233 -26,-298 -20,-48 -32,-91 -27,-96 25,-25 85,116 107,249 13,81 31,139 40,130 8,-10 44,-98 79,-196 40,-111 67,-160 72,-131 7,51 -85,314 -193,547 -43,94 -128,214 -226,323 -280,307 -400,502 -400,649 1,57 1,57 46,-17 54,-88 83,-79 37,12 -50,98 -65,221 -38,319 44,163 88,90 89,-146 0,-79 13,-152 31,-177 26,-37 29,-22 19,115 -11,154 21,319 61,319 11,0 41,-30 67,-67 35,-49 44,-84 33,-133 -15,-70 4,-200 30,-200 9,0 16,38 18,85 2,89 40,182 74,182 11,0 56,-68 100,-151 79,-149 261,-363 368,-432 55,-35 55,-36 16,-102 -44,-77 -47,-94 -18,-94 12,0 27,20 35,45 27,83 49,44 41,-73 -7,-112 -6,-114 23,-53l30 64 14 -90c15,-92 96,-209 174,-251 65,-35 75,-8 19,51 -125,132 -166,366 -81,460 28,31 33,47 15,47 -21,0 -25,24 -14,84 40,235 40,220 5,177 -18,-22 -38,-82 -46,-134 -21,-136 -38,-155 -112,-127 -95,36 -304,263 -388,421l-75 142 102 -70c55,-39 153,-84 217,-100 64,-16 129,-48 146,-71 28,-38 30,-36 30,26 0,36 -16,86 -35,110 -30,37 -34,37 -23,4 31,-99 -251,42 -485,241 -304,259 -542,635 -564,890 -18,209 118,386 381,496 182,75 529,180 601,181 44,1 45,2 6,25 -59,34 -249,5 -477,-73 -365,-125 -634,-123 -789,4 -131,109 -274,399 -196,399 155,-152 247,-339 458,-370 117,-16 129,21 15,44 -165,33 -342,216 -374,389 -12,65 -6,85 35,119 53,43 113,48 253,23 80,-15 88,-23 129,-145 48,-142 120,-265 177,-300 20,-13 85,-29 145,-36 91,-11 100,-9 54,11 -206,89 -210,93 -261,243 -50,145 -65,290 -34,321 31,31 143,-10 324,-118l0 0zm-174 -915l0 0c8,12 18,22 24,22 5,0 9,-10 9,-22 0,-12 -10,-22 -23,-22 -13,0 -18,10 -10,22zm-58 -147l0 0 0 0c37,91 57,55 24,-44 -59,-179 9,-398 214,-693 130,-187 86,-178 -53,11 -184,249 -234,368 -222,527 6,74 22,164 37,199zm-1143 -804l0 0 0 0c-21,34 -30,61 -20,60 24,-2 194,-221 181,-234 -12,-12 -112,96 -161,174zm-34 -58l0 0c0,15 50,-25 110,-88 60,-63 105,-119 100,-125 -16,-15 -210,182 -210,213zm1558 -81l0 0c0,12 10,22 22,22 12,0 22,-10 22,-22 0,-12 -10,-22 -22,-22 -12,0 -22,10 -22,22zm-1562 -57l0 0 -1 0c-32,57 23,41 90,-26 33,-34 108,-98 168,-143 203,-153 311,-342 358,-625 20,-119 -19,-103 -52,22 -16,59 -71,186 -121,284 -77,147 -122,202 -258,315 -91,76 -174,153 -184,173zm2098 -360l0 0c-2,21 7,39 20,39 12,0 21,-43 20,-95 -2,-80 -5,-86 -20,-39 -10,31 -19,74 -20,95zm-1482 -606l0 0c-7,12 2,22 21,22 19,0 35,-10 35,-22 0,-12 -10,-22 -21,-22 -12,0 -27,10 -35,22zm411 -1068l0 0 0 0c66,58 157,48 320,-34 112,-57 126,-56 209,19 67,61 84,36 26,-38 -27,-33 -41,-67 -33,-75 7,-8 69,-15 136,-15 126,-2 157,-20 71,-43 -96,-26 -174,-14 -288,44 -167,84 -317,124 -413,108l-83 -13 55 47zm-9 -588l0 0 0 0c21,54 47,99 57,99 25,0 25,-4 -14,-98 -34,-81 -8,-47 56,-99 0,-11 72,-26 161,-33 201,-18 306,-47 381,-106 52,-41 58,-61 58,-190 0,-254 -166,-501 -395,-587 -138,-52 -405,-63 -365,-16 17,21 6,65 -40,161 -69,146 -112,321 -112,456 0,77 -6,87 -61,94l-61 9 60 25c102,44 236,182 275,285zm531 -254l0 0 101 -45 0 -139c0,-95 -14,-169 -46,-235 -82,-169 -343,-361 -492,-362 -48,-1 -72,19 -116,94 -31,53 -71,139 -90,192 -34,96 -34,96 16,81 116,-36 154,-38 218,-11 77,31 155,163 155,260 0,34 -21,101 -47,149l-46 86 122 -13c68,-7 169,-33 225,-57zm-550 -50l0 0c36,-37 -10,-158 -57,-149 -38,7 -60,87 -39,142 14,38 62,41 96,7zm206 -120l0 0c23,-27 21,-44 -9,-90 -21,-32 -50,-54 -64,-49 -37,12 -46,102 -14,140 33,41 53,41 87,-1l0 0zm201 2991l0 0c0,-12 -10,-21 -22,-21 -13,0 -23,15 -23,34 0,19 10,29 23,21 12,-7 22,-23 22,-34zm-938 -828l0 0c26,-64 53,-157 59,-206 22,-157 26,-456 6,-456 -10,0 -22,13 -27,28 -4,16 -15,48 -24,73 -9,24 -19,59 -22,77 -3,19 -16,79 -29,135 -38,157 -59,466 -32,466 13,0 44,-53 69,-117l0 0zm92 -706l0 0c0,-12 -4,-22 -9,-22 -6,0 -16,10 -24,22 -7,12 -3,22 10,22 13,0 23,-10 23,-22zm-10 -284l0 0 -13 -83 36 83c30,69 48,84 101,84 62,0 64,-4 65,-106 0,-58 6,-142 13,-187 15,-89 12,-91 -153,-120l-84 -15 11 130 11 131 -27 -134c-25,-120 -33,-133 -83,-133 -48,0 -56,11 -61,78 -7,117 62,294 128,327 30,16 58,28 62,28 4,1 1,-37 -6,-83l0 0zm290 -111l0 0c13,-136 10,-161 -18,-161 -50,0 -90,297 -46,341 30,30 48,-22 64,-180zm1524 -514l0 0c67,-47 161,-98 210,-113 261,-79 406,-230 556,-580l81 -189 -74 -63c-238,-206 -293,-286 -322,-462 -20,-128 -104,-201 -341,-296 -104,-42 -310,-128 -456,-191 -147,-64 -342,-135 -434,-160 -213,-56 -548,-61 -687,-10 -193,72 -717,490 -876,699 -150,197 -157,214 -105,262 48,43 49,43 86,-29 22,-43 20,-50 -11,-50 -35,0 -34,-4 3,-45 22,-25 74,-66 115,-91 40,-25 73,-56 73,-70 0,-43 115,-175 171,-196 63,-24 141,7 141,57 0,18 -31,48 -69,68 -108,56 -61,62 92,11 92,-30 198,-46 310,-46l171 0 -10 -66c-11,-71 43,-178 89,-178 15,0 103,80 196,177 125,131 204,193 301,237 73,32 194,87 270,121 200,91 312,126 463,143l133 15 -67 -59c-153,-134 -418,-323 -533,-379 -67,-33 -123,-65 -123,-70 0,-30 281,95 344,153 23,22 51,40 61,40 10,0 87,50 171,111 152,110 203,133 203,89 0,-12 -12,-22 -26,-22 -14,0 -20,-7 -12,-14 8,-8 -30,-79 -85,-157 -67,-96 -85,-134 -55,-118 24,13 44,31 44,39 0,9 29,46 63,83 34,37 77,99 94,139 18,40 40,72 50,72 10,0 13,9 6,20 -13,21 82,125 114,125 46,1 178,70 212,110 71,85 71,159 -2,313 -68,146 -158,226 -336,300 -36,15 -85,60 -109,100 -33,57 -54,70 -95,63 -58,-12 -137,57 -162,143 -23,74 28,64 167,-36l0 0zm-1715 -25l0 0c55,-43 55,-44 8,-44 -71,-1 -119,22 -119,57 0,43 46,38 111,-13zm-311 -34l0 0c-15,-18 -38,-33 -50,-33 -12,0 -10,15 6,33 15,19 37,34 49,34 13,0 10,-15 -5,-34zm-106 -376l0 0c22,-16 49,-82 62,-146 28,-150 28,-439 0,-456 -28,-18 -129,37 -209,113l-65 61 53 20c158,58 204,221 98,346 -30,37 -55,73 -55,80 0,24 77,13 116,-18l0 0zm-217 -171l0 0c0,-61 -8,-76 -44,-76 -53,0 -73,86 -32,136 42,51 76,24 76,-60zm141 -57l0 0c-8,-68 -56,-95 -76,-43 -19,50 5,102 47,102 26,0 34,-17 29,-59z"/>
  </g>
  <path class="fil7 str0" d="M7532 1514c0,0 -222,-8 -217,0 4,7 64,164 64,164l123 29 149 -82 35 -104 -154 -7z"/>
  <path class="fil5" d="M2808 3819c130,-9 144,14 97,165 -44,136 -72,157 -158,115 -67,-33 -79,-84 -46,-187 26,-77 38,-87 107,-93zm106 -361l0 0c-19,0 -116,41 -216,91 -142,71 -211,126 -298,230 -135,162 -155,203 -138,254 21,67 147,174 343,292 120,71 213,112 258,112 86,0 278,-61 322,-104 29,-26 25,-29 -33,-18 -282,52 -284,52 -397,8 -278,-110 -414,-300 -323,-477 68,-131 330,-280 504,-282 92,-2 110,7 176,83 83,96 185,289 185,350 0,41 -79,84 -154,84 -31,0 -46,-29 -65,-126 -14,-69 -26,-154 -26,-188 0,-77 -43,-108 -60,-43 -8,33 -23,44 -48,34 -90,-36 -182,-37 -234,-3 -81,53 -151,181 -143,262 6,61 26,82 140,146 177,98 214,91 259,-49l37 -111 16 92c9,50 23,104 33,119 24,38 120,14 262,-67 100,-58 109,-69 109,-127 0,-155 -365,-562 -509,-562l0 0z"/>
 </g>
</svg>
